<svg width="104" height="131" viewBox="0 0 104 131" fill="none" xmlns="http://www.w3.org/2000/svg">
<path d="M0 130.684V0H69.264C73.3093 1.38133 77.0587 3.108 80.512 5.18C84.064 7.25201 87.0733 9.52134 89.54 11.988C92.204 14.4547 94.572 17.2173 96.644 20.276C98.716 23.3347 101.133 27.7747 103.896 33.596V130.684H0ZM3.7 126.836H100.048V33.448C98.272 31.8693 96.5453 30.5373 94.868 29.452C93.2893 28.268 90.9707 27.1827 87.912 26.196C85.4453 25.5053 82.6827 25.012 79.624 24.716C76.664 24.42 74.148 24.2227 72.076 24.124L68.968 23.976L69.264 20.868C69.6587 17.4147 69.8067 14.3067 69.708 11.544C69.708 8.68267 69.5107 6.06801 69.116 3.70001H3.7V126.836ZM16.428 32.264C15.6387 32.264 14.948 31.968 14.356 31.376C13.764 30.784 13.468 30.1427 13.468 29.452C13.468 28.6627 13.764 27.972 14.356 27.38C14.948 26.788 15.6387 26.492 16.428 26.492H46.768C47.5573 26.492 48.1987 26.788 48.692 27.38C49.284 27.972 49.58 28.6627 49.58 29.452C49.58 30.1427 49.284 30.784 48.692 31.376C48.1987 31.968 47.5573 32.264 46.768 32.264H16.428ZM16.428 48.248C15.6387 48.248 14.948 47.952 14.356 47.36C13.764 46.768 13.468 46.0773 13.468 45.288C13.468 44.4987 13.764 43.8573 14.356 43.364C14.948 42.772 15.6387 42.476 16.428 42.476H87.468C88.2573 42.476 88.948 42.772 89.54 43.364C90.132 43.8573 90.428 44.4987 90.428 45.288C90.428 46.0773 90.132 46.768 89.54 47.36C88.948 47.952 88.2573 48.248 87.468 48.248H16.428ZM16.428 64.084C15.6387 64.084 14.948 63.788 14.356 63.196C13.764 62.604 13.468 61.9133 13.468 61.124C13.468 60.3347 13.764 59.6933 14.356 59.2C14.948 58.608 15.6387 58.312 16.428 58.312H87.468C88.2573 58.312 88.948 58.608 89.54 59.2C90.132 59.6933 90.428 60.3347 90.428 61.124C90.428 61.9133 90.132 62.604 89.54 63.196C88.948 63.788 88.2573 64.084 87.468 64.084H16.428ZM16.428 79.92C15.6387 79.92 14.948 79.624 14.356 79.032C13.764 78.44 13.468 77.7493 13.468 76.96C13.468 76.1707 13.764 75.5293 14.356 75.036C14.948 74.444 15.6387 74.148 16.428 74.148H87.468C88.2573 74.148 88.948 74.444 89.54 75.036C90.132 75.5293 90.428 76.1707 90.428 76.96C90.428 77.7493 90.132 78.44 89.54 79.032C88.948 79.624 88.2573 79.92 87.468 79.92H16.428ZM16.428 95.756C15.6387 95.756 14.948 95.5093 14.356 95.016C13.764 94.424 13.468 93.7333 13.468 92.944C13.468 92.1547 13.764 91.464 14.356 90.872C14.948 90.28 15.6387 89.984 16.428 89.984H87.468C88.2573 89.984 88.948 90.28 89.54 90.872C90.132 91.464 90.428 92.1547 90.428 92.944C90.428 93.7333 90.132 94.424 89.54 95.016C88.948 95.5093 88.2573 95.756 87.468 95.756H16.428Z" fill="#0D0D0D"/>
</svg>
