<svg width="38" height="440" viewBox="0 0 38 440" fill="none" xmlns="http://www.w3.org/2000/svg">
<mask id="path-1-inside-1_447_317" fill="white">
<path d="M1.9233e-05 440L0 1.66103e-06L38 0L38 440L1.9233e-05 440Z"/>
</mask>
<path d="M38 440L38.5 440L38.5 436.071L38 436.071L37.5 436.071L37.5 440L38 440ZM38 428.214L38.5 428.214L38.5 420.357L38 420.357L37.5 420.357L37.5 428.214L38 428.214ZM38 412.5L38.5 412.5L38.5 404.643L38 404.643L37.5 404.643L37.5 412.5L38 412.5ZM38 396.786L38.5 396.786L38.5 388.929L38 388.929L37.5 388.929L37.5 396.786L38 396.786ZM38 381.071L38.5 381.071L38.5 373.214L38 373.214L37.5 373.214L37.5 381.071L38 381.071ZM38 365.357L38.5 365.357L38.5 357.5L38 357.5L37.5 357.5L37.5 365.357L38 365.357ZM38 349.643L38.5 349.643L38.5 341.786L38 341.786L37.5 341.786L37.5 349.643L38 349.643ZM38 333.929L38.5 333.929L38.5 326.071L38 326.071L37.5 326.071L37.5 333.929L38 333.929ZM38 318.214L38.5 318.214L38.5 310.357L38 310.357L37.5 310.357L37.5 318.214L38 318.214ZM38 302.5L38.5 302.5L38.5 294.643L38 294.643L37.5 294.643L37.5 302.5L38 302.5ZM38 286.786L38.5 286.786L38.5 278.929L38 278.929L37.5 278.929L37.5 286.786L38 286.786ZM38 271.071L38.5 271.071L38.5 263.214L38 263.214L37.5 263.214L37.5 271.071L38 271.071ZM38 255.357L38.5 255.357L38.5 247.5L38 247.5L37.5 247.5L37.5 255.357L38 255.357ZM38 239.643L38.5 239.643L38.5 231.786L38 231.786L37.5 231.786L37.5 239.643L38 239.643ZM38 223.929L38.5 223.929L38.5 216.071L38 216.071L37.5 216.071L37.5 223.929L38 223.929ZM38 208.214L38.5 208.214L38.5 200.357L38 200.357L37.5 200.357L37.5 208.214L38 208.214ZM38 192.5L38.5 192.5L38.5 184.643L38 184.643L37.5 184.643L37.5 192.5L38 192.5ZM38 176.786L38.5 176.786L38.5 168.929L38 168.929L37.5 168.929L37.5 176.786L38 176.786ZM38 161.071L38.5 161.071L38.5 153.214L38 153.214L37.5 153.214L37.5 161.071L38 161.071ZM38 145.357L38.5 145.357L38.5 137.5L38 137.5L37.5 137.5L37.5 145.357L38 145.357ZM38 129.643L38.5 129.643L38.5 121.786L38 121.786L37.5 121.786L37.5 129.643L38 129.643ZM38 113.929L38.5 113.929L38.5 106.071L38 106.071L37.5 106.071L37.5 113.929L38 113.929ZM38 98.2142L38.5 98.2142L38.5 90.3571L38 90.3571L37.5 90.3571L37.5 98.2142L38 98.2142ZM38 82.4999L38.5 82.4999L38.5 74.6428L38 74.6428L37.5 74.6428L37.5 82.4999L38 82.4999ZM38 66.7856L38.5 66.7856L38.5 58.9285L38 58.9285L37.5 58.9285L37.5 66.7856L38 66.7856ZM38 51.0713L38.5 51.0713L38.5 43.2142L38 43.2142L37.5 43.2142L37.5 51.0713L38 51.0713ZM38 35.357L38.5 35.357L38.5 27.4999L38 27.4999L37.5 27.4999L37.5 35.357L38 35.357ZM38 19.6427L38.5 19.6427L38.5 11.7856L38 11.7856L37.5 11.7856L37.5 19.6427L38 19.6427ZM38 3.92843L38.5 3.92843L38.5 -2.18558e-08L38 0L37.5 2.18556e-08L37.5 3.92843L38 3.92843ZM38 440L39 440L39 436.071L38 436.071L37 436.071L37 440L38 440ZM38 428.214L39 428.214L39 420.357L38 420.357L37 420.357L37 428.214L38 428.214ZM38 412.5L39 412.5L39 404.643L38 404.643L37 404.643L37 412.5L38 412.5ZM38 396.786L39 396.786L39 388.929L38 388.929L37 388.929L37 396.786L38 396.786ZM38 381.071L39 381.071L39 373.214L38 373.214L37 373.214L37 381.071L38 381.071ZM38 365.357L39 365.357L39 357.5L38 357.5L37 357.5L37 365.357L38 365.357ZM38 349.643L39 349.643L39 341.786L38 341.786L37 341.786L37 349.643L38 349.643ZM38 333.929L39 333.929L39 326.071L38 326.071L37 326.071L37 333.929L38 333.929ZM38 318.214L39 318.214L39 310.357L38 310.357L37 310.357L37 318.214L38 318.214ZM38 302.5L39 302.5L39 294.643L38 294.643L37 294.643L37 302.5L38 302.5ZM38 286.786L39 286.786L39 278.929L38 278.929L37 278.929L37 286.786L38 286.786ZM38 271.071L39 271.071L39 263.214L38 263.214L37 263.214L37 271.071L38 271.071ZM38 255.357L39 255.357L39 247.5L38 247.5L37 247.5L37 255.357L38 255.357ZM38 239.643L39 239.643L39 231.786L38 231.786L37 231.786L37 239.643L38 239.643ZM38 223.929L39 223.929L39 216.071L38 216.071L37 216.071L37 223.929L38 223.929ZM38 208.214L39 208.214L39 200.357L38 200.357L37 200.357L37 208.214L38 208.214ZM38 192.5L39 192.5L39 184.643L38 184.643L37 184.643L37 192.5L38 192.5ZM38 176.786L39 176.786L39 168.929L38 168.929L37 168.929L37 176.786L38 176.786ZM38 161.071L39 161.071L39 153.214L38 153.214L37 153.214L37 161.071L38 161.071ZM38 145.357L39 145.357L39 137.5L38 137.5L37 137.5L37 145.357L38 145.357ZM38 129.643L39 129.643L39 121.786L38 121.786L37 121.786L37 129.643L38 129.643ZM38 113.929L39 113.929L39 106.071L38 106.071L37 106.071L37 113.929L38 113.929ZM38 98.2142L39 98.2142L39 90.3571L38 90.3571L37 90.3571L37 98.2142L38 98.2142ZM38 82.4999L39 82.4999L39 74.6428L38 74.6428L37 74.6428L37 82.4999L38 82.4999ZM38 66.7856L39 66.7856L39 58.9285L38 58.9285L37 58.9285L37 66.7856L38 66.7856ZM38 51.0713L39 51.0713L39 43.2142L38 43.2142L37 43.2142L37 51.0713L38 51.0713ZM38 35.357L39 35.357L39 27.4999L38 27.4999L37 27.4999L37 35.357L38 35.357ZM38 19.6427L39 19.6427L39 11.7856L38 11.7856L37 11.7856L37 19.6427L38 19.6427ZM38 3.92843L39 3.92843L39 -4.37115e-08L38 0L37 4.37113e-08L37 3.92843L38 3.92843Z" fill="#F2F2F2" mask="url(#path-1-inside-1_447_317)"/>
<circle cx="19" cy="308" r="10" transform="rotate(-90 19 308)" fill="#F2F2F2"/>
<circle cx="19" cy="132" r="10" transform="rotate(-90 19 132)" fill="#F2F2F2"/>
</svg>
