<svg width="443" height="48" viewBox="0 0 443 48" fill="none" xmlns="http://www.w3.org/2000/svg">
<g clip-path="url(#clip0_447_302)">
<mask id="path-1-inside-1_447_302" fill="white">
<path d="M0 0H443V48H0V0Z"/>
</mask>
<circle cx="-0.150782" cy="17.15" r="8.15" fill="#F2F2F2"/>
<circle cx="40.15" cy="17.15" r="8.15" fill="#F2F2F2"/>
<circle cx="80.4488" cy="17.15" r="8.15" fill="#F2F2F2"/>
<circle cx="120.75" cy="17.15" r="8.15" fill="#F2F2F2"/>
<circle cx="161.048" cy="17.15" r="8.15" fill="#F2F2F2"/>
<circle cx="201.349" cy="17.15" r="8.15" fill="#F2F2F2"/>
<circle cx="241.65" cy="17.15" r="8.15" fill="#F2F2F2"/>
<circle cx="281.949" cy="17.15" r="8.15" fill="#F2F2F2"/>
<circle cx="322.25" cy="17.15" r="8.15" fill="#F2F2F2"/>
<circle cx="362.548" cy="17.15" r="8.15" fill="#F2F2F2"/>
<circle cx="402.849" cy="17.15" r="8.15" fill="#F2F2F2"/>
<circle cx="443.15" cy="17.15" r="8.15" fill="#F2F2F2"/>
</g>
<path d="M0 48V48.5H3.95536V48V47.5H0V48ZM11.8661 48V48.5H19.7768V48V47.5H11.8661V48ZM27.6875 48V48.5H35.5982V48V47.5H27.6875V48ZM43.5089 48V48.5H51.4196V48V47.5H43.5089V48ZM59.3304 48V48.5H67.2411V48V47.5H59.3304V48ZM75.1518 48V48.5H83.0625V48V47.5H75.1518V48ZM90.9732 48V48.5H98.8839V48V47.5H90.9732V48ZM106.795 48V48.5H114.705V48V47.5H106.795V48ZM122.616 48V48.5H130.527V48V47.5H122.616V48ZM138.438 48V48.5H146.348V48V47.5H138.438V48ZM154.259 48V48.5H162.17V48V47.5H154.259V48ZM170.08 48V48.5H177.991V48V47.5H170.08V48ZM185.902 48V48.5H193.813V48V47.5H185.902V48ZM201.723 48V48.5H209.634V48V47.5H201.723V48ZM217.545 48V48.5H225.455V48V47.5H217.545V48ZM233.366 48V48.5H241.277V48V47.5H233.366V48ZM249.188 48V48.5H257.098V48V47.5H249.188V48ZM265.009 48V48.5H272.92V48V47.5H265.009V48ZM280.83 48V48.5H288.741V48V47.5H280.83V48ZM296.652 48V48.5H304.563V48V47.5H296.652V48ZM312.473 48V48.5H320.384V48V47.5H312.473V48ZM328.295 48V48.5H336.205V48V47.5H328.295V48ZM344.116 48V48.5H352.027V48V47.5H344.116V48ZM359.937 48V48.5H367.848V48V47.5H359.937V48ZM375.759 48V48.5H383.67V48V47.5H375.759V48ZM391.58 48V48.5H399.491V48V47.5H391.58V48ZM407.402 48V48.5H415.312V48V47.5H407.402V48ZM423.223 48V48.5H431.134V48V47.5H423.223V48ZM439.045 48V48.5H443V48V47.5H439.045V48ZM0 48V49H3.95536V48V47H0V48ZM11.8661 48V49H19.7768V48V47H11.8661V48ZM27.6875 48V49H35.5982V48V47H27.6875V48ZM43.5089 48V49H51.4196V48V47H43.5089V48ZM59.3304 48V49H67.2411V48V47H59.3304V48ZM75.1518 48V49H83.0625V48V47H75.1518V48ZM90.9732 48V49H98.8839V48V47H90.9732V48ZM106.795 48V49H114.705V48V47H106.795V48ZM122.616 48V49H130.527V48V47H122.616V48ZM138.438 48V49H146.348V48V47H138.438V48ZM154.259 48V49H162.17V48V47H154.259V48ZM170.08 48V49H177.991V48V47H170.08V48ZM185.902 48V49H193.813V48V47H185.902V48ZM201.723 48V49H209.634V48V47H201.723V48ZM217.545 48V49H225.455V48V47H217.545V48ZM233.366 48V49H241.277V48V47H233.366V48ZM249.188 48V49H257.098V48V47H249.188V48ZM265.009 48V49H272.92V48V47H265.009V48ZM280.83 48V49H288.741V48V47H280.83V48ZM296.652 48V49H304.563V48V47H296.652V48ZM312.473 48V49H320.384V48V47H312.473V48ZM328.295 48V49H336.205V48V47H328.295V48ZM344.116 48V49H352.027V48V47H344.116V48ZM359.937 48V49H367.848V48V47H359.937V48ZM375.759 48V49H383.67V48V47H375.759V48ZM391.58 48V49H399.491V48V47H391.58V48ZM407.402 48V49H415.312V48V47H407.402V48ZM423.223 48V49H431.134V48V47H423.223V48ZM439.045 48V49H443V48V47H439.045V48Z" fill="#F2F2F2" mask="url(#path-1-inside-1_447_302)"/>
<defs>
<clipPath id="clip0_447_302">
<path d="M0 0H443V48H0V0Z" fill="white"/>
</clipPath>
</defs>
</svg>
