<?xml version="1.0" encoding="UTF-8"?>
<svg id="Layer_1" xmlns="http://www.w3.org/2000/svg" version="1.1" viewBox="0 0 766.92 461">
  <!-- Generator: Adobe Illustrator 29.8.2, SVG Export Plug-In . SVG Version: 2.1.1 Build 3)  -->
  <defs>
    <style>
      .st0 {
        fill: #f2f2f2;
      }

      .st1 {
        fill: #0d0d0d;
      }
    </style>
  </defs>
  <polygon class="st1" points="766.92 461 766.92 0 0 461 766.92 461"/>
  <g>
    <path class="st0" d="M334.52,295.47c1.85,0,3.84-.06,5.96-.2,2.12-.13,3.84.33,5.16,1.39,1.46,1.06,2.21,2.45,2.28,4.17.06,1.72.03,3.25-.1,4.57l-.2,2.58c-.27,3.71-.3,7.22-.1,10.52.2,3.31.3,5.89.3,7.74,0,2.52-.07,4.7-.2,6.55-.13,1.85.07,3.51.6,4.96.53,1.32,1.46,1.99,2.78,1.99,1.06,0,2.05-.33,2.98-.99.92-.66,1.59-1.26,1.99-1.79l5.36-7.15c.66-.79,1.32-1.59,1.99-2.38.66-.79,1.32-1.59,1.98-2.38,1.19-1.46,2.25-3.04,3.18-4.77.92-1.72,1.99-3.31,3.18-4.77l4.57-5.96c1.59-1.99,2.68-3.48,3.28-4.47s1.36-2.21,2.28-3.67l1.79-2.58c.26-.53.76-1.06,1.49-1.59.73-.53,1.29-.92,1.69-1.19.79-.4,1.59-.6,2.38-.6h5.56c1.06,0,2.12.07,3.18.2,1.06.13,2.12.2,3.18.2h6.65c.73,0,1.42-.06,2.08-.2.66-.13,1.32-.2,1.99-.2h1.99c1.99,0,3.44.33,4.37.99.79.53,1.19,1.39,1.19,2.58,0,1.46-.23,2.58-.7,3.38-.46.79-.89,1.39-1.29,1.79-.66.66-1.12,1.32-1.39,1.99-.27.66-.93,1.52-1.99,2.58-.66.66-1.26,1.23-1.79,1.69-.53.47-.99,1.03-1.39,1.69l-5.96,8.74c-.53.79-1.26,1.82-2.18,3.08-.93,1.26-1.86,2.48-2.78,3.67-.93,1.19-1.79,2.25-2.58,3.18-.79.93-1.39,1.59-1.79,1.99-.27.27-.5.53-.7.79-.2.27-.56.73-1.09,1.39l-3.38,4.96c-1.33,1.99-2.78,3.97-4.37,5.96-1.59,1.99-2.71,3.71-3.38,5.16-.27.4-.53,1.19-.79,2.38-.27,1.19-.4,2.05-.4,2.58,0,1.46.1,2.58.3,3.38.2.79.43,1.46.7,1.99.26.66.46,1.16.6,1.49.13.33.46,1.03.99,2.08,1.06,1.99,2.12,4.01,3.18,6.06,1.06,2.05,2.12,4.07,3.18,6.06.66,1.19,1.29,2.35,1.89,3.47.6,1.13,1.22,2.28,1.89,3.47.26.66.56,1.29.89,1.89.33.6.69,1.23,1.09,1.89.26.27.43.53.5.79.06.27.23.53.5.79.53.93.89,1.66,1.09,2.18.2.53.43,1.13.7,1.79,1.19,2.91,1.92,4.73,2.18,5.46.26.73.53,1.29.79,1.69l5.76,9.33c.4.66.96,1.66,1.69,2.98.73,1.32,1.46,2.75,2.18,4.27.73,1.52,1.42,3.01,2.09,4.47.66,1.46,1.06,2.58,1.19,3.38,0,.27.03.53.1.79.07.27.03.53-.1.79-.27.79-.66,1.39-1.19,1.79-.66.66-1.39.99-2.18.99h-14.3c-1.46,0-2.42-.03-2.88-.1-.47-.07-.93-.13-1.39-.2-.46-.07-1.12-.1-1.98-.1h-6.85c-.93,0-1.85-.26-2.78-.79-1.06-.66-1.92-1.79-2.58-3.38-.4-.92-.76-1.95-1.09-3.08-.33-1.12-.83-2.28-1.49-3.47l-2.58-5.56c-1.32-2.91-2.42-5.26-3.28-7.05-.86-1.79-1.59-3.24-2.18-4.37-.6-1.12-1.06-1.95-1.39-2.48-.33-.53-.63-.99-.89-1.39-.53-.66-.99-1.26-1.39-1.79-.4-.53-.73-1.12-.99-1.79-.27-.66-.43-.99-.5-.99s-.23-.13-.5-.4c-.4-.4-.69-.96-.89-1.69-.2-.73-.83-2.02-1.89-3.87l-1.79-3.38c-.53-1.06-1.09-1.79-1.69-2.18-.6-.4-1.03-.66-1.29-.79-.27-.13-.43-.2-.5-.2s-.23-.06-.5-.2c-.27-.26-.53-.4-.79-.4h-.79c-.4,0-.89.07-1.49.2-.6.13-1.22.73-1.89,1.79-.66,1.06-1.03,1.95-1.09,2.68-.07.73-.1,1.23-.1,1.49l-.2,5.96c0,1.19-.07,2.12-.2,2.78-.13.66-.27,1.36-.4,2.08-.13.73-.2,1.42-.2,2.08s.03,1.23.1,1.69c.06.47.1,1.03.1,1.69.13,1.46.16,2.91.1,4.37-.07,1.46-.04,2.91.1,4.37l.4,9.53c.13,1.19-.13,2.58-.79,4.17-.66,1.59-1.72,2.91-3.18,3.97-.27.13-.66.3-1.19.5-.53.2-1.19.23-1.99.1l-6.55.2-3.77.2h-1.29c-.2,0-.43-.03-.7-.1-.27-.07-.63-.13-1.09-.2-.46-.07-1.29-.1-2.48-.1h-.99c-1.06,0-2.25.03-3.57.1-1.32.06-2.45-.5-3.38-1.69-.79-1.06-1.19-2.12-1.19-3.18v-1.29c0-.46.06-.89.2-1.29.13-1.06.2-2.02.2-2.88v-2.88l-.2-24.62c0-5.82.13-11.08.4-15.79.26-4.7.46-8.57.6-11.62v-6.16c-.13-4.9-.27-8.57-.4-11.02-.13-2.45-.2-4.8-.2-7.05v-12.91c0-1.06.06-1.85.2-2.38.13-.53.2-1.06.2-1.59,0-.79-.03-1.36-.1-1.69-.07-.33-.1-.63-.1-.89s-.03-.63-.1-1.09c-.07-.46-.1-1.22-.1-2.28v-14.1c0-.92.1-1.89.3-2.88.2-.99.7-1.89,1.49-2.68.92-.92,1.85-1.42,2.78-1.49.92-.06,1.92-.1,2.98-.1l11.12-.2Z"/>
    <path class="st0" d="M478.04,295.66c1.32,0,2.31.03,2.98.1.66.07,1.65.1,2.98.1.79,0,1.62-.03,2.48-.1.86-.06,1.69-.1,2.48-.1,1.06,0,2.65.17,4.77.5,2.12.33,3.71,1.03,4.77,2.08.66.66,1.32,1.62,1.99,2.88.66,1.26,1.19,2.42,1.59,3.48.4,1.06.73,2.25.99,3.57.26,1.32.73,2.91,1.39,4.77l1.79,6.15c.66,1.86,1.19,3.61,1.59,5.26.4,1.66.86,3.81,1.39,6.45.13,1.46.33,2.62.6,3.48.26.86.79,2.42,1.59,4.67.66,1.85,1.16,3.34,1.49,4.47.33,1.13.56,2.15.7,3.08.13.93.23,1.76.3,2.48.06.73.16,1.56.3,2.48.92,5.43,1.79,9.8,2.58,13.1.79,3.31,1.39,5.96,1.79,7.94l2.98,14.1c.26,1.06.56,2.12.89,3.18.33,1.06.63,2.12.89,3.18.26.79.4,1.59.4,2.38s.13,1.59.4,2.38l3.77,16.68c.26,1.46.6,3.11.99,4.96.4,1.85.26,3.71-.4,5.56-.4,1.06-.89,1.82-1.49,2.28-.6.47-1.16.83-1.69,1.09-.93.4-1.95.6-3.08.6s-2.95.06-5.46.2l-3.77.2h-4.57c-1.06,0-2.08-.03-3.08-.1-.99-.07-1.76-.17-2.28-.3-1.06-.26-1.82-.53-2.28-.79-.46-.26-.89-.66-1.29-1.19-.93-1.06-1.46-1.85-1.59-2.38-.13-.53-.33-1.19-.6-1.99l-3.57-10.32c-.4-1.19-.83-2.02-1.29-2.48-.46-.46-.89-.76-1.29-.89-.27-.13-.79-.23-1.59-.3-.79-.07-1.62-.16-2.48-.3-.86-.13-1.69-.23-2.48-.3-.79-.07-1.26-.1-1.39-.1h-5.16c-1.32,0-2.78.03-4.37.1-1.59.07-3.18.17-4.76.3-1.59.13-3.11.3-4.57.5-1.46.2-2.65.43-3.57.7-1.19.4-2.28.96-3.28,1.69-.99.73-1.82,1.76-2.48,3.08-.66,1.06-1.16,2.35-1.49,3.87-.33,1.52-.83,3.61-1.49,6.25-.13.4-.3,1.03-.5,1.89-.2.86-.63,1.56-1.29,2.08-.27.27-.63.43-1.09.5-.46.07-.83.1-1.09.1-.66,0-1.36-.03-2.08-.1-.73-.07-1.42-.1-2.09-.1-2.52-.26-5-.26-7.45,0-2.45.26-4.93.26-7.45,0-1.59-.13-2.85-.26-3.77-.4-.93-.13-1.86-.73-2.78-1.79-.4-.53-.79-1.19-1.19-1.99-.4-.79-.6-1.52-.6-2.18,0-.26.1-1.09.3-2.48.2-1.39.36-2.21.5-2.48.13-.4.23-.76.3-1.09.07-.33.16-.69.3-1.09.26-1.06.4-2.12.4-3.18s.13-2.12.4-3.18l.99-4.77c.66-3.04,1.09-5.36,1.29-6.95.2-1.59.43-3.11.7-4.57.53-3.57,1.09-6.19,1.69-7.84.6-1.65,1.16-3.41,1.69-5.26.13-.79.26-1.42.4-1.89.13-.46.23-1.02.3-1.69.07-.66.2-1.49.4-2.48s.5-2.41.89-4.27c.13-.66.36-1.89.7-3.67.33-1.79.63-3.01.89-3.67.93-3.97,1.82-7.64,2.68-11.02.86-3.38,1.75-6.85,2.68-10.42.92-3.57,1.85-7.45,2.78-11.62.92-4.17,1.92-9.03,2.98-14.59.66-3.84,1.36-7.01,2.09-9.53.73-2.51,2.21-4.7,4.47-6.55,1.32-1.06,2.38-1.62,3.18-1.69.79-.06,1.65-.1,2.58-.1.66,0,1.19-.03,1.59-.1.4-.06.89-.13,1.49-.2.6-.07,1.32-.13,2.18-.2.86-.06,2.15-.1,3.87-.1h12.71ZM479.63,339.74c-.27-.92-.63-2.02-1.09-3.28-.46-1.26-.96-2.22-1.49-2.88-.66-.66-1.52-.99-2.58-.99s-2.32.89-3.77,2.68c-1.46,1.79-2.65,5.53-3.57,11.22-.13.79-.23,1.42-.3,1.89-.07.47-.17,1.03-.3,1.69-.13.66-.27,1.52-.4,2.58-.13,1.06-.4,2.45-.79,4.17-.4,2.52-.83,4.57-1.29,6.15-.47,1.59-.7,2.91-.7,3.97v1.19c0,.4-.03.76-.1,1.09-.07.33-.1.69-.1,1.09,0,.66.1,1.42.3,2.28.2.86.43,1.56.7,2.08.26.66,1.06,1.39,2.38,2.18,1.32.79,3.44,1.19,6.35,1.19h2.18c.92,0,1.89-.03,2.88-.1.99-.07,1.95-.16,2.88-.3.92-.13,1.65-.33,2.18-.6,1.85-.66,2.91-1.62,3.18-2.88.26-1.26.4-2.41.4-3.48,0-1.59-.07-2.91-.2-3.97-.13-1.06-.27-2.05-.4-2.98-.13-.92-.33-1.82-.6-2.68-.27-.86-.53-1.82-.79-2.88-.79-2.91-1.23-4.93-1.29-6.06-.07-1.12-.37-2.41-.89-3.87l-2.78-8.54Z"/>
    <path class="st0" d="M594.69,389.78c-1.19-1.85-2.25-3.54-3.18-5.06-.93-1.52-2.32-3.74-4.17-6.65-1.59-2.51-2.78-4.3-3.57-5.36-.79-1.06-1.52-2.25-2.18-3.57l-1.39-2.58c-1.72-3.18-2.81-5.26-3.28-6.25-.47-.99-.89-1.69-1.29-2.08-.27-.26-.66-.56-1.19-.89-.53-.33-1.06-.5-1.59-.5-1.06,0-1.72.4-1.99,1.19-.27.79-.46,1.32-.6,1.59-.13.53-.3,1.39-.5,2.58-.2,1.19-.23,2.91-.1,5.16l.2,3.57c.13,2.25.2,3.91.2,4.96v6.16c0,1.32-.07,2.62-.2,3.87-.13,1.26-.2,2.55-.2,3.87,0,.93.06,1.82.2,2.68.13.86.2,1.76.2,2.68l.4,19.46c0,.66.03,1.29.1,1.89.07.6.17,1.23.3,1.89.13,1.19.23,2.05.3,2.58.07.53.1.99.1,1.39,0,1.59-.3,2.88-.89,3.87s-1.23,1.62-1.89,1.89c-1.19.66-2.95.92-5.26.79-2.32-.13-4.07-.2-5.26-.2h-14.69c-1.06,0-1.76-.13-2.08-.4-.33-.26-.63-.53-.89-.79-.93-1.19-1.39-2.31-1.39-3.38.13-1.99.23-3.04.3-3.18.07-.13.1-.53.1-1.19v-4.77l.2-30.58c0-2.51-.07-4.96-.2-7.35-.13-2.38-.2-4.83-.2-7.35v-2.58c0-1.46.03-2.94.1-4.47.07-1.52.16-3.01.3-4.47,0-.66.03-1.39.1-2.18.07-.79.1-1.52.1-2.18,0-1.85-.07-3.77-.2-5.76-.13-1.99-.27-3.9-.4-5.76-.27-2.78-.4-5.59-.4-8.44v-18.17c0-1.32-.07-2.61-.2-3.87-.13-1.26-.27-2.55-.4-3.87-.13-.92-.2-1.85-.2-2.78v-2.78c0-1.72.13-2.98.4-3.77.26-.79.53-1.32.79-1.59.66-.66,1.36-1.06,2.09-1.19.73-.13,1.42-.2,2.08-.2h1.19c3.04,0,6.09.07,9.13.2,3.04.13,6.22.07,9.53-.2h3.57c.92,0,1.79.2,2.58.6.79.4,1.59,1.13,2.38,2.18.79,1.06,1.85,2.58,3.18,4.57l14.69,22.24c.79,1.19,1.49,2.28,2.08,3.28s1.19,2.02,1.79,3.08c.6,1.06,1.26,2.22,1.99,3.47.73,1.26,1.69,2.75,2.88,4.47,1.59,2.38,3.04,4.57,4.37,6.55.79,1.46,1.49,2.71,2.08,3.77.6,1.06,1.12,2.12,1.59,3.18.46,1.06.99,2.22,1.59,3.48.6,1.26,1.29,2.68,2.08,4.27.4.66,1.02,1.76,1.89,3.28.86,1.52,1.62,2.28,2.28,2.28.13,0,.33-.06.6-.2.26-.13.46-.6.6-1.39.13-.53.16-1.06.1-1.59-.07-.53-.13-1.16-.2-1.89-.07-.73-.13-1.69-.2-2.88-.07-1.19-.1-2.71-.1-4.57,0-1.19.07-2.35.2-3.47.13-1.12.2-2.28.2-3.48,0-2.12-.1-4.07-.3-5.86-.2-1.79-.23-3.41-.1-4.86l.2-2.58c.13-1.19.17-2.58.1-4.17-.07-1.59-.13-3.18-.2-4.77-.07-1.59-.13-3.08-.2-4.47-.07-1.39-.1-2.41-.1-3.08v-1.79c0-1.72.03-3.41.1-5.06.06-1.65.1-3.34.1-5.06,0-1.06-.03-2.02-.1-2.88-.07-.86-.04-1.82.1-2.88,0-1.06.26-1.85.79-2.38.66-.66,1.12-.96,1.39-.89.26.07.66.1,1.19.1l6.55.2h1.89c.33,0,.6-.03.79-.1.2-.06.43-.1.7-.1h1.39c.92.13,1.72.23,2.38.3.66.07,1.39.1,2.18.1h3.38c1.19,0,2.51-.03,3.97-.1,1.46-.07,2.78.43,3.97,1.49.53.4.96,1.03,1.29,1.89.33.86.5,2.08.5,3.67,0,1.06-.03,2.02-.1,2.88-.07.86-.17,2.62-.3,5.26l-.2,6.16v14.3c0,1.06-.03,2.38-.1,3.97-.07,1.59-.1,4.04-.1,7.35-.13,2.52-.2,4.47-.2,5.86s-.07,3.01-.2,4.86c-.13,3.57-.2,6.09-.2,7.55v8.44c0,1.79-.07,4.73-.2,8.84l-.4,16.68c0,2.52.03,4.7.1,6.55.07,1.85.2,3.54.4,5.06.2,1.52.4,2.95.6,4.27.2,1.32.3,2.78.3,4.37l.2,6.55c0,1.06-.03,2.05-.1,2.98-.07.93-.5,1.72-1.29,2.38-1.06.92-2.52,1.39-4.37,1.39-1.06,0-2.28-.07-3.67-.2-1.39-.13-2.55-.2-3.47-.2h-7.54c-.66,0-1.99-.13-3.97-.4-1.99-.26-3.51-1.19-4.57-2.78l-7.74-10.92c-2.25-3.31-4.01-6.32-5.26-9.03-1.26-2.71-3.01-5.66-5.26-8.84l-4.96-7.15Z"/>
    <path class="st0" d="M726.03,296.46c1.85,0,3.24.23,4.17.7.92.47,1.65.89,2.18,1.29.92.93,1.49,1.89,1.69,2.88s.3,1.95.3,2.88v8.94c0,.66-.03,1.23-.1,1.69-.07.47-.1,1.03-.1,1.69-.13.79-.2,1.56-.2,2.28v3.67c0,1.19-.33,2.25-.99,3.18-.13.13-.4.4-.79.79-.4.4-.86.6-1.39.6l-7.94-.2c-.79,0-1.92.1-3.38.3-1.46.2-2.91,1.03-4.37,2.48-.4.4-1.09,1.52-2.08,3.38-.99,1.86-1.49,5.03-1.49,9.53v5.96c0,3.57.03,5.99.1,7.25.06,1.26.1,2.12.1,2.58s-.04.89-.1,1.29c-.07.4-.23,1.59-.5,3.57-.4,3.05-.53,5.23-.4,6.55.13,1.32.2,3.05.2,5.16v15.98c0,.99-.07,2.88-.2,5.66,0,1.06-.03,1.92-.1,2.58-.07.66-.1,1.36-.1,2.08s.03,1.56.1,2.48c.06.93.1,2.12.1,3.57l.6,11.91c.13,2.25.1,3.91-.1,4.96-.2,1.06-.63,1.92-1.29,2.58-1.06,1.06-2.12,1.59-3.18,1.59l-8.74.6c-1.72.13-3.28.13-4.67,0-1.39-.13-2.42-.2-3.08-.2h-6.75c-.66,0-1.32-.16-1.99-.5-.66-.33-1.33-1.09-1.99-2.28-.53-1.06-.79-2.18-.79-3.38l.2-6.35v-1.99c0-.66.03-1.26.1-1.79.06-.53.1-1.12.1-1.79v-5.66c0-1.92-.07-3.8-.2-5.66-.13-1.06-.23-2.15-.3-3.28-.07-1.12-.03-2.21.1-3.28l.6-10.72c.13-.92.16-1.85.1-2.78-.07-.92-.03-1.85.1-2.78,0-.53.03-.99.1-1.39.07-.4.1-.86.1-1.39v-2.38c-.13-1.06-.2-1.82-.2-2.28s-.07-1.42-.2-2.88v-4.07c0-.6.03-1.26.1-1.99.06-.73.1-1.69.1-2.88v-17.27c0-2.25.03-4.23.1-5.96.07-1.72-.83-3.64-2.68-5.76-.66-.79-1.42-1.32-2.28-1.59-.86-.26-1.62-.4-2.28-.4l-10.92.2c-1.33,0-2.28-.16-2.88-.5-.6-.33-1.09-.83-1.49-1.49-.66-1.06-.99-2.85-.99-5.36v-4.17c0-1.72.06-3.18.2-4.37l.2-3.18c0-.26.03-.79.1-1.59.06-.79.13-1.65.2-2.58.06-.92.16-1.79.3-2.58.13-.79.33-1.39.6-1.79.4-.66,1.26-1.32,2.58-1.99,1.32-.66,3.11-.99,5.36-.99,1.32,0,2.58.03,3.77.1,1.19.07,2.45.17,3.77.3,1.85.13,3.67.17,5.46.1,1.79-.06,3.61-.1,5.46-.1,3.31,0,6.58.07,9.83.2,3.24.13,6.52.2,9.83.2l22.24-.2Z"/>
  </g>
  <g>
    <path class="st0" d="M561.97,186.81c.31,0,.64-.01.99-.03.35-.02.64.06.86.23.24.18.37.41.38.69.01.29,0,.54-.02.76l-.03.43c-.04.62-.05,1.2-.02,1.75.03.55.05.98.05,1.29,0,.42-.01.78-.03,1.09-.02.31,0,.58.1.83.09.22.24.33.46.33.18,0,.34-.05.49-.17.15-.11.26-.21.33-.3l.89-1.19c.11-.13.22-.26.33-.4s.22-.26.33-.4c.2-.24.37-.51.53-.79.15-.29.33-.55.53-.79l.76-.99c.26-.33.45-.58.54-.74s.23-.37.38-.61l.3-.43c.04-.09.13-.18.25-.26.12-.09.21-.15.28-.2.13-.07.26-.1.4-.1h.92c.18,0,.35.01.53.03s.35.03.53.03h1.11c.12,0,.24-.01.35-.03.11-.02.22-.03.33-.03h.33c.33,0,.57.06.73.17.13.09.2.23.2.43,0,.24-.04.43-.12.56-.08.13-.15.23-.21.3-.11.11-.19.22-.23.33-.04.11-.15.25-.33.43-.11.11-.21.2-.3.28s-.17.17-.23.28l-.99,1.45c-.09.13-.21.3-.36.51-.15.21-.31.41-.46.61-.15.2-.3.37-.43.53-.13.15-.23.26-.3.33-.04.04-.08.09-.12.13-.03.04-.09.12-.18.23l-.56.83c-.22.33-.46.66-.73.99-.26.33-.45.62-.56.86-.04.07-.09.2-.13.4-.04.2-.07.34-.07.43,0,.24.02.43.05.56.03.13.07.24.12.33.04.11.08.19.1.25.02.06.08.17.17.35.18.33.35.67.53,1.01.18.34.35.68.53,1.01.11.2.21.39.31.58.1.19.2.38.31.58.04.11.09.21.15.31.05.1.12.2.18.31.04.04.07.09.08.13.01.04.04.09.08.13.09.15.15.28.18.36.03.09.07.19.12.3.2.48.32.79.36.91.04.12.09.21.13.28l.96,1.55c.07.11.16.27.28.49.12.22.24.46.36.71.12.25.24.5.35.74.11.24.18.43.2.56,0,.04,0,.09.02.13.01.04,0,.09-.02.13-.04.13-.11.23-.2.3-.11.11-.23.17-.36.17h-2.38c-.24,0-.4,0-.48-.02-.08-.01-.15-.02-.23-.03s-.19-.02-.33-.02h-1.14c-.15,0-.31-.04-.46-.13-.18-.11-.32-.3-.43-.56-.07-.15-.13-.32-.18-.51-.06-.19-.14-.38-.25-.58l-.43-.92c-.22-.48-.4-.87-.54-1.17-.14-.3-.26-.54-.36-.73s-.18-.32-.23-.41-.1-.17-.15-.23c-.09-.11-.16-.21-.23-.3-.07-.09-.12-.19-.17-.3-.04-.11-.07-.17-.08-.17-.01,0-.04-.02-.08-.07-.07-.07-.12-.16-.15-.28-.03-.12-.14-.34-.31-.64l-.3-.56c-.09-.18-.18-.3-.28-.36-.1-.07-.17-.11-.21-.13-.04-.02-.07-.03-.08-.03-.01,0-.04-.01-.08-.03-.04-.04-.09-.07-.13-.07h-.13c-.07,0-.15.01-.25.03-.1.02-.2.12-.31.3-.11.18-.17.32-.18.45-.01.12-.02.2-.02.25l-.03.99c0,.2-.01.35-.03.46-.02.11-.04.23-.07.35-.02.12-.03.24-.03.35s0,.2.02.28c0,.08.02.17.02.28.02.24.03.48.02.73s0,.48.02.73l.07,1.58c.02.2-.02.43-.13.69-.11.26-.29.48-.53.66-.04.02-.11.05-.2.08-.09.03-.2.04-.33.02l-1.09.03-.63.03h-.21s-.07,0-.12-.02c-.04-.01-.11-.02-.18-.03-.08-.01-.21-.02-.41-.02h-.17c-.18,0-.37,0-.59.02-.22.01-.41-.08-.56-.28-.13-.18-.2-.35-.2-.53v-.21c0-.08.01-.15.03-.21.02-.18.03-.34.03-.48v-.48l-.03-4.09c0-.97.02-1.84.07-2.62.04-.78.08-1.42.1-1.93v-1.02c-.02-.81-.04-1.42-.07-1.83s-.03-.8-.03-1.17v-2.15c0-.18.01-.31.03-.4.02-.09.03-.18.03-.26,0-.13,0-.23-.02-.28-.01-.05-.02-.1-.02-.15s0-.1-.02-.18c-.01-.08-.02-.2-.02-.38v-2.34c0-.15.02-.31.05-.48.03-.17.12-.31.25-.45.15-.15.31-.24.46-.25.15-.01.32-.02.49-.02l1.85-.03Z"/>
    <path class="st0" d="M587.14,202.49c-.2-.31-.37-.59-.53-.84-.15-.25-.38-.62-.69-1.11-.26-.42-.46-.71-.59-.89-.13-.18-.25-.37-.36-.59l-.23-.43c-.29-.53-.47-.87-.54-1.04s-.15-.28-.21-.35c-.04-.04-.11-.09-.2-.15-.09-.05-.18-.08-.26-.08-.18,0-.29.07-.33.2s-.08.22-.1.26c-.02.09-.05.23-.08.43-.03.2-.04.48-.02.86l.03.59c.02.37.03.65.03.83v1.02c0,.22-.01.43-.03.64s-.03.42-.03.64c0,.15,0,.3.03.45s.03.29.03.45l.07,3.23c0,.11,0,.21.02.31,0,.1.03.2.05.31.02.2.04.34.05.43.01.09.02.17.02.23,0,.26-.05.48-.15.64-.1.17-.2.27-.31.31-.2.11-.49.15-.87.13-.38-.02-.68-.03-.87-.03h-2.44c-.18,0-.29-.02-.35-.07-.05-.04-.1-.09-.15-.13-.15-.2-.23-.38-.23-.56.02-.33.04-.51.05-.53.01-.02.02-.09.02-.2v-.79l.03-5.08c0-.42-.01-.83-.03-1.22-.02-.4-.03-.8-.03-1.22v-.43c0-.24,0-.49.02-.74.01-.25.03-.5.05-.74,0-.11,0-.23.02-.36.01-.13.02-.25.02-.36,0-.31-.01-.63-.03-.96-.02-.33-.04-.65-.07-.96-.04-.46-.07-.93-.07-1.4v-3.02c0-.22-.01-.43-.03-.64-.02-.21-.04-.42-.07-.64-.02-.15-.03-.31-.03-.46v-.46c0-.29.02-.5.07-.63.04-.13.09-.22.13-.26.11-.11.22-.18.35-.2.12-.02.24-.03.35-.03h.2c.51,0,1.01.01,1.52.03.51.02,1.03.01,1.58-.03h.59c.15,0,.3.03.43.1.13.07.26.19.4.36.13.18.31.43.53.76l2.44,3.7c.13.2.25.38.35.54.1.17.2.34.3.51.1.18.21.37.33.58.12.21.28.46.48.74.26.4.51.76.73,1.09.13.24.25.45.35.63.1.18.19.35.26.53.08.18.17.37.26.58.1.21.21.45.35.71.07.11.17.29.31.54.14.25.27.38.38.38.02,0,.05-.01.1-.03.04-.02.08-.1.1-.23.02-.09.03-.18.02-.26-.01-.09-.02-.19-.03-.31-.01-.12-.02-.28-.03-.48-.01-.2-.02-.45-.02-.76,0-.2.01-.39.03-.58.02-.19.03-.38.03-.58,0-.35-.02-.68-.05-.97-.03-.3-.04-.57-.02-.81l.03-.43c.02-.2.03-.43.02-.69-.01-.26-.02-.53-.03-.79s-.02-.51-.03-.74-.02-.4-.02-.51v-.3c0-.29,0-.57.02-.84.01-.27.02-.56.02-.84,0-.18,0-.34-.02-.48s0-.3.02-.48c0-.18.04-.31.13-.4.11-.11.19-.16.23-.15.04.01.11.02.2.02l1.09.03h.31c.05,0,.1,0,.13-.02.03-.01.07-.02.12-.02h.23c.15.02.29.04.4.05.11.01.23.02.36.02h.56c.2,0,.42,0,.66-.02.24-.01.46.07.66.25.09.07.16.17.21.31.05.14.08.35.08.61,0,.18,0,.34-.02.48-.01.14-.03.43-.05.87l-.03,1.02v2.38c0,.18,0,.4-.02.66-.01.26-.02.67-.02,1.22-.02.42-.03.74-.03.97s-.01.5-.03.81c-.02.59-.03,1.01-.03,1.25v1.4c0,.3-.01.79-.03,1.47l-.07,2.77c0,.42,0,.78.02,1.09.01.31.03.59.07.84.03.25.07.49.1.71.03.22.05.46.05.73l.03,1.09c0,.18,0,.34-.02.5-.01.15-.08.29-.21.4-.18.15-.42.23-.73.23-.18,0-.38-.01-.61-.03-.23-.02-.42-.03-.58-.03h-1.25c-.11,0-.33-.02-.66-.07-.33-.04-.58-.2-.76-.46l-1.29-1.81c-.37-.55-.67-1.05-.87-1.5-.21-.45-.5-.94-.88-1.47l-.83-1.19Z"/>
    <path class="st0" d="M601.85,206.74c-.2-.15-.36-.28-.5-.38-.13-.1-.26-.21-.38-.33-.12-.12-.25-.27-.38-.46s-.31-.45-.53-.78c-.33-.51-.63-1-.89-1.48-.26-.48-.46-1.08-.59-1.78-.04-.15-.09-.4-.13-.74-.04-.34-.08-.7-.12-1.07-.03-.37-.07-.73-.1-1.06-.03-.33-.05-.57-.05-.73,0-.33.03-.68.08-1.06.05-.37.12-.74.18-1.09.07-.35.14-.68.21-.97.08-.3.14-.52.18-.68.2-.64.51-1.31.92-2.01.42-.7.85-1.34,1.29-1.91.44-.55.82-.97,1.14-1.25.32-.29.57-.5.74-.63.35-.26.78-.5,1.27-.69.5-.2,1-.37,1.52-.51.52-.14,1.02-.25,1.52-.33.5-.08.93-.12,1.3-.12,1.12,0,2.07.14,2.86.41.78.28,1.37.51,1.77.71.53.26,1,.55,1.42.86s.78.62,1.09.92c.31.31.57.59.78.84s.36.45.45.58c.31.46.59.98.86,1.55.26.57.48,1.1.66,1.58.04.13.1.31.17.53.07.22.13.51.18.86.05.35.1.79.13,1.3.03.52.04,1.14.02,1.86-.02,1.25-.19,2.36-.5,3.32-.31.96-.68,1.79-1.11,2.51-.43.72-.87,1.3-1.32,1.77-.45.46-.84.8-1.17,1.02-.64.46-1.25.81-1.85,1.06-.59.24-1.15.42-1.67.54-.52.12-.98.19-1.39.21-.41.02-.74.03-1.01.03-1.21,0-2.3-.1-3.28-.3-.98-.2-1.94-.67-2.89-1.42l-.89-.69ZM613.8,198.35c0-.6-.06-1.25-.17-1.95-.11-.71-.32-1.31-.63-1.82-.18-.33-.41-.65-.69-.96-.29-.31-.62-.59-.99-.84-.38-.25-.79-.46-1.24-.61-.45-.15-.93-.23-1.44-.23-.37,0-.65.03-.82.08-.18.06-.38.1-.59.15-.24.07-.51.13-.79.2-.29.07-.65.29-1.09.66-.66.55-1.17,1.25-1.53,2.1-.36.85-.54,1.74-.54,2.66,0,.64.07,1.32.21,2.04.14.72.43,1.43.87,2.13.46.77,1.11,1.34,1.93,1.7.83.36,1.66.55,2.49.55.48,0,.93-.07,1.34-.21.41-.14.76-.32,1.07-.53.31-.21.57-.42.78-.65s.38-.41.51-.56c.42-.53.74-1.15.97-1.87.23-.72.35-1.4.35-2.04Z"/>
    <path class="st0" d="M619.88,190.21c-.18-.88-.3-1.46-.38-1.75-.08-.29-.12-.51-.12-.66,0-.4.1-.65.3-.76.13-.09.29-.13.46-.13.2-.02.32-.03.38-.03s.1,0,.15.02c.04.01.1.02.16.02h.43c.18-.02.37-.03.59-.03h.79c.62,0,1.03.03,1.24.1s.37.19.48.36c.11.18.2.39.28.64.08.25.14.48.18.68.09.51.14.84.17.99.02.15.03.26.03.31v.2c0,.08.03.3.1.68.07.44.16.83.28,1.16s.24.71.35,1.15l.2.79c.07.22.12.39.15.51.03.12.07.24.1.35.03.11.07.24.12.4.04.15.1.39.16.69.09.44.17.81.23,1.11.07.3.15.69.26,1.17.13.55.25,1.03.36,1.45.11.42.21.87.3,1.35.02.13.06.28.12.45.05.17.15.25.28.25.09,0,.17-.07.25-.2.08-.13.14-.29.2-.48.05-.19.1-.37.13-.54.03-.18.06-.32.08-.43.04-.29.13-.65.25-1.11.12-.45.23-.79.31-1.01l.3-.76c.02-.09.05-.16.1-.21.04-.05.08-.12.12-.2.03-.08.06-.18.08-.3.02-.12.03-.29.03-.51v-.53c0-.29-.01-.52-.03-.71-.02-.19-.05-.35-.08-.5-.03-.14-.07-.3-.1-.46s-.06-.37-.08-.61l-.07-.63c-.02-.18-.06-.34-.1-.48s-.09-.3-.13-.48c-.04-.13-.07-.26-.07-.38s-.01-.25-.03-.38c-.02-.15-.04-.29-.07-.4-.02-.11-.05-.23-.08-.35s-.07-.26-.1-.41c-.03-.15-.07-.35-.12-.59l-.13-.82c-.04-.31-.08-.54-.1-.69-.02-.15.04-.29.2-.4.13-.11.4-.17.79-.17l1.98.07,1.19-.07c.31-.02.52.01.63.1.11.09.19.17.23.23.13.24.21.41.23.5.02.09.04.21.07.36l.53,3.7c.09.59.23,1.24.41,1.95.19.7.36,1.41.51,2.11.15.7.26,1.22.31,1.53.05.32.09.57.12.74.02.18.04.34.07.48.02.14.07.39.13.74.13.59.24.98.31,1.17.08.19.12.34.12.45,0,.04.01.1.03.17.04.09.09.13.13.13h.07c.11,0,.2-.07.26-.2.11-.29.17-.45.17-.48s.02-.14.07-.31l.1-.3c.11-.33.19-.67.23-1.02.04-.35.12-.69.23-1.02.07-.24.14-.47.21-.68.08-.21.14-.43.18-.68l.33-2.05c.07-.35.14-.64.21-.87s.16-.47.25-.71c.09-.24.18-.51.26-.81.09-.3.18-.68.26-1.14l.26-1.55c.02-.13.08-.37.16-.71.09-.34.15-.6.2-.78.04-.18.13-.36.25-.54.12-.19.24-.31.35-.38.11-.07.23-.1.36-.1h.36l1.98.07c.31.02.57.03.79.02.22-.01.43.04.63.15.09.04.18.12.26.23.09.11.13.21.13.3,0,.07,0,.14-.02.23-.01.09-.04.22-.08.4l-.17.63c-.13.46-.22.8-.26,1.02-.04.22-.08.39-.1.5-.02.11-.03.19-.02.25.01.06,0,.16-.02.31-.07.26-.12.42-.17.46,0,.02-.02.1-.07.23,0,.04,0,.08-.02.12-.01.03-.02.07-.02.12-.04.24-.1.47-.17.68-.07.21-.13.42-.2.64l-.3,1.12c-.09.31-.16.6-.21.87-.06.28-.12.57-.18.87-.09.37-.17.75-.23,1.12-.07.37-.15.75-.26,1.12-.11.37-.19.65-.23.82-.04.18-.08.3-.12.38s-.05.13-.07.15-.03.08-.05.17c-.02.09-.06.23-.12.43-.06.2-.14.51-.25.92-.04.24-.08.41-.12.49-.03.09-.06.15-.08.2-.04.11-.07.22-.07.33s-.04.36-.13.76c-.09.37-.14.66-.16.86-.02.2-.06.37-.1.53l-.56,2.05c-.13.46-.23.83-.3,1.11-.07.28-.13.49-.18.64-.06.15-.12.27-.18.35-.07.08-.17.15-.3.21-.11.04-.21.09-.31.13-.1.04-.26.07-.48.07-.13,0-.22,0-.26-.02-.04-.01-.12-.02-.21-.02s-.25,0-.46-.02c-.21-.01-.56-.02-1.04-.02h-2.84c-.24,0-.44-.07-.59-.2-.15-.13-.26-.25-.33-.36-.18-.26-.29-.52-.33-.78s-.09-.47-.13-.64c-.02-.07-.03-.12-.03-.17s-.01-.1-.03-.17c-.04-.07-.08-.14-.1-.21-.02-.08-.05-.2-.1-.38-.07-.22-.12-.38-.15-.5-.03-.11-.06-.19-.07-.25-.01-.05-.03-.1-.05-.13-.02-.03-.04-.08-.07-.15l-.17-.56s-.03-.07-.03-.08-.01-.04-.03-.08c0-.02,0-.04-.02-.05-.01-.01-.02-.03-.02-.05-.11-.15-.22-.15-.33,0-.04.07-.1.18-.17.33s-.13.32-.2.51c-.07.19-.13.37-.18.54-.06.18-.09.31-.12.4l-.3,1.39c-.09.35-.17.65-.25.91-.08.25-.18.43-.31.54-.18.18-.39.25-.64.23-.25-.02-.5-.03-.74-.03l-3.4-.07c-.24,0-.43-.03-.58-.08-.14-.05-.24-.1-.28-.15-.15-.13-.29-.33-.4-.59-.11-.26-.2-.56-.28-.89-.08-.33-.14-.67-.18-1.01-.04-.34-.09-.64-.13-.91l-.2-1.19c-.11-.57-.26-1.14-.46-1.7-.2-.56-.35-1.13-.46-1.7-.04-.24-.08-.47-.1-.69-.02-.22-.05-.45-.1-.69-.11-.62-.29-1.33-.53-2.15-.24-.81-.47-1.73-.69-2.74l-.92-4.26Z"/>
    <path class="st0" d="M646.84,189.35v-1.35c.04-.4.17-.68.36-.86.24-.22.58-.32,1.01-.3.43.02.83.03,1.21.03h1.81c.13,0,.28.01.43.03.15.02.3.11.43.26.18.18.26.37.25.59-.01.22-.03.42-.05.59l-.07.79c-.02.29-.02.57,0,.86.02.29.03.57.03.86,0,.33-.01.66-.03.99-.02.33-.03.66-.03.99,0,.31,0,.62.02.94,0,.32.03.63.05.94.02.31.04.62.05.94.01.32.02.63.02.94,0,.15,0,.35-.02.58-.01.23-.03.54-.05.94-.04.26-.07.47-.08.61-.01.14-.02.3-.02.48v.56c0,.18,0,.42.02.73,0,.31.03.64.05.99.02.35.05.68.08.99.03.31.07.53.12.66.11.31.27.5.48.56.21.07.37.1.48.1l4.69.03c.37,0,.59,0,.64-.02.05-.01.2-.02.45-.02.22,0,.38.03.5.1.11.07.19.12.23.17.04.07.09.18.13.33.04.15.07.36.07.63v1.09c0,.15,0,.27-.02.35-.01.08-.02.17-.02.26v.45c0,.2.01.48.03.86,0,.13,0,.28-.02.43-.01.15-.09.29-.25.4-.18.13-.43.2-.76.2-.13,0-.21,0-.25-.02-.03-.01-.07-.02-.12-.02s-.13,0-.25-.02-.34-.02-.64-.02h-2.31l-1.19-.03c-.55-.02-1.04-.02-1.49,0-.44.02-.76.04-.96.07-.51.02-.95.02-1.32-.02-.37-.03-.74-.05-1.09-.05h-.53c-.33,0-.62.01-.87.03-.25.02-.51-.11-.78-.4-.18-.2-.29-.38-.33-.56-.04-.18-.07-.33-.07-.46,0-.31.01-.6.03-.87.02-.27.03-.57.03-.87,0-.24,0-.5-.02-.76-.01-.26,0-.52.02-.76,0-.15,0-.3.02-.43.01-.13.02-.27.02-.43v-1.12c0-.31-.01-.6-.03-.87-.02-.27-.04-.63-.07-1.07v-.63c0-.29.01-.57.03-.84.02-.27.03-.56.03-.84l-.03-1.35c0-.29,0-.57-.02-.86-.01-.29-.02-.57-.02-.86,0-.64,0-1.28.02-1.91.01-.64,0-1.28-.02-1.91l-.03-1.81Z"/>
    <path class="st0" d="M667.15,187.01c.62.02,1.23.02,1.85-.02.62-.03,1.23-.05,1.85-.05h.59c.31.02.61.05.89.08.29.03.55.04.79.02l1.19-.07c.11,0,.23.01.35.03.12.02.24.12.35.3.15.22.23.56.23,1.02,0,.09,0,.14-.02.17-.01.02-.02.15-.02.4-.02.2-.04.35-.07.45-.02.1-.04.2-.07.31l-.13.76c-.02.15-.05.33-.08.53-.03.2-.1.35-.21.46-.04.04-.13.1-.26.17s-.36.09-.69.07l-4.92-.2c-.64-.02-1.1.11-1.39.4-.18.18-.28.36-.3.56-.02.2-.02.36,0,.5l.03.36c0,.07,0,.13.02.18.01.06.02.12.02.18v.4c0,.11,0,.23.03.36.02.13.09.26.2.4.18.24.42.39.74.43.32.04.6.07.84.07l1.29-.03c.2,0,.38,0,.54-.02.16-.01.38-.02.64-.02h.21s.06,0,.08.02l.07.03s.08.02.17.02l.53.03c.31.02.58.02.81-.02.23-.03.42-.05.58-.05s.36.03.61.08c.25.06.43.14.54.25.18.18.26.54.26,1.09v1.45c0,.13-.01.33-.03.59-.02.26-.04.45-.07.56-.04.18-.1.31-.18.41s-.17.17-.28.21c-.24.13-.49.21-.74.23-.25.02-.5.03-.74.03s-.53,0-.86-.02c-.33-.01-.68-.02-1.04-.03-.36-.01-.72-.03-1.07-.05-.35-.02-.65-.04-.89-.07l-1.29-.1c-.07,0-.16.02-.28.05-.12.03-.24.1-.35.21-.18.24-.28.45-.31.61s-.05.3-.05.41v1.57c0,.23.02.44.07.61.02.09.04.18.07.28.02.1.09.19.2.28.11.09.22.14.33.17.11.02.21.04.3.07l.59.07c.51.04.92.07,1.25.07s.58-.01.76-.03c.37-.02.76-.02,1.15,0,.4.02.78.03,1.16.03.2,0,.4-.01.61-.03.21-.02.41-.03.61-.03.48-.02.84.02,1.06.12.22.1.37.19.46.28.15.15.24.36.26.61.02.25.03.5.03.74,0,.35,0,.7.02,1.06.01.35-.01.67-.07.96-.06.29-.15.52-.3.71-.14.19-.37.28-.68.28h-.66c-.42,0-.83-.01-1.24-.03-.41-.02-.82-.03-1.24-.03-.38,0-.75.01-1.12.03-.37.02-.75.03-1.12.03h-3.53c-.15,0-.31,0-.46-.02-.15-.01-.31-.02-.46-.02h-1.39c-.24,0-.54,0-.89.02-.35.01-.62-.14-.79-.45-.04-.07-.09-.15-.13-.25s-.07-.2-.07-.31l-.07-1.42c0-.11,0-.23-.02-.35-.01-.12-.02-.24-.02-.35v-1.02l-.03-1.75c-.02-.51-.01-.99.03-1.45.04-.46.04-1.06,0-1.78-.02-.37-.04-.7-.05-.97-.01-.27-.02-.57-.02-.87,0-.22,0-.41.02-.58.01-.17.02-.33.02-.5s0-.35.02-.56c.01-.21.02-.48.02-.81v-.79c0-.2,0-.36-.02-.48-.01-.12-.02-.23-.03-.33-.01-.1-.02-.21-.02-.33s.01-.28.03-.48c0-.13,0-.27.02-.43.01-.15.03-.36.05-.63l.03-.83v-.43c0-.18-.01-.36-.03-.56-.02-.2-.04-.46-.07-.79v-.59c0-.22.03-.51.08-.87.05-.36.22-.64.51-.84.18-.11.38-.19.63-.23.24-.04.51-.05.79-.03l3.37.13Z"/>
    <path class="st0" d="M685.89,186.94h1.72c.64,0,1.31.12,2.01.36l.96.33c.84.29,1.6.63,2.29,1.04.69.41,1.38,1.01,2.06,1.8.59.7,1.07,1.39,1.44,2.06.36.67.64,1.34.84,2.01s.33,1.36.4,2.08c.07.72.1,1.47.1,2.26,0,1.25-.21,2.41-.64,3.46-.43,1.06-.87,1.9-1.34,2.54-1.03,1.45-2.32,2.49-3.86,3.12-1.54.63-3.3.94-5.28.94h-5.45c-.64,0-1.06-.02-1.27-.07-.21-.04-.33-.09-.38-.13-.31-.2-.48-.49-.53-.89-.04-.4-.07-.76-.07-1.09,0-.31,0-.62.02-.92.01-.31.02-.62.02-.92,0-.73-.01-1.32-.03-1.78s-.02-.95,0-1.45l.03-.92c0-.11,0-.23.02-.36.01-.13.03-.25.05-.36,0-.07,0-.13.02-.2.01-.07.02-.13.02-.2,0-.26-.01-.53-.03-.81-.02-.27-.04-.57-.07-.87v-.56c.02-.24.05-.61.08-1.11.03-.5.04-.93.02-1.3l-.07-1.12c-.04-.53-.04-1.06,0-1.6.04-.54.07-1.07.07-1.6,0-.33-.01-.65-.03-.97-.02-.32-.03-.64-.03-.97,0-.18.02-.42.05-.73.03-.31.15-.55.35-.73.11-.09.27-.18.48-.26.21-.09.47-.13.78-.13.2,0,.32,0,.36.02.04.01.08.02.12.02s.08,0,.13.02c.05.01.2.02.45.02h4.22ZM687.77,204.07c.15,0,.33-.02.53-.07.2-.04.4-.09.61-.15.21-.05.41-.12.59-.18.19-.07.35-.13.48-.2.62-.29,1.04-.59,1.27-.91.23-.32.43-.67.61-1.04.33-.75.54-1.34.63-1.77.09-.43.13-.86.13-1.3,0-.99-.11-1.78-.31-2.38-.21-.59-.43-1.06-.68-1.39-.44-.62-1.08-1.18-1.93-1.7-.85-.52-1.88-.75-3.08-.71-.24-.02-.56,0-.96.05-.4.06-.72.23-.96.51-.24.29-.38.63-.41,1.02-.03.4-.06.85-.08,1.35l-.1,2.24.03,1.32c.02.37.03.74.03,1.09v1.88c.02.46.04.78.07.94s.05.28.1.35c.22.44.57.72,1.06.84.48.12,1.04.18,1.68.18h.69Z"/>
    <path class="st0" d="M714.64,195.16c.51,0,.96-.03,1.35-.1s.74,0,1.02.2c.24.18.38.39.43.64.04.25.07.47.07.64.04.81.04,1.61,0,2.38-.04.77-.07,1.54-.07,2.31,0,.51.01,1.02.03,1.55.02.53.03,1.06.03,1.58,0,1.32-.04,2.27-.12,2.85-.08.58-.18.98-.31,1.2-.11.2-.28.34-.49.41-.22.08-.42.12-.59.12-.53.07-1.01.1-1.45.1h-1.88c-.33,0-.68-.01-1.06-.03-.37-.02-.74-.04-1.11-.05-.36-.01-.67-.04-.91-.08-.66-.09-1.39-.27-2.2-.56-.8-.29-1.6-.65-2.38-1.09s-1.51-.95-2.19-1.53c-.68-.58-1.25-1.2-1.72-1.86-.31-.46-.59-.99-.84-1.58-.25-.59-.47-1.22-.64-1.88s-.31-1.33-.4-2c-.09-.67-.13-1.31-.13-1.93,0-.26.02-.65.07-1.16.04-.51.17-1.09.36-1.75.2-.66.51-1.35.94-2.08.43-.73,1.03-1.44,1.8-2.14.37-.35.79-.68,1.25-.97.46-.3,1.02-.56,1.68-.78s1.45-.39,2.36-.51c.91-.12,2.01-.18,3.28-.18,1.36,0,2.33.02,2.9.07.57.04.92.08,1.06.1.42.07.75.17.99.3s.44.34.59.63c.18.31.27.62.28.95.01.32.03.72.05,1.21l.03.99c.04.8-.3,1.19-1.02,1.19-.31,0-.67-.06-1.07-.18-.41-.12-.76-.21-1.07-.28-.29-.06-.71-.14-1.29-.23-.57-.09-1.14-.13-1.72-.13-.51,0-1.04.04-1.6.13-.56.09-1.09.23-1.6.43-.57.24-1.07.57-1.5.99-.43.42-.8.97-1.11,1.65-.09.2-.19.51-.31.94-.12.43-.18,1.01-.18,1.76,0,.64.09,1.18.26,1.63s.36.86.56,1.23c.22.44.5.89.84,1.35.34.46.93.92,1.77,1.38.44.24.95.44,1.53.61.58.16,1.28.25,2.1.25.22,0,.44-.03.66-.1s.42-.19.59-.36c.15-.18.26-.37.31-.59.05-.22.08-.45.08-.69v-.45c0-.19-.01-.38-.03-.58-.02-.2-.05-.38-.08-.56-.03-.18-.09-.33-.18-.46-.18-.24-.35-.38-.53-.43-.18-.04-.32-.07-.43-.07l-.46.03c-.13.02-.25.04-.36.05s-.22-.03-.33-.12c-.11-.07-.18-.19-.21-.36s-.05-.37-.05-.59.01-.45.03-.68c.02-.23.03-.43.03-.61v-.76c0-.33.04-.59.12-.78.08-.19.18-.33.3-.43.12-.1.25-.17.38-.21.13-.04.26-.07.4-.07h.43c.51.02.84.05,1.01.08.17.03.38.05.64.05h.99Z"/>
    <path class="st0" d="M726.18,187.01c.62.02,1.23.02,1.85-.02.62-.03,1.23-.05,1.85-.05h.59c.31.02.61.05.89.08.29.03.55.04.79.02l1.19-.07c.11,0,.22.01.35.03.12.02.24.12.35.3.15.22.23.56.23,1.02,0,.09,0,.14-.02.17-.01.02-.02.15-.02.4-.02.2-.04.35-.07.45-.02.1-.04.2-.07.31l-.13.76c-.02.15-.05.33-.08.53-.03.2-.11.35-.21.46-.04.04-.13.1-.26.17-.13.07-.36.09-.69.07l-4.92-.2c-.64-.02-1.1.11-1.39.4-.18.18-.28.36-.3.56-.02.2-.02.36,0,.5l.03.36c0,.07,0,.13.02.18.01.06.02.12.02.18v.4c0,.11.01.23.03.36.02.13.09.26.2.4.18.24.42.39.74.43.32.04.6.07.84.07l1.29-.03c.2,0,.38,0,.54-.02.17-.01.38-.02.64-.02h.21s.06,0,.08.02c.02.01.04.02.07.03.02.01.08.02.16.02l.53.03c.31.02.58.02.81-.02.23-.03.42-.05.58-.05s.36.03.61.08c.25.06.43.14.54.25.18.18.26.54.26,1.09v1.45c0,.13-.01.33-.03.59-.02.26-.04.45-.07.56-.04.18-.1.31-.18.41-.08.1-.17.17-.28.21-.24.13-.49.21-.74.23-.25.02-.5.03-.74.03s-.53,0-.86-.02c-.33-.01-.68-.02-1.04-.03-.36-.01-.72-.03-1.07-.05-.35-.02-.65-.04-.89-.07l-1.29-.1c-.07,0-.16.02-.28.05-.12.03-.24.1-.35.21-.18.24-.28.45-.31.61s-.05.3-.05.41v1.57c0,.23.02.44.07.61.02.09.04.18.07.28s.09.19.2.28.22.14.33.17.21.04.3.07l.59.07c.51.04.92.07,1.25.07s.58-.01.76-.03c.37-.02.76-.02,1.16,0,.4.02.78.03,1.15.03.2,0,.4-.01.61-.03.21-.02.41-.03.61-.03.48-.02.84.02,1.06.12.22.1.37.19.46.28.15.15.24.36.26.61.02.25.03.5.03.74,0,.35,0,.7.02,1.06.01.35-.01.67-.07.96-.05.29-.15.52-.3.71s-.37.28-.68.28h-.66c-.42,0-.83-.01-1.24-.03-.41-.02-.82-.03-1.24-.03-.38,0-.75.01-1.12.03-.37.02-.75.03-1.12.03h-3.53c-.15,0-.31,0-.46-.02-.15-.01-.31-.02-.46-.02h-1.39c-.24,0-.54,0-.89.02-.35.01-.62-.14-.79-.45-.04-.07-.09-.15-.13-.25-.04-.1-.07-.2-.07-.31l-.07-1.42c0-.11,0-.23-.02-.35-.01-.12-.02-.24-.02-.35v-1.02l-.03-1.75c-.02-.51-.01-.99.03-1.45s.04-1.06,0-1.78c-.02-.37-.04-.7-.05-.97-.01-.27-.02-.57-.02-.87,0-.22,0-.41.02-.58.01-.17.02-.33.02-.5s0-.35.02-.56c.01-.21.02-.48.02-.81v-.79c0-.2,0-.36-.02-.48-.01-.12-.02-.23-.03-.33-.01-.1-.02-.21-.02-.33s.01-.28.03-.48c0-.13,0-.27.02-.43.01-.15.03-.36.05-.63l.03-.83v-.43c0-.18-.01-.36-.03-.56-.02-.2-.04-.46-.07-.79v-.59c0-.22.03-.51.08-.87.05-.36.22-.64.51-.84.18-.11.38-.19.63-.23.24-.04.51-.05.79-.03l3.37.13Z"/>
    <path class="st0" d="M450.04,242.02c-.31,0-.51,0-.61.02-.1.01-.27.02-.51.02-.4,0-.68-.04-.84-.12-.16-.08-.28-.17-.35-.28-.04-.07-.09-.18-.15-.33-.06-.15-.08-.4-.08-.73s0-.54.02-.64c.01-.1.02-.18.03-.23.01-.05.02-.13.03-.21.01-.09.02-.29.02-.59,0-.18,0-.36-.02-.56-.01-.2-.02-.38-.02-.56-.02-.31-.03-.62-.02-.92.01-.31.02-.62.02-.92,0-.48,0-.86.02-1.14.01-.27.02-.51.03-.69,0-.19.02-.35.03-.5,0-.14.02-.31.02-.51v-.81c0-.27-.01-.57-.03-.87-.02-.35-.03-.63-.03-.84v-2.11c0-.08,0-.21.02-.4,0-.19.03-.52.05-1.01.04-.77.07-1.29.08-1.57.01-.27.02-.47.02-.58,0-.48-.01-.96-.03-1.42-.02-.46-.03-.94-.03-1.42,0-.55.04-.95.12-1.19.08-.24.16-.42.25-.53.15-.2.35-.33.59-.4s.5-.11.78-.13.55-.02.83.02c.27.03.52.05.74.05.53.04,1.06.05,1.6.02.54-.03,1.07-.04,1.6-.02.4.02.79.04,1.19.07.4.02.79.02,1.19,0l1.81-.1c.51-.02.91-.03,1.21-.03s.53.03.71.08c.18.06.31.13.4.22.09.09.17.2.23.33.09.16.13.33.13.53,0,.09,0,.17-.02.25-.01.08-.02.16-.02.25-.02.11-.03.21-.03.3v1.43c0,.09-.01.24-.03.45-.02.21-.1.4-.23.58-.2.24-.44.36-.71.35-.28-.01-.5-.02-.68-.02l-4.82-.1c-.09,0-.29.02-.59.05-.31.03-.55.16-.73.38-.22.24-.33.52-.31.85.01.33.02.61.02.85v.23c0,.2,0,.38.02.56.01.17.08.35.21.52.18.22.48.37.92.44.44.08.81.11,1.12.11.33,0,.58,0,.76-.02.18-.01.31-.03.41-.05.1-.02.17-.03.21-.03h.2l1.12.07c.42.02.79.01,1.11-.03.32-.04.67-.01,1.04.1.09.04.2.13.35.25.14.12.21.37.21.74,0,.22-.01.39-.03.5-.02.13-.04.26-.05.38-.01.12-.02.25-.02.38v1.29c0,.18-.03.32-.1.45-.07.12-.13.21-.2.28-.11.09-.23.14-.35.17s-.24.03-.35.03-.23,0-.36-.02c-.13-.01-.25-.02-.36-.02h-.5c-.31,0-.61.01-.91.03-.3.02-.6.02-.91,0l-1.38-.07c-.46-.02-.8,0-1.01.08-.21.08-.38.17-.51.28-.11.11-.21.23-.31.35-.1.12-.17.29-.21.51-.07.29-.11.62-.13.99-.02.37-.04.74-.05,1.09-.01.35-.02.67-.02.96v.63l-.1,1.98c-.02.31-.03.56-.02.74,0,.19,0,.35,0,.5-.01.14-.03.26-.07.36-.03.1-.11.2-.21.31-.22.24-.55.36-.99.36l-1.42-.03Z"/>
    <path class="st0" d="M465.89,239.74c-.2-.15-.36-.28-.49-.38-.13-.1-.26-.21-.38-.33-.12-.12-.25-.27-.38-.46-.13-.19-.31-.45-.53-.78-.33-.51-.63-1-.89-1.48-.26-.48-.46-1.08-.59-1.78-.04-.15-.09-.4-.13-.74-.04-.34-.08-.7-.12-1.07-.03-.37-.07-.73-.1-1.06s-.05-.57-.05-.73c0-.33.03-.68.08-1.06.05-.37.12-.74.18-1.09.07-.35.14-.68.21-.97.08-.3.14-.52.18-.68.2-.64.51-1.31.92-2.01.42-.7.85-1.34,1.29-1.91.44-.55.82-.97,1.14-1.25.32-.29.57-.5.74-.63.35-.26.78-.5,1.27-.69.5-.2,1-.37,1.52-.51.52-.14,1.02-.25,1.52-.33.49-.08.93-.12,1.3-.12,1.12,0,2.07.14,2.85.41.78.28,1.37.51,1.77.71.53.26,1,.55,1.42.86s.78.62,1.09.92c.31.31.57.59.78.84.21.25.36.45.45.58.31.46.59.98.86,1.55.26.57.48,1.1.66,1.58.04.13.1.31.17.53.07.22.13.51.18.86.05.35.1.79.13,1.3.03.52.04,1.14.02,1.86-.02,1.25-.19,2.36-.5,3.32s-.68,1.79-1.11,2.51c-.43.72-.87,1.3-1.32,1.77s-.84.8-1.17,1.02c-.64.46-1.25.81-1.85,1.06-.59.24-1.15.42-1.67.54-.52.12-.98.19-1.39.21-.41.02-.74.03-1.01.03-1.21,0-2.3-.1-3.28-.3-.98-.2-1.94-.67-2.89-1.42l-.89-.69ZM477.84,231.35c0-.6-.06-1.25-.17-1.95-.11-.71-.32-1.31-.63-1.82-.18-.33-.41-.65-.69-.96-.29-.31-.62-.59-.99-.84-.37-.25-.79-.46-1.24-.61-.45-.15-.93-.23-1.44-.23-.38,0-.65.03-.83.08-.18.06-.37.1-.59.15-.24.07-.51.13-.79.2-.29.07-.65.29-1.09.66-.66.55-1.17,1.25-1.53,2.1-.36.85-.54,1.74-.54,2.66,0,.64.07,1.32.21,2.04s.43,1.43.87,2.13c.46.77,1.11,1.34,1.93,1.7.82.36,1.65.55,2.49.55.48,0,.93-.07,1.34-.21.41-.14.76-.32,1.07-.53.31-.21.57-.42.78-.65s.38-.41.51-.56c.42-.53.74-1.15.97-1.87.23-.72.35-1.4.35-2.04Z"/>
    <path class="st0" d="M486.77,242.05h-.45c-.17,0-.32-.02-.46-.07-.14-.04-.26-.13-.35-.26s-.13-.33-.13-.59c0-.13,0-.26.02-.38,0-.12.02-.25.02-.38,0-.2,0-.39-.02-.58-.01-.19-.02-.38-.02-.58,0-.15,0-.3.02-.43,0-.13.03-.27.05-.43,0-.09,0-.17.02-.25.01-.08.02-.16.02-.25l.03-1.32v-1.01c0-.25,0-.47-.02-.66-.01-.19-.03-.36-.05-.51s-.03-.34-.03-.56v-.3c0-.29,0-.56.02-.82,0-.26.03-.54.05-.83.02-.55.02-1.09,0-1.62-.02-.53-.02-1.07,0-1.62,0-.42.01-.79.03-1.11.02-.32.04-.62.05-.91.01-.29.02-.58.03-.87.01-.3.02-.64.02-1.04l-.07-3.73c0-.09.02-.22.05-.4s.14-.34.31-.5c.11-.09.27-.16.48-.21.21-.05.4-.08.58-.08l2.11.07c.55.02.96.03,1.24.03h.66c.17,0,.32,0,.48-.02s.38-.02.69-.02c.11,0,.2,0,.28.02.08.01.17.02.28.02.44,0,.91.01,1.42.03.51.02,1.02.09,1.55.2.53.11,1.05.27,1.57.48.52.21,1.03.49,1.53.84.7.51,1.3,1.21,1.78,2.11.48.9.73,2.05.73,3.43,0,.33-.03.7-.08,1.12s-.13.84-.23,1.25c-.1.42-.23.81-.38,1.19-.15.37-.33.69-.53.96-.02.04-.04.07-.07.08-.02.01-.04.04-.07.08-.04.04-.07.08-.08.12-.01.03-.04.07-.08.12-.15.22-.29.39-.41.51-.12.12-.24.24-.35.36-.11.12-.24.26-.4.41-.15.15-.34.37-.56.66-.2.24-.3.48-.3.73,0,.15.03.28.08.37.05.1.18.23.38.41.37.33.72.56,1.04.72s.59.27.81.36c.24.11.43.18.58.23.14.04.26.11.35.19.09.11.14.25.17.42.02.17.03.3.03.42,0,.24-.01.5-.03.76-.02.27-.03.52-.03.76l-.03,1c-.02.46-.04.81-.05,1.05-.01.23-.1.42-.28.55-.13.11-.33.19-.59.25-.26.06-.47.08-.63.08-.11,0-.31-.01-.61-.03s-.58-.12-.84-.3c-.15-.11-.37-.29-.66-.53-.44-.37-.8-.67-1.07-.89-.28-.22-.53-.46-.78-.73l-.53-.59-.26-.26c-.11-.04-.17-.08-.18-.1-.01-.02-.03-.04-.05-.07l-.86-.53c-.26-.18-.46-.34-.59-.48s-.35-.27-.66-.38c-.15-.04-.28-.07-.36-.08s-.2-.02-.33-.02c-.04,0-.15.02-.33.05-.18.03-.32.12-.43.25-.15.18-.24.34-.26.5-.02.15-.03.25-.03.3v1.81c0,.18,0,.32.02.43.01.11.03.22.05.33.07.2.1.38.1.56,0,.4-.17.62-.51.66-.34.04-.7.04-1.07,0-.11-.02-.25-.03-.43-.03l-2.08.07ZM490.76,231.23c.04.46.17.75.36.86.09.04.2.08.35.12.14.03.28.05.41.05.37,0,.72-.06,1.04-.18s.61-.27.86-.45c.25-.18.47-.35.64-.53.18-.18.31-.32.4-.43.09-.11.2-.26.35-.46.14-.2.29-.43.43-.69.14-.26.26-.57.36-.91.1-.34.15-.7.15-1.07s-.07-.74-.2-1.09c-.13-.35-.33-.65-.59-.89-.33-.31-.77-.51-1.32-.59-.55-.09-1.07-.13-1.55-.13-.31,0-.62.03-.94.1-.32.07-.53.24-.64.53-.04.09-.08.22-.12.4-.03.18-.05.37-.05.59,0,.15,0,.28.02.38.01.1.02.21.02.33v.45c0,.18-.01.42-.03.73,0,.11,0,.29-.02.54-.01.25-.02.43-.02.54l.1,1.81Z"/>
    <path class="st0" d="M520.2,219.84c.22,0,.38,0,.5.02.11.01.27.02.49.02.13,0,.27,0,.41-.02s.28-.02.41-.02c.18,0,.44.03.79.08.35.06.62.17.79.35.11.11.22.27.33.48.11.21.2.4.26.58.07.18.12.37.16.59.04.22.12.48.23.79l.3,1.02c.11.31.2.6.26.87.07.28.14.63.23,1.07.02.24.05.43.1.58.04.14.13.4.26.78.11.31.19.56.25.74.05.19.09.36.12.51.02.15.04.29.05.41.01.12.03.26.05.41.15.9.3,1.63.43,2.18.13.55.23.99.3,1.32l.5,2.34c.04.18.09.35.15.53.05.18.1.35.15.53.04.13.07.26.07.4s.02.26.07.4l.63,2.77c.04.24.1.52.17.83.07.31.04.62-.07.92-.07.18-.15.3-.25.38-.1.08-.19.14-.28.18-.15.07-.33.1-.51.1s-.49.01-.91.03l-.63.03h-.76c-.18,0-.35,0-.51-.02-.17-.01-.29-.03-.38-.05-.18-.04-.3-.09-.38-.13-.08-.04-.15-.11-.21-.2-.15-.18-.24-.31-.26-.4s-.05-.2-.1-.33l-.59-1.72c-.07-.2-.14-.34-.21-.41s-.15-.13-.21-.15c-.04-.02-.13-.04-.26-.05-.13-.01-.27-.03-.41-.05s-.28-.04-.41-.05c-.13-.01-.21-.02-.23-.02h-.86c-.22,0-.46,0-.73.02-.26.01-.53.03-.79.05-.26.02-.52.05-.76.08-.24.03-.44.07-.59.12-.2.07-.38.16-.54.28-.17.12-.3.29-.41.51-.11.18-.19.39-.25.64-.06.25-.14.6-.25,1.04-.02.07-.05.17-.08.31-.03.14-.11.26-.21.35-.04.04-.1.07-.18.08-.08.01-.14.02-.18.02-.11,0-.23,0-.35-.02-.12-.01-.24-.02-.35-.02-.42-.04-.83-.04-1.24,0-.41.04-.82.04-1.24,0-.26-.02-.47-.04-.63-.07s-.31-.12-.46-.3c-.07-.09-.13-.2-.2-.33-.07-.13-.1-.25-.1-.36,0-.04.02-.18.05-.41.03-.23.06-.37.08-.41.02-.07.04-.13.05-.18.01-.05.03-.12.05-.18.04-.18.07-.35.07-.53s.02-.35.07-.53l.17-.79c.11-.51.18-.89.21-1.16.03-.26.07-.52.12-.76.09-.59.18-1.03.28-1.3.1-.27.19-.57.28-.87.02-.13.04-.24.07-.31.02-.08.04-.17.05-.28.01-.11.03-.25.07-.41s.08-.4.15-.71c.02-.11.06-.31.12-.61.05-.3.1-.5.15-.61.15-.66.3-1.27.45-1.83.14-.56.29-1.14.45-1.73.15-.59.31-1.24.46-1.93.15-.69.32-1.5.49-2.43.11-.64.23-1.17.35-1.58.12-.42.37-.78.74-1.09.22-.18.4-.27.53-.28.13-.01.28-.02.43-.02.11,0,.2,0,.26-.02.07-.01.15-.02.25-.03.1-.01.22-.02.36-.03.14-.01.36-.02.64-.02h2.11ZM520.46,227.17c-.04-.15-.1-.33-.18-.54-.08-.21-.16-.37-.25-.48-.11-.11-.25-.17-.43-.17s-.38.15-.63.45c-.24.3-.44.92-.59,1.86-.02.13-.04.24-.05.31-.01.08-.03.17-.05.28-.02.11-.04.25-.07.43-.02.18-.07.41-.13.69-.07.42-.14.76-.21,1.02-.08.26-.12.48-.12.66v.2c0,.07,0,.13-.02.18-.01.06-.02.12-.02.18,0,.11.02.24.05.38.03.14.07.26.12.35.04.11.18.23.4.36.22.13.57.2,1.06.2h.36c.15,0,.31,0,.48-.02.17-.01.32-.03.48-.05.15-.02.28-.05.36-.1.31-.11.48-.27.53-.48.04-.21.07-.4.07-.58,0-.26-.01-.48-.03-.66-.02-.18-.04-.34-.07-.5-.02-.15-.05-.3-.1-.45s-.09-.3-.13-.48c-.13-.48-.2-.82-.21-1.01-.01-.19-.06-.4-.15-.64l-.46-1.42Z"/>
    <path class="st0" d="M539.86,235.49c-.2-.31-.37-.59-.53-.84-.15-.25-.38-.62-.69-1.11-.26-.42-.46-.71-.59-.89-.13-.18-.25-.37-.36-.59l-.23-.43c-.29-.53-.47-.87-.54-1.04s-.15-.28-.21-.35c-.04-.04-.11-.09-.2-.15-.09-.05-.18-.08-.26-.08-.18,0-.29.07-.33.2-.04.13-.08.22-.1.26-.02.09-.05.23-.08.43-.03.2-.04.48-.02.86l.03.59c.02.37.03.65.03.83v1.02c0,.22-.01.43-.03.64-.02.21-.03.42-.03.64,0,.15.01.3.03.45.02.14.03.29.03.45l.07,3.23c0,.11,0,.21.02.31.01.1.03.2.05.31.02.2.04.34.05.43.01.09.02.17.02.23,0,.26-.05.48-.15.64s-.2.27-.31.31c-.2.11-.49.15-.88.13-.38-.02-.68-.03-.87-.03h-2.44c-.18,0-.29-.02-.35-.07-.05-.04-.11-.09-.15-.13-.15-.2-.23-.38-.23-.56.02-.33.04-.51.05-.53.01-.02.02-.09.02-.2v-.79l.03-5.08c0-.42-.01-.83-.03-1.22-.02-.4-.03-.8-.03-1.22v-.43c0-.24,0-.49.02-.74.01-.25.03-.5.05-.74,0-.11,0-.23.02-.36,0-.13.02-.25.02-.36,0-.31-.01-.63-.03-.96s-.04-.65-.07-.96c-.04-.46-.07-.93-.07-1.4v-3.02c0-.22-.01-.43-.03-.64-.02-.21-.04-.42-.07-.64-.02-.15-.03-.31-.03-.46v-.46c0-.29.02-.5.07-.63.04-.13.09-.22.13-.26.11-.11.23-.18.35-.2.12-.02.24-.03.35-.03h.2c.51,0,1.01.01,1.52.03.51.02,1.03.01,1.58-.03h.59c.15,0,.3.03.43.1.13.07.26.19.4.36.13.18.31.43.53.76l2.44,3.7c.13.2.25.38.35.54s.2.34.3.51c.1.18.21.37.33.58.12.21.28.46.48.74.26.4.51.76.73,1.09.13.24.25.45.35.63.1.18.19.35.26.53.08.18.16.37.26.58.1.21.21.45.35.71.07.11.17.29.31.54.14.25.27.38.38.38.02,0,.05-.01.1-.03.04-.02.08-.1.1-.23.02-.09.03-.18.02-.26-.01-.09-.02-.19-.03-.31-.01-.12-.02-.28-.03-.48-.01-.2-.02-.45-.02-.76,0-.2,0-.39.03-.58.02-.19.03-.38.03-.58,0-.35-.02-.68-.05-.97-.03-.3-.04-.57-.02-.81l.03-.43c.02-.2.03-.43.02-.69s-.02-.53-.03-.79c-.01-.26-.02-.51-.03-.74-.01-.23-.02-.4-.02-.51v-.3c0-.29,0-.57.02-.84.01-.27.02-.56.02-.84,0-.18,0-.34-.02-.48-.01-.14,0-.3.02-.48,0-.18.04-.31.13-.4.11-.11.19-.16.23-.15.04.01.11.02.2.02l1.09.03h.31c.05,0,.1,0,.13-.02.03-.01.07-.02.12-.02h.23c.15.02.29.04.4.05.11.01.23.02.36.02h.56c.2,0,.42,0,.66-.02.24-.01.46.07.66.25.09.07.16.17.21.31.05.14.08.35.08.61,0,.18,0,.34-.02.48-.01.14-.03.43-.05.87l-.03,1.02v2.38c0,.18,0,.4-.02.66-.01.26-.02.67-.02,1.22-.02.42-.03.74-.03.97s-.01.5-.03.81c-.02.59-.03,1.01-.03,1.25v1.4c0,.3-.01.79-.03,1.47l-.07,2.77c0,.42,0,.78.02,1.09.01.31.03.59.07.84s.07.49.1.71c.03.22.05.46.05.73l.03,1.09c0,.18,0,.34-.02.5s-.08.29-.21.4c-.18.15-.42.23-.73.23-.18,0-.38-.01-.61-.03s-.42-.03-.58-.03h-1.25c-.11,0-.33-.02-.66-.07-.33-.04-.58-.2-.76-.46l-1.29-1.81c-.37-.55-.67-1.05-.87-1.5-.21-.45-.5-.94-.87-1.47l-.83-1.19Z"/>
    <path class="st0" d="M562,219.98c.31,0,.54.04.69.12s.28.15.36.21c.15.15.25.31.28.48.03.17.05.32.05.48v1.48c0,.11,0,.2-.02.28s-.02.17-.02.28c-.02.13-.03.26-.03.38v.61c0,.2-.05.37-.16.53-.02.02-.07.07-.13.13s-.14.1-.23.1l-1.32-.03c-.13,0-.32.02-.56.05-.24.03-.48.17-.73.41-.07.07-.18.25-.35.56s-.25.84-.25,1.58v.99c0,.59,0,1,.02,1.2.01.21.02.35.02.43s0,.15-.02.21c-.01.07-.04.26-.08.59-.07.51-.09.87-.07,1.09.02.22.03.51.03.86v2.66c0,.17-.01.48-.03.94,0,.18,0,.32-.02.43-.01.11-.02.23-.02.35s0,.26.02.41c.01.15.02.35.02.59l.1,1.98c.02.37.02.65-.02.83-.03.18-.1.32-.21.43-.18.18-.35.26-.53.26l-1.45.1c-.29.02-.54.02-.78,0-.23-.02-.4-.03-.51-.03h-1.12c-.11,0-.22-.03-.33-.08-.11-.05-.22-.18-.33-.38-.09-.18-.13-.36-.13-.56l.03-1.06v-.33c0-.11,0-.21.02-.3.01-.09.02-.19.02-.3v-.94c0-.32-.01-.63-.03-.94-.02-.18-.04-.36-.05-.54-.01-.19,0-.37.02-.54l.1-1.78c.02-.15.03-.31.02-.46s0-.31.02-.46c0-.09,0-.17.02-.23.01-.07.02-.14.02-.23v-.4c-.02-.18-.03-.3-.03-.38s-.01-.24-.03-.48v-.68c0-.1,0-.21.02-.33.01-.12.02-.28.02-.48v-2.87c0-.37,0-.7.02-.99.01-.29-.14-.6-.45-.96-.11-.13-.24-.22-.38-.26-.14-.04-.27-.07-.38-.07l-1.81.03c-.22,0-.38-.03-.48-.08-.1-.05-.18-.14-.25-.25-.11-.18-.17-.47-.17-.89v-.69c0-.29.01-.53.03-.73l.03-.53s0-.13.02-.26c.01-.13.02-.27.03-.43.01-.15.03-.3.05-.43.02-.13.05-.23.1-.3.07-.11.21-.22.43-.33.22-.11.52-.17.89-.17.22,0,.43,0,.63.02.2.01.41.03.63.05.31.02.61.03.91.02.3-.01.6-.02.91-.02.55,0,1.09.01,1.63.03.54.02,1.08.03,1.63.03l3.7-.03Z"/>
    <path class="st0" d="M565.34,225.26c0-.2.01-.4.03-.61.02-.21.03-.41.03-.61,0-.09,0-.17-.02-.25-.01-.08-.02-.16-.02-.25v-.36c0-.13-.01-.25-.03-.36l-.1-.89-.03-.56c0-.11.02-.27.07-.5.04-.22.19-.43.43-.63.18-.13.33-.22.46-.26.13-.04.26-.07.4-.07l2.84-.03c.29,0,.52.06.71.18.19.12.33.27.41.45.09.18.15.37.18.58.03.21.05.39.05.54,0,.31,0,.61-.02.91-.01.3-.03.63-.05,1.01l-.03,1.42c0,.11,0,.2-.02.28-.01.08-.02.17-.02.28,0,.22.02.43.05.64.03.21.05.43.05.68l-.03,1.91v2.54c0,.46,0,.81.02,1.06.01.24.02.51.02.79v4.46c0,.22,0,.43-.02.64-.01.21-.02.42-.02.64,0,.11.01.19.03.23v1.22c0,.37.01.66.03.86.02.2-.06.4-.23.59-.07.09-.14.14-.21.17-.08.02-.21.03-.41.03-.24,0-.43,0-.58-.02-.14-.01-.42-.02-.84-.02h-2.44c-.13,0-.25-.04-.35-.12-.1-.08-.17-.14-.21-.18-.09-.11-.14-.24-.15-.38s-.02-.24-.02-.28v-.1s.01-.09.03-.2v-.36l.03-.63c0-.2,0-.49.02-.89.01-.4.02-.8.03-1.2.01-.41.02-.78.02-1.12v-.71l-.03-5.87-.1-2.87.03-1.78Z"/>
    <path class="st0" d="M576.51,228.69h.18c.08,0,.19-.01.35-.03h1.07c.16,0,.37.01.61.03.75.02,1.19.06,1.32.1.2.11.33.28.4.5.02.04.03.15.03.31s0,.39.03.68l.07.76-.07.82c-.04.53-.1.86-.17.99-.15.22-.52.33-1.09.33h-.53l-1.29-.07h-.46l-.86-.03c-1.43-.04-2.19-.09-2.28-.13-.24-.13-.36-.66-.36-1.58v-.89c.02-.77.1-1.28.23-1.52.09-.15.32-.25.69-.3l2.11.03Z"/>
    <path class="st0" d="M583.36,224.86c0-.29,0-.48-.02-.59-.01-.11-.02-.2-.03-.28-.01-.08-.03-.17-.05-.28-.02-.11-.03-.32-.03-.63v-.4c0-.13-.01-.26-.03-.4,0-.04,0-.08-.02-.12-.01-.03-.02-.07-.02-.12v-.4c.02-.29.05-.54.08-.78s.14-.43.31-.61c.04-.04.12-.1.21-.17.1-.07.26-.11.48-.13.13-.02.26-.02.38,0,.12.02.25.03.38.03.15,0,.3,0,.45-.02.14-.01.29-.02.45-.02.07,0,.13,0,.18.02.05.01.12.02.18.02.15,0,.3,0,.43-.02.13-.01.27-.02.43-.02.29,0,.52.1.71.31.19.21.4.51.64.91.07.09.19.28.38.58.19.3.38.61.59.94.21.33.41.64.59.94.19.3.31.49.38.58.11.18.26.39.45.64.19.25.38.52.59.79.21.28.42.56.63.84.21.29.4.53.58.73.04.07.12.17.25.31.12.14.25.29.4.45.14.15.29.29.43.4.14.11.25.17.31.17.04,0,.09-.02.15-.07.05-.04.15-.15.28-.33.07-.11.12-.2.15-.26s.1-.18.21-.33c.04-.07.1-.14.18-.23.08-.09.19-.25.35-.49l.46-.69c.11-.18.22-.36.35-.56.12-.2.25-.38.38-.56.04-.09.1-.17.17-.23s.12-.14.16-.23c.07-.11.2-.34.4-.69.2-.35.36-.65.5-.89l1.06-2.05c.04-.07.13-.2.26-.41.13-.21.23-.35.3-.41.04-.04.12-.1.23-.18.11-.08.24-.12.4-.12l2.41.07c.33,0,.58.01.76.03.18.02.31.06.41.1.1.04.17.09.21.15.04.06.1.12.17.18.04.04.1.12.17.23.07.11.09.27.07.49l-.03.86v3.1c0,.44-.01.75-.03.92-.02.18-.04.34-.05.48s-.02.32-.03.53c-.01.21,0,.57.02,1.07.02.66.04,1.17.05,1.52.01.35.02.64.02.87s-.01.44-.03.61c-.02.18-.03.41-.03.69v.96c0,.2,0,.39.03.58s.04.42.05.71c.01.29.02.74.02,1.35v.26c0,.18,0,.38-.02.61-.01.23-.04.67-.08,1.3l-.03.59c0,.22,0,.39.02.49.01.11.02.21.03.3s.03.18.05.26c.02.09.03.23.03.43v.63c0,.15-.01.33-.03.53-.02.2-.07.39-.13.58-.07.19-.17.34-.31.46-.14.12-.35.18-.61.18h-3.5c-.09,0-.17,0-.23-.02-.07-.01-.14-.04-.23-.08-.22-.13-.33-.41-.33-.82,0-.33.03-.68.08-1.04.05-.36.08-.64.08-.84l-.03-5.81c0-.13-.02-.29-.05-.46-.03-.18-.12-.32-.25-.43-.13-.11-.22-.17-.26-.17-.11,0-.23.04-.36.13-.11.07-.19.12-.25.17-.05.04-.12.1-.18.18-.07.08-.16.19-.3.35-.13.15-.33.4-.59.73l-1.16,1.39c-.18.24-.31.43-.4.56-.09.13-.2.25-.33.36-.13.13-.31.2-.53.2-.11,0-.23-.02-.35-.05-.12-.03-.23-.07-.31-.12-.04-.04-.15-.13-.31-.26-.16-.13-.41-.42-.74-.86l-.79-1.06c-.15-.2-.26-.33-.33-.4s-.14-.13-.21-.2c-.08-.07-.17-.15-.26-.26-.1-.11-.26-.3-.48-.56l-.4-.5c-.09-.11-.22-.23-.4-.36s-.35-.2-.53-.2c-.29,0-.45.13-.5.4-.04.26-.07.46-.07.59s0,.26-.02.4c-.01.13-.02.26-.02.4v.4l-.13,5.44v.64c0,.08,0,.2.02.36.01.17.02.45.02.84,0,.13-.02.29-.05.46-.03.18-.1.32-.21.43-.07.04-.16.08-.28.12-.12.03-.23.05-.31.05h-.2c-.13-.02-.23-.04-.28-.07-.06-.02-.18-.02-.38,0l-1.45.1h-.69c-.15,0-.3,0-.45-.02-.14-.01-.25-.02-.31-.02-.02,0-.08-.02-.17-.05-.09-.03-.17-.08-.23-.15-.11-.11-.17-.23-.18-.36-.01-.13-.02-.21-.02-.23v-1.16l-.07-1.29c-.02-.46,0-.9.08-1.3.08-.41.12-.79.12-1.14,0-.2,0-.36-.02-.49-.01-.13-.02-.26-.02-.4s0-.29-.02-.48-.02-.43-.02-.74v-2.85c0-.21,0-.39.02-.54.01-.15.02-.34.02-.56v-1.16l-.03-2.57.03-1.72Z"/>
    <path class="st0" d="M607.85,225.26c0-.2.01-.4.03-.61.02-.21.03-.41.03-.61,0-.09,0-.17-.02-.25-.01-.08-.02-.16-.02-.25v-.36c0-.13-.01-.25-.03-.36l-.1-.89-.03-.56c0-.11.02-.27.07-.5.04-.22.19-.43.43-.63.18-.13.33-.22.46-.26.13-.04.26-.07.4-.07l2.84-.03c.29,0,.52.06.71.18.19.12.32.27.41.45.09.18.15.37.18.58.03.21.05.39.05.54,0,.31,0,.61-.02.91-.01.3-.03.63-.05,1.01l-.03,1.42c0,.11,0,.2-.02.28-.01.08-.02.17-.02.28,0,.22.02.43.05.64.03.21.05.43.05.68l-.03,1.91v2.54c0,.46,0,.81.02,1.06.01.24.02.51.02.79v4.46c0,.22,0,.43-.02.64-.01.21-.02.42-.02.64,0,.11.01.19.03.23v1.22c0,.37.01.66.03.86.02.2-.05.4-.23.59-.07.09-.14.14-.21.17-.08.02-.21.03-.41.03-.24,0-.43,0-.58-.02-.14-.01-.42-.02-.84-.02h-2.44c-.13,0-.25-.04-.35-.12-.1-.08-.17-.14-.21-.18-.09-.11-.14-.24-.15-.38-.01-.14-.02-.24-.02-.28v-.1s.01-.09.03-.2v-.36l.03-.63c0-.2,0-.49.02-.89,0-.4.02-.8.03-1.2.01-.41.02-.78.02-1.12v-.71l-.03-5.87-.1-2.87.03-1.78Z"/>
    <path class="st0" d="M616.81,222.35v-1.35c.04-.4.17-.68.36-.86.24-.22.58-.32,1.01-.3.43.02.83.03,1.21.03h1.81c.13,0,.28.01.43.03.15.02.3.11.43.26.18.18.26.37.25.59-.01.22-.03.42-.05.59l-.07.79c-.02.29-.02.57,0,.86.02.29.03.57.03.86,0,.33-.01.66-.03.99-.02.33-.03.66-.03.99,0,.31,0,.62.02.94,0,.32.03.63.05.94.02.31.04.62.05.94.01.32.02.63.02.94,0,.15,0,.35-.02.58-.01.23-.03.54-.05.94-.04.26-.07.47-.08.61-.01.14-.02.3-.02.48v.56c0,.18,0,.42.02.73,0,.31.03.64.05.99.02.35.05.68.08.99.03.31.07.53.12.66.11.31.27.5.48.56.21.07.37.1.48.1l4.69.03c.37,0,.59,0,.64-.02.05-.01.2-.02.45-.02.22,0,.38.03.5.1.11.07.19.12.23.17.04.07.09.18.13.33.04.15.07.36.07.63v1.09c0,.15,0,.27-.02.35-.01.08-.02.17-.02.26v.45c0,.2.01.48.03.86,0,.13,0,.28-.02.43-.01.15-.09.29-.25.4-.18.13-.43.2-.76.2-.13,0-.21,0-.25-.02-.03-.01-.07-.02-.12-.02s-.13,0-.25-.02-.34-.02-.64-.02h-2.31l-1.19-.03c-.55-.02-1.04-.02-1.49,0-.44.02-.76.04-.96.07-.51.02-.95.02-1.32-.02-.37-.03-.74-.05-1.09-.05h-.53c-.33,0-.62.01-.87.03-.25.02-.51-.11-.78-.4-.18-.2-.29-.38-.33-.56-.04-.18-.07-.33-.07-.46,0-.31.01-.6.03-.87.02-.27.03-.57.03-.87,0-.24,0-.5-.02-.76-.01-.26,0-.52.02-.76,0-.15,0-.3.02-.43.01-.13.02-.27.02-.43v-1.12c0-.31-.01-.6-.03-.87-.02-.27-.04-.63-.07-1.07v-.63c0-.29.01-.57.03-.84.02-.27.03-.56.03-.84l-.03-1.35c0-.29,0-.57-.02-.86-.01-.29-.02-.57-.02-.86,0-.64,0-1.28.02-1.91.01-.64,0-1.28-.02-1.91l-.03-1.81Z"/>
    <path class="st0" d="M631.85,225.26c0-.2.01-.4.03-.61.02-.21.03-.41.03-.61,0-.09,0-.17-.02-.25-.01-.08-.02-.16-.02-.25v-.36c0-.13-.01-.25-.03-.36l-.1-.89-.03-.56c0-.11.02-.27.07-.5.04-.22.19-.43.43-.63.18-.13.33-.22.46-.26.13-.04.26-.07.4-.07l2.84-.03c.29,0,.52.06.71.18.19.12.33.27.41.45.09.18.15.37.18.58.03.21.05.39.05.54,0,.31,0,.61-.02.91-.01.3-.03.63-.05,1.01l-.03,1.42c0,.11,0,.2-.02.28-.01.08-.02.17-.02.28,0,.22.02.43.05.64.03.21.05.43.05.68l-.03,1.91v2.54c0,.46,0,.81.02,1.06,0,.24.02.51.02.79v4.46c0,.22,0,.43-.02.64-.01.21-.02.42-.02.64,0,.11.01.19.03.23v1.22c0,.37.01.66.03.86.02.2-.05.4-.23.59-.07.09-.14.14-.21.17-.08.02-.21.03-.41.03-.24,0-.44,0-.58-.02-.14-.01-.42-.02-.84-.02h-2.44c-.13,0-.25-.04-.35-.12-.1-.08-.17-.14-.21-.18-.09-.11-.14-.24-.15-.38-.01-.14-.02-.24-.02-.28v-.1s.01-.09.03-.2v-.36l.03-.63c0-.2,0-.49.02-.89s.02-.8.03-1.2c.01-.41.02-.78.02-1.12v-.71l-.03-5.87-.1-2.87.03-1.78Z"/>
    <path class="st0" d="M650.7,219.98c.31,0,.54.04.69.12s.27.15.36.21c.15.15.25.31.28.48s.05.32.05.48v1.48c0,.11,0,.2-.02.28-.01.08-.02.17-.02.28-.02.13-.03.26-.03.38v.61c0,.2-.06.37-.17.53-.02.02-.07.07-.13.13s-.14.1-.23.1l-1.32-.03c-.13,0-.32.02-.56.05-.24.03-.48.17-.73.41-.07.07-.18.25-.35.56s-.25.84-.25,1.58v.99c0,.59,0,1,.02,1.2,0,.21.02.35.02.43s0,.15-.02.21c-.01.07-.04.26-.08.59-.07.51-.09.87-.07,1.09.02.22.03.51.03.86v2.66c0,.17-.01.48-.03.94,0,.18,0,.32-.02.43-.01.11-.02.23-.02.35s0,.26.02.41c.01.15.02.35.02.59l.1,1.98c.02.37.02.65-.02.83s-.1.32-.21.43c-.18.18-.35.26-.53.26l-1.45.1c-.29.02-.54.02-.78,0-.23-.02-.4-.03-.51-.03h-1.12c-.11,0-.22-.03-.33-.08-.11-.05-.22-.18-.33-.38-.09-.18-.13-.36-.13-.56l.03-1.06v-.33c0-.11,0-.21.02-.3.01-.09.02-.19.02-.3v-.94c0-.32-.01-.63-.03-.94-.02-.18-.04-.36-.05-.54-.01-.19,0-.37.02-.54l.1-1.78c.02-.15.03-.31.02-.46-.01-.15,0-.31.02-.46,0-.09,0-.17.02-.23s.02-.14.02-.23v-.4c-.02-.18-.03-.3-.03-.38s-.01-.24-.03-.48v-.68c0-.1,0-.21.02-.33,0-.12.02-.28.02-.48v-2.87c0-.37,0-.7.02-.99.01-.29-.14-.6-.45-.96-.11-.13-.24-.22-.38-.26-.14-.04-.27-.07-.38-.07l-1.82.03c-.22,0-.38-.03-.48-.08-.1-.05-.18-.14-.25-.25-.11-.18-.17-.47-.17-.89v-.69c0-.29.01-.53.03-.73l.03-.53s0-.13.02-.26c0-.13.02-.27.03-.43.01-.15.03-.3.05-.43.02-.13.05-.23.1-.3.07-.11.21-.22.43-.33.22-.11.52-.17.89-.17.22,0,.43,0,.63.02.2.01.41.03.63.05.31.02.61.03.91.02.3-.01.6-.02.91-.02.55,0,1.09.01,1.63.03.54.02,1.08.03,1.63.03l3.7-.03Z"/>
    <path class="st0" d="M661.43,219.84c.22,0,.38,0,.49.02s.28.02.5.02c.13,0,.27,0,.41-.02.14-.01.28-.02.41-.02.18,0,.44.03.79.08.35.06.62.17.79.35.11.11.22.27.33.48.11.21.2.4.26.58.07.18.12.37.17.59s.12.48.23.79l.3,1.02c.11.31.2.6.26.87.07.28.14.63.23,1.07.02.24.05.43.1.58.04.14.13.4.26.78.11.31.19.56.25.74s.09.36.12.51c.02.15.04.29.05.41.01.12.03.26.05.41.15.9.3,1.63.43,2.18.13.55.23.99.3,1.32l.5,2.34c.04.18.09.35.15.53s.1.35.15.53c.04.13.07.26.07.4s.02.26.07.4l.63,2.77c.04.24.1.52.17.83s.04.62-.07.92c-.07.18-.15.3-.25.38-.1.08-.19.14-.28.18-.15.07-.33.1-.51.1s-.49.01-.91.03l-.63.03h-.76c-.18,0-.35,0-.51-.02-.17-.01-.29-.03-.38-.05-.18-.04-.3-.09-.38-.13-.08-.04-.15-.11-.21-.2-.15-.18-.24-.31-.26-.4-.02-.09-.05-.2-.1-.33l-.59-1.72c-.07-.2-.14-.34-.21-.41-.08-.08-.15-.13-.21-.15-.04-.02-.13-.04-.26-.05-.13-.01-.27-.03-.41-.05-.14-.02-.28-.04-.41-.05-.13-.01-.21-.02-.23-.02h-.86c-.22,0-.46,0-.73.02-.26.01-.53.03-.79.05s-.52.05-.76.08c-.24.03-.44.07-.59.12-.2.07-.38.16-.54.28-.17.12-.3.29-.41.51-.11.18-.19.39-.25.64-.05.25-.14.6-.25,1.04-.02.07-.05.17-.08.31-.03.14-.1.26-.21.35-.04.04-.1.07-.18.08-.08.01-.14.02-.18.02-.11,0-.23,0-.35-.02-.12-.01-.24-.02-.35-.02-.42-.04-.83-.04-1.24,0-.41.04-.82.04-1.24,0-.26-.02-.47-.04-.63-.07-.15-.02-.31-.12-.46-.3-.07-.09-.13-.2-.2-.33-.07-.13-.1-.25-.1-.36,0-.04.02-.18.05-.41.03-.23.06-.37.08-.41.02-.07.04-.13.05-.18,0-.05.03-.12.05-.18.04-.18.07-.35.07-.53s.02-.35.07-.53l.17-.79c.11-.51.18-.89.21-1.16s.07-.52.12-.76c.09-.59.18-1.03.28-1.3.1-.27.19-.57.28-.87.02-.13.04-.24.07-.31.02-.08.04-.17.05-.28.01-.11.03-.25.07-.41s.08-.4.15-.71c.02-.11.06-.31.12-.61.05-.3.11-.5.15-.61.15-.66.3-1.27.45-1.83s.29-1.14.45-1.73c.15-.59.31-1.24.46-1.93.15-.69.32-1.5.5-2.43.11-.64.23-1.17.35-1.58.12-.42.37-.78.74-1.09.22-.18.4-.27.53-.28.13-.01.27-.02.43-.02.11,0,.2,0,.26-.02.07-.01.15-.02.25-.03.1-.01.22-.02.36-.03.14-.01.36-.02.64-.02h2.11ZM661.69,227.17c-.04-.15-.11-.33-.18-.54-.08-.21-.16-.37-.25-.48-.11-.11-.25-.17-.43-.17s-.39.15-.63.45c-.24.3-.44.92-.59,1.86-.02.13-.04.24-.05.31-.01.08-.03.17-.05.28-.02.11-.04.25-.07.43-.02.18-.07.41-.13.69-.07.42-.14.76-.21,1.02-.08.26-.12.48-.12.66v.2c0,.07,0,.13-.02.18-.01.06-.02.12-.02.18,0,.11.02.24.05.38s.07.26.12.35c.04.11.18.23.4.36.22.13.57.2,1.06.2h.36c.15,0,.31,0,.48-.02.17-.01.32-.03.48-.05.15-.02.28-.05.36-.1.31-.11.48-.27.53-.48.04-.21.07-.4.07-.58,0-.26-.01-.48-.03-.66-.02-.18-.04-.34-.07-.5-.02-.15-.06-.3-.1-.45-.04-.14-.09-.3-.13-.48-.13-.48-.2-.82-.21-1.01-.01-.19-.06-.4-.15-.64l-.46-1.42Z"/>
    <path class="st0" d="M673.13,242.05h-.45c-.17,0-.32-.02-.46-.07-.14-.04-.26-.13-.35-.26-.09-.13-.13-.33-.13-.59,0-.13,0-.26.02-.38.01-.12.02-.25.02-.38,0-.2,0-.39-.02-.58-.01-.19-.02-.38-.02-.58,0-.15,0-.3.02-.43.01-.13.03-.27.05-.43,0-.09,0-.17.02-.25.01-.08.02-.16.02-.25l.03-1.32v-1.01c0-.25,0-.47-.02-.66-.01-.19-.03-.36-.05-.51-.02-.15-.03-.34-.03-.56v-.3c0-.29,0-.56.02-.82.01-.26.03-.54.05-.83.02-.55.02-1.09,0-1.62-.02-.53-.02-1.07,0-1.62,0-.42.01-.79.03-1.11.02-.32.04-.62.05-.91,0-.29.02-.58.03-.87,0-.3.02-.64.02-1.04l-.07-3.73c0-.09.02-.22.05-.4.03-.18.14-.34.31-.5.11-.09.27-.16.48-.21.21-.05.4-.08.58-.08l2.11.07c.55.02.96.03,1.24.03h.66c.16,0,.32,0,.48-.02.15-.01.38-.02.69-.02.11,0,.2,0,.28.02s.17.02.28.02c.44,0,.91.01,1.42.03.51.02,1.02.09,1.55.2.53.11,1.05.27,1.57.48.52.21,1.03.49,1.54.84.7.51,1.3,1.21,1.78,2.11.48.9.73,2.05.73,3.43,0,.33-.03.7-.08,1.12-.06.42-.13.84-.23,1.25-.1.42-.23.81-.38,1.19-.15.37-.33.69-.53.96-.02.04-.04.07-.07.08s-.04.04-.07.08c-.04.04-.07.08-.08.12-.01.03-.04.07-.08.12-.15.22-.29.39-.41.51-.12.12-.24.24-.35.36-.11.12-.24.26-.4.41s-.34.37-.56.66c-.2.24-.3.48-.3.73,0,.15.03.28.08.37.05.1.18.23.38.41.37.33.72.56,1.04.72.32.15.59.27.81.36.24.11.43.18.58.23.14.04.26.11.35.19.09.11.14.25.16.42s.03.3.03.42c0,.24-.01.5-.03.76s-.03.52-.03.76l-.03,1c-.02.46-.04.81-.05,1.05-.01.23-.1.42-.28.55-.13.11-.33.19-.59.25-.26.06-.47.08-.63.08-.11,0-.31-.01-.61-.03-.3-.02-.58-.12-.84-.3-.15-.11-.38-.29-.66-.53-.44-.37-.8-.67-1.07-.89-.28-.22-.53-.46-.78-.73l-.53-.59-.26-.26c-.11-.04-.17-.08-.18-.1-.01-.02-.03-.04-.05-.07l-.86-.53c-.26-.18-.46-.34-.59-.48s-.35-.27-.66-.38c-.15-.04-.27-.07-.36-.08-.09-.01-.2-.02-.33-.02-.04,0-.15.02-.33.05-.18.03-.32.12-.43.25-.15.18-.24.34-.26.5s-.03.25-.03.3v1.81c0,.18,0,.32.02.43.01.11.03.22.05.33.07.2.1.38.1.56,0,.4-.17.62-.51.66-.34.04-.7.04-1.07,0-.11-.02-.25-.03-.43-.03l-2.08.07ZM677.12,231.23c.04.46.17.75.36.86.09.04.2.08.35.12s.28.05.41.05c.38,0,.72-.06,1.04-.18s.6-.27.86-.45c.25-.18.47-.35.64-.53.18-.18.31-.32.4-.43.09-.11.2-.26.35-.46.14-.2.29-.43.43-.69s.26-.57.36-.91c.1-.34.15-.7.15-1.07s-.07-.74-.2-1.09c-.13-.35-.33-.65-.59-.89-.33-.31-.77-.51-1.32-.59-.55-.09-1.07-.13-1.55-.13-.31,0-.62.03-.94.1-.32.07-.53.24-.64.53-.04.09-.08.22-.12.4-.03.18-.05.37-.05.59,0,.15,0,.28.02.38.01.1.02.21.02.33v.45c0,.18-.01.42-.03.73,0,.11,0,.29-.02.54-.01.25-.02.43-.02.54l.1,1.81Z"/>
    <path class="st0" d="M690.7,225.26c0-.2.01-.4.03-.61.02-.21.03-.41.03-.61,0-.09,0-.17-.02-.25-.01-.08-.02-.16-.02-.25v-.36c0-.13-.01-.25-.03-.36l-.1-.89-.03-.56c0-.11.02-.27.07-.5.04-.22.19-.43.43-.63.18-.13.33-.22.46-.26.13-.04.26-.07.4-.07l2.84-.03c.29,0,.52.06.71.18.19.12.32.27.41.45.09.18.15.37.18.58.03.21.05.39.05.54,0,.31,0,.61-.02.91-.01.3-.03.63-.05,1.01l-.03,1.42c0,.11,0,.2-.02.28-.01.08-.02.17-.02.28,0,.22.02.43.05.64.03.21.05.43.05.68l-.03,1.91v2.54c0,.46,0,.81.02,1.06.01.24.02.51.02.79v4.46c0,.22,0,.43-.02.64-.01.21-.02.42-.02.64,0,.11.01.19.03.23v1.22c0,.37.01.66.03.86.02.2-.05.4-.23.59-.07.09-.14.14-.21.17-.08.02-.21.03-.41.03-.24,0-.43,0-.58-.02-.14-.01-.42-.02-.84-.02h-2.44c-.13,0-.25-.04-.35-.12-.1-.08-.17-.14-.21-.18-.09-.11-.14-.24-.15-.38-.01-.14-.02-.24-.02-.28v-.1s.01-.09.03-.2v-.36l.03-.63c0-.2,0-.49.02-.89,0-.4.02-.8.03-1.2.01-.41.02-.78.02-1.12v-.71l-.03-5.87-.1-2.87.03-1.78Z"/>
    <path class="st0" d="M710.21,222.81v.54c0,.06,0,.12.02.2.01.08.02.18.02.31,0,.07-.01.17-.03.31-.02.14-.08.27-.17.38-.09.09-.19.14-.31.17-.12.02-.24.03-.35.03h-.16c-.31,0-.61-.02-.91-.05-.3-.03-.6-.07-.91-.12-.18-.02-.34-.04-.5-.05-.15-.01-.3-.02-.43-.02-.35,0-.67.03-.94.1-.28.07-.51.21-.71.43-.15.15-.25.31-.3.46-.04.15-.07.3-.07.43s.03.28.08.45.18.38.38.64c.04.07.17.2.38.41.21.21.65.58,1.34,1.11l.76.59c.44.35.94.78,1.5,1.27.56.5,1.04,1.13,1.44,1.9.26.51.44,1.06.53,1.65.09.59.13,1.1.13,1.52,0,.84-.1,1.56-.31,2.18-.21.62-.47,1.15-.79,1.6-.32.45-.67.83-1.04,1.12-.38.3-.71.54-1.02.74-.42.24-.95.46-1.6.64-.65.19-1.59.28-2.82.28h-.97c-.39,0-.77-.02-1.16-.05-.38-.03-.75-.09-1.09-.18s-.61-.22-.81-.4c-.07-.07-.13-.17-.2-.3-.07-.13-.1-.27-.1-.43l.03-.92c.02-.48.03-.85.02-1.09-.01-.24-.02-.43-.03-.56-.01-.13-.02-.24-.03-.31-.01-.08-.02-.17-.02-.28,0-.31.08-.53.23-.66.11-.09.26-.15.45-.2s.35-.07.48-.07c.09,0,.23.01.41.03.19.02.39.05.61.08.22.03.42.07.61.1.19.03.32.06.41.08.18.04.32.07.43.08.11.01.3.02.56.02.11,0,.25,0,.43-.02s.36-.04.56-.1c.2-.05.39-.14.58-.25.19-.11.35-.27.48-.5.07-.11.13-.25.2-.43.07-.18.1-.35.1-.53,0-.22-.03-.41-.1-.58-.07-.17-.14-.31-.23-.45-.18-.26-.35-.47-.51-.63-.16-.15-.35-.32-.54-.5-.53-.4-.95-.74-1.25-1.02-.11-.11-.22-.21-.33-.31s-.22-.2-.33-.31c-.15-.13-.3-.26-.43-.4-.13-.13-.28-.26-.43-.4l-.66-.59c-.13-.13-.3-.32-.51-.58-.21-.25-.42-.57-.63-.96-.21-.38-.38-.83-.53-1.34-.14-.51-.21-1.08-.21-1.72,0-.9.12-1.64.35-2.23.23-.58.47-1.02.71-1.3.48-.62,1.26-1.11,2.33-1.47,1.07-.36,2.54-.54,4.41-.54.22,0,.48,0,.78.02.3.01.59.03.89.07.3.03.58.08.84.13.26.06.48.14.66.25.22.13.35.31.38.53.03.22.04.59.02,1.12l-.03.82Z"/>
    <path class="st0" d="M713.74,224.86c0-.29,0-.48-.02-.59-.01-.11-.02-.2-.03-.28-.01-.08-.03-.17-.05-.28-.02-.11-.03-.32-.03-.63v-.4c0-.13-.01-.26-.03-.4,0-.04,0-.08-.02-.12-.01-.03-.02-.07-.02-.12v-.4c.02-.29.05-.54.08-.78.03-.23.14-.43.31-.61.04-.04.12-.1.21-.17.1-.07.26-.11.48-.13.13-.02.26-.02.38,0,.12.02.25.03.38.03.15,0,.3,0,.45-.02.14-.01.29-.02.45-.02.07,0,.13,0,.18.02.05.01.12.02.18.02.15,0,.3,0,.43-.02.13-.01.28-.02.43-.02.29,0,.52.1.71.31.19.21.4.51.64.91.07.09.19.28.38.58.19.3.38.61.59.94.21.33.41.64.59.94.19.3.31.49.38.58.11.18.26.39.45.64.19.25.38.52.59.79.21.28.42.56.63.84.21.29.4.53.58.73.04.07.13.17.25.31s.25.29.4.45c.14.15.29.29.43.4.14.11.25.17.31.17.04,0,.09-.02.15-.07.05-.04.15-.15.28-.33.07-.11.12-.2.15-.26.03-.07.1-.18.21-.33.04-.07.1-.14.18-.23.08-.09.19-.25.35-.49l.46-.69c.11-.18.23-.36.35-.56.12-.2.25-.38.38-.56.04-.09.1-.17.17-.23.07-.07.12-.14.17-.23.07-.11.2-.34.4-.69.2-.35.36-.65.49-.89l1.06-2.05c.04-.07.13-.2.26-.41.13-.21.23-.35.3-.41.04-.04.12-.1.23-.18s.24-.12.4-.12l2.41.07c.33,0,.58.01.76.03.18.02.31.06.41.1s.17.09.21.15c.04.06.1.12.17.18.04.04.1.12.16.23.07.11.09.27.07.49l-.03.86v3.1c0,.44-.01.75-.03.92-.02.18-.04.34-.05.48-.01.14-.02.32-.03.53-.01.21,0,.57.02,1.07.02.66.04,1.17.05,1.52,0,.35.02.64.02.87s-.01.44-.03.61c-.02.18-.03.41-.03.69v.96c0,.2.01.39.03.58.02.19.04.42.05.71,0,.29.02.74.02,1.35v.26c0,.18,0,.38-.02.61-.01.23-.04.67-.08,1.3l-.03.59c0,.22,0,.39.02.49.01.11.02.21.03.3.01.09.03.18.05.26.02.09.03.23.03.43v.63c0,.15-.01.33-.03.53-.02.2-.07.39-.13.58-.07.19-.17.34-.31.46-.14.12-.35.18-.61.18h-3.5c-.09,0-.17,0-.23-.02-.07-.01-.14-.04-.23-.08-.22-.13-.33-.41-.33-.82,0-.33.03-.68.08-1.04.05-.36.08-.64.08-.84l-.03-5.81c0-.13-.02-.29-.05-.46-.03-.18-.12-.32-.25-.43-.13-.11-.22-.17-.26-.17-.11,0-.23.04-.36.13-.11.07-.19.12-.25.17-.06.04-.12.1-.18.18-.07.08-.17.19-.3.35-.13.15-.33.4-.59.73l-1.16,1.39c-.18.24-.31.43-.4.56-.09.13-.2.25-.33.36-.13.13-.31.2-.53.2-.11,0-.22-.02-.35-.05-.12-.03-.23-.07-.31-.12-.04-.04-.15-.13-.31-.26-.17-.13-.41-.42-.74-.86l-.79-1.06c-.15-.2-.26-.33-.33-.4-.07-.07-.14-.13-.21-.2s-.17-.15-.26-.26c-.1-.11-.26-.3-.48-.56l-.4-.5c-.09-.11-.22-.23-.4-.36-.18-.13-.35-.2-.53-.2-.29,0-.45.13-.5.4-.04.26-.07.46-.07.59s0,.26-.02.4c-.01.13-.02.26-.02.4v.4l-.13,5.44v.64c0,.08,0,.2.02.36s.02.45.02.84c0,.13-.02.29-.05.46-.03.18-.1.32-.21.43-.07.04-.16.08-.28.12-.12.03-.23.05-.31.05h-.2c-.13-.02-.23-.04-.28-.07-.05-.02-.18-.02-.38,0l-1.45.1h-.69c-.15,0-.3,0-.45-.02-.14-.01-.25-.02-.31-.02-.02,0-.08-.02-.16-.05-.09-.03-.17-.08-.23-.15-.11-.11-.17-.23-.18-.36-.01-.13-.02-.21-.02-.23v-1.16l-.07-1.29c-.02-.46,0-.9.08-1.3.08-.41.12-.79.12-1.14,0-.2,0-.36-.02-.49-.01-.13-.02-.26-.02-.4s0-.29-.02-.48c-.01-.19-.02-.43-.02-.74v-2.85c0-.21,0-.39.02-.54.01-.15.02-.34.02-.56v-1.16l-.03-2.57.03-1.72Z"/>
    <path class="st0" d="M414.93,252.84c.22,0,.38,0,.5.02.11.01.27.02.5.02.13,0,.27,0,.41-.02.14-.01.28-.02.41-.02.18,0,.44.03.79.08.35.05.62.17.79.35.11.11.22.27.33.48.11.21.2.4.26.58.07.18.12.37.17.59.04.22.12.48.23.79l.3,1.02c.11.31.2.6.26.87.07.28.14.63.23,1.07.02.24.05.43.1.58.04.14.13.4.26.78.11.31.19.56.25.74.05.19.09.36.12.51.02.15.04.29.05.41,0,.12.03.26.05.41.15.9.3,1.63.43,2.18.13.55.23.99.3,1.32l.49,2.34c.04.18.09.35.15.53s.1.35.15.53c.04.13.07.26.07.4s.02.26.07.4l.63,2.77c.04.24.1.52.16.83.07.31.04.62-.07.92-.07.18-.15.3-.25.38-.1.08-.19.14-.28.18-.15.07-.32.1-.51.1s-.49.01-.91.03l-.63.03h-.76c-.18,0-.35,0-.51-.02-.16-.01-.29-.03-.38-.05-.18-.04-.3-.09-.38-.13s-.15-.11-.21-.2c-.15-.18-.24-.31-.26-.4-.02-.09-.06-.2-.1-.33l-.59-1.72c-.07-.2-.14-.33-.21-.41-.08-.08-.15-.13-.21-.15-.04-.02-.13-.04-.26-.05-.13-.01-.27-.03-.41-.05-.14-.02-.28-.04-.41-.05s-.21-.02-.23-.02h-.86c-.22,0-.46,0-.73.02-.26.01-.53.03-.79.05-.26.02-.52.05-.76.08s-.44.07-.59.12c-.2.07-.38.16-.54.28-.16.12-.3.29-.41.51-.11.18-.19.39-.25.64s-.14.6-.25,1.04c-.02.07-.05.17-.08.31-.03.14-.1.26-.21.35-.04.04-.1.07-.18.08-.08.01-.14.02-.18.02-.11,0-.23,0-.35-.02-.12-.01-.24-.02-.35-.02-.42-.04-.83-.04-1.24,0-.41.04-.82.04-1.24,0-.26-.02-.47-.04-.63-.07-.15-.02-.31-.12-.46-.3-.07-.09-.13-.2-.2-.33-.07-.13-.1-.25-.1-.36,0-.04.02-.18.05-.41.03-.23.06-.37.08-.41.02-.07.04-.13.05-.18.01-.05.03-.12.05-.18.04-.18.07-.35.07-.53s.02-.35.07-.53l.16-.79c.11-.51.18-.89.21-1.16s.07-.52.12-.76c.09-.59.18-1.03.28-1.3.1-.27.19-.57.28-.87.02-.13.04-.24.07-.31.02-.08.04-.17.05-.28,0-.11.03-.25.07-.41.03-.17.08-.4.15-.71.02-.11.06-.31.12-.61s.1-.5.15-.61c.15-.66.3-1.27.45-1.83.14-.56.29-1.14.45-1.73.15-.59.31-1.24.46-1.93.15-.69.32-1.5.5-2.43.11-.64.22-1.17.35-1.58s.37-.78.74-1.09c.22-.18.4-.27.53-.28.13-.01.27-.02.43-.02.11,0,.2,0,.26-.02s.15-.02.25-.03c.1-.01.22-.02.36-.03.14-.01.36-.02.64-.02h2.11ZM415.19,260.17c-.04-.15-.1-.33-.18-.54s-.16-.37-.25-.48c-.11-.11-.25-.17-.43-.17s-.39.15-.63.45c-.24.3-.44.92-.59,1.86-.02.13-.04.24-.05.31-.01.08-.03.17-.05.28-.02.11-.04.25-.07.43s-.07.41-.13.69c-.07.42-.14.76-.21,1.02-.08.26-.12.48-.12.66v.2c0,.07,0,.13-.02.18-.01.06-.02.12-.02.18,0,.11.02.24.05.38.03.14.07.26.12.35.04.11.18.23.4.36.22.13.57.2,1.06.2h.36c.15,0,.31,0,.48-.02.17-.01.32-.03.48-.05.15-.02.27-.05.36-.1.31-.11.48-.27.53-.48.04-.21.07-.4.07-.58,0-.26-.01-.48-.03-.66s-.04-.34-.07-.5c-.02-.15-.06-.3-.1-.45-.04-.14-.09-.3-.13-.48-.13-.48-.2-.82-.21-1.01-.01-.19-.06-.4-.15-.64l-.46-1.42Z"/>
    <path class="st0" d="M434.6,268.49c-.2-.31-.38-.59-.53-.84-.15-.25-.39-.62-.69-1.11-.26-.42-.46-.71-.59-.89s-.25-.37-.36-.59l-.23-.43c-.29-.53-.47-.87-.54-1.04-.08-.17-.15-.28-.21-.35-.04-.04-.11-.09-.2-.15-.09-.05-.18-.08-.26-.08-.18,0-.29.07-.33.2-.04.13-.08.22-.1.26-.02.09-.05.23-.08.43-.03.2-.04.48-.02.86l.03.59c.02.37.03.65.03.82v1.02c0,.22-.01.43-.03.64-.02.21-.03.42-.03.64,0,.15.01.3.03.45.02.14.03.29.03.45l.07,3.23c0,.11,0,.21.02.31.01.1.03.2.05.31.02.2.04.34.05.43,0,.09.02.17.02.23,0,.26-.05.48-.15.64-.1.17-.2.27-.31.31-.2.11-.49.15-.87.13-.38-.02-.68-.03-.88-.03h-2.44c-.18,0-.29-.02-.35-.07-.06-.04-.1-.09-.15-.13-.15-.2-.23-.38-.23-.56.02-.33.04-.51.05-.53.01-.02.02-.09.02-.2v-.79l.03-5.08c0-.42-.01-.82-.03-1.22-.02-.4-.03-.8-.03-1.22v-.43c0-.24,0-.49.02-.74s.03-.5.05-.74c0-.11,0-.23.02-.36.01-.13.02-.25.02-.36,0-.31-.01-.63-.03-.96-.02-.33-.04-.65-.07-.96-.04-.46-.07-.93-.07-1.4v-3.02c0-.22-.01-.43-.03-.64-.02-.21-.04-.42-.07-.64-.02-.15-.03-.31-.03-.46v-.46c0-.29.02-.5.07-.63s.09-.22.13-.26c.11-.11.22-.18.35-.2.12-.02.24-.03.35-.03h.2c.51,0,1.01.01,1.52.03.51.02,1.03.01,1.58-.03h.59c.15,0,.3.03.43.1.13.07.26.19.4.36.13.18.31.43.53.76l2.44,3.7c.13.2.25.38.35.54s.2.34.3.51.21.37.33.58.28.46.48.74c.26.4.51.76.73,1.09.13.24.25.45.35.63.1.18.19.35.26.53.08.18.17.37.26.58s.21.45.35.71c.07.11.17.29.31.54.14.25.27.38.38.38.02,0,.05-.01.1-.03s.08-.1.1-.23c.02-.09.03-.18.02-.26s-.02-.19-.03-.31-.02-.28-.03-.48c-.01-.2-.02-.45-.02-.76,0-.2.01-.39.03-.58.02-.19.03-.38.03-.58,0-.35-.02-.68-.05-.97-.03-.3-.04-.57-.02-.81l.03-.43c.02-.2.03-.43.02-.69s-.02-.53-.03-.79c-.01-.26-.02-.51-.03-.74-.01-.23-.02-.4-.02-.51v-.3c0-.29,0-.57.02-.84,0-.27.02-.56.02-.84,0-.18,0-.33-.02-.48-.01-.14,0-.3.02-.48,0-.18.04-.31.13-.4.11-.11.19-.16.23-.15s.11.02.2.02l1.09.03h.31c.05,0,.1,0,.13-.02s.07-.02.12-.02h.23c.15.02.29.04.4.05.11.01.23.02.36.02h.56c.2,0,.42,0,.66-.02.24-.01.46.07.66.25.09.07.16.17.21.31.05.14.08.35.08.61,0,.18,0,.34-.02.48-.01.14-.03.43-.05.88l-.03,1.02v2.38c0,.18,0,.4-.02.66s-.02.67-.02,1.22c-.02.42-.03.74-.03.97s-.01.5-.03.81c-.02.59-.03,1.01-.03,1.25v1.4c0,.3-.01.79-.03,1.47l-.07,2.77c0,.42,0,.78.02,1.09,0,.31.03.59.07.84.03.25.07.49.1.71.03.22.05.46.05.73l.03,1.09c0,.18,0,.34-.02.5-.01.15-.08.29-.21.4-.18.15-.42.23-.73.23-.18,0-.38-.01-.61-.03-.23-.02-.42-.03-.58-.03h-1.25c-.11,0-.33-.02-.66-.07s-.58-.2-.76-.46l-1.29-1.81c-.38-.55-.67-1.05-.88-1.5-.21-.45-.5-.94-.88-1.47l-.82-1.19Z"/>
    <path class="st0" d="M453.79,252.94h1.72c.64,0,1.31.12,2.01.36l.96.33c.84.29,1.6.63,2.29,1.04s1.38,1.01,2.06,1.8c.59.71,1.07,1.39,1.44,2.06.36.67.64,1.34.84,2.01.2.67.33,1.36.4,2.08.07.71.1,1.47.1,2.26,0,1.25-.21,2.41-.64,3.47-.43,1.06-.87,1.9-1.34,2.54-1.03,1.45-2.32,2.49-3.86,3.12s-3.3.94-5.28.94h-5.45c-.64,0-1.06-.02-1.27-.07-.21-.04-.34-.09-.38-.13-.31-.2-.48-.5-.53-.89-.04-.4-.07-.76-.07-1.09,0-.31,0-.62.02-.92,0-.31.02-.62.02-.92,0-.73-.01-1.32-.03-1.78-.02-.46-.02-.95,0-1.45l.03-.92c0-.11,0-.23.02-.36,0-.13.03-.25.05-.36,0-.07,0-.13.02-.2.01-.07.02-.13.02-.2,0-.26-.01-.53-.03-.81s-.04-.57-.07-.88v-.56c.02-.24.05-.61.08-1.11s.04-.93.02-1.3l-.07-1.12c-.04-.53-.04-1.06,0-1.6s.07-1.07.07-1.6c0-.33-.01-.65-.03-.97-.02-.32-.03-.64-.03-.97,0-.18.02-.42.05-.73.03-.31.15-.55.35-.73.11-.09.27-.18.48-.26.21-.09.47-.13.78-.13.2,0,.32,0,.36.02.04.01.08.02.12.02s.08,0,.13.02c.05.01.2.02.45.02h4.22ZM455.67,270.07c.15,0,.33-.02.53-.07.2-.04.4-.09.61-.15.21-.05.41-.12.59-.18.19-.07.35-.13.48-.2.62-.29,1.04-.59,1.27-.91.23-.32.43-.67.61-1.04.33-.75.54-1.34.63-1.77.09-.43.13-.86.13-1.3,0-.99-.1-1.78-.31-2.38s-.43-1.06-.68-1.39c-.44-.62-1.08-1.18-1.93-1.7-.85-.52-1.88-.75-3.09-.71-.24-.02-.56,0-.96.05s-.71.23-.96.51-.38.63-.41,1.02c-.03.4-.06.85-.08,1.35l-.1,2.24.03,1.32c.02.37.03.74.03,1.09v1.88c.02.46.04.78.07.94.02.17.05.28.1.35.22.44.57.72,1.06.84.48.12,1.04.18,1.68.18h.69Z"/>
    <path class="st0" d="M485.54,268.49c-.2-.31-.38-.59-.53-.84-.15-.25-.39-.62-.69-1.11-.26-.42-.46-.71-.59-.89s-.25-.37-.36-.59l-.23-.43c-.29-.53-.47-.87-.54-1.04-.08-.17-.15-.28-.21-.35-.04-.04-.11-.09-.2-.15-.09-.05-.18-.08-.26-.08-.18,0-.29.07-.33.2-.04.13-.08.22-.1.26-.02.09-.05.23-.08.43-.03.2-.04.48-.02.86l.03.59c.02.37.03.65.03.82v1.02c0,.22-.01.43-.03.64-.02.21-.03.42-.03.64,0,.15.01.3.03.45.02.14.03.29.03.45l.07,3.23c0,.11,0,.21.02.31.01.1.03.2.05.31.02.2.04.34.05.43,0,.09.02.17.02.23,0,.26-.05.48-.15.64-.1.17-.2.27-.31.31-.2.11-.49.15-.87.13-.38-.02-.68-.03-.88-.03h-2.44c-.18,0-.29-.02-.35-.07-.06-.04-.1-.09-.15-.13-.15-.2-.23-.38-.23-.56.02-.33.04-.51.05-.53.01-.02.02-.09.02-.2v-.79l.03-5.08c0-.42-.01-.82-.03-1.22-.02-.4-.03-.8-.03-1.22v-.43c0-.24,0-.49.02-.74s.03-.5.05-.74c0-.11,0-.23.02-.36.01-.13.02-.25.02-.36,0-.31-.01-.63-.03-.96-.02-.33-.04-.65-.07-.96-.04-.46-.07-.93-.07-1.4v-3.02c0-.22-.01-.43-.03-.64-.02-.21-.04-.42-.07-.64-.02-.15-.03-.31-.03-.46v-.46c0-.29.02-.5.07-.63s.09-.22.13-.26c.11-.11.22-.18.35-.2.12-.02.24-.03.35-.03h.2c.51,0,1.01.01,1.52.03.51.02,1.03.01,1.58-.03h.59c.15,0,.3.03.43.1.13.07.26.19.4.36.13.18.31.43.53.76l2.44,3.7c.13.2.25.38.35.54s.2.34.3.51.21.37.33.58.28.46.48.74c.26.4.51.76.73,1.09.13.24.25.45.35.63.1.18.19.35.26.53.08.18.17.37.26.58s.21.45.35.71c.07.11.17.29.31.54.14.25.27.38.38.38.02,0,.05-.01.1-.03s.08-.1.1-.23c.02-.09.03-.18.02-.26s-.02-.19-.03-.31-.02-.28-.03-.48c-.01-.2-.02-.45-.02-.76,0-.2.01-.39.03-.58.02-.19.03-.38.03-.58,0-.35-.02-.68-.05-.97-.03-.3-.04-.57-.02-.81l.03-.43c.02-.2.03-.43.02-.69s-.02-.53-.03-.79c-.01-.26-.02-.51-.03-.74-.01-.23-.02-.4-.02-.51v-.3c0-.29,0-.57.02-.84,0-.27.02-.56.02-.84,0-.18,0-.33-.02-.48-.01-.14,0-.3.02-.48,0-.18.04-.31.13-.4.11-.11.19-.16.23-.15s.11.02.2.02l1.09.03h.31c.05,0,.1,0,.13-.02s.07-.02.12-.02h.23c.15.02.29.04.4.05.11.01.23.02.36.02h.56c.2,0,.42,0,.66-.02.24-.01.46.07.66.25.09.07.16.17.21.31.05.14.08.35.08.61,0,.18,0,.34-.02.48-.01.14-.03.43-.05.88l-.03,1.02v2.38c0,.18,0,.4-.02.66s-.02.67-.02,1.22c-.02.42-.03.74-.03.97s-.01.5-.03.81c-.02.59-.03,1.01-.03,1.25v1.4c0,.3-.01.79-.03,1.47l-.07,2.77c0,.42,0,.78.02,1.09,0,.31.03.59.07.84.03.25.07.49.1.71.03.22.05.46.05.73l.03,1.09c0,.18,0,.34-.02.5-.01.15-.08.29-.21.4-.18.15-.42.23-.73.23-.18,0-.38-.01-.61-.03-.23-.02-.42-.03-.58-.03h-1.25c-.11,0-.33-.02-.66-.07s-.58-.2-.76-.46l-1.29-1.81c-.38-.55-.67-1.05-.88-1.5-.21-.45-.5-.94-.88-1.47l-.82-1.19Z"/>
    <path class="st0" d="M500.25,272.74c-.2-.15-.36-.28-.5-.38-.13-.1-.26-.21-.38-.33-.12-.12-.25-.27-.38-.46-.13-.19-.31-.45-.53-.78-.33-.51-.63-1-.89-1.48-.26-.48-.46-1.08-.59-1.78-.04-.15-.09-.4-.13-.74-.04-.34-.08-.7-.12-1.07-.03-.37-.07-.73-.1-1.06-.03-.33-.05-.57-.05-.73,0-.33.03-.68.08-1.06.05-.37.12-.74.18-1.09.07-.35.14-.68.21-.97.08-.3.14-.52.18-.68.2-.64.51-1.31.92-2.01s.85-1.34,1.29-1.91c.44-.55.82-.97,1.14-1.25.32-.29.57-.5.74-.63.35-.26.78-.5,1.27-.69.49-.2,1-.37,1.52-.51.52-.14,1.02-.25,1.52-.33.5-.08.93-.12,1.3-.12,1.12,0,2.07.14,2.85.41s1.37.51,1.77.71c.53.26,1,.55,1.42.86.42.31.78.62,1.09.92.31.31.57.59.78.84s.36.45.45.58c.31.46.59.98.86,1.55.26.57.48,1.1.66,1.58.04.13.1.31.17.53.07.22.13.51.18.86s.1.79.13,1.3c.03.52.04,1.14.02,1.87-.02,1.25-.19,2.36-.5,3.32s-.68,1.79-1.11,2.51-.87,1.3-1.32,1.77c-.45.46-.84.8-1.17,1.02-.64.46-1.25.81-1.85,1.06-.59.24-1.15.42-1.67.54-.52.12-.98.19-1.39.21-.41.02-.74.03-1.01.03-1.21,0-2.3-.1-3.28-.3-.98-.2-1.94-.67-2.89-1.42l-.89-.69ZM512.2,264.34c0-.59-.05-1.25-.17-1.95s-.32-1.31-.63-1.82c-.18-.33-.41-.65-.69-.96-.29-.31-.62-.59-.99-.84-.38-.25-.79-.46-1.24-.61-.45-.15-.93-.23-1.44-.23-.37,0-.65.03-.82.08-.18.06-.38.11-.59.15-.24.07-.51.13-.79.2-.29.07-.65.29-1.09.66-.66.55-1.17,1.25-1.54,2.1-.36.85-.54,1.74-.54,2.66,0,.64.07,1.32.21,2.04s.43,1.43.88,2.13c.46.77,1.11,1.34,1.93,1.7.83.36,1.66.55,2.49.55.48,0,.93-.07,1.34-.21s.76-.32,1.07-.53c.31-.21.57-.42.78-.65s.38-.41.51-.56c.42-.53.74-1.15.97-1.87.23-.72.35-1.39.35-2.04Z"/>
    <path class="st0" d="M522.61,261.69h.18c.08,0,.19-.01.35-.03h1.07c.16,0,.37.01.61.03.75.02,1.19.05,1.32.1.2.11.33.28.4.5.02.04.03.15.03.31s.01.39.03.68l.07.76-.07.83c-.04.53-.1.86-.17.99-.15.22-.52.33-1.09.33h-.53l-1.29-.07h-.46l-.86-.03c-1.43-.04-2.19-.09-2.28-.13-.24-.13-.36-.66-.36-1.58v-.89c.02-.77.1-1.28.23-1.52.09-.15.32-.25.69-.3l2.11.03Z"/>
    <path class="st0" d="M527.94,256.21c-.18-.88-.3-1.46-.38-1.75-.08-.29-.12-.51-.12-.66,0-.4.1-.65.3-.76.13-.09.29-.13.46-.13.2-.02.32-.03.38-.03s.1,0,.15.02c.04.01.1.02.17.02h.43c.18-.02.37-.03.59-.03h.79c.62,0,1.03.03,1.24.1.21.07.37.19.48.36.11.18.2.39.28.64.08.25.14.48.18.68.09.51.14.84.16.99s.03.26.03.31v.2c0,.08.03.3.1.68.07.44.16.83.28,1.16.12.33.24.71.35,1.16l.2.79c.07.22.12.39.15.51.03.12.07.24.1.35.03.11.07.24.12.4s.1.38.17.69c.09.44.17.81.23,1.11.07.3.15.69.26,1.17.13.55.25,1.03.36,1.45.11.42.21.87.3,1.35.02.13.06.28.12.45.05.16.15.25.28.25.09,0,.17-.07.25-.2s.14-.29.2-.48c.05-.19.1-.37.13-.54.03-.18.06-.32.08-.43.04-.29.12-.65.25-1.11.12-.45.23-.79.31-1.01l.3-.76c.02-.09.05-.16.1-.21s.08-.12.12-.2.06-.18.08-.3.03-.29.03-.51v-.53c0-.29-.01-.52-.03-.71-.02-.19-.05-.35-.08-.5-.03-.14-.07-.3-.1-.46s-.06-.37-.08-.61l-.07-.63c-.02-.18-.05-.33-.1-.48-.04-.14-.09-.3-.13-.48-.04-.13-.07-.26-.07-.38s-.01-.25-.03-.38c-.02-.15-.04-.29-.07-.4-.02-.11-.05-.23-.08-.35-.03-.12-.07-.26-.1-.41-.03-.15-.07-.35-.12-.59l-.13-.83c-.04-.31-.08-.54-.1-.69-.02-.15.04-.29.2-.4.13-.11.4-.17.79-.17l1.98.07,1.19-.07c.31-.02.52.01.63.1.11.09.19.17.23.23.13.24.21.41.23.5.02.09.04.21.07.36l.53,3.7c.09.59.23,1.24.41,1.95.19.7.36,1.41.51,2.11.15.71.26,1.22.31,1.54s.09.57.12.74c.02.18.04.34.07.48.02.14.07.39.13.74.13.59.24.99.31,1.17.08.19.12.34.12.45,0,.04.01.1.03.17.04.09.09.13.13.13h.07c.11,0,.2-.07.26-.2.11-.29.16-.45.16-.48s.02-.14.07-.31l.1-.3c.11-.33.19-.67.23-1.02.04-.35.12-.69.23-1.02.07-.24.14-.47.21-.68s.14-.43.18-.68l.33-2.05c.07-.35.14-.64.21-.88.08-.23.16-.47.25-.71.09-.24.18-.51.26-.81.09-.3.18-.68.26-1.14l.26-1.55c.02-.13.08-.37.17-.71.09-.34.15-.6.2-.78.04-.18.13-.36.25-.54.12-.19.24-.31.35-.38.11-.07.23-.1.36-.1h.36l1.98.07c.31.02.57.03.79.02.22-.01.43.04.63.15.09.04.18.12.26.23s.13.21.13.3c0,.07,0,.14-.02.23-.01.09-.04.22-.08.4l-.17.63c-.13.46-.22.8-.26,1.02-.04.22-.08.39-.1.5-.02.11-.03.19-.02.25.01.05,0,.16-.02.31-.07.26-.12.42-.17.46,0,.02-.02.1-.07.23,0,.04,0,.08-.02.12-.01.03-.02.07-.02.12-.04.24-.1.47-.17.68s-.13.42-.2.64l-.3,1.12c-.09.31-.16.6-.21.87-.05.28-.12.57-.18.87-.09.38-.17.75-.23,1.12-.07.38-.15.75-.26,1.12-.11.38-.19.65-.23.83-.04.18-.08.3-.12.38s-.05.13-.07.15c-.01.02-.03.08-.05.17s-.06.23-.12.43c-.06.2-.14.51-.25.92-.04.24-.08.41-.12.5s-.06.15-.08.2c-.04.11-.07.22-.07.33s-.04.36-.13.76c-.09.37-.14.66-.17.86-.02.2-.05.37-.1.53l-.56,2.05c-.13.46-.23.83-.3,1.11-.07.28-.13.49-.18.64-.05.15-.12.27-.18.35-.07.08-.17.15-.3.21-.11.04-.21.09-.31.13s-.26.07-.48.07c-.13,0-.22,0-.26-.02-.04-.01-.12-.02-.21-.02s-.25,0-.46-.02c-.21-.01-.56-.02-1.04-.02h-2.84c-.24,0-.44-.07-.59-.2-.15-.13-.26-.25-.33-.36-.18-.26-.29-.52-.33-.78-.04-.25-.09-.47-.13-.64-.02-.07-.03-.12-.03-.16s-.01-.1-.03-.17c-.04-.07-.08-.14-.1-.21s-.06-.2-.1-.38c-.07-.22-.12-.38-.15-.5-.03-.11-.06-.19-.07-.25-.01-.05-.03-.1-.05-.13-.02-.03-.04-.08-.07-.15l-.17-.56s-.03-.07-.03-.08-.01-.04-.03-.08c0-.02,0-.04-.02-.05-.01-.01-.02-.03-.02-.05-.11-.15-.22-.15-.33,0-.04.07-.1.18-.17.33-.07.15-.13.33-.2.51s-.13.37-.18.54c-.05.18-.09.31-.12.4l-.3,1.39c-.09.35-.17.66-.25.91-.08.25-.18.43-.31.54-.18.18-.39.25-.64.23-.25-.02-.5-.03-.74-.03l-3.4-.07c-.24,0-.44-.03-.58-.08-.14-.05-.24-.1-.28-.15-.15-.13-.29-.33-.4-.59-.11-.26-.2-.56-.28-.89-.08-.33-.14-.67-.18-1.01-.04-.34-.09-.64-.13-.91l-.2-1.19c-.11-.57-.26-1.14-.46-1.7-.2-.56-.35-1.13-.46-1.7-.04-.24-.08-.47-.1-.69-.02-.22-.05-.45-.1-.69-.11-.62-.29-1.33-.53-2.15-.24-.81-.47-1.73-.69-2.74l-.92-4.26Z"/>
    <path class="st0" d="M562.54,252.84c.22,0,.38,0,.5.02.11.01.27.02.49.02.13,0,.27,0,.41-.02.14-.01.28-.02.41-.02.18,0,.44.03.79.08s.62.17.79.35c.11.11.22.27.33.48.11.21.2.4.26.58.07.18.12.37.16.59.04.22.12.48.23.79l.3,1.02c.11.31.2.6.26.87.07.28.14.63.23,1.07.02.24.05.43.1.58.04.14.13.4.26.78.11.31.19.56.25.74.05.19.09.36.12.51.02.15.04.29.05.41s.03.26.05.41c.15.9.3,1.63.43,2.18.13.55.23.99.3,1.32l.5,2.34c.04.18.09.35.15.53.05.18.1.35.15.53.04.13.07.26.07.4s.02.26.07.4l.63,2.77c.04.24.1.52.17.83.07.31.04.62-.07.92-.07.18-.15.3-.25.38-.1.08-.19.14-.28.18-.15.07-.33.1-.51.1s-.49.01-.91.03l-.63.03h-.76c-.18,0-.35,0-.51-.02-.17-.01-.29-.03-.38-.05-.18-.04-.3-.09-.38-.13-.08-.04-.15-.11-.21-.2-.15-.18-.24-.31-.26-.4-.02-.09-.05-.2-.1-.33l-.59-1.72c-.07-.2-.14-.33-.21-.41s-.15-.13-.21-.15c-.04-.02-.13-.04-.26-.05-.13-.01-.27-.03-.41-.05-.14-.02-.28-.04-.41-.05s-.21-.02-.23-.02h-.86c-.22,0-.46,0-.73.02-.26.01-.53.03-.79.05-.26.02-.52.05-.76.08s-.44.07-.59.12c-.2.07-.38.16-.54.28-.17.12-.3.29-.41.51-.11.18-.19.39-.25.64-.06.25-.14.6-.25,1.04-.02.07-.05.17-.08.31-.03.14-.11.26-.21.35-.04.04-.1.07-.18.08-.08.01-.14.02-.18.02-.11,0-.23,0-.35-.02-.12-.01-.24-.02-.35-.02-.42-.04-.83-.04-1.24,0-.41.04-.82.04-1.24,0-.26-.02-.47-.04-.63-.07-.15-.02-.31-.12-.46-.3-.07-.09-.13-.2-.2-.33-.07-.13-.1-.25-.1-.36,0-.04.02-.18.05-.41.03-.23.06-.37.08-.41.02-.07.04-.13.05-.18.01-.05.03-.12.05-.18.04-.18.07-.35.07-.53s.02-.35.07-.53l.17-.79c.11-.51.18-.89.21-1.16.03-.26.07-.52.12-.76.09-.59.18-1.03.28-1.3.1-.27.19-.57.28-.87.02-.13.04-.24.07-.31.02-.08.04-.17.05-.28.01-.11.03-.25.07-.41s.08-.4.15-.71c.02-.11.06-.31.12-.61s.1-.5.15-.61c.15-.66.3-1.27.45-1.83.14-.56.29-1.14.45-1.73.15-.59.31-1.24.46-1.93.15-.69.32-1.5.49-2.43.11-.64.23-1.17.35-1.58.12-.42.37-.78.74-1.09.22-.18.4-.27.53-.28.13-.01.28-.02.43-.02.11,0,.2,0,.26-.02s.15-.02.25-.03c.1-.01.22-.02.36-.03.14-.01.36-.02.64-.02h2.11ZM562.8,260.17c-.04-.15-.1-.33-.18-.54-.08-.21-.16-.37-.25-.48-.11-.11-.25-.17-.43-.17s-.38.15-.63.45-.44.92-.59,1.86c-.02.13-.04.24-.05.31-.01.08-.03.17-.05.28-.02.11-.04.25-.07.43-.02.18-.07.41-.13.69-.07.42-.14.76-.21,1.02-.08.26-.12.48-.12.66v.2c0,.07,0,.13-.02.18-.01.06-.02.12-.02.18,0,.11.02.24.05.38.03.14.07.26.12.35.04.11.18.23.4.36s.57.2,1.06.2h.36c.15,0,.31,0,.48-.02.17-.01.32-.03.48-.05.15-.02.28-.05.36-.1.31-.11.48-.27.53-.48s.07-.4.07-.58c0-.26-.01-.48-.03-.66s-.04-.34-.07-.5c-.02-.15-.05-.3-.1-.45-.04-.14-.09-.3-.13-.48-.13-.48-.2-.82-.21-1.01-.01-.19-.06-.4-.15-.64l-.46-1.42Z"/>
    <path class="st0" d="M574.24,275.05h-.45c-.16,0-.32-.02-.46-.07s-.26-.13-.35-.26c-.09-.13-.13-.33-.13-.59,0-.13,0-.26.02-.38.01-.12.02-.25.02-.38,0-.2,0-.39-.02-.58-.01-.19-.02-.38-.02-.58,0-.15,0-.3.02-.43.01-.13.03-.27.05-.43,0-.09,0-.17.02-.25.01-.08.02-.16.02-.25l.03-1.32v-1.01c0-.25,0-.47-.02-.66-.01-.19-.03-.36-.05-.51-.02-.15-.03-.34-.03-.56v-.3c0-.29,0-.56.02-.83.01-.26.03-.54.05-.82.02-.55.02-1.09,0-1.62-.02-.53-.02-1.07,0-1.62,0-.42.01-.79.03-1.11.02-.32.04-.62.05-.91s.02-.58.03-.88.02-.64.02-1.04l-.07-3.73c0-.09.02-.22.05-.4.03-.18.14-.34.31-.5.11-.09.27-.16.48-.21.21-.05.4-.08.58-.08l2.11.07c.55.02.96.03,1.24.03h.66c.17,0,.32,0,.48-.02.15-.01.38-.02.69-.02.11,0,.2,0,.28.02.08.01.17.02.28.02.44,0,.91.01,1.42.03.51.02,1.02.09,1.55.2.53.11,1.05.27,1.57.48.52.21,1.03.49,1.53.84.7.51,1.3,1.21,1.78,2.11.48.9.73,2.05.73,3.43,0,.33-.03.71-.08,1.12-.05.42-.13.84-.23,1.25-.1.42-.23.81-.38,1.19-.15.37-.33.69-.53.96-.02.04-.04.07-.07.08-.02.01-.04.04-.07.08-.04.04-.07.08-.08.12s-.04.07-.08.12c-.15.22-.29.39-.41.51-.12.12-.24.24-.35.36-.11.12-.24.26-.4.41s-.34.38-.56.66c-.2.24-.3.48-.3.73,0,.15.03.28.08.37.05.1.18.23.38.41.37.33.72.56,1.04.72.32.15.59.27.81.36.24.11.43.18.58.23.14.04.26.11.35.19.09.11.14.25.17.42.02.17.03.3.03.42,0,.24-.01.5-.03.76-.02.27-.03.52-.03.76l-.03,1c-.02.46-.04.81-.05,1.05-.01.23-.11.42-.28.55-.13.11-.33.19-.59.25-.26.05-.47.08-.63.08-.11,0-.31-.01-.61-.03-.3-.02-.58-.12-.84-.3-.15-.11-.37-.29-.66-.53-.44-.37-.8-.67-1.07-.89-.28-.22-.53-.46-.78-.73l-.53-.59-.26-.26c-.11-.04-.17-.08-.18-.1-.01-.02-.03-.04-.05-.07l-.86-.53c-.26-.18-.46-.33-.59-.48-.13-.14-.35-.27-.66-.38-.15-.04-.27-.07-.36-.08-.09-.01-.2-.02-.33-.02-.04,0-.15.02-.33.05-.18.03-.32.12-.43.25-.15.18-.24.34-.26.5-.02.15-.03.25-.03.3v1.81c0,.18,0,.32.02.43.01.11.03.22.05.33.07.2.1.39.1.56,0,.4-.17.62-.51.66-.34.04-.7.04-1.07,0-.11-.02-.25-.03-.43-.03l-2.08.07ZM578.23,264.23c.04.46.16.75.36.86.09.04.2.08.35.12.14.03.28.05.41.05.37,0,.72-.06,1.04-.18.32-.12.61-.27.86-.45.25-.18.47-.35.64-.53.18-.18.31-.32.4-.43.09-.11.2-.26.35-.46.14-.2.29-.43.43-.69.14-.26.26-.57.36-.91.1-.34.15-.7.15-1.07s-.07-.74-.2-1.09-.33-.65-.59-.89c-.33-.31-.77-.51-1.32-.59s-1.07-.13-1.55-.13c-.31,0-.62.03-.94.1-.32.07-.53.24-.64.53-.04.09-.08.22-.12.4-.03.18-.05.37-.05.59,0,.15,0,.28.02.38.01.1.02.21.02.33v.45c0,.18-.01.42-.03.73,0,.11,0,.29-.02.54-.01.25-.02.44-.02.54l.1,1.82Z"/>
    <path class="st0" d="M610.17,252.98c.31,0,.54.04.69.12.15.08.28.15.36.21.15.15.25.31.28.48s.05.33.05.48v1.49c0,.11,0,.2-.02.28-.01.08-.02.17-.02.28-.02.13-.03.26-.03.38v.61c0,.2-.06.38-.17.53-.02.02-.07.07-.13.13-.07.07-.14.1-.23.1l-1.32-.03c-.13,0-.32.02-.56.05-.24.03-.48.17-.73.41-.07.07-.18.25-.35.56-.17.31-.25.84-.25,1.58v.99c0,.59,0,1,.02,1.2.01.21.02.35.02.43s0,.15-.02.21c-.01.07-.04.26-.08.59-.07.51-.09.87-.07,1.09s.03.51.03.86v2.66c0,.17-.01.48-.03.94,0,.18,0,.32-.02.43-.01.11-.02.23-.02.35s0,.26.02.41c.01.15.02.35.02.59l.1,1.98c.02.37.02.65-.02.83s-.11.32-.21.43c-.18.18-.35.26-.53.26l-1.45.1c-.29.02-.54.02-.78,0-.23-.02-.4-.03-.51-.03h-1.12c-.11,0-.22-.03-.33-.08-.11-.05-.22-.18-.33-.38-.09-.18-.13-.36-.13-.56l.03-1.06v-.33c0-.11,0-.21.02-.3,0-.09.02-.19.02-.3v-.94c0-.32-.01-.63-.03-.94-.02-.18-.04-.36-.05-.54-.01-.19,0-.37.02-.54l.1-1.78c.02-.15.03-.31.02-.46-.01-.15,0-.31.02-.46,0-.09,0-.17.02-.23.01-.07.02-.14.02-.23v-.4c-.02-.18-.03-.3-.03-.38s-.01-.24-.03-.48v-.68c0-.1,0-.21.02-.33.01-.12.02-.28.02-.48v-2.87c0-.37,0-.7.02-.99.01-.29-.14-.6-.45-.96-.11-.13-.24-.22-.38-.26-.14-.04-.27-.07-.38-.07l-1.82.03c-.22,0-.38-.03-.48-.08-.1-.05-.18-.14-.25-.25-.11-.18-.17-.47-.17-.89v-.69c0-.29.01-.53.03-.73l.03-.53s0-.13.02-.26c.01-.13.02-.28.03-.43.01-.15.03-.3.05-.43.02-.13.05-.23.1-.3.07-.11.21-.22.43-.33.22-.11.52-.17.89-.17.22,0,.43,0,.63.02.2.01.41.03.63.05.31.02.61.03.91.02s.6-.02.91-.02c.55,0,1.09.01,1.63.03.54.02,1.08.03,1.63.03l3.7-.03Z"/>
    <path class="st0" d="M618.75,253.01c.62.02,1.23.02,1.85-.02.62-.03,1.23-.05,1.85-.05h.59c.31.02.6.05.89.08.29.03.55.04.79.02l1.19-.07c.11,0,.23.01.35.03.12.02.24.12.35.3.15.22.23.56.23,1.02,0,.09,0,.14-.02.17-.01.02-.02.15-.02.4-.02.2-.04.35-.07.45-.02.1-.04.2-.07.31l-.13.76c-.02.15-.05.33-.08.53-.03.2-.1.35-.21.46-.04.04-.13.1-.26.17s-.36.09-.69.07l-4.92-.2c-.64-.02-1.1.11-1.39.4-.18.18-.28.36-.3.56-.02.2-.02.36,0,.5l.03.36c0,.07,0,.13.02.18s.02.12.02.18v.4c0,.11.01.23.03.36.02.13.09.26.2.4.18.24.42.39.74.43s.6.07.84.07l1.29-.03c.2,0,.38,0,.54-.02s.38-.02.64-.02h.21s.06,0,.08.02.04.02.07.03c.02.01.08.02.17.02l.53.03c.31.02.58.02.81-.02.23-.03.42-.05.58-.05s.36.03.61.08c.25.06.43.14.54.25.18.18.26.54.26,1.09v1.45c0,.13-.01.33-.03.59-.02.26-.04.45-.07.56-.04.18-.11.31-.18.41-.08.1-.17.17-.28.21-.24.13-.49.21-.74.23-.25.02-.5.03-.74.03s-.53,0-.86-.02-.68-.02-1.04-.03c-.36-.01-.72-.03-1.07-.05-.35-.02-.65-.04-.89-.07l-1.29-.1c-.07,0-.16.02-.28.05-.12.03-.24.1-.35.21-.18.24-.28.45-.31.61s-.05.3-.05.41v1.57c0,.23.02.43.07.61.02.09.04.18.07.28.02.1.09.19.2.28.11.09.22.14.33.17.11.02.21.04.3.07l.59.07c.51.04.92.07,1.25.07s.58-.01.76-.03c.37-.02.76-.02,1.15,0,.4.02.78.03,1.16.03.2,0,.4-.01.61-.03s.41-.03.61-.03c.48-.02.84.02,1.06.12.22.1.37.19.46.28.15.15.24.36.26.61s.03.5.03.74c0,.35,0,.7.02,1.06.01.35-.01.67-.07.96-.06.29-.15.52-.3.71-.14.19-.37.28-.68.28h-.66c-.42,0-.83-.01-1.24-.03-.41-.02-.82-.03-1.24-.03-.37,0-.75.01-1.12.03-.38.02-.75.03-1.12.03h-3.53c-.15,0-.31,0-.46-.02-.15-.01-.31-.02-.46-.02h-1.38c-.24,0-.54,0-.89.02-.35.01-.62-.14-.79-.45-.04-.07-.09-.15-.13-.25-.04-.1-.07-.2-.07-.31l-.07-1.42c0-.11,0-.22-.02-.35-.01-.12-.02-.24-.02-.35v-1.02l-.03-1.75c-.02-.51-.01-.99.03-1.45.04-.46.04-1.06,0-1.78-.02-.37-.04-.7-.05-.97s-.02-.57-.02-.88c0-.22,0-.41.02-.58s.02-.33.02-.5,0-.35.02-.56.02-.48.02-.81v-.79c0-.2,0-.36-.02-.48s-.02-.23-.03-.33c-.01-.1-.02-.21-.02-.33s.01-.28.03-.48c0-.13,0-.28.02-.43.01-.15.03-.36.05-.63l.03-.82v-.43c0-.18-.01-.36-.03-.56-.02-.2-.04-.46-.07-.79v-.59c0-.22.03-.51.08-.88s.23-.64.51-.84c.18-.11.38-.19.63-.23s.51-.05.79-.03l3.37.13Z"/>
    <path class="st0" d="M638.51,252.84c.22,0,.38,0,.5.02.11.01.27.02.49.02.13,0,.27,0,.41-.02.14-.01.28-.02.41-.02.18,0,.44.03.79.08s.62.17.79.35c.11.11.22.27.33.48s.2.4.26.58c.07.18.12.37.17.59.04.22.12.48.23.79l.3,1.02c.11.31.2.6.26.87.07.28.14.63.23,1.07.02.24.05.43.1.58.04.14.13.4.26.78.11.31.19.56.25.74.05.19.09.36.12.51.02.15.04.29.05.41.01.12.03.26.05.41.15.9.3,1.63.43,2.18.13.55.23.99.3,1.32l.5,2.34c.04.18.09.35.15.53.05.18.1.35.15.53.04.13.07.26.07.4s.02.26.07.4l.63,2.77c.04.24.1.52.17.83.07.31.04.62-.07.92-.07.18-.15.3-.25.38s-.19.14-.28.18c-.15.07-.33.1-.51.1s-.49.01-.91.03l-.63.03h-.76c-.18,0-.35,0-.51-.02-.17-.01-.29-.03-.38-.05-.18-.04-.3-.09-.38-.13-.08-.04-.15-.11-.21-.2-.15-.18-.24-.31-.26-.4-.02-.09-.06-.2-.1-.33l-.59-1.72c-.07-.2-.14-.33-.21-.41s-.15-.13-.21-.15c-.04-.02-.13-.04-.26-.05-.13-.01-.27-.03-.41-.05-.14-.02-.28-.04-.41-.05-.13-.01-.21-.02-.23-.02h-.86c-.22,0-.46,0-.73.02s-.53.03-.79.05c-.26.02-.52.05-.76.08s-.44.07-.59.12c-.2.07-.38.16-.54.28-.17.12-.3.29-.41.51-.11.18-.19.39-.25.64-.06.25-.14.6-.25,1.04-.02.07-.05.17-.08.31-.03.14-.1.26-.21.35-.04.04-.11.07-.18.08-.08.01-.14.02-.18.02-.11,0-.23,0-.35-.02-.12-.01-.24-.02-.35-.02-.42-.04-.83-.04-1.24,0s-.82.04-1.24,0c-.26-.02-.47-.04-.63-.07-.15-.02-.31-.12-.46-.3-.07-.09-.13-.2-.2-.33-.07-.13-.1-.25-.1-.36,0-.04.02-.18.05-.41.03-.23.06-.37.08-.41.02-.07.04-.13.05-.18s.03-.12.05-.18c.04-.18.07-.35.07-.53s.02-.35.07-.53l.17-.79c.11-.51.18-.89.21-1.16.03-.26.07-.52.12-.76.09-.59.18-1.03.28-1.3.1-.27.19-.57.28-.87.02-.13.04-.24.07-.31s.04-.17.05-.28c.01-.11.03-.25.07-.41.03-.17.08-.4.15-.71.02-.11.06-.31.12-.61s.1-.5.15-.61c.15-.66.3-1.27.45-1.83.14-.56.29-1.14.45-1.73.15-.59.31-1.24.46-1.93.15-.69.32-1.5.49-2.43.11-.64.23-1.17.35-1.58.12-.42.37-.78.74-1.09.22-.18.4-.27.53-.28s.28-.02.43-.02c.11,0,.2,0,.26-.02.07-.01.15-.02.25-.03.1-.01.22-.02.36-.03.14-.01.36-.02.64-.02h2.11ZM638.77,260.17c-.04-.15-.1-.33-.18-.54s-.16-.37-.25-.48c-.11-.11-.25-.17-.43-.17s-.38.15-.63.45-.44.92-.59,1.86c-.02.13-.04.24-.05.31s-.03.17-.05.28c-.02.11-.04.25-.07.43-.02.18-.07.41-.13.69-.07.42-.14.76-.21,1.02-.08.26-.12.48-.12.66v.2c0,.07,0,.13-.02.18-.01.06-.02.12-.02.18,0,.11.02.24.05.38.03.14.07.26.12.35.04.11.18.23.4.36.22.13.57.2,1.06.2h.36c.15,0,.31,0,.48-.02.16-.01.32-.03.48-.05.15-.02.27-.05.36-.1.31-.11.48-.27.53-.48.04-.21.07-.4.07-.58,0-.26-.01-.48-.03-.66-.02-.18-.04-.34-.07-.5-.02-.15-.05-.3-.1-.45-.04-.14-.09-.3-.13-.48-.13-.48-.2-.82-.21-1.01-.01-.19-.06-.4-.15-.64l-.46-1.42Z"/>
    <path class="st0" d="M657.31,275.05c-.15,0-.37-.02-.64-.05-.28-.03-.57-.08-.88-.15-.31-.07-.62-.14-.92-.21s-.57-.16-.79-.25c-.51-.22-.95-.47-1.32-.74-.38-.27-.67-.5-.89-.68-.48-.4-.93-.77-1.35-1.12-.42-.35-.83-.84-1.22-1.45-.35-.55-.64-1.12-.86-1.7-.22-.58-.39-1.17-.51-1.75-.12-.58-.2-1.14-.25-1.67-.04-.53-.07-1.01-.07-1.45,0-1.45.15-2.79.45-4.03.3-1.23.83-2.34,1.6-3.33.66-.86,1.37-1.53,2.13-2.03.76-.5,1.51-.86,2.24-1.11.74-.24,1.42-.4,2.06-.46.64-.07,1.18-.1,1.62-.1.29,0,.56,0,.83.02.26.01.55.05.86.12.22.04.4.15.53.31.13.17.21.57.23,1.2v.4c0,.07,0,.12-.02.15-.01.03-.02.07-.02.12v.56c0,.22,0,.41.02.56.01.15.02.35.02.59,0,.31-.02.51-.05.59s-.09.18-.18.26-.2.13-.33.13c-.24,0-.45-.02-.63-.07s-.45-.09-.82-.13l-.3-.03c-.15-.02-.34-.01-.56.03-.22.04-.45.11-.69.18-.24.08-.47.17-.69.26-.22.1-.41.19-.56.28-.35.2-.63.41-.84.63s-.44.53-.68.92c-.24.37-.47.83-.69,1.35-.22.53-.33,1.17-.33,1.91,0,.51.03.99.08,1.45s.16.91.31,1.35c.11.33.24.67.4,1.01.15.34.33.67.53.97.2.31.4.59.61.84s.41.46.61.61c.22.15.42.26.61.33.19.07.4.14.64.23.2.07.41.14.64.21.23.08.51.12.84.12.11,0,.23-.01.36-.03.13-.02.25-.05.36-.1.18-.04.32-.07.43-.07h.13c.24,0,.43.08.56.23.11.13.17.28.18.45.01.16.02.3.02.41,0,.09,0,.17-.02.23-.01.07-.02.14-.02.23v1.95c0,.18,0,.35-.02.53-.01.18-.07.35-.18.53-.07.11-.18.22-.35.33s-.46.15-.88.13l-1.35-.03Z"/>
    <path class="st0" d="M667.9,255.75c0,.09,0,.18-.02.26-.01.09-.02.18-.02.26s0,.18-.02.26c-.01.09-.02.18-.02.26v.17c0,.15,0,.3.02.43.01.13.04.41.08.82l.07.92c.02.24.05.47.08.69.03.22.14.42.31.59.11.11.27.21.48.3.21.09.46.13.74.13l1.48-.03h.88c.14,0,.26.01.36.03.1.02.24.04.41.05.18.01.5.02.96.02h.23c.07,0,.15-.02.26-.07s.32-.12.63-.23c.18-.09.3-.17.36-.23s.12-.14.17-.23c.11-.13.21-.27.31-.41.1-.14.15-.37.15-.68l-.1-4.36c0-.37,0-.69-.02-.94-.01-.25.08-.47.28-.64.15-.13.37-.2.66-.2l2.04.07c.13,0,.27,0,.41-.02.14-.01.28-.03.41-.05.11-.02.22-.04.33-.05.11-.01.22-.02.33-.02.2,0,.35.04.45.12.1.08.17.14.21.18.11.13.17.25.18.36.01.11.02.25.02.43l-.03.73-.07.79v.33c0,.09,0,.19.02.3,0,.11.02.25.03.41s.02.38.02.64v.3c0,.24-.01.49-.03.74s-.03.5-.03.74c0,.33,0,.66.02.99,0,.33.02.66.02.99,0,.38,0,.73-.02,1.07-.01.34-.02.7-.02,1.07v.33l-.03,2.97c0,.31,0,.6.02.88,0,.28,0,.57-.02.87-.02.31-.04.62-.07.92-.02.31-.02.62,0,.92l.17,3.76c.02.33,0,.57-.07.73-.07.15-.12.25-.16.3-.11.13-.2.2-.28.21-.08.01-.17.02-.28.02h-.5c-.11,0-.23,0-.35-.02-.12-.01-.34-.02-.64-.02l-1.58.03c-.35,0-.61-.04-.78-.13-.16-.09-.27-.15-.31-.2-.15-.15-.26-.32-.31-.51-.05-.19-.08-.38-.08-.59s.01-.42.03-.63c.02-.21.03-.42.03-.64v-3.43c0-.44-.02-.83-.05-1.19-.03-.35-.07-.58-.12-.69-.04-.15-.14-.3-.3-.45-.15-.14-.35-.25-.59-.31-.13-.02-.31-.04-.54-.07-.23-.02-.48-.04-.74-.07-.26-.02-.53-.03-.81-.03h-2.52c-.51,0-.92.1-1.25.3-.33.2-.55.42-.66.66-.18.37-.26.66-.26.86v.66l-.07,5.44c0,.11-.02.23-.05.36-.03.13-.1.25-.21.36s-.25.18-.41.21c-.16.03-.29.05-.38.05-.15,0-.31,0-.46-.02-.15-.01-.31-.02-.46-.02h-.43c-.22,0-.44.01-.66.03-.22.02-.55.02-.99,0-.29-.02-.48-.05-.58-.08-.1-.03-.19-.1-.28-.21s-.15-.24-.18-.4c-.03-.15-.05-.41-.05-.76,0-.24.01-.45.03-.63.02-.18.04-.42.07-.73.02-.31.02-.57,0-.78s-.03-.45-.03-.71v-2.9c0-.29-.01-.59-.03-.92-.02-.33-.03-.71-.03-1.16,0-.42.02-.82.07-1.22.04-.4.05-.88.03-1.45l-.03-1.39v-3.37c0-.62,0-1.09-.02-1.44-.01-.34-.02-.63-.03-.87-.01-.24-.02-.48-.02-.73s.01-.57.03-.99l.03-.59c0-.07,0-.15.03-.25s.08-.18.17-.25c.09-.07.21-.12.36-.16.15-.04.29-.07.4-.07l3.3.03c.11,0,.23,0,.36.02.13.01.25.07.36.18.07.07.13.16.18.28s.08.27.08.45l-.07,1.88Z"/>
    <path class="st0" d="M686.7,261.69h.18c.08,0,.19-.01.35-.03h1.07c.17,0,.37.01.61.03.75.02,1.19.05,1.32.1.2.11.33.28.4.5.02.04.03.15.03.31s.01.39.03.68l.07.76-.07.83c-.04.53-.1.86-.16.99-.15.22-.52.33-1.09.33h-.53l-1.29-.07h-.46l-.86-.03c-1.43-.04-2.19-.09-2.28-.13-.24-.13-.36-.66-.36-1.58v-.89c.02-.77.1-1.28.23-1.52.09-.15.32-.25.69-.3l2.11.03Z"/>
    <path class="st0" d="M693.53,258.26c0-.2.01-.4.03-.61s.03-.41.03-.61c0-.09,0-.17-.02-.25-.01-.08-.02-.16-.02-.25v-.36c0-.13-.01-.25-.03-.36l-.1-.89-.03-.56c0-.11.02-.28.07-.5s.19-.43.43-.63c.18-.13.33-.22.46-.26.13-.04.26-.07.4-.07l2.84-.03c.29,0,.52.06.71.18.19.12.32.27.41.45.09.18.15.37.18.58s.05.39.05.54c0,.31,0,.61-.02.91-.01.3-.03.63-.05,1.01l-.03,1.42c0,.11,0,.2-.02.28-.01.08-.02.17-.02.28,0,.22.02.43.05.64s.05.43.05.68l-.03,1.91v2.54c0,.46,0,.81.02,1.06.01.24.02.51.02.79v4.45c0,.22,0,.44-.02.64-.01.21-.02.42-.02.64,0,.11.01.19.03.23v1.22c0,.38.01.66.03.86.02.2-.05.4-.23.59-.07.09-.14.14-.21.17-.08.02-.21.03-.41.03-.24,0-.43,0-.58-.02-.14-.01-.42-.02-.84-.02h-2.44c-.13,0-.25-.04-.35-.12-.1-.08-.17-.14-.21-.18-.09-.11-.14-.24-.15-.38-.01-.14-.02-.24-.02-.28v-.1s.01-.09.03-.2v-.36l.03-.63c0-.2,0-.5.02-.89,0-.4.02-.8.03-1.21.01-.41.02-.78.02-1.12v-.71l-.03-5.87-.1-2.87.03-1.78Z"/>
    <path class="st0" d="M711.88,268.49c-.2-.31-.37-.59-.53-.84-.15-.25-.39-.62-.69-1.11-.26-.42-.46-.71-.59-.89-.13-.18-.25-.37-.36-.59l-.23-.43c-.29-.53-.47-.87-.54-1.04-.08-.17-.15-.28-.21-.35-.04-.04-.11-.09-.2-.15-.09-.05-.18-.08-.26-.08-.18,0-.29.07-.33.2s-.08.22-.1.26c-.02.09-.05.23-.08.43-.03.2-.04.48-.02.86l.03.59c.02.37.03.65.03.82v1.02c0,.22-.01.43-.03.64s-.03.42-.03.64c0,.15.01.3.03.45.02.14.03.29.03.45l.07,3.23c0,.11,0,.21.02.31.01.1.03.2.05.31.02.2.04.34.05.43.01.09.02.17.02.23,0,.26-.05.48-.15.64-.1.17-.2.27-.31.31-.2.11-.49.15-.88.13-.38-.02-.68-.03-.88-.03h-2.44c-.18,0-.29-.02-.35-.07-.06-.04-.11-.09-.15-.13-.15-.2-.23-.38-.23-.56.02-.33.04-.51.05-.53,0-.02.02-.09.02-.2v-.79l.03-5.08c0-.42-.01-.82-.03-1.22-.02-.4-.03-.8-.03-1.22v-.43c0-.24,0-.49.02-.74,0-.25.03-.5.05-.74,0-.11,0-.23.02-.36s.02-.25.02-.36c0-.31-.01-.63-.03-.96-.02-.33-.04-.65-.07-.96-.04-.46-.07-.93-.07-1.4v-3.02c0-.22-.01-.43-.03-.64-.02-.21-.04-.42-.07-.64-.02-.15-.03-.31-.03-.46v-.46c0-.29.02-.5.07-.63.04-.13.09-.22.13-.26.11-.11.23-.18.35-.2.12-.02.24-.03.35-.03h.2c.51,0,1.01.01,1.52.03.51.02,1.03.01,1.58-.03h.59c.15,0,.3.03.43.1.13.07.26.19.4.36.13.18.31.43.53.76l2.44,3.7c.13.2.25.38.35.54.1.17.2.34.3.51.1.18.21.37.33.58s.28.46.48.74c.26.4.51.76.73,1.09.13.24.25.45.35.63.1.18.19.35.26.53.08.18.17.37.26.58.1.21.21.45.35.71.07.11.17.29.31.54s.27.38.38.38c.02,0,.05-.01.1-.03.04-.02.08-.1.1-.23.02-.09.03-.18.02-.26-.01-.09-.02-.19-.03-.31-.01-.12-.02-.28-.03-.48-.01-.2-.02-.45-.02-.76,0-.2.01-.39.03-.58.02-.19.03-.38.03-.58,0-.35-.02-.68-.05-.97s-.04-.57-.02-.81l.03-.43c.02-.2.03-.43.02-.69-.01-.26-.02-.53-.03-.79-.01-.26-.02-.51-.03-.74-.01-.23-.02-.4-.02-.51v-.3c0-.29,0-.57.02-.84.01-.27.02-.56.02-.84,0-.18,0-.33-.02-.48-.01-.14,0-.3.02-.48,0-.18.04-.31.13-.4.11-.11.19-.16.23-.15.04.01.11.02.2.02l1.09.03h.31c.05,0,.1,0,.13-.02.03-.01.07-.02.12-.02h.23c.15.02.29.04.4.05.11.01.23.02.36.02h.56c.2,0,.42,0,.66-.02.24-.01.46.07.66.25.09.07.16.17.21.31.05.14.08.35.08.61,0,.18,0,.34-.02.48-.01.14-.03.43-.05.88l-.03,1.02v2.38c0,.18,0,.4-.02.66-.01.26-.02.67-.02,1.22-.02.42-.03.74-.03.97s-.01.5-.03.81c-.02.59-.03,1.01-.03,1.25v1.4c0,.3-.01.79-.03,1.47l-.07,2.77c0,.42,0,.78.02,1.09.01.31.03.59.07.84.03.25.07.49.1.71.03.22.05.46.05.73l.03,1.09c0,.18,0,.34-.02.5-.01.15-.08.29-.21.4-.18.15-.42.23-.73.23-.18,0-.38-.01-.61-.03-.23-.02-.42-.03-.58-.03h-1.25c-.11,0-.33-.02-.66-.07s-.58-.2-.76-.46l-1.29-1.81c-.38-.55-.67-1.05-.88-1.5-.21-.45-.5-.94-.87-1.47l-.83-1.19Z"/>
    <path class="st0" d="M734.63,255.81v.54c0,.06,0,.12.02.2.01.08.02.18.02.31,0,.07-.01.17-.03.31-.02.14-.08.27-.17.38-.09.09-.19.14-.31.17-.12.02-.24.03-.35.03h-.17c-.31,0-.61-.02-.91-.05-.3-.03-.6-.07-.91-.12-.18-.02-.34-.04-.5-.05s-.3-.02-.43-.02c-.35,0-.67.03-.94.1-.28.07-.51.21-.71.43-.15.15-.25.31-.3.46-.04.15-.07.3-.07.43s.03.28.08.45.18.38.38.64c.04.07.17.2.38.41.21.21.65.58,1.34,1.11l.76.59c.44.35.94.78,1.5,1.27s1.04,1.13,1.43,1.9c.26.51.44,1.06.53,1.65.09.59.13,1.1.13,1.52,0,.84-.1,1.56-.31,2.18-.21.62-.47,1.15-.79,1.6-.32.45-.67.83-1.04,1.12s-.71.54-1.02.74c-.42.24-.95.46-1.6.64-.65.19-1.59.28-2.82.28h-.97c-.39,0-.77-.02-1.16-.05-.39-.03-.75-.09-1.09-.18-.34-.09-.61-.22-.81-.4-.07-.07-.13-.17-.2-.3s-.1-.27-.1-.43l.03-.92c.02-.48.03-.85.02-1.09s-.02-.43-.03-.56c-.01-.13-.02-.24-.03-.31-.01-.08-.02-.17-.02-.28,0-.31.08-.53.23-.66.11-.09.26-.15.45-.2.19-.04.35-.07.48-.07.09,0,.23.01.41.03.19.02.39.05.61.08.22.03.42.07.61.1.19.03.32.06.41.08.18.04.32.07.43.08.11.01.3.02.56.02.11,0,.25,0,.43-.02.18-.01.36-.04.56-.1s.39-.14.58-.25c.19-.11.35-.27.48-.49.07-.11.13-.25.2-.43.07-.18.1-.35.1-.53,0-.22-.03-.41-.1-.58-.07-.17-.14-.31-.23-.45-.18-.26-.35-.47-.51-.63-.17-.15-.35-.32-.54-.5-.53-.4-.95-.74-1.25-1.02-.11-.11-.22-.21-.33-.31-.11-.1-.22-.2-.33-.31-.15-.13-.3-.26-.43-.4-.13-.13-.28-.26-.43-.4l-.66-.59c-.13-.13-.3-.32-.51-.58-.21-.25-.42-.57-.63-.96s-.38-.83-.53-1.34c-.14-.51-.21-1.08-.21-1.72,0-.9.12-1.64.35-2.23.23-.58.47-1.02.71-1.3.48-.62,1.26-1.11,2.33-1.47,1.07-.36,2.54-.54,4.41-.54.22,0,.48,0,.78.02.3.01.59.03.89.07.3.03.58.08.84.13s.48.14.66.25c.22.13.35.31.38.53s.04.59.02,1.12l-.03.83Z"/>
  </g>
</svg>