<?xml version="1.0" encoding="UTF-8"?>
<svg id="Layer_1" xmlns="http://www.w3.org/2000/svg" version="1.1" viewBox="0 0 1000 406">
  <!-- Generator: Adobe Illustrator 29.8.2, SVG Export Plug-In . SVG Version: 2.1.1 Build 3)  -->
  <path d="M290.92,103.11c1.31,1.87-12.44,16.25-14.42,18.85-44.37-39.38-119.97-28.39-151.1,21.94-.53.85-2.51,2.16-.91,3.09,29.37-30.3,77.28-37.2,115.18-19.17,3.33,1.59,20.78,11.57,20.25,14.53l-14.41,16.4c-39.18-32.71-102.59-18.52-121.5,29.24,27.35-27.53,71.94-30.71,101.93-5.52l-14.55,17.48c-38.62-29.04-89.97-.26-84.29,48.43,1.48,12.69,9.69,22.89,17.82,31.97-4.68,3.29-9.37,12.86-13.38,15.71-1.05.75-1.14,1.21-2.54.49-2.88-1.48-15.83-16.21-18.42-19.65-42.32-56.09-30.66-136.67,26.1-177.73,46.85-33.89,109.01-31.78,154.24,3.93Z"/>
  <path d="M304.65,115.35c53.81,52.06,49.5,142.17-9.18,188.62-45.8,36.25-113.98,37.2-158.32-1.62l13.42-17.34c46.28,37.68,120.14,28.65,152.03-22.92.53-.85,2.51-2.16.91-3.09-32.03,33.22-85.42,38.52-124.42,14.41-2.16-1.33-11.14-6.64-10.95-8.74.16-1.77,12.69-16.72,14.36-16.71,39.71,32.04,102.62,18.06,121.49-29.97-26.49,27.42-73.14,31.81-101.74,5.51l14.25-17.5c49.73,39.33,112.92-24.7,71.47-74.48-1.6-1.92-5.22-3.58-5.02-5.01l14.55-17.51c1.87,2.6,5.06,4.31,7.15,6.33Z"/>
  <path d="M855.5,111c28.48,3.01,41.59,34.38,20.41,54.41l-11.91,6.57c4.47.89,8.3,3.99,10.83,7.68,4.07,5.94,16.41,33.97,18.71,41.3.32,1.03.64,1.93.46,3.04h-26.5c-8.25-11.43-11.43-31.78-19.28-42.72-.96-1.34-4.58-4.28-5.72-4.28h-14.5v47h-25v-113c16.76,1.29,36.05-1.74,52.5,0ZM828,157h22.5c.29,0,4.41-2.46,5.01-2.99,6.54-5.73,5.46-17.54-2.14-21.88-.69-.4-5.5-2.13-5.87-2.13h-18l-1.5,1.5v25.5Z"/>
  <path d="M678.31,148.69c3.99,4.28,21.42,7.34,27.67,9.83,11.02,4.39,19.75,12.61,21.01,24.99,4.87,47.75-56.13,52.61-82.95,25.99l12.45-15.33c10.75,8.11,22.79,15.29,36.79,10.62,9.21-3.07,12.16-16.09,4.68-22.25-6.34-5.22-24.17-7.56-32.99-13.01-12.58-7.76-15.75-20.45-13.52-34.58,5.27-33.43,57.37-32.94,74.53-9.45l-12.48,14.48c-6.78-9.26-27.68-17.63-35.5-6.48-2.75,3.93-3.18,11.44.31,15.19Z"/>
  <path d="M460.64,118.36c6.53,6.51,9.29,19.53,4.7,27.69l-22.35.96c3.28-21.41-25.25-25.76-33.19-7.7-5.25,11.95-5.06,39.63-.58,51.97,7.62,21,37.03,16.11,50.76,3.73.55,4.03,10.2,15.04,8.58,18-2.46,4.5-21.91,10.81-27.32,11.74-34.87,6.01-58.89-14.51-61.29-49.2-1.84-26.74,4.53-58.89,34.84-65.24,12.92-2.71,35.95-1.82,45.84,8.06Z"/>
  <rect x="545" y="111" width="25" height="113"/>
  <path d="M410.5,262c8.28,1.66,10.29,13.71,2.5,17.5,6.88,3.1,8.12,11.74,3.02,17.03-.93.96-5.63,3.48-6.52,3.48h-16.5v-38c5.18.71,12.68-.97,17.5,0ZM399,278c17.77,2.68,17.75-14.7,0-12.01v12.01ZM398.99,295.01c5.84-.61,13.73,2.82,14.07-5.53s-7.83-7.58-14.07-7.48v13.01Z"/>
  <path d="M886,289v-27h5v38c-1.99.08-3.8.33-5.57-.93-2.97-2.12-12.44-20.09-16.14-24.8-.64-.82.04-1.83-2.29-1.27v27h-5v-38c1.45.11,3.11-.28,4.5,0,4.16.83,14.56,23.47,19.5,27Z"/>
  <path d="M605.5,262c6.48,1.3,9.32,8.69,6.37,14.37-1.76,3.38-5.03,2.93-6.87,5.62,4.13-.45,10.77,17.27,10,18.01l-5.89-.11c-3.69-9.48-3.95-19.71-17.11-16.88v17h-5v-38c5.46.75,13.41-1.02,18.5,0ZM591.99,278.01c20.54,3.13,20.14-14.85,0-12.01v12.01Z"/>
  <polygon points="513 262 513 266 498 266 498.44 277.06 513 278 513 282 498 282 498 295 514 295 514 300 493 300 493 262 513 262"/>
  <polygon points="694 262 694 296 708.36 295.14 710 300 688 300 688 262 694 262"/>
  <rect x="782" y="262" width="5" height="38"/>
</svg>