<?xml version="1.0" encoding="UTF-8"?>
<svg id="logo" xmlns="http://www.w3.org/2000/svg" version="1.1" viewBox="0 0 1920 1080">
  <!-- Generator: Adobe Illustrator 29.8.2, SVG Export Plug-In . SVG Version: 2.1.1 Build 3)  -->
  <defs>
    <style>
      .st0 {
        fill: #0d0d0d;
      }
    </style>
  </defs>
  <path class="st0" d="M81.8,465.5c8.26-2.21,17.03-4.87,26.32-8,9.28-3.11,17.5-3.1,24.67.03,7.75,2.99,12.8,8.28,15.16,15.86,2.35,7.6,4.01,14.43,5.01,20.48l2.2,11.74c3.24,16.84,7.29,32.52,12.13,47.03,4.84,14.52,8.36,25.9,10.58,34.16,3.01,11.22,5.31,21.03,6.94,29.44,1.62,8.43,4.48,15.56,8.58,21.41,3.93,5.27,8.86,7.11,14.76,5.53,4.71-1.26,8.75-3.91,12.09-7.98,3.33-4.05,5.58-7.5,6.72-10.34l15.36-38.26c2-4.33,3.99-8.66,6.01-12.99,2-4.33,3.99-8.66,6-12.99,3.57-7.91,6.39-16.25,8.47-25.04,2.07-8.77,4.9-17.11,8.47-25.04l13.24-32.01c4.71-10.75,7.8-18.69,9.27-23.83,1.47-5.14,3.4-11.49,5.79-19.1l4.88-13.64c.55-2.67,2.13-5.62,4.74-8.86,2.61-3.22,4.65-5.66,6.1-7.33,3.07-2.72,6.37-4.55,9.91-5.5l10.62-2.85,14.16-3.79c4.72-1.26,9.51-2.22,14.4-2.91,4.88-.67,9.67-1.64,14.4-2.91l20.35-5.45c2.95-.79,6.04-1.62,9.29-2.49,3.24-.87,6.26-1.99,9.06-3.37,2.79-1.37,5.65-2.46,8.61-3.26s5.89-1.58,8.85-2.37c8.85-2.37,15.73-2.63,20.66-.79,4.17,1.42,6.97,4.77,8.39,10.08,1.74,6.5,2.04,11.78.93,15.88-1.13,4.09-2.32,7.26-3.62,9.51-2.16,3.75-3.44,7.25-3.82,10.51-.4,3.28-2.32,7.9-5.77,13.88-2.16,3.75-4.15,6.97-5.95,9.66-1.81,2.71-3.2,5.76-4.18,9.18l-16.12,46.06c-1.42,4.18-3.44,9.62-6.06,16.33-2.63,6.72-5.31,13.28-8,19.69-2.71,6.42-5.28,12.17-7.71,17.24-2.43,5.08-4.3,8.74-5.59,10.99-.87,1.51-1.58,2.96-2.15,4.37-.56,1.43-1.64,3.93-3.21,7.5l-9.12,26.16c-3.53,10.43-7.65,21.02-12.36,31.77-4.71,10.75-7.67,19.77-8.88,27.04-.72,2.09-.94,5.94-.7,11.57.23,5.63.68,9.63,1.31,11.98,1.74,6.5,3.52,11.39,5.36,14.69,1.83,3.3,3.65,5.99,5.47,8.02,1.97,2.65,3.45,4.62,4.43,5.93.98,1.32,3.29,4.02,6.92,8.11,7.09,7.59,14.22,15.33,21.4,23.2,7.17,7.89,14.29,15.62,21.39,23.2,4.37,4.52,8.56,8.94,12.56,13.24,4,4.31,8.18,8.72,12.56,13.24,1.97,2.65,4.04,5.08,6.24,7.34,2.18,2.26,4.56,4.63,7.12,7.1,1.49.87,2.54,1.85,3.16,2.95.61,1.11,1.66,2.09,3.16,2.95,3.46,3.51,5.96,6.32,7.48,8.43,1.52,2.13,3.25,4.51,5.23,7.14,8.79,11.56,14.2,18.81,16.26,21.73,2.05,2.93,3.89,5.12,5.56,6.58l36.81,34.72c2.56,2.49,6.25,6.24,11.08,11.26,4.82,5.04,9.77,10.51,14.83,16.42,5.06,5.92,9.93,11.73,14.63,17.42,4.69,5.71,7.8,10.24,9.34,13.62.32,1.19.77,2.33,1.39,3.42.61,1.11.77,2.33.51,3.66-.24,3.86-1.3,6.99-3.18,9.39-2.17,3.74-5.01,6.08-8.55,7.03s-7.38,1.98-11.5,3.08l-52.22,13.99c-6.5,1.74-10.81,2.73-12.95,3-2.16.25-4.29.51-6.43.77-2.16.25-5.14.9-8.97,1.93s-10.48,2.81-19.91,5.34l-10.62,2.85c-4.13,1.11-8.58,1.04-13.34-.22-5.52-1.68-10.69-5.67-15.54-11.96-2.87-3.65-5.73-7.79-8.54-12.41-2.82-4.61-6.42-9.19-10.79-13.71l-18.15-21.7c-9.38-11.39-17.06-20.57-23.02-27.51-5.98-6.94-10.95-12.55-14.95-16.86-4-4.29-7.06-7.43-9.16-9.4-2.11-1.95-3.99-3.67-5.64-5.13-3.15-2.31-5.93-4.42-8.33-6.31-2.4-1.88-4.59-4.14-6.56-6.78-1.98-2.63-3.11-3.91-3.4-3.83-.3.08-1.19-.3-2.69-1.18-2.24-1.3-4.24-3.44-6-6.46-1.75-3-6.1-8-13.03-15.01l-11.99-12.91c-3.63-4.08-7-6.66-10.13-7.72-3.13-1.06-5.37-1.72-6.7-2-1.34-.26-2.16-.37-2.45-.29s-1.11-.01-2.45-.29c-1.51-.86-2.84-1.14-4.02-.82l-3.54.95c-1.77.47-3.9,1.37-6.4,2.66-2.5,1.31-4.59,4.71-6.27,10.22-1.69,5.52-2.24,9.94-1.67,13.25.57,3.33,1.02,5.58,1.34,6.76l6.23,26.79c1.42,5.31,2.23,9.53,2.44,12.63.2,3.12.43,6.37.72,9.77.28,3.41.82,6.59,1.61,9.53.79,2.96,1.6,5.43,2.46,7.4.85,2,1.67,4.46,2.46,7.41,2.32,6.34,4.21,12.79,5.66,19.35,1.44,6.58,3.33,13.03,5.66,19.35l13.15,42.01c2,5.15,2.49,11.66,1.44,19.54-1.06,7.87-4.2,15.04-9.42,21.49-1.03.91-2.6,2.12-4.72,3.64-2.13,1.52-5.04,2.45-8.73,2.81l-28.97,8.71-16.58,5.39c-2.96.79-4.87,1.3-5.75,1.54s-1.96.36-3.22.39c-1.27.01-2.97.16-5.1.42-2.16.25-5.87,1.1-11.18,2.52l-4.42,1.19c-4.73,1.27-10,2.83-15.81,4.71-5.83,1.87-11.52.71-17.06-3.49-4.8-3.77-7.84-8.01-9.1-12.74-.47-1.77-.99-3.68-1.54-5.75s-.78-4.06-.66-5.99c-.68-4.87-1.52-9.23-2.56-13.07s-2.17-8.1-3.44-12.83l-30.29-109.51c-6.96-25.96-12.66-49.57-17.08-70.84-4.43-21.25-8.17-38.75-11.22-52.49l-7.35-27.44c-6.44-21.66-11.42-37.88-14.93-48.65-3.52-10.75-6.61-21.14-9.3-31.18l-15.41-57.53c-1.26-4.72-1.92-8.34-1.96-10.86-.05-2.51-.38-4.95-1.01-7.32-.95-3.54-1.77-6-2.46-7.41-.7-1.38-1.19-2.67-1.51-3.86s-.9-2.75-1.75-4.75c-.85-1.98-1.9-5.33-3.17-10.06l-16.84-62.84c-1.1-4.12-1.81-8.53-2.11-13.19-.3-4.66.84-9.24,3.44-13.73,3.02-5.23,6.56-8.55,10.61-9.96,4.04-1.39,8.43-2.73,13.16-4l49.32-14.17Z"/>
  <path class="st0" d="M721.76,294.97c5.89-1.58,10.36-2.61,13.39-3.12,3.03-.48,7.49-1.53,13.4-3.12,3.54-.95,7.18-2.07,10.94-3.41,3.75-1.32,7.4-2.46,10.94-3.41,4.72-1.26,12-2.41,21.83-3.48,9.83-1.05,17.74.15,23.73,3.6,3.74,2.17,7.83,5.65,12.29,10.46,4.45,4.83,8.2,9.35,11.23,13.59,3.04,4.25,5.93,9.17,8.7,14.74,2.76,5.59,6.71,12.12,11.89,19.58l15.32,25.3c5.16,7.48,9.62,14.66,13.37,21.56,3.75,6.91,8.38,15.94,13.9,27.1,2.32,6.35,4.59,11.27,6.81,14.78,2.21,3.53,6.43,9.82,12.66,18.9,5.16,7.48,9.15,13.53,11.97,18.13,2.81,4.63,5.07,8.93,6.78,12.89,1.69,3.98,3.12,7.55,4.29,10.71,1.16,3.17,2.59,6.75,4.29,10.71,10.61,23.1,19.67,41.54,27.16,55.33,7.49,13.81,13.31,24.89,17.45,33.27l30.11,59.28c2.44,4.41,5.03,8.77,7.78,13.09,2.73,4.34,5.33,8.7,7.78,13.09,2.12,3.23,3.67,6.61,4.62,10.15s2.48,6.92,4.62,10.15l36.74,69.84c2.92,6.18,6.37,13.16,10.35,20.94,3.99,7.79,5.6,16.21,4.87,25.26-.5,5.2-1.81,9.18-3.91,11.96-2.1,2.79-4.18,5.08-6.22,6.88-3.66,2.88-8,4.99-13,6.33-5.02,1.35-13.06,3.81-24.1,7.41l-16.58,5.39-7.52,2.02c-3.84,1.03-8.12,2.17-12.83,3.44s-9.33,2.34-13.84,3.23c-4.51.88-8.03,1.35-10.53,1.4-5.04.09-8.75-.18-11.13-.81-2.39-.62-4.77-1.88-7.18-3.77-5.4-3.61-8.71-6.51-9.93-8.72-1.22-2.19-2.9-4.91-5.03-8.14l-28.26-41.75c-3.19-4.84-6.1-8-8.72-9.52-2.63-1.51-4.89-2.32-6.82-2.44-1.34-.26-3.82-.07-7.44.57-3.62.66-7.43,1.2-11.42,1.64-4,.45-7.8.99-11.42,1.64-3.62.66-5.73,1.06-6.31,1.22l-23.01,6.17c-5.9,1.58-12.35,3.47-19.35,5.66-7,2.2-13.96,4.54-20.88,7.02-6.92,2.49-13.52,5.04-19.76,7.67-6.26,2.63-11.29,5.09-15.1,7.37-4.84,3.19-9.03,7.01-12.59,11.44-3.55,4.44-6.02,10-7.39,16.68-1.69,5.52-2.36,11.87-2.01,19.04.34,7.19.62,17.07.83,29.66-.12,1.93-.1,4.93.04,9,.14,4.08-.95,7.7-3.26,10.84-.87,1.51-2.3,2.66-4.28,3.52-2,.85-3.57,1.43-4.75,1.75-2.96.79-6.1,1.47-9.41,2.05-3.33.57-6.47,1.26-9.41,2.05-11.53,1.83-22.59,4.79-33.19,8.89-10.61,4.1-21.67,7.07-33.19,8.89-7.24,1.32-13.01,2.23-17.29,2.74-4.29.53-9.14-1.02-14.53-4.65-2.4-1.88-4.96-4.36-7.68-7.43-2.72-3.07-4.47-6.07-5.26-9.03-.31-1.18-.86-4.99-1.64-11.42-.77-6.43-1.03-10.31-.75-11.66.1-1.92.12-3.66.02-5.22-.1-1.54-.1-3.29.02-5.22-.09-5.03-.76-9.91-2.02-14.64-1.26-4.72-1.95-9.59-2.02-14.63l-1.27-22.43c-.69-14.36-1.53-25.2-2.55-32.52-1.01-7.32-1.8-14.37-2.36-21.19-1.92-16.56-2.52-28.88-1.85-36.97.68-8.08,1.09-16.57,1.24-25.47-.37-3.7-.52-6.65-.48-8.88.03-2.22-.2-4.84-.69-7.88-.5-3.02-.89-6.88-1.19-11.54-.3-4.66-.67-11.35-1.12-20.1-.21-3.1-.64-8.84-1.29-17.2-.67-8.36-.8-14.16-.4-17.44-.62-18.81-1.03-36.25-1.21-52.32-.2-16.07-.37-32.63-.5-49.67-.15-17.03-.64-35.4-1.48-55.09-.86-19.69-2.25-42.56-4.16-68.61-1.64-17.89-2.33-32.88-2.09-44.97.23-12.07,4.26-23.58,12.09-34.54,4.63-6.29,8.69-10.06,12.15-11.32,3.46-1.24,7.25-2.42,11.39-3.52,2.94-.79,5.27-1.56,6.96-2.34,1.69-.76,3.83-1.65,6.4-2.66,2.58-1,5.74-2.16,9.5-3.49,3.75-1.32,9.46-3.01,17.14-5.07l56.64-15.18ZM781.49,489.56c-2.29-3.8-5.22-8.24-8.78-13.3-3.58-5.05-6.93-8.73-10.08-11.06-3.75-2.15-7.97-2.61-12.69-1.34-4.73,1.27-9.26,6.75-13.61,16.45-4.36,9.71-5.21,27.81-2.53,54.27.35,3.7.66,6.62.93,8.76.25,2.16.48,4.78.69,7.88.2,3.12.63,7.11,1.31,11.98.67,4.89,1.16,11.4,1.44,19.54,1.23,11.69,1.76,21.34,1.6,28.98-.18,7.64.38,13.82,1.65,18.53l1.42,5.31c.47,1.77.76,3.44.86,4.99.09,1.56.39,3.22.86,4.99.79,2.96,2.15,6.23,4.06,9.82,1.92,3.61,3.77,6.43,5.59,8.46,1.97,2.65,6.37,4.93,13.23,6.89,6.84,1.96,16.76,1.2,29.75-2.28l9.74-2.61c4.12-1.1,8.37-2.39,12.71-3.88,4.35-1.48,8.5-3.06,12.48-4.77,3.96-1.69,6.98-3.44,9.02-5.26,7.47-5.16,11.04-10.7,10.72-16.63-.33-5.92-1.11-11.23-2.38-15.96-1.9-7.08-3.78-12.89-5.63-17.46-1.86-4.56-3.64-8.82-5.33-12.8-1.7-3.96-3.65-7.71-5.86-11.24-2.21-3.51-4.53-7.47-6.98-11.88-7.02-12.02-11.35-20.51-12.99-25.45-1.65-4.92-4.52-10.32-8.61-16.19l-22.59-34.74Z"/>
  <path class="st0" d="M1354.14,575.16c-7.52-6.83-14.27-13.09-20.21-18.77-5.95-5.67-14.8-13.9-26.53-24.67-10.08-9.3-17.53-15.85-22.33-19.63-4.8-3.77-9.48-8.21-14.01-13.32l-9.28-9.85c-11.47-12.1-18.83-20.09-22.07-23.97-3.26-3.87-6-6.46-8.24-7.75-1.5-.86-3.63-1.71-6.38-2.56-2.76-.83-5.32-.94-7.67-.31-4.73,1.27-7.2,3.83-7.43,7.68-.24,3.86-.49,6.46-.76,7.79.04,2.53.33,6.55.87,12.1.54,5.55,2.44,13.26,5.72,23.13l5.15,15.69c3.27,9.89,5.55,17.18,6.81,21.89,1.27,4.73,2.69,10.04,4.27,15.93l3.08,11.5c1.58,5.9,2.82,11.74,3.74,17.5.91,5.77,2.16,11.6,3.74,17.49,1.11,4.14,2.46,8.04,4.09,11.71,1.61,3.69,2.98,7.59,4.08,11.71l25.01,86.26c.79,2.96,1.68,5.72,2.7,8.29,1,2.58,2.2,5.26,3.58,8.05,2,5.15,3.48,8.88,4.41,11.15.92,2.29,1.63,4.31,2.1,6.08,1.9,7.08,2.11,13.19.64,18.33-1.47,5.14-3.53,8.7-6.15,10.66-4.52,4.37-12.03,7.64-22.51,9.83-10.49,2.17-18.38,3.98-23.69,5.4l-65.49,17.55c-4.73,1.27-7.98,1.52-9.77.72-1.79-.78-3.44-1.6-4.93-2.47-5.56-4.2-8.96-8.66-10.23-13.39-1.79-9.01-2.61-13.84-2.47-14.52.14-.66-.19-2.47-.98-5.43l-5.69-21.24-35.64-136.54c-3-11.2-6.23-22.05-9.66-32.51-3.44-10.46-6.66-21.29-9.66-32.51l-3.08-11.5c-1.74-6.49-3.38-13.16-4.89-20.03-1.52-6.85-2.86-13.61-4.01-20.27-.79-2.94-1.52-6.23-2.16-9.85-.66-3.62-1.37-6.89-2.17-9.85-2.21-8.26-4.81-16.73-7.76-25.43-2.97-8.69-5.85-17.08-8.65-25.19-4.51-12.07-8.45-24.45-11.85-37.14-3.4-12.68-6.76-25.22-10.08-37.61l-11.62-43.37c-1.58-5.89-3.42-11.56-5.51-17.02-2.09-5.44-4.23-11.03-6.39-16.78-1.7-3.96-3.1-8.02-4.21-12.15s-2.21-8.26-3.32-12.39c-2.05-7.66-2.98-13.43-2.74-17.29.23-3.85.77-6.52,1.64-8.03,2.16-3.73,4.78-6.33,7.87-7.8,3.08-1.45,6.1-2.58,9.06-3.37l5.31-1.42c13.57-3.64,27.22-6.97,40.95-10.03,13.73-3.04,27.81-7.12,42.25-12.27,6.49-1.74,11.8-3.16,15.93-4.27s8.2-1.25,12.22-.43c4.01.82,8.42,3.12,13.23,6.89,4.81,3.78,11.34,9.29,19.62,16.56l92.05,81.58c4.96,4.36,9.37,8.4,13.21,12.11,3.84,3.71,7.72,7.58,11.64,11.58,3.92,4.02,8.25,8.39,13,13.12,4.74,4.75,10.81,10.24,18.17,16.48,9.93,8.72,19.02,16.72,27.3,23.99,5.28,5.55,9.88,10.32,13.8,14.33,3.92,4.02,7.54,8.1,10.87,12.26,3.33,4.18,7.08,8.7,11.23,13.59,4.16,4.9,8.95,10.41,14.39,16.54,2.56,2.49,6.66,6.61,12.32,12.35,5.65,5.76,9.95,8.24,12.9,7.45.58-.16,1.39-.68,2.42-1.6,1.02-.9,1.35-3.21.99-6.91-.05-2.51-.53-4.91-1.45-7.2-.93-2.27-1.98-5-3.14-8.17-1.17-3.15-2.61-7.36-4.33-12.59-1.73-5.23-3.68-11.97-5.89-20.24-1.42-5.31-2.52-10.55-3.27-15.72-.76-5.16-1.84-10.42-3.27-15.73-2.53-9.43-5.3-18.03-8.32-25.75-3.02-7.73-5.1-14.91-6.25-21.56l-2.2-11.74c-.84-5.46-2.35-11.7-4.54-18.7-2.2-7-4.39-14-6.58-21-2.2-7-4.27-13.56-6.22-19.68-1.96-6.11-3.33-10.64-4.12-13.6l-2.13-7.97c-2.05-7.66-3.93-15.22-5.6-22.69-1.68-7.45-3.55-15.01-5.6-22.69-1.26-4.72-2.56-8.95-3.88-12.72-1.33-3.75-2.32-8.06-2.99-12.95-1.26-4.72-1.04-8.57.69-11.57,2.16-3.73,3.86-5.61,5.13-5.64,1.26-.01,3.07-.35,5.43-.98l29.45-6.94c4.12-1.1,6.93-1.86,8.41-2.25s2.62-.85,3.42-1.39c.81-.53,1.79-.95,2.98-1.27s3.24-.87,6.19-1.66c4.28-.51,7.94-1.02,10.98-1.52,3.03-.49,6.32-1.22,9.86-2.17l15.04-4.03c5.31-1.42,11.17-3.14,17.59-5.19,6.41-2.03,12.9-1.4,19.48,1.89,2.83,1.14,5.5,3.43,8.01,6.87,2.49,3.45,4.7,8.7,6.6,15.78,1.27,4.73,2.26,9.04,3,12.95.73,3.93,2.38,11.86,4.96,23.81l6.47,27.67c2.22,8.27,3.72,13.87,4.51,16.82s1.62,6.06,2.49,9.29,1.98,7.38,3.32,12.39c1.34,5.02,3.6,13.43,6.76,25.22,1.27,4.73,2.69,10.66,4.3,17.82,1.6,7.16,4.38,18.12,8.33,32.86,2.41,11.38,4.45,20.15,6.11,26.35s3.3,13.51,4.93,21.92c3.68,16.09,6.39,27.38,8.13,33.87,1.74,6.5,3.32,12.39,4.74,17.7,1.42,5.31,3.2,11.95,5.34,19.91,2.13,7.97,5.35,21.18,9.66,39.62l18.15,74.82c3.01,11.22,5.75,20.91,8.27,29.09,2.51,8.19,5.12,15.55,7.82,22.09,2.7,6.55,5.29,12.66,7.75,18.32,2.47,5.67,4.65,12.04,6.54,19.12l8.71,28.97c1.27,4.73,2.3,9.2,3.12,13.39.8,4.22-.16,8.27-2.91,12.16-3.62,5.39-9.55,9.2-17.81,11.41-4.73,1.27-10.26,2.42-16.61,3.5-6.36,1.07-11.61,2.16-15.72,3.27l-33.64,9.01c-2.96.79-9.01,1.77-18.17,2.97-9.16,1.2-17.06-1.12-23.67-6.94l-47.56-39.43c-13.99-12.05-25.4-23.39-34.24-33.99-8.85-10.58-20.19-21.63-34.01-33.1l-30.66-25.93Z"/>
  <path class="st0" d="M1828.14,2.31c8.26-2.21,14.73-2.83,19.42-1.88,4.68.97,8.44,2.01,11.27,3.14,5.23,3.03,8.89,6.63,10.96,10.82,2.07,4.19,3.66,8.36,4.77,12.48l10.67,39.83c.79,2.96,1.31,5.5,1.57,7.64.25,2.16.78,4.7,1.57,7.64.36,3.7.98,7.18,1.84,10.42.87,3.25,1.78,6.64,2.73,10.18l1.66,6.19c1.42,5.31,1.21,10.44-.63,15.35-.43.75-1.29,2.24-2.59,4.49-1.29,2.25-3.13,3.69-5.48,4.32l-35.64,8.6c-3.54.95-8.44,2.73-14.69,5.36-6.27,2.63-11.76,8.06-16.51,16.28-1.3,2.24-3.05,8.09-5.26,17.53-2.21,9.46-.63,24.21,4.74,44.26l7.11,26.55c4.27,15.93,7.29,26.67,9.1,32.19,1.8,5.54,2.98,9.33,3.53,11.39.56,2.07.91,4.02,1.1,5.87.17,1.85.86,7.36,2.06,16.52,1.87,14.05,3.88,23.95,6.05,29.68,2.17,5.75,4.53,13.34,7.05,22.77l13.99,52.22c2.22,8.27,3.91,14.6,5.1,19.03s3.13,12.91,5.87,25.46c1.27,4.73,2.15,8.6,2.64,11.62.49,3.04,1.18,6.18,2.05,9.41.87,3.25,2,6.91,3.41,10.94,1.4,4.06,2.97,9.33,4.71,15.81l16.88,52.39c3.27,9.88,5.11,17.29,5.49,22.24.38,4.97-.51,9.31-2.67,13.05-3.46,6-7.55,9.61-12.26,10.87l-38.23,13.09c-7.52,2.64-14.45,4.49-20.8,5.57-6.35,1.06-11.01,2-13.96,2.79l-30.09,8.06c-2.96.79-6.1.85-9.44.16-3.35-.67-7.21-3.29-11.58-7.81-3.63-4.08-6.15-8.79-7.57-14.1l-6.7-28.56-2.37-8.85c-.79-2.94-1.36-5.64-1.69-8.08-.34-2.43-.9-5.12-1.69-8.08-2.21-8.26-4.47-16.67-6.76-25.23-2.29-8.54-4.84-16.87-7.64-24.99-1.86-4.56-3.6-9.31-5.24-14.25-1.65-4.92-2.8-9.83-3.47-14.72l-10.15-48.51c-.53-4.28-1.48-8.45-2.88-12.51-1.4-4.04-2.36-8.21-2.88-12.51-.63-2.35-1.05-4.46-1.22-6.31-.19-1.85-.59-3.95-1.22-6.31l-2.85-10.62c-1.86-4.56-3.05-7.87-3.61-9.94s-2-6.25-4.32-12.6c-1.1-4.12-2.02-7.52-2.73-10.18-.71-2.66-1.42-5.31-2.13-7.96-.71-2.66-1.36-5.64-1.93-8.97-.58-3.31-1.57-7.64-2.99-12.95l-20.63-77c-2.69-10.03-4.92-18.91-6.67-26.67-1.77-7.74-8.04-15.23-18.83-22.47-3.91-2.75-7.93-4.19-12.07-4.35-4.16-.15-7.71.17-10.65.96l-48.44,13.93c-5.91,1.58-10.37,1.99-13.43,1.23-3.05-.76-5.86-2.37-8.42-4.86-4.22-3.92-7.83-11.5-10.83-22.71-1.26-4.71-2.92-10.91-4.98-18.59-2.05-7.66-3.5-14.24-4.33-19.71l-2.91-14.4c-.31-1.18-.81-3.58-1.46-7.2-.66-3.62-1.39-7.53-2.19-11.74-.81-4.2-1.4-8.16-1.76-11.86-.37-3.7-.19-6.59.52-8.68.98-3.42,4.02-7.39,9.13-11.93,5.1-4.53,12.67-8.14,22.71-10.83,5.89-1.58,11.55-2.93,16.93-4.06,5.39-1.12,11.11-2.18,17.17-3.18,8.41-1.62,16.57-3.64,24.46-6.08,7.89-2.42,15.95-4.75,24.22-6.96,14.74-3.95,29.43-7.56,44.05-10.86,14.61-3.28,29.29-6.9,44.05-10.85l98.89-27.45Z"/>
</svg>