<svg preserveAspectRatio="none" width="100%" height="100%" overflow="visible" style="display: block;" viewBox="0 0 357 8" fill="none" xmlns="http://www.w3.org/2000/svg">
<path id="Author_paper" d="M4 0C4 2.76142 6.23858 5 9 5C11.7614 5 14 2.76142 14 0H21C21 2.76142 23.2386 5 26 5C28.7614 5 31 2.76142 31 0H38C38 2.76142 40.2386 5 43 5C45.7614 5 48 2.76142 48 0H55C55 2.76142 57.2386 5 60 5C62.7614 5 65 2.76142 65 0H72C72 2.76142 74.2386 5 77 5C79.7614 5 82 2.76142 82 0H89C89 2.76142 91.2386 5 94 5C96.7614 5 99 2.76142 99 0H106C106 2.76142 108.239 5 111 5C113.761 5 116 2.76142 116 0H123C123 2.76142 125.239 5 128 5C130.761 5 133 2.76142 133 0H140C140 2.76142 142.239 5 145 5C147.761 5 150 2.76142 150 0H157C157 2.76142 159.239 5 162 5C164.761 5 167 2.76142 167 0H174C174 2.76142 176.239 5 179 5C181.761 5 184 2.76142 184 0H191C191 2.76142 193.239 5 196 5C198.761 5 201 2.76142 201 0H208C208 2.76142 210.239 5 213 5C215.761 5 218 2.76142 218 0H225C225 2.76142 227.239 5 230 5C232.761 5 235 2.76142 235 0H242C242 2.76142 244.239 5 247 5C249.761 5 252 2.76142 252 0H259C259 2.76142 261.239 5 264 5C266.761 5 269 2.76142 269 0H276C276 2.76142 278.239 5 281 5C283.761 5 286 2.76142 286 0H293C293 2.76142 295.239 5 298 5C300.761 5 303 2.76142 303 0H310C310 2.76142 312.239 5 315 5C317.761 5 320 2.76142 320 0H327C327 2.76142 329.239 5 332 5C334.761 5 337 2.76142 337 0H344C344 2.76142 346.239 5 349 5C351.761 5 354 2.76142 354 0H357V8H0V0H4Z" fill="var(--fill-0, #D8CBBA)"/>
</svg>
