<svg preserveAspectRatio="none" width="100%" height="100%" overflow="visible" style="display: block;" viewBox="0 0 395.5 349" fill="none" xmlns="http://www.w3.org/2000/svg">
<g id="Crease">
<path d="M395.5 111.438L0 349H395.5V111.438Z" fill="#F2F2F2"/>
<path d="M185.908 0L395.5 111.442L0.499756 348.702L185.908 0Z" fill="#FF5800"/>
<path d="M93.4806 204.567C93.9285 203.724 94.3785 202.801 94.8411 201.802C95.2931 200.798 95.9203 200.133 96.7233 199.78C97.5547 199.374 98.3816 199.362 99.1877 199.75C99.9937 200.137 100.675 200.527 101.255 200.904L102.382 201.613C104.016 202.631 105.604 203.503 107.169 204.212C108.728 204.932 109.93 205.502 110.783 205.956C111.934 206.568 112.909 207.128 113.734 207.634C114.542 208.146 115.35 208.453 116.147 208.575C116.885 208.653 117.404 208.396 117.728 207.788C117.983 207.309 118.077 206.771 118.006 206.185C117.934 205.6 117.815 205.154 117.666 204.842L115.708 200.655C115.504 200.163 115.306 199.661 115.102 199.17C114.898 198.679 114.7 198.177 114.496 197.685C114.124 196.79 113.654 195.925 113.092 195.079C112.53 194.232 112.06 193.367 111.688 192.472L110.08 188.936C109.559 187.729 109.144 186.865 108.837 186.36C108.531 185.855 108.153 185.203 107.719 184.425L106.983 182.98C106.8 182.732 106.69 182.373 106.62 181.912C106.551 181.451 106.506 181.099 106.485 180.855C106.496 180.396 106.604 179.988 106.797 179.626L108.146 177.088C108.401 176.608 108.694 176.134 109.003 175.683C109.322 175.237 109.604 174.758 109.859 174.278L111.475 171.239C111.651 170.908 111.789 170.571 111.894 170.244C111.989 169.912 112.132 169.591 112.291 169.293L112.773 168.386C113.255 167.48 113.756 166.898 114.281 166.63C114.719 166.398 115.199 166.421 115.754 166.716C116.415 167.067 116.881 167.452 117.13 167.858C117.379 168.264 117.543 168.597 117.628 168.875C117.768 169.332 117.964 169.71 118.2 169.986C118.436 170.262 118.666 170.781 118.902 171.522C119.042 171.979 119.15 172.393 119.239 172.741C119.321 173.099 119.464 173.449 119.666 173.789L122.208 178.628C122.44 179.066 122.734 179.646 123.088 180.368C123.437 181.101 123.771 181.812 124.088 182.527C124.405 183.243 124.675 183.893 124.909 184.482C125.142 185.072 125.299 185.497 125.384 185.775C125.439 185.954 125.51 186.129 125.576 186.287C125.648 186.435 125.771 186.719 125.95 187.129L127.388 189.877C127.971 190.967 128.526 192.11 129.047 193.317C129.568 194.524 130.085 195.455 130.581 196.116C130.7 196.33 130.995 196.65 131.476 197.057C131.958 197.463 132.318 197.737 132.563 197.867C133.224 198.219 133.77 198.454 134.183 198.551C134.597 198.648 134.946 198.71 135.26 198.713C135.621 198.754 135.906 198.783 136.084 198.809C136.267 198.825 136.666 198.845 137.271 198.866C138.433 198.868 139.61 198.865 140.804 198.884C141.997 198.903 143.175 198.9 144.337 198.902C145.039 198.893 145.725 198.888 146.385 198.883C147.038 198.889 147.725 198.884 148.433 198.864C148.794 198.906 149.155 198.92 149.512 198.918C149.858 198.911 150.237 198.893 150.642 198.876C150.822 198.821 150.989 198.815 151.124 198.845C151.258 198.875 151.426 198.869 151.605 198.814C152.162 198.795 152.578 198.811 152.874 198.846C153.165 198.891 153.488 198.926 153.855 198.957C155.477 199.122 156.484 199.233 156.877 199.292C157.27 199.35 157.594 199.358 157.838 199.337L163.503 198.971C163.898 198.949 164.493 198.937 165.266 198.923C166.049 198.916 166.876 198.931 167.75 198.959C168.619 198.997 169.471 199.04 170.291 199.092C171.111 199.145 171.73 199.242 172.127 199.371C172.244 199.433 172.378 199.49 172.512 199.521C172.646 199.551 172.763 199.641 172.852 199.756C173.152 200.066 173.322 200.389 173.373 200.731C173.513 201.188 173.486 201.598 173.288 201.972L169.818 208.498C169.466 209.159 169.217 209.601 169.078 209.787C168.932 209.983 168.787 210.179 168.652 210.381C168.507 210.577 168.337 210.87 168.128 211.265L166.466 214.389C166.24 214.816 165.901 215.169 165.429 215.465C164.875 215.787 164.154 215.909 163.254 215.827C162.731 215.782 162.171 215.703 161.58 215.58C160.988 215.457 160.33 215.408 159.628 215.418L156.461 215.252C154.805 215.151 153.472 215.085 152.447 215.033C151.416 214.991 150.579 214.97 149.925 214.964C149.266 214.969 148.78 214.984 148.455 215.003C148.13 215.022 147.854 215.053 147.61 215.074C147.181 215.16 146.796 215.215 146.455 215.266C146.113 215.317 145.767 215.325 145.406 215.283C145.045 215.242 144.846 215.231 144.829 215.263C144.812 215.295 144.708 215.336 144.528 215.391C144.251 215.476 143.921 215.478 143.545 215.388C143.169 215.297 142.424 215.284 141.316 215.31L139.333 215.309C138.723 215.3 138.256 215.38 137.933 215.55C137.61 215.72 137.385 215.86 137.259 215.944C137.132 216.027 137.061 216.085 137.044 216.117C137.027 216.149 136.955 216.206 136.839 216.295C136.66 216.35 136.528 216.444 136.465 216.561L136.273 216.924C136.176 217.105 136.089 217.346 135.995 217.652C135.917 217.952 136.031 218.382 136.357 218.952C136.678 219.506 137.003 219.898 137.317 220.105C137.63 220.313 137.859 220.448 137.976 220.511L140.65 222.042C141.194 222.331 141.603 222.59 141.874 222.802C142.138 223.025 142.43 223.248 142.726 223.488C143.023 223.728 143.331 223.919 143.63 224.078C143.928 224.236 144.19 224.362 144.42 224.443C144.65 224.525 144.912 224.65 145.211 224.809C145.906 225.096 146.583 225.443 147.227 225.826C147.871 226.21 148.554 226.546 149.244 226.844L153.691 228.976C154.269 229.201 154.83 229.663 155.407 230.353C155.973 231.037 156.32 231.851 156.448 232.767C156.45 232.919 156.428 233.14 156.383 233.43C156.338 233.721 156.201 234.031 155.944 234.359L154.436 237.401L153.603 239.174L153.291 239.761C153.245 239.846 153.178 239.947 153.078 240.058C152.984 240.158 152.861 240.312 152.726 240.514C152.581 240.71 152.372 241.077 152.083 241.621L151.844 242.069C151.584 242.56 151.311 243.099 151.02 243.723C150.728 244.348 150.2 244.724 149.43 244.861C148.757 244.969 148.17 244.889 147.69 244.634L147.104 244.322C146.891 244.209 146.716 244.075 146.563 243.925C146.117 243.606 145.691 243.352 145.297 243.143L143.985 242.445L132.701 236.555C130.046 235.143 127.67 233.798 125.589 232.541C123.508 231.284 121.789 230.247 120.431 229.456L117.616 227.96C115.343 226.833 113.641 225.996 112.487 225.465C111.333 224.933 110.256 224.388 109.221 223.838L103.325 220.703C102.845 220.447 102.499 220.223 102.282 220.039C102.071 219.845 101.848 219.699 101.603 219.568C101.24 219.375 100.979 219.25 100.812 219.203C100.646 219.155 100.502 219.092 100.384 219.03C100.267 218.967 100.091 218.887 99.8606 218.806C99.6303 218.725 99.2834 218.554 98.7929 218.293L92.3525 214.869C91.926 214.642 91.5115 214.367 91.1146 214.033C90.7015 213.703 90.421 213.253 90.2513 212.698C90.0516 212.045 90.0488 211.51 90.2436 211.066C90.4384 210.623 90.6659 210.169 90.9267 209.679L93.5403 204.557L93.4806 204.567Z" fill="var(--fill-0, #0D0D0D)"/>
<path d="M128.902 138.183C129.225 137.575 129.474 137.133 129.67 136.84C129.861 136.559 130.115 136.106 130.438 135.498C130.631 135.136 130.819 134.757 130.997 134.345C131.175 133.934 131.362 133.555 131.555 133.192C131.81 132.712 132.27 132.027 132.936 131.136C133.601 130.245 134.306 129.69 135.041 129.465C135.499 129.325 136.1 129.248 136.835 129.256C137.569 129.263 138.233 129.302 138.809 129.376C139.396 129.455 140.009 129.589 140.679 129.795C141.349 130.001 142.187 130.173 143.194 130.312L146.44 130.998C147.441 131.148 148.372 131.328 149.225 131.549C150.078 131.77 151.173 132.078 152.502 132.484C153.198 132.772 153.776 132.97 154.233 133.063C154.69 133.155 155.535 133.29 156.751 133.471C157.752 133.621 158.56 133.749 159.151 133.872C159.742 133.995 160.268 134.138 160.728 134.3C161.189 134.463 161.585 134.619 161.932 134.763C162.28 134.906 162.686 135.068 163.136 135.225C165.837 136.114 168.046 136.796 169.748 137.222C171.455 137.665 172.801 138.039 173.804 138.339L180.97 140.399C181.523 140.542 182.077 140.659 182.636 140.765C183.206 140.876 183.759 140.993 184.301 141.13C184.726 141.206 185.123 141.335 185.485 141.527C185.848 141.72 186.245 141.849 186.669 141.924L195.201 144.245C195.925 144.479 196.761 144.733 197.7 144.999C198.639 145.266 199.458 145.783 200.141 146.53C200.525 146.966 200.758 147.377 200.824 147.768C200.895 148.148 200.924 148.505 200.916 148.802C200.871 149.325 200.707 149.84 200.435 150.352C200.162 150.863 199.752 151.712 199.193 152.892L198.36 154.665L197.249 156.755C196.993 157.235 196.733 157.699 196.458 158.14C196.182 158.582 195.958 158.9 195.763 159.111C195.391 159.529 195.076 159.813 194.845 159.964C194.614 160.115 194.331 160.21 193.989 160.261C193.283 160.432 192.795 160.474 192.516 160.408C192.237 160.341 191.893 160.268 191.468 160.193L185.888 159.318C185.247 159.21 184.766 159.214 184.445 159.304C184.119 159.404 183.878 159.522 183.728 159.675C183.602 159.758 183.429 159.981 183.204 160.326C182.979 160.672 182.738 161.022 182.465 161.383C182.191 161.743 181.95 162.094 181.725 162.439C181.5 162.785 181.376 162.993 181.342 163.057L180.089 165.413C179.766 166.021 179.425 166.688 179.071 167.43C178.718 168.172 178.375 168.92 178.053 169.679C177.732 170.438 177.438 171.171 177.166 171.888C176.9 172.595 176.717 173.195 176.618 173.69C176.51 174.33 176.5 174.967 176.592 175.591C176.685 176.215 176.95 176.848 177.399 177.47C177.72 178.023 178.192 178.576 178.806 179.093C179.42 179.611 180.25 180.34 181.301 181.295C181.448 181.456 181.696 181.683 182.045 181.978C182.395 182.274 182.607 182.646 182.683 183.07C182.737 183.249 182.721 183.46 182.64 183.69C182.559 183.92 182.484 184.086 182.416 184.214C182.252 184.523 182.077 184.827 181.869 185.14C181.661 185.454 181.48 185.768 181.322 186.066C180.592 187.156 179.991 188.286 179.513 189.468C179.035 190.65 178.434 191.781 177.704 192.87C177.255 193.561 176.895 194.108 176.604 194.501C176.314 194.894 175.826 195.168 175.119 195.339C174.778 195.39 174.383 195.413 173.924 195.401C173.465 195.39 173.089 195.299 172.78 195.135C172.662 195.072 172.301 194.826 171.723 194.395C171.145 193.965 170.801 193.686 170.712 193.57C170.565 193.41 170.417 193.276 170.284 193.165C170.152 193.054 170.004 192.92 169.857 192.76C169.439 192.388 168.983 192.063 168.503 191.808C168.023 191.552 167.567 191.228 167.149 190.855L165.212 189.251C163.985 188.215 163.026 187.446 162.347 186.975C161.667 186.504 161.03 186.029 160.427 185.544C158.926 184.431 157.867 183.54 157.252 182.871C156.637 182.202 155.979 181.51 155.261 180.827C154.933 180.571 154.673 180.364 154.494 180.187C154.315 180.009 154.081 179.831 153.8 179.64C153.518 179.449 153.163 179.192 152.766 178.858C152.369 178.524 151.787 178.05 151.03 177.415C150.766 177.192 150.257 176.785 149.526 176.205C148.795 175.625 148.304 175.186 148.068 174.91C146.482 173.519 145.023 172.224 143.687 171.007C142.35 169.791 140.988 168.546 139.583 167.252C138.178 165.958 136.629 164.601 134.958 163.165C133.276 161.724 131.297 160.097 129.02 158.257C127.43 157.029 126.15 155.938 125.174 154.995C124.198 154.052 123.569 152.842 123.26 151.365C123.104 150.502 123.103 149.886 123.264 149.506C123.424 149.127 123.624 148.726 123.85 148.3C124.009 148.001 124.129 147.75 124.193 147.552C124.258 147.354 124.345 147.113 124.471 146.824C124.581 146.541 124.73 146.182 124.913 145.787C125.091 145.376 125.392 144.783 125.811 143.994L128.902 138.183ZM149.408 148.156C148.919 148.047 148.338 147.956 147.649 147.864C146.96 147.771 146.403 147.762 145.975 147.849C145.517 147.988 145.158 148.304 144.903 148.784C144.648 149.263 144.747 150.055 145.211 151.163C145.68 152.261 147.097 153.712 149.461 155.516C149.79 155.773 150.055 155.969 150.251 156.114C150.448 156.259 150.681 156.438 150.945 156.661C151.21 156.883 151.576 157.147 152.033 157.471C152.478 157.79 153.056 158.248 153.749 158.849C154.804 159.642 155.64 160.333 156.252 160.932C156.863 161.531 157.414 161.961 157.894 162.216L158.438 162.505C158.619 162.601 158.784 162.703 158.917 162.814C159.049 162.925 159.214 163.027 159.395 163.123C159.704 163.288 160.068 163.426 160.514 163.54C160.954 163.665 161.33 163.728 161.633 163.725C161.994 163.766 162.517 163.58 163.203 163.164C163.889 162.749 164.58 161.886 165.289 160.553L165.822 159.551C166.049 159.124 166.271 158.681 166.477 158.216C166.683 157.752 166.878 157.281 167.035 156.831C167.198 156.371 167.289 155.995 167.296 155.698C167.446 154.696 167.269 153.973 166.756 153.55C166.242 153.127 165.754 152.785 165.263 152.524C164.538 152.138 163.913 151.847 163.405 151.645C162.891 151.454 162.405 151.264 161.944 151.101C161.483 150.938 161.033 150.808 160.576 150.716C160.119 150.623 159.614 150.519 159.072 150.381C157.546 150.035 156.521 149.75 155.998 149.499C155.469 149.259 154.809 149.085 154.013 148.963L149.435 148.157L149.408 148.156Z" fill="var(--fill-0, #0D0D0D)"/>
<path d="M200.676 106.86C199.544 106.956 198.511 107.022 197.591 107.08C196.671 107.138 195.323 107.229 193.537 107.373C192 107.486 190.9 107.599 190.217 107.7C189.544 107.808 188.825 107.849 188.053 107.835L186.529 107.846C184.659 107.864 183.449 107.85 182.877 107.819C182.316 107.794 181.894 107.816 181.616 107.901C181.437 107.956 181.202 108.064 180.922 108.23C180.642 108.396 180.437 108.601 180.313 108.836C180.057 109.316 180.074 109.721 180.374 110.031C180.675 110.341 180.869 110.568 180.952 110.694C181.163 110.888 181.518 111.173 182.017 111.547C182.515 111.922 183.293 112.363 184.35 112.843L186.027 113.625C187.085 114.105 187.853 114.487 188.333 114.742L191.148 116.239C191.756 116.562 192.325 116.906 192.873 117.265C193.415 117.635 193.99 117.968 194.598 118.291C195.024 118.518 195.446 118.702 195.869 118.858C196.298 119.004 196.714 119.198 197.141 119.425L206.119 123.966C206.418 124.125 206.712 124.268 207.006 124.383C207.289 124.493 207.6 124.603 207.943 124.704C208.521 124.929 208.938 125.096 209.201 125.194C209.463 125.293 209.671 125.39 209.852 125.486C210.577 125.872 211.09 126.322 211.407 126.833C211.724 127.343 211.848 127.778 211.811 128.156C211.821 128.858 211.524 129.726 210.898 130.748C210.273 131.769 209.826 132.558 209.537 133.102L205.971 139.809C205.716 140.289 205.482 140.575 205.285 140.662C205.088 140.749 204.887 140.819 204.707 140.874C203.936 141.012 203.317 140.942 202.826 140.681C201.954 140.135 201.497 139.838 201.45 139.771C201.403 139.705 201.227 139.598 200.929 139.44L198.753 138.283L184.841 130.776C183.689 130.164 182.553 129.601 181.437 129.076C180.315 128.561 179.184 127.987 178.032 127.375L176.86 126.751C176.198 126.4 175.522 126.026 174.846 125.626C174.169 125.225 173.51 124.82 172.883 124.404C172.584 124.246 172.249 124.053 171.903 123.829C171.557 123.604 171.233 123.417 170.923 123.253C170.081 122.805 169.179 122.367 168.255 121.944C167.315 121.526 166.412 121.114 165.525 120.725C164.193 120.167 162.88 119.551 161.579 118.859L153.283 114.448C152.675 114.125 152.072 113.845 151.468 113.592C150.858 113.35 150.243 113.092 149.601 112.832C149.141 112.67 148.714 112.47 148.287 112.243L147.018 111.568C146.229 111.149 145.687 110.779 145.387 110.469C145.087 110.159 144.91 109.9 144.855 109.72C144.715 109.263 144.704 108.847 144.816 108.482C144.927 108.118 145.076 107.786 145.235 107.488L145.524 106.944C146.261 105.558 147.036 104.178 147.826 102.82C148.628 101.468 149.367 100 150.054 98.4237L150.922 96.7922C151.149 96.3656 151.444 96.0164 151.818 95.7502C152.192 95.4841 152.715 95.2973 153.399 95.1955C154.071 95.0881 155.019 94.9767 156.26 94.8565L169.977 93.5465C170.714 93.4731 171.385 93.4197 171.975 93.3912C172.581 93.3577 173.192 93.3406 173.819 93.3185C174.44 93.307 175.138 93.2812 175.89 93.2568C176.641 93.2324 177.556 93.1581 178.624 93.0281C180.097 92.8813 181.451 92.7531 182.68 92.6272C183.534 92.6161 184.28 92.6024 184.912 92.5966C185.539 92.5745 186.155 92.6007 186.748 92.6425C187.341 92.6844 187.999 92.7333 188.722 92.7622C189.445 92.7911 190.26 92.8277 191.178 92.8506C191.573 92.8281 192.227 92.8067 193.13 92.7806C194.033 92.7546 194.566 92.6004 194.731 92.2912C194.765 92.2272 194.778 92.1249 194.787 91.9792C194.786 91.8279 194.634 91.6242 194.3 91.3782C194.089 91.1838 193.86 91.0484 193.598 90.95C193.335 90.8516 193.03 90.7305 192.689 90.576C192.341 90.4323 191.887 90.2318 191.332 89.964C190.771 89.7068 190.072 89.349 189.219 88.8954C188.675 88.6062 188.17 88.2964 187.676 87.9653C187.198 87.6292 186.676 87.3244 186.132 87.0352C185.162 86.5193 184.254 86.0914 183.382 85.7508C182.526 85.4052 181.769 85.0296 181.141 84.6142L180.003 83.8995C179.493 83.5464 178.859 83.1955 178.117 82.842C177.375 82.4885 176.633 82.1349 175.897 81.7707C175.154 81.4172 174.455 81.0863 173.815 80.7731C173.158 80.4649 172.694 80.2318 172.384 80.0674L171.574 79.6365C170.785 79.2169 170.023 78.7981 169.283 78.3635C168.543 77.929 167.781 77.5101 166.992 77.0906C166.512 76.8354 166.069 76.6136 165.657 76.4359C165.246 76.2581 164.82 76.0043 164.369 75.6958C163.889 75.4407 163.589 75.1306 163.474 74.755C163.334 74.2976 163.309 74.0107 163.409 73.8997C163.503 73.7994 163.61 73.6238 163.741 73.3785L165.419 70.4274L165.878 69.5636C165.958 69.4143 166.009 69.2914 166.028 69.1784C166.042 69.0761 166.088 68.9638 166.156 68.8358L166.496 68.196C166.787 67.8035 167.022 67.4636 167.213 67.182C167.404 66.9004 167.596 66.5649 167.789 66.2023L168.611 64.6561C168.9 64.1122 169.213 63.4987 169.532 62.8205C169.852 62.1424 170.409 61.6593 171.178 61.3706C171.49 61.2217 171.88 61.1828 172.354 61.2433C172.828 61.3038 173.422 61.524 174.147 61.9095C174.627 62.1646 175.069 62.4134 175.436 62.6495C175.814 62.8913 176.591 63.3592 177.761 64.0638L180.531 65.6459L187.057 69.1157C187.537 69.3709 188.139 69.7047 188.847 70.1222C189.555 70.5398 190.669 71.1457 192.183 71.9508C193.301 72.6271 194.174 73.119 194.814 73.4592C195.454 73.7994 196.173 74.2226 196.987 74.7238C198.584 75.6552 199.719 76.2995 200.38 76.6511L204.229 78.6978C205.04 79.1287 206.377 79.8807 208.214 80.9262L215.731 85.1556C216.883 85.7679 217.88 86.2845 218.75 86.7061C219.61 87.122 220.417 87.4826 221.161 87.7551C221.899 88.0384 222.601 88.2882 223.254 88.5261C223.907 88.7639 224.596 89.0621 225.321 89.4477L228.363 90.9555C228.854 91.2163 229.296 91.4651 229.705 91.7239C230.115 91.9827 230.375 92.3674 230.481 92.8887C230.652 93.5954 230.498 94.3749 230.05 95.2173C229.795 95.6972 229.462 96.2454 229.074 96.8462C228.676 97.4413 228.371 97.9631 228.144 98.3897L226.313 101.834C226.148 102.143 225.767 102.706 225.168 103.551C224.568 104.395 223.773 104.861 222.787 104.966L215.915 105.853C213.856 106.071 212.05 106.151 210.512 106.058C208.969 105.976 207.201 106.062 205.206 106.314L200.741 106.84L200.676 106.86Z" fill="var(--fill-0, #0D0D0D)"/>
<path d="M190.438 23.3246C190.886 22.4821 191.332 21.899 191.772 21.5859C192.213 21.2727 192.58 21.0442 192.892 20.8953C193.545 20.6956 194.118 20.6721 194.612 20.8249C195.105 20.9777 195.581 21.1625 195.997 21.3836L200.081 23.5551C200.379 23.7138 200.63 23.8606 200.826 24.006C201.022 24.1514 201.272 24.2981 201.571 24.4568C201.9 24.7136 202.24 24.922 202.571 25.0978L204.245 25.9879C204.788 26.277 205.189 26.6815 205.457 27.2068C205.487 27.3048 205.542 27.4845 205.626 27.7622C205.711 28.0399 205.683 28.2985 205.553 28.5437L203.54 32.124C203.347 32.4866 203.117 33.0211 202.856 33.744C202.59 34.4505 202.617 35.3264 202.926 36.339C203.011 36.6167 203.353 37.2088 203.968 38.1102C204.572 39.006 205.908 40.0173 207.955 41.1059L210.674 42.5516C212.306 43.4191 213.42 43.9981 214.003 44.2666C214.595 44.5408 214.996 44.7399 215.198 44.8476C215.401 44.9553 215.598 45.0737 215.762 45.2021C215.926 45.3304 216.43 45.6942 217.274 46.2935C218.564 47.2118 219.533 47.8087 220.174 48.0679C220.816 48.3271 221.606 48.7196 222.576 49.2356L229.87 53.1136C230.328 53.3574 231.164 53.8429 232.405 54.5709C232.895 54.8317 233.273 55.0465 233.566 55.2429C233.847 55.4337 234.161 55.6144 234.492 55.7902C234.823 55.966 235.212 56.1594 235.645 56.3485C236.089 56.5433 236.638 56.8218 237.299 57.1733L242.879 59.7982C243.937 60.2785 244.682 60.7024 245.128 61.0485C245.562 61.389 245.849 61.8014 245.999 62.2644C246.224 62.9994 246.208 63.6203 245.953 64.1001L244.099 68.2301C243.744 69.0532 243.369 69.757 242.965 70.3628C242.567 70.958 242.296 71.4158 242.132 71.7251L240.493 74.8069C240.334 75.1055 240.095 75.375 239.787 75.5942C239.479 75.8134 238.963 75.9356 238.26 75.945C237.65 75.9351 237.076 75.7803 236.521 75.4855L233.666 73.858L232.76 73.3761C232.461 73.2174 232.19 73.0593 231.961 72.8969C231.733 72.7345 231.472 72.5821 231.174 72.4234L228.593 71.0513C227.719 70.5864 226.838 70.1592 225.962 69.7752C225.448 69.5841 224.924 69.3603 224.395 69.1201C223.866 68.88 223.377 68.5922 222.925 68.2837L218.178 65.4041C217.786 65.1133 217.376 64.8815 216.932 64.6867C216.489 64.492 216.084 64.2495 215.686 63.9694C215.441 63.839 215.244 63.7206 215.079 63.5923C214.915 63.4639 214.708 63.3398 214.462 63.2094L213.375 62.6311C212.861 62.44 212.498 62.2742 212.284 62.1608C212.071 62.0474 211.617 61.847 210.927 61.5488L209.072 60.5622C208.805 60.4205 208.502 60.2454 208.188 60.0377C207.875 59.8299 207.443 59.5868 206.9 59.2977L199.009 55.1021C197.985 54.5579 197.085 54.0653 196.313 53.6137C195.54 53.1622 194.451 53.1025 193.037 53.4453C192.516 53.5511 192.084 53.7726 191.757 54.1048C191.43 54.437 191.178 54.7549 191.02 55.0535L188.451 60.0894C188.128 60.6973 187.821 61.0948 187.53 61.282C187.239 61.4692 186.89 61.5848 186.485 61.6016C185.846 61.6451 184.946 61.3578 183.805 60.7511L181.896 59.7363C181.107 59.3167 180.463 58.9332 179.948 58.5908L178.543 57.7344C178.425 57.672 178.186 57.531 177.84 57.3062C177.495 57.0814 177.117 56.8396 176.702 56.5915C176.293 56.3328 175.921 56.0803 175.592 55.8236C175.264 55.5668 175.043 55.3398 174.924 55.1261C174.721 54.7861 174.622 54.2271 174.647 53.4605C174.671 52.6939 174.953 51.8041 175.497 50.7804C175.82 50.1726 176.137 49.6024 176.458 49.0756C176.78 48.5487 177.128 47.9956 177.516 47.4218C178.027 46.6134 178.48 45.7873 178.885 44.9492C179.284 44.1217 179.715 43.2843 180.169 42.4312C180.974 40.9169 181.8 39.441 182.641 37.9871C183.494 36.5389 184.309 35.0573 185.114 33.5431L190.426 23.3459L190.438 23.3246Z" fill="var(--fill-0, #0D0D0D)"/>
</g>
</svg>
