<svg preserveAspectRatio="none" width="100%" height="100%" overflow="visible" style="display: block;" viewBox="0 0 103.622 130.445" fill="none" xmlns="http://www.w3.org/2000/svg">
<g id="Group 188">
<path id="Material" d="M0 130.445V0H69.0811C73.1158 1.3788 76.8552 3.10231 80.2995 5.17051C83.8421 7.23872 86.8435 9.50389 89.3036 11.966C91.9606 14.4282 94.3223 17.1858 96.3889 20.2388C98.4554 23.2919 100.866 27.7238 103.622 33.5344V130.445H0ZM3.69023 126.604H99.7839V33.3867C98.0126 31.8109 96.2905 30.4814 94.6176 29.398C93.0431 28.2162 90.7305 27.1329 87.6799 26.148C85.2198 25.4586 82.4644 24.9662 79.4138 24.6707C76.4616 24.3753 73.9522 24.1783 71.8857 24.0798L68.7859 23.9321L69.0811 20.8298C69.4748 17.3828 69.6224 14.2805 69.524 11.5228C69.524 8.66676 69.3272 6.05689 68.9335 3.69323H3.69023V126.604ZM16.3846 32.2049C15.5974 32.2049 14.9085 31.9094 14.3181 31.3185C13.7277 30.7276 13.4324 30.0874 13.4324 29.398C13.4324 28.6102 13.7277 27.9208 14.3181 27.3298C14.9085 26.7389 15.5974 26.4435 16.3846 26.4435H46.6445C47.4318 26.4435 48.0714 26.7389 48.5635 27.3298C49.1539 27.9208 49.4491 28.6102 49.4491 29.398C49.4491 30.0874 49.1539 30.7276 48.5635 31.3185C48.0714 31.9094 47.4318 32.2049 46.6445 32.2049H16.3846ZM16.3846 48.1596C15.5974 48.1596 14.9085 47.8641 14.3181 47.2732C13.7277 46.6823 13.4324 45.9929 13.4324 45.205C13.4324 44.4171 13.7277 43.777 14.3181 43.2845C14.9085 42.6936 15.5974 42.3982 16.3846 42.3982H87.2371C88.0243 42.3982 88.7132 42.6936 89.3036 43.2845C89.8941 43.777 90.1893 44.4171 90.1893 45.205C90.1893 45.9929 89.8941 46.6823 89.3036 47.2732C88.7132 47.8641 88.0243 48.1596 87.2371 48.1596H16.3846ZM16.3846 63.9666C15.5974 63.9666 14.9085 63.6711 14.3181 63.0802C13.7277 62.4893 13.4324 61.7999 13.4324 61.012C13.4324 60.2241 13.7277 59.584 14.3181 59.0915C14.9085 58.5006 15.5974 58.2052 16.3846 58.2052H87.2371C88.0243 58.2052 88.7132 58.5006 89.3036 59.0915C89.8941 59.584 90.1893 60.2241 90.1893 61.012C90.1893 61.7999 89.8941 62.4893 89.3036 63.0802C88.7132 63.6711 88.0243 63.9666 87.2371 63.9666H16.3846ZM16.3846 79.7736C15.5974 79.7736 14.9085 79.4781 14.3181 78.8872C13.7277 78.2963 13.4324 77.6069 13.4324 76.819C13.4324 76.0311 13.7277 75.3909 14.3181 74.8985C14.9085 74.3076 15.5974 74.0121 16.3846 74.0121H87.2371C88.0243 74.0121 88.7132 74.3076 89.3036 74.8985C89.8941 75.3909 90.1893 76.0311 90.1893 76.819C90.1893 77.6069 89.8941 78.2963 89.3036 78.8872C88.7132 79.4781 88.0243 79.7736 87.2371 79.7736H16.3846ZM16.3846 95.5805C15.5974 95.5805 14.9085 95.3343 14.3181 94.8419C13.7277 94.251 13.4324 93.5616 13.4324 92.7737C13.4324 91.9858 13.7277 91.2964 14.3181 90.7055C14.9085 90.1146 15.5974 89.8191 16.3846 89.8191H87.2371C88.0243 89.8191 88.7132 90.1146 89.3036 90.7055C89.8941 91.2964 90.1893 91.9858 90.1893 92.7737C90.1893 93.5616 89.8941 94.251 89.3036 94.8419C88.7132 95.3343 88.0243 95.5805 87.2371 95.5805H16.3846Z" fill="var(--fill-0, #0D0D0D)"/>
</g>
</svg>
