<svg preserveAspectRatio="none" width="100%" height="100%" overflow="visible" style="display: block;" viewBox="0 0 121.27 120.693" fill="none" xmlns="http://www.w3.org/2000/svg">
<g id="youtube">
<path id="Vector" d="M114.943 32.2854C114.343 29.8987 113.121 27.712 111.399 25.946C109.678 24.18 107.519 22.8974 105.141 22.2276C96.4495 20.1155 61.6853 20.1155 61.6853 20.1155C61.6853 20.1155 26.9211 20.1155 18.23 22.4288C15.8513 23.0985 13.6924 24.3812 11.9712 26.1472C10.25 27.9131 9.02757 30.0999 8.42734 32.4865C6.83675 41.2647 6.0587 50.1696 6.10299 59.0893C6.04629 68.0761 6.82438 77.0489 8.42734 85.8931C9.08907 88.2057 10.3389 90.3092 12.0561 92.0006C13.7732 93.692 15.8997 94.914 18.23 95.5486C26.9211 97.8619 61.6853 97.8619 61.6853 97.8619C61.6853 97.8619 96.4495 97.8619 105.141 95.5486C107.519 94.8788 109.678 93.5962 111.399 91.8302C113.121 90.0642 114.343 87.8775 114.943 85.4908C116.522 76.7788 117.3 67.9417 117.268 59.0893C117.324 50.1024 116.546 41.1296 114.943 32.2854Z" stroke="var(--stroke-0, white)" stroke-width="6" stroke-linecap="round" stroke-linejoin="round"/>
<path id="Vector_2" d="M49.2661 75.5336L78.3205 59.0892L49.2661 42.6447V75.5336Z" stroke="var(--stroke-0, white)" stroke-width="6" stroke-linecap="round" stroke-linejoin="round"/>
</g>
</svg>
