<?xml version="1.0" encoding="UTF-8"?>
<svg id="Layer_1" xmlns="http://www.w3.org/2000/svg" version="1.1" viewBox="0 0 1200 1355.76">
  <!-- Generator: Adobe Illustrator 29.8.2, SVG Export Plug-In . SVG Version: 2.1.1 Build 3)  -->
  <defs>
    <style>
      .st0 {
        fill: #f2f2f2;
      }

      .st1 {
        fill: #0d0d0d;
      }
    </style>
  </defs>
  <g>
    <path class="st1" d="M749.76,1329.85l-315.05-510.76c-12.72-22.22-35.67-69.4-40.15-93.72-.06-.31.07-.67,0-.96-.33-.29-.73-.58-.96-.96-11.36-18.55-19.34-33.04-24-54.69-2.68-1.74-1.74-.88-1.92,1.43-5.79,74.86-29.36,162.83-73.14,224.36-2.94,4.13-12.32,13.92-13.72,16.99-2.25,4.9,2.16,28.31,3.64,34.7,6.69,28.83,22.21,55.5,37.7,80.34,25.48,40.85,55.15,78.88,82.96,118.1h-.96c-57.93-63.16-116.09-126.13-173.77-189.54l-2.89-.03c-17.85,9.23-36.88,16.26-54.71,25.5-1.06.55-2.36,2.09-3.84,2.88-49.93,26.51-96.6,59.36-135.36,100.75l-15.36,16.31c.02,76.43-.01,152.9,0,229.32h731.52Z"/>
    <path class="st1" d="M870.72,989.23c3.54,3.29,5.81,5.48,9.6,8.64,55.51,46.19,123.34,74.07,182.4,115.14,1.13.79,2.49,1.92,3.84,2.88,31.29,22.27,58.81,47.41,80.46,79.34,17.45,25.73,31.11,53.91,42.42,82.82-.03,17.26.02,34.56,0,51.82h-431.04c-6.63-15.03-14.34-29.57-21.29-44.45-2.73-5.85-4.89-12.07-7.51-17.92l20.71-67.1c37.92-26.62,67.15-62.83,63.81-111.89-1.27-18.67-10.18-45.39-22.12-59.93l17.2-37.98c2.12-31.13,3.25-62.44,5.85-93.46l11.06,30.67c11.08,26.61,23.89,42.21,44.61,61.44Z"/>
    <path class="st1" d="M818.88,413.54c.16,5.91,2.16,14.38,2.86,20.65.35,3.09,1.43,8.31.02,11.01-18.1-27.31-42.25-32.43-72.96-24.95-1.33.32-2.24.79-2.88.96-.3.08-.66-.08-.96,0-5.43,1.51-11.29,3.22-16.32,5.76-4.9-.17-10.91.74-15.36,2.88l-9.6-25.91c.05-.01.15-.63.97-.51,3.54.54,10.62,4.01,15.15,5.03,32.67,7.29,65.82,4.64,99.08,5.08Z"/>
    <path class="st1" d="M615.36,416.42c-9.13-4.88-18.87-8.53-28.8-11.51-26.96-8.11-54.02-10.5-81.78-4.5-7.09,1.53-13.71,4.43-20.89,5.4-.43-4.75-4.18-8.58-3.9-13.37l129.1-2.93,2.26,1.66,4,25.26Z"/>
  </g>
  <g>
    <path class="st0" d="M818.88,413.54c-33.26-.44-66.41,2.21-99.08-5.08-4.54-1.01-11.61-4.49-15.15-5.03-.82-.12-.92.5-.97.51-8.61,1.72-25.8,19.03-30.53,26.57-22.42,35.72,10.14,62.82,36.51,82.12l43.76,145.35c.49,9.58-8.23,19.95-17.66,21.25-19.97,2.76-46.42-14.52-60.39-27.75-6.49-6.15-15.02-19.88-25-20.19-9.77-.3-20.09,11.82-23.48,20.19,12.17-3.33,21.73-7.51,34.59-4.34,22.91,5.63,34.3,35.09,41.48,54.98,22.51,6.35,45.07-1.1,63.45-14.33,2.15-1.55,14.71-13.23,15.98-12.31,15.41,25.5,19.79,51.41,16.2,80.93-3.22,26.42-24.82,95.25-46.03,111.36-15.75,11.96-39.01,5.83-57.05,5.37-18.84-.48-36.78,7.69-55.65,7.74-33.75.08-74.74-26.41-103.86-43.09-52.57-30.1-104.48-63.47-141.43-112.43-.06-.31.07-.67,0-.96-.12-.46-.51-.81-.96-.96-11.36-18.55-19.34-33.04-24-54.69-.63-2.93-2.26-16.67-2.89-17.28-.22-.21-.95-1.9-.95-1.9-29.86-7.03-64.55-28.47-53.28-64.3.45-1.43,1.23-4.61,2.39-5.34,1.25-.78,15.04,3.24,18.69,3.46,20.92,1.28,33.41-9.65,39.17-29.05s.08-34.42-2.05-53.14c-8.28-72.95-14.54-153.5-1.74-226.02,8.83-50.06,21.87-80.07,63.72-109.99,55.32-39.55,93.59-29.76,151.67-4.18,7.31,3.22,28.78,15.52,34.61,16.28,2.71.36,15.98-3.58,20.25-4.3,63.23-10.6,131.82-6.2,168.58,53.51,24.75,40.2,23.85,87.29,18.68,132.69-1.83,16.11-7.98,39.18-7.56,54.33ZM615.36,416.42l-4-25.26-2.26-1.66-129.1,2.93c-.28,4.8,3.47,8.63,3.9,13.37,7.18-.97,13.8-3.87,20.89-5.4,27.76-6,54.82-3.61,81.78,4.5l15.85,35.48c-29.47-21.18-74.27-20.48-100.33,5.77,9.53-2.8,18.72-6.87,28.8-7.67,3.97,32.99,43.92,40.31,45.13.97,6.83,1.87,13.72,3.57,20.39,6,7.84,2.86,15.19,6.94,22.8,10.31l-3.83-39.33ZM616.32,610.25c-41.21,15.62-85.77-5.46-114.23-35.51.3,2.18,2.49,4.47,3.85,6.21,12.28,15.7,26.68,30.77,42.11,43.35-7.19,39.35-14.03,79.09-12.36,119.31,1.62-.27,1.72-1.87,2.18-3.09,10.68-27.99,17.21-52.46,33.89-78.39,12.43-19.32,29.83-34.46,44.56-51.88ZM576,758.95c12.31-2.26,24.19-8.33,36.07-11.43,16.2-4.23,35.99-4.79,52.72-3.9,11.71.63,25.6,4.73,36.47,4.86,6.28.08,13.77-2.88,20.31-3.77,11.94-1.64,24.07-1.01,35.9,1.27,5.61,1.08,10.82,3.34,16.26,4.84l-7.67-32.15-2.14,13.68c-6.51,25.26-29.38,1.49-41.49.65-11.03-.77-16.5,9.7-19.24,9.68-.94,0-12.66-8.34-16.15-9.8-11.51-4.82-16.07-3.58-27.74-.51-13.02,3.42-38.19,14.26-50.99,11.28-4.06-.94.5-19.66-.15-23.06-7.36,7.87-12.69,18.39-19.71,26.35-3.89,4.41-8.77,7.48-12.45,12.01ZM754.55,758.96c-38.99,25.55-80.04,14.25-119.33-3.06-.77-.34-2-1.68-2.59-.29l14.23,25.15c1.28,5.77-3.97,11.82-3.17,17.55,24.34-5.66,53.23-18.74,78.44-16.06,12.54,1.33,25.77,6.95,38.18,9.32-3.18-3.8-10.81-5.53-11.5-11.11-.52-4.19,7.12-19.76,5.73-21.5Z"/>
    <path class="st0" d="M729.6,1267.49c-13.82-30.81-42.83-91.03-38.32-124.17,2.41-17.71,22.67-11.15,33.5-5.82,18.13,8.92,17.4,23.09,2.9,35.49,2.53.42,6.93-2.37,9.52-3.92,20.53-12.27,30.1-29.78,16.8-52.14-20.88-35.1-64.72-28.51-96.16-12.69l-2.7-.75-234.66-324.38c53.7,51.22,113.21,107.54,181.74,138.34,58.53,26.31,136.55,29.59,187.84-13.6-2.36,19.35-7.32,38.44-10.99,57.63-11.1,11.94-27.41,19.04-42.52,24.65-26.99,10.01-55.53,15.61-83.77,20.87,7.12,1.92,14.43.99,21.65,1.4,33.47,1.89,67.05,3.96,100.7,5.85,2.87.66,14.63,11.63,16.86,14.34,11.94,14.54,20.85,41.26,22.12,59.93,3.34,49.05-25.9,85.26-63.81,111.89l-20.71,67.1Z"/>
    <path class="st0" d="M821.76,445.2c10.03,15.13,10.66,35.62,6.25,52.79-6.92,26.96-37.14,51.34-59.32,66.4-3.05,2.07-22.35,14.63-24.08,14.13-16.56-29.96-28.81-65.16-35.66-98.77-.84-4.14-4.2-19.53-3.2-22.4.86-2.45,9.69-4.73,12.32-5.44.35,13.15,13.89,22.63,26.43,21.13,10.91-1.31,15.84-16.58,16.82-25.88,10.98-1.07,21.68,2.12,32.38,3.54,1.04.14,3.31,1.06,3.09-.69-24.96-10.04-48.94-14.34-75.07-5.49-6.67,2.26-12.36,6.2-18.99,8.35-1.13-9.31,1.67-18.76,10.56-23.02,4.45-2.13,10.46-3.05,15.36-2.88,14.18.5,28.97,7.09,42.24,11.5-7.05-7.72-17.87-10.77-25.92-17.26.3-.08.66.08.96,0l2.88-.96c30.71-7.48,54.86-2.36,72.96,24.95Z"/>
    <path class="st0" d="M701.76,73.88c6.1,2.99,14.4,7.17,20.16,10.55,17.29,10.17,40.37,27.65,54.72,41.26.93.88,1.96,1.95,2.88,2.88.71.72,4.63,5.07,3.84,5.75-35.36.27-72.11,6.96-105.38,18.93-37.68,13.57-45.19,27.72-86.64,6.52-43.28-22.14-62.21-38.36-115.19-26.9-121.65,26.32-164.64,155.91-156.51,267.75.9,12.4,3.7,8.3,9.1,15.85,3.16,4.42,8.18,14.48,8.22,23.45v18.71c-1.06.15-1.56-.41-2.14-1.26-3.14-4.54-10.56-16.46-15.87-17.76-8.98-2.19-11.67,16.33,2.66,14.22-1.71,10.3-12.42,28.18-23.61,29.65-12.32,1.62-24.75-9.49-29.7-20.03-.59-1.26-4.22-13.27-5.24-12.5-5.72,16.34-9.32,37.94-1.94,54.22,4.13,9.12,7.33,7.13,13.46,12.45,8.23,7.14,13,22.47,13.42,33.11-4.99-4.82-16.32-26.59-23.42-14.31-4.35,7.52,2.79,9.2,8.54,10.49.93.21,2-.58,1.42,1.38-2.29,7.69-12.15,23.13-19.46,26.61-14.77,7.03-35.74-9.82-36.2-25.14-3.56,3-2.58,9.69-2.87,13.93-.1,1.43.73,2.77-1.43,2.37l-103.21-87.31c-3.83-3.08-5.89-4.95-7.68-6.72-7.01-6.9-5.52-39.21-3.37-48.94,3.93-17.76,18.92-36.49,36.45-42.24,14.06-4.61,15.13.16,23.53,10.14,25.35,30.1,39.37,73.65,44.06,112.36.98,8.1.6,16.32,2.05,24.34,10.73-15.07,22.02-30.02,43.18-24.95.68-.67-3.27-5.95-4.01-7.02-26.75-38.56-55.89-75.54-82.59-114.14-4.24-29.6,4.6-70.59,38.49-77.33l55.81,122.7c2.51.47,1.48-.4,1.99-1.36,7.79-14.76,18.07-18.55,34.47-19.75l-15.85-4.77c-33.5-10.97-50.55-47.66-63.03-78.05-11.18-27.22-12.55-41.1,5.15-66.2,15.96-22.64,29.19-23.28,52.01-34.38,23.32-11.34,30.26-30.6,45.74-49.76,1.07-1.32,2.17-2.99,2.88-3.84,7-8.44,15.34-17.09,23.04-24.95.32-.32.64-.64.96-.96,95.48-96.75,231.49-130.64,357.12-69.08Z"/>
    <path class="st0" d="M860.16,565.14c-1.86,1.52-4.4,3.78-6.73,4.31,6.04-20.69,12.51-41.37,10.55-63.3-.68-7.66-4.21-15.55-5.46-23.32-4.65-28.75,5.72-54.74,21.82-77.91l34.04,22.08c4.63,5.22,13.79,11.94,15.85,18.71.84,2.78-6.35-.37-8.16-.49-8.39-.57-14.54.53-22.24,3.65-2.09.85-11.52,5.58-12.35,6.9-1.47,2.34,6.37,20.59,6.29,24.93l4.94-11.83c13.78-17.92,45-3.09,52.67,14.21,6.33,14.26,3.7,44.19-10.1,53.28-5.41,3.56-6.67.36-11.52,0-14.62-1.12-25.17,3.96-37.93,9.6-5.84,2.58-9.77,4.47-15.36,7.68-4.73,2.72-7.2,4.52-11.52,7.68-.21.15-3.98,3.17-4.8,3.84Z"/>
  </g>
</svg>