<svg xmlns="http://www.w3.org/2000/svg" viewBox="0 0 19 24">
  <style>:root { color: #F2F2F2; }</style>
  <path fill="currentColor" d="M3.41925 0.0377319C3.74627 0.0377319 4.09813 0.0252103 4.47483 0.00434085C4.85152 -0.0207025 5.15371 0.0627752 5.38966 0.2506C5.64631 0.438425 5.78291 0.688858 5.79533 0.997725C5.80775 1.30659 5.79947 1.5779 5.77878 1.81581L5.74152 2.27493C5.69598 2.93858 5.68771 3.56466 5.72496 4.15736C5.75808 4.75005 5.77878 5.20917 5.77878 5.54308C5.77878 5.99386 5.76636 6.38204 5.74152 6.71595C5.71668 7.04568 5.75394 7.34203 5.84915 7.60498C5.94436 7.8429 6.1058 7.95976 6.34175 7.95976C6.52803 7.95976 6.70603 7.90133 6.87161 7.78446C7.03719 7.66759 7.1531 7.55907 7.22347 7.46307L8.17556 6.18586C8.29147 6.04395 8.41151 5.90204 8.52742 5.76013C8.64333 5.61821 8.76337 5.4763 8.87928 5.33439C9.09039 5.07561 9.27667 4.79179 9.44225 4.48292C9.60783 4.17405 9.79411 3.89023 10.0052 3.63145L10.8166 2.56711C11.0981 2.21233 11.2926 1.9452 11.3961 1.76989C11.4996 1.59459 11.6362 1.37337 11.8018 1.11459L12.1205 0.655467C12.1661 0.559467 12.2571 0.467642 12.3855 0.371643C12.5138 0.275643 12.6131 0.204687 12.6835 0.158775C12.8242 0.0878185 12.965 0.0544275 13.1057 0.0544275H14.0909C14.2772 0.0544275 14.4676 0.0669491 14.6539 0.0878185C14.8402 0.112862 15.0306 0.12121 15.2169 0.12121H16.3967C16.525 0.12121 16.6492 0.108688 16.7651 0.0878185C16.881 0.0627752 17.001 0.0544275 17.1169 0.0544275H17.4688C17.8206 0.0544275 18.0773 0.112862 18.2429 0.229731C18.3836 0.32573 18.454 0.47599 18.454 0.693032C18.454 0.951813 18.4126 1.15633 18.3298 1.29824C18.247 1.44016 18.1725 1.5445 18.1021 1.61546C17.9862 1.73233 17.9034 1.85337 17.8538 1.97024C17.8082 2.08711 17.6882 2.24154 17.5019 2.43354C17.386 2.55041 17.2784 2.65058 17.1832 2.73406C17.088 2.81754 17.0052 2.91771 16.9348 3.03458L15.8792 4.59561C15.784 4.73753 15.6557 4.92118 15.4901 5.14657C15.3245 5.37196 15.1631 5.589 14.9975 5.80187C14.8319 6.01473 14.6788 6.20256 14.5421 6.36951C14.4014 6.53647 14.2938 6.65334 14.2234 6.72429C14.1779 6.77021 14.1365 6.82029 14.0992 6.86621C14.0661 6.91212 13.9999 6.9956 13.9047 7.11664L13.3044 8.0015C13.0685 8.35628 12.8118 8.71106 12.5303 9.06584C12.2489 9.42062 12.0502 9.72949 11.9301 9.98827C11.8846 10.0592 11.8349 10.2011 11.7894 10.414C11.7438 10.6269 11.719 10.7813 11.719 10.8773C11.719 11.1361 11.7356 11.3406 11.7728 11.4825C11.8101 11.6244 11.8473 11.7413 11.897 11.8373C11.9425 11.9542 11.9798 12.046 12.0005 12.1044C12.0253 12.1629 12.0833 12.2881 12.1785 12.4759C12.3648 12.8307 12.5552 13.1896 12.7415 13.5569C12.9277 13.9242 13.1182 14.2832 13.3044 14.638C13.4203 14.8508 13.5321 15.0595 13.6397 15.2599C13.7432 15.4602 13.855 15.6689 13.975 15.8818C14.0206 15.9987 14.0744 16.1114 14.1323 16.2199C14.1903 16.3242 14.2565 16.4369 14.3269 16.558C14.3724 16.6039 14.4014 16.654 14.4138 16.6999C14.4262 16.7458 14.4552 16.7959 14.5008 16.8418C14.596 17.0087 14.6581 17.1381 14.6953 17.2341C14.7284 17.3301 14.7698 17.4345 14.8195 17.5513C15.0306 18.0731 15.1589 18.3986 15.2086 18.528C15.2541 18.6574 15.3038 18.7576 15.3494 18.8286L16.3718 20.4981C16.4422 20.615 16.5415 20.7945 16.6699 21.0282C16.7982 21.2661 16.9265 21.5207 17.059 21.792C17.1873 22.0633 17.3115 22.3304 17.4274 22.5892C17.5433 22.848 17.6137 23.0525 17.6385 23.1944C17.6385 23.2404 17.6426 23.2904 17.6551 23.3364C17.6675 23.3823 17.6592 23.4324 17.6385 23.4783C17.593 23.6202 17.5226 23.7245 17.4274 23.7955C17.3115 23.9123 17.179 23.9708 17.0383 23.9708H14.5049C14.2482 23.9708 14.0744 23.9666 13.9957 23.9541C13.9129 23.9416 13.8301 23.929 13.7474 23.9207C13.6646 23.9082 13.5487 23.904 13.3955 23.904H12.1826C12.017 23.904 11.8556 23.8581 11.69 23.7621C11.5037 23.6452 11.3506 23.4449 11.2305 23.1569C11.1602 22.9899 11.0939 22.8063 11.036 22.6059C10.978 22.4056 10.8911 22.1969 10.771 21.984L10.3116 20.9906C10.0756 20.4689 9.88518 20.0515 9.73202 19.7301C9.57886 19.4087 9.45053 19.1499 9.34291 18.9496C9.23528 18.7493 9.15663 18.6032 9.09453 18.5072C9.03658 18.4112 8.98277 18.3319 8.93723 18.2609C8.84202 18.144 8.76337 18.0355 8.693 17.9395C8.62263 17.8435 8.56467 17.7392 8.515 17.6223C8.46947 17.5054 8.44049 17.4428 8.42807 17.4428C8.41565 17.4428 8.38668 17.4178 8.34114 17.3719C8.27077 17.3009 8.21695 17.2007 8.18384 17.0714C8.15072 16.942 8.03896 16.7124 7.84854 16.3785L7.52979 15.7733C7.43458 15.5855 7.33524 15.4561 7.23175 15.3851C7.12412 15.3141 7.04961 15.2682 7.00407 15.2432C6.95854 15.2181 6.92956 15.2056 6.91714 15.2056C6.90473 15.2056 6.87575 15.1931 6.83021 15.1722C6.78468 15.1263 6.73501 15.1013 6.68947 15.1013H6.54873C6.47836 15.1013 6.39142 15.1138 6.2838 15.1347C6.18031 15.1597 6.06854 15.2641 5.9485 15.4561C5.83259 15.6439 5.76636 15.8067 5.75394 15.9361C5.74152 16.0654 5.73738 16.1573 5.73738 16.2032L5.70426 17.2675C5.70426 17.4804 5.69185 17.6473 5.67115 17.7642C5.64631 17.8811 5.62561 18.0063 5.60078 18.1357C5.57594 18.2651 5.56766 18.3903 5.56766 18.5072C5.56766 18.624 5.5718 18.7242 5.58422 18.8077C5.59664 18.8912 5.60078 18.9913 5.60078 19.1082C5.62561 19.367 5.62975 19.6299 5.61733 19.8887C5.60492 20.1475 5.61319 20.4105 5.63389 20.6692L5.70426 22.3722C5.7291 22.5851 5.67943 22.8313 5.56352 23.1193C5.44761 23.4031 5.2572 23.641 5.00054 23.8289C4.95501 23.8539 4.88464 23.8831 4.78943 23.9165C4.69422 23.9499 4.57831 23.9583 4.43757 23.9332L3.27436 23.9666L2.60376 24H2.37609C2.34297 24 2.30158 23.9958 2.2519 23.9833C2.20637 23.9708 2.14013 23.9583 2.05734 23.9499C1.97455 23.9374 1.82967 23.9332 1.61855 23.9332H1.44469C1.25842 23.9332 1.0473 23.9374 0.811347 23.9499C0.575394 23.9624 0.376697 23.8623 0.211116 23.6494C0.0703719 23.4616 0 23.2696 0 23.0817V22.8522C0 22.7687 0.0124186 22.6936 0.0331162 22.6226C0.0579533 22.4348 0.0662324 22.2637 0.0662324 22.1092V21.5958L0.0331162 17.1966C0.0331162 16.1573 0.0579533 15.214 0.103488 14.375C0.149023 13.5361 0.186279 12.8432 0.206976 12.3006V11.1987C0.182139 10.3222 0.161441 9.66688 0.136604 9.22863C0.111767 8.79037 0.103488 8.37298 0.103488 7.96811V5.65995C0.103488 5.47213 0.115907 5.33022 0.136604 5.23422C0.161441 5.13822 0.16972 5.04639 0.16972 4.95039C0.16972 4.80848 0.165581 4.70831 0.153162 4.64987C0.140744 4.59144 0.136604 4.53718 0.136604 4.49127C0.136604 4.44535 0.132465 4.37857 0.120046 4.29509C0.107628 4.21162 0.103488 4.07805 0.103488 3.88605V1.35251C0.103488 1.18555 0.120046 1.01442 0.157302 0.839118C0.190418 0.659641 0.281488 0.501033 0.422231 0.359121C0.587812 0.192166 0.749254 0.104514 0.914835 0.0919924C1.08042 0.0794708 1.25428 0.0752969 1.44469 0.0752969L3.41511 0.0419058L3.41925 0.0377319Z"/>
</svg>
