<svg preserveAspectRatio="none" width="100%" height="100%" overflow="visible" style="display: block;" viewBox="0 0 354.416 200.588" fill="none" xmlns="http://www.w3.org/2000/svg">
<g id="Vector">
<path d="M14.1361 86.1883C15.6609 85.7831 17.2877 85.2974 19.0037 84.7169C20.7219 84.1446 22.2428 84.1498 23.5686 84.7407C25.0097 85.301 25.948 86.2886 26.3832 87.7035C26.8185 89.1184 27.137 90.3952 27.326 91.5196L27.7399 93.7055C28.3495 96.8449 29.1122 99.7656 30.0173 102.462C30.9246 105.166 31.5858 107.286 32.0008 108.822C32.5661 110.914 32.9974 112.74 33.3052 114.304C33.6131 115.869 34.1421 117.205 34.9124 118.291C35.6454 119.271 36.5622 119.623 37.6502 119.334C38.5239 119.102 39.2659 118.611 39.8844 117.859C40.4946 117.11 40.9123 116.465 41.1231 115.937L43.9371 108.827C44.3039 108.027 44.6684 107.218 45.0435 106.415C45.4103 105.615 45.7748 104.806 46.1498 104.003C46.8032 102.53 47.3224 100.986 47.7009 99.3464C48.0734 97.7169 48.5987 96.1624 49.252 94.6896L51.6818 88.7403C52.546 86.7399 53.1102 85.2641 53.3826 84.3107C53.6551 83.3573 54.0079 82.1779 54.4386 80.7643L55.3353 78.2301C55.4307 77.7332 55.7239 77.1836 56.2067 76.5837C56.6895 75.9838 57.0636 75.5373 57.3328 75.2255C57.8942 74.7204 58.5087 74.3791 59.1599 74.2061L63.7426 72.9883C64.6163 72.7561 65.5057 72.582 66.4086 72.4578C67.3114 72.3336 68.2009 72.1595 69.0745 71.9273L74.5558 70.4708C75.1575 70.3109 75.7127 70.1099 76.2253 69.8492C76.7401 69.5967 77.2685 69.394 77.8207 69.2472L79.4609 68.8114C81.1012 68.3755 82.3704 68.3319 83.285 68.6761C84.055 68.9431 84.5776 69.5696 84.8445 70.5576C85.172 71.7697 85.2337 72.75 85.0258 73.5171C84.8156 74.276 84.604 74.8661 84.364 75.2858C83.9681 75.9784 83.7287 76.6293 83.6647 77.2425C83.5902 77.8496 83.2392 78.7082 82.6032 79.8204C82.2073 80.5129 81.8406 81.1176 81.5069 81.6156C81.1755 82.1219 80.922 82.6876 80.7403 83.3232L77.7884 91.885C77.5288 92.657 77.1582 93.6721 76.6825 94.9197C76.1986 96.1695 75.7057 97.3861 75.2144 98.5756C74.7148 99.7673 74.2437 100.836 73.8012 101.781C73.3586 102.726 73.0121 103.405 72.7722 103.825C72.6102 104.108 72.4789 104.375 72.3724 104.634C72.2681 104.902 72.0746 105.363 71.7858 106.027L70.1125 110.886C69.4709 112.827 68.7116 114.791 67.8475 116.791C66.9833 118.792 66.446 120.465 66.2191 121.815C66.0862 122.207 66.0491 122.92 66.1018 123.965C66.1462 125.012 66.2319 125.754 66.3508 126.194C66.6783 127.406 67.012 128.314 67.3563 128.935C67.6984 129.547 68.0382 130.053 68.3714 130.436C68.7338 130.927 69.0108 131.298 69.2002 131.541C69.3814 131.787 69.8104 132.296 70.4828 133.052C71.8029 134.472 73.1297 135.917 74.4633 137.386C75.7968 138.856 77.1236 140.301 78.4437 141.721C79.2547 142.565 80.0342 143.39 80.78 144.188C81.528 144.995 82.297 145.814 83.1162 146.655C83.4785 147.146 83.8671 147.604 84.2737 148.029C84.6803 148.455 85.1183 148.9 85.5961 149.36C85.871 149.527 86.0694 149.706 86.1854 149.906C86.3037 150.115 86.4939 150.296 86.7748 150.453C87.4202 151.109 87.8807 151.636 88.1622 152.024C88.4459 152.42 88.7701 152.868 89.1407 153.357C90.7743 155.512 91.7843 156.863 92.1623 157.412C92.5404 157.962 92.8886 158.367 93.1926 158.642L100.033 165.127C100.511 165.587 101.197 166.295 102.095 167.231C102.992 168.167 103.915 169.195 104.849 170.299C105.792 171.401 106.695 172.487 107.566 173.554C108.438 174.622 109.019 175.464 109.305 176.1C109.366 176.324 109.449 176.534 109.565 176.734C109.683 176.943 109.709 177.167 109.66 177.412C109.615 178.127 109.428 178.71 109.081 179.159C108.685 179.851 108.157 180.285 107.506 180.458L95.7191 183.59C94.5157 183.91 93.7177 184.095 93.3229 184.138C92.9198 184.183 92.5272 184.234 92.1323 184.276C91.7292 184.321 91.1785 184.441 90.4697 184.629L84.8236 186.13C84.0571 186.333 83.2404 186.319 82.355 186.083C81.3332 185.767 80.3709 185.017 79.4703 183.841C78.9342 183.165 78.4064 182.389 77.8809 181.523C77.3577 180.665 76.6854 179.812 75.8744 178.968L72.5006 174.917C70.7599 172.79 69.3261 171.08 68.2157 169.782C67.1053 168.485 66.1783 167.441 65.4386 166.632C64.6928 165.833 64.1274 165.245 63.7365 164.877C63.3457 164.509 62.9952 164.193 62.6912 163.918C62.1063 163.486 61.5925 163.089 61.1439 162.736C60.6953 162.384 60.291 161.966 59.9264 161.467C59.5558 160.978 59.3499 160.739 59.2922 160.755C59.2345 160.77 59.0735 160.697 58.7904 160.532C58.3709 160.288 58.0063 159.886 57.6777 159.324C57.3491 158.762 56.5404 157.828 55.2517 156.525L53.0204 154.119C52.3458 153.355 51.7204 152.871 51.1384 152.679C50.5541 152.478 50.1414 152.357 49.8979 152.306C49.6462 152.257 49.4986 152.234 49.4409 152.249C49.3832 152.264 49.2379 152.25 48.984 152.193C48.7031 152.036 48.4574 151.977 48.2431 152.034L47.5919 152.207C47.2622 152.294 46.874 152.46 46.4087 152.699C45.9433 152.938 45.5586 153.574 45.2524 154.599C44.9462 155.624 44.8408 156.444 44.9551 157.063C45.0612 157.684 45.1486 158.106 45.207 158.322L46.3791 163.314C46.646 164.302 46.7969 165.089 46.8378 165.666C46.8787 166.242 46.9203 166.854 46.9747 167.48C47.0313 168.115 47.1284 168.703 47.2764 169.251C47.4245 169.799 47.5771 170.266 47.738 170.632C47.8929 171.009 48.0514 171.466 48.1995 172.014C48.6342 173.197 48.9841 174.395 49.2622 175.62C49.532 176.847 49.8902 178.043 50.3249 179.226L52.7924 187.051C53.1665 188.01 53.264 189.221 53.0766 190.686C52.8893 192.151 52.3117 193.479 51.3461 194.679C51.1527 194.846 50.8694 195.072 50.4774 195.355C50.0854 195.637 49.5482 195.806 48.8596 195.873L43.5057 197.474L40.4432 198.466L39.3799 198.748C39.215 198.792 39.0187 198.818 38.7805 198.819C38.5422 198.82 38.2321 198.849 37.8372 198.891C37.4341 198.936 36.7515 199.091 35.7707 199.352L34.9547 199.568C34.081 199.801 33.1068 200.086 32.0345 200.433C30.96 200.772 29.903 200.555 28.8695 199.771C27.9806 199.064 27.4131 198.271 27.1753 197.391L26.886 196.32C26.7828 195.938 26.744 195.566 26.7614 195.205C26.6308 194.297 26.4731 193.484 26.2802 192.77L25.6342 190.379L19.9466 169.982C18.641 165.15 17.5683 160.754 16.7343 156.785C15.8943 152.826 15.191 149.569 14.6222 147.006L13.2404 141.891C12.0341 137.852 11.0954 134.835 10.4387 132.83C9.78194 130.824 9.19709 128.888 8.69237 127.02L5.79639 116.302C5.55861 115.422 5.4391 114.75 5.42736 114.282C5.41562 113.813 5.35443 113.358 5.23554 112.918C5.05833 112.262 4.90573 111.795 4.77401 111.537C4.64229 111.278 4.55027 111.036 4.49194 110.82C4.43362 110.604 4.3259 110.303 4.16501 109.937C4.00413 109.57 3.80892 108.946 3.57114 108.066L0.408219 96.359C0.201844 95.5952 0.0666768 94.7679 0.00944791 93.9022C-0.047781 93.0364 0.154211 92.1819 0.636391 91.3507C1.18832 90.3854 1.8427 89.7666 2.59354 89.5048C3.33839 89.2534 4.15365 89.0012 5.02735 88.769L14.148 86.1673L14.1361 86.1883Z" fill="var(--fill-0, #0D0D0D)"/>
<path d="M132.807 54.6194C133.895 54.3302 134.718 54.1383 135.286 54.0496C135.846 53.9632 136.668 53.7712 137.765 53.4799C138.416 53.3068 139.094 53.1001 139.787 52.8536C140.482 52.6154 141.158 52.4004 141.809 52.2273C142.683 51.9951 144.031 51.788 145.853 51.5976C147.675 51.4072 149.134 51.6424 150.252 52.2798C150.944 52.6833 151.703 53.3358 152.538 54.2353C153.365 55.1369 154.062 55.984 154.63 56.7765C155.197 57.5691 155.736 58.4849 156.247 59.524C156.757 60.5631 157.502 61.7803 158.463 63.1802L161.318 67.8946C162.28 69.2945 163.109 70.6315 163.809 71.9139C164.511 73.2046 165.373 74.8891 166.402 76.965C166.837 78.1489 167.262 79.0682 167.677 79.7232C168.084 80.3803 168.871 81.5595 170.036 83.2525C170.995 84.6441 171.741 85.7717 172.267 86.6377C172.792 87.5037 173.211 88.3003 173.535 89.0418C173.851 89.7855 174.119 90.4528 174.338 91.0353C174.552 91.6283 174.82 92.2956 175.142 93.0288C177.119 97.336 178.816 100.774 180.208 103.341C181.602 105.916 182.691 107.985 183.465 109.542L189.085 120.597C189.537 121.42 190.022 122.234 190.532 123.042C191.042 123.85 191.527 124.664 191.979 125.488C192.37 126.087 192.665 126.72 192.843 127.376C193.02 128.032 193.306 128.668 193.706 129.265L200.556 142.289C201.098 143.444 201.749 144.74 202.485 146.191C203.23 147.639 203.532 149.214 203.403 150.895C203.311 151.863 203.077 152.601 202.686 153.114C202.297 153.636 201.916 154.058 201.537 154.39C200.86 154.925 200.064 155.315 199.133 155.562C198.201 155.81 196.715 156.258 194.677 156.925L191.614 157.916L187.847 158.918C186.973 159.15 186.125 159.348 185.285 159.509C184.453 159.668 183.796 159.754 183.338 159.76C182.406 159.776 181.719 159.718 181.282 159.603C180.836 159.49 180.4 159.25 179.951 158.897C178.947 158.221 178.333 157.681 178.107 157.27C177.881 156.858 177.568 156.354 177.166 155.749L171.907 147.962C171.311 147.061 170.77 146.466 170.288 146.185C169.797 145.906 169.383 145.749 169.025 145.729C168.773 145.68 168.322 145.711 167.647 145.828C166.98 145.943 166.275 146.05 165.535 146.122C164.797 146.202 164.09 146.301 163.423 146.416C162.756 146.531 162.362 146.609 162.255 146.637L158.001 147.768C156.913 148.057 155.716 148.402 154.421 148.808C153.126 149.214 151.838 149.646 150.557 150.102C149.275 150.558 148.06 151.032 146.901 151.518C145.743 152.004 144.813 152.456 144.116 152.882C143.224 153.474 142.451 154.178 141.791 155.003C141.139 155.826 140.685 156.863 140.437 158.104C140.131 159.129 140.008 160.309 140.077 161.644C140.146 162.978 140.203 164.823 140.251 167.16C140.234 167.52 140.235 168.081 140.263 168.839C140.291 169.596 140.094 170.272 139.666 170.848C139.504 171.132 139.244 171.343 138.88 171.502C138.508 171.663 138.218 171.767 138.004 171.824C137.46 171.969 136.876 172.097 136.267 172.197C135.649 172.298 135.074 172.425 134.53 172.569C132.394 172.905 130.35 173.449 128.388 174.201C126.427 174.954 124.383 175.497 122.247 175.833C120.907 176.073 119.839 176.241 119.05 176.327C118.254 176.422 117.353 176.128 116.356 175.449C115.908 175.097 115.438 174.634 114.929 174.058C114.422 173.489 114.093 172.927 113.945 172.379C113.887 172.163 113.783 171.452 113.636 170.254C113.489 169.056 113.437 168.34 113.492 168.085C113.509 167.725 113.511 167.404 113.495 167.115C113.47 166.827 113.472 166.507 113.497 166.144C113.474 165.207 113.352 164.296 113.114 163.416C112.876 162.535 112.745 161.627 112.73 160.688L112.476 156.51C112.338 153.841 112.172 151.821 111.98 150.457C111.788 149.093 111.637 147.78 111.532 146.509C111.168 143.428 111.042 141.13 111.166 139.629C111.291 138.127 111.357 136.543 111.379 134.891C111.309 134.207 111.275 133.655 111.285 133.234C111.289 132.824 111.246 132.337 111.153 131.765C111.055 131.204 110.984 130.484 110.926 129.618C110.869 128.752 110.798 127.508 110.702 125.878C110.661 125.301 110.575 124.23 110.448 122.679C110.318 121.121 110.292 120.042 110.358 119.437C110.226 115.939 110.144 112.695 110.095 109.7C110.046 106.705 110.001 103.629 109.966 100.461C109.924 97.2947 109.82 93.8693 109.651 90.2031C109.474 86.5391 109.208 82.2846 108.834 77.4358C108.517 74.1027 108.383 71.3172 108.411 69.0671C108.45 66.823 109.178 64.6804 110.626 62.6492C111.477 61.4799 112.225 60.7828 112.869 60.5494C113.506 60.3265 114.206 60.1049 114.973 59.9012C115.517 59.7566 115.947 59.6156 116.261 59.4699C116.578 59.3324 116.966 59.167 117.445 58.9774C117.924 58.7879 118.504 58.5803 119.197 58.3338C119.892 58.0956 120.947 57.7798 122.365 57.4031L132.842 54.6189L132.807 54.6194ZM143.999 90.8743C143.57 90.1696 143.026 89.3351 142.364 88.3896C141.694 87.4463 141.075 86.7566 140.49 86.3246C139.798 85.9212 139.015 85.8356 138.141 86.0677C137.267 86.2999 136.428 87.3149 135.634 89.1189C134.832 90.925 134.691 94.2911 135.209 99.2172C135.279 99.9017 135.338 100.447 135.385 100.852C135.433 101.258 135.476 101.745 135.517 102.321C135.558 102.898 135.636 103.642 135.766 104.551C135.897 105.46 135.986 106.673 136.051 108.187C136.286 110.367 136.392 112.163 136.367 113.576C136.336 114.999 136.451 116.143 136.689 117.023L136.956 118.011C137.046 118.344 137.102 118.649 137.118 118.938C137.134 119.228 137.19 119.533 137.28 119.865C137.428 120.413 137.681 121.023 138.039 121.693C138.397 122.363 138.743 122.894 139.083 123.267C139.445 123.758 140.268 124.189 141.534 124.555C142.799 124.922 144.636 124.79 147.035 124.152L148.832 123.675C149.591 123.473 150.383 123.236 151.184 122.961C151.984 122.686 152.755 122.401 153.491 122.081C154.22 121.772 154.777 121.446 155.153 121.105C156.53 120.152 157.189 119.123 157.128 118.017C157.06 116.914 156.917 115.929 156.677 115.04C156.321 113.72 155.967 112.639 155.622 111.788C155.277 110.936 154.939 110.145 154.624 109.401C154.31 108.665 153.943 107.962 153.528 107.307C153.112 106.652 152.683 105.912 152.23 105.089C150.926 102.845 150.11 101.265 149.807 100.339C149.498 99.4248 148.962 98.4194 148.206 97.321L143.998 90.8389L143.999 90.8743Z" fill="var(--fill-0, #0D0D0D)"/>
<path d="M250.904 106.91C249.508 105.635 248.255 104.463 247.147 103.405C246.04 102.347 244.396 100.808 242.218 98.7966C240.344 97.0607 238.961 95.8351 238.072 95.1279C237.183 94.4208 236.314 93.5926 235.474 92.6411L233.749 90.8032C231.618 88.5395 230.253 87.0511 229.643 86.332C229.034 85.6129 228.53 85.1236 228.113 84.8874C227.832 84.7307 227.443 84.567 226.932 84.4091C226.421 84.2512 225.946 84.2261 225.509 84.3422C224.636 84.5744 224.181 85.0511 224.136 85.7663C224.091 86.4814 224.045 86.9653 223.998 87.218C224.01 87.6865 224.063 88.4379 224.165 89.4698C224.267 90.5018 224.628 91.9366 225.24 93.7764L226.206 96.697C226.818 98.5368 227.248 99.8999 227.483 100.772L228.865 105.887C229.162 106.983 229.396 108.078 229.569 109.144C229.744 110.219 229.976 111.305 230.272 112.401C230.481 113.174 230.73 113.9 231.038 114.583C231.339 115.269 231.598 116.001 231.805 116.765L236.5 132.836C236.648 133.384 236.814 133.9 237.007 134.383C237.191 134.868 237.415 135.37 237.678 135.887C238.052 136.847 238.328 137.539 238.504 137.964C238.673 138.39 238.809 138.764 238.899 139.096C239.255 140.416 239.297 141.553 239.033 142.504C238.769 143.456 238.383 144.119 237.899 144.488C237.066 145.296 235.674 145.898 233.74 146.296C231.798 146.696 230.34 147.021 229.359 147.282L217.249 150.5C216.375 150.732 215.769 150.778 215.444 150.624C215.114 150.48 214.806 150.322 214.534 150.163C213.5 149.378 212.869 148.549 212.629 147.66C212.29 145.98 212.137 145.086 212.163 144.954C212.192 144.831 212.127 144.492 211.979 143.944L210.908 139.983L204.212 114.547C203.649 112.463 203.042 110.444 202.399 108.488C201.757 106.54 201.15 104.521 200.585 102.428L200.006 100.286C199.678 99.0737 199.371 97.8382 199.085 96.5524C198.802 95.2749 198.542 94.0179 198.33 92.7749C198.182 92.2269 198.043 91.6142 197.923 90.9428C197.795 90.2737 197.665 89.6588 197.516 89.1107C197.101 87.5746 196.613 85.9956 196.059 84.3717C195.506 82.7477 194.962 81.1924 194.437 79.6764C193.591 77.4271 192.853 75.1223 192.214 72.7558L188.137 57.6681C187.841 56.572 187.494 55.5162 187.104 54.4984C186.714 53.4806 186.309 52.4401 185.906 51.3725C185.593 50.6371 185.326 49.8802 185.118 49.1079L184.494 46.7995C184.108 45.3713 183.932 44.2966 183.978 43.5814C184.015 42.8685 184.119 42.3693 184.272 42.0881C184.668 41.3955 185.156 40.91 185.72 40.6443C186.293 40.3765 186.846 40.1672 187.39 40.0226L188.371 39.7619C190.877 39.096 193.407 38.486 195.942 37.928C198.478 37.37 201.086 36.6236 203.754 35.6743L206.697 34.8923C207.455 34.6907 208.217 34.6662 208.958 34.8253C209.699 34.9844 210.523 35.4153 211.409 36.1141C212.299 36.8212 213.513 37.8512 215.056 39.2123L232.156 54.4615C233.074 55.2766 233.896 56.0284 234.607 56.7295C235.317 57.4306 236.041 58.1461 236.773 58.8949C237.506 59.6436 238.31 60.4623 239.192 61.3403C240.077 62.2267 241.203 63.2536 242.57 64.4211C244.414 66.0491 246.101 67.5499 247.642 68.9027C248.62 69.942 249.478 70.8266 250.202 71.5775C250.935 72.3263 251.601 73.0926 252.226 73.8698C252.843 74.6492 253.541 75.4963 254.318 76.4111C255.095 77.326 255.983 78.3539 256.991 79.5012C257.468 79.9616 258.226 80.7391 259.285 81.8107C260.335 82.8845 261.132 83.3491 261.676 83.2045C261.783 83.176 261.934 83.0824 262.125 82.907C262.311 82.7421 262.37 82.308 262.308 81.6213C262.296 81.1528 262.211 80.7039 262.034 80.2792C261.857 79.8544 261.666 79.3444 261.445 78.7536C261.224 78.1628 260.959 77.3788 260.634 76.406C260.309 75.4332 259.944 74.1776 259.526 72.6331C259.259 71.645 259.048 70.6686 258.913 69.7079C258.768 68.7495 258.566 67.7709 258.297 66.7745C257.821 65.0141 257.301 63.4168 256.735 61.9743C256.168 60.5317 255.78 59.1931 255.562 57.9606L255.148 55.7745C254.988 54.7578 254.701 53.5971 254.295 52.2899C253.88 50.985 253.474 49.6779 253.06 48.3729C252.645 47.068 252.261 45.8439 251.892 44.705C251.522 43.5662 251.269 42.7258 251.118 42.1694L250.717 40.6831C250.331 39.2548 249.977 37.845 249.664 36.4595C249.352 35.0741 248.997 33.6642 248.611 32.236C248.373 31.3558 248.133 30.5652 247.883 29.8664C247.632 29.1677 247.45 28.3618 247.319 27.4531C247.081 26.5729 247.118 25.86 247.436 25.3038C247.832 24.6112 248.144 24.2613 248.382 24.2603C248.612 24.2614 248.949 24.1987 249.386 24.0826L254.83 22.8139L256.388 22.3998C256.661 22.3275 256.876 22.2435 257.017 22.1437C257.169 22.0501 257.349 21.9665 257.564 21.9096L258.71 21.6051C259.497 21.5115 260.179 21.4193 260.739 21.3328C261.299 21.2464 261.907 21.1114 262.559 20.9383L265.337 20.2001C266.318 19.9394 267.399 19.6253 268.587 19.2474C269.775 18.8694 270.975 18.9954 272.194 19.6149C272.721 19.831 273.217 20.2599 273.682 20.9017C274.147 21.5436 274.56 22.5194 274.917 23.8396C275.155 24.7198 275.346 25.5235 275.481 26.253C275.616 26.9824 275.928 28.4658 276.414 30.6864L277.631 35.8452L280.839 47.7194C281.077 48.5996 281.348 49.7023 281.647 51.0379C281.946 52.3735 282.471 54.4144 283.214 57.1629C283.672 59.2839 284.052 60.9185 284.364 62.0727C284.676 63.2269 284.981 64.5874 285.289 66.152C285.983 69.1449 286.491 71.2528 286.818 72.4651L288.712 79.4734C289.114 80.9597 289.715 83.4163 290.53 86.8576L293.943 100.796C294.508 102.888 295.022 104.692 295.495 106.213C295.968 107.733 296.454 109.108 296.96 110.327C297.466 111.545 297.952 112.689 298.413 113.741C298.874 114.793 299.284 115.983 299.64 117.304L301.275 122.699C301.513 123.579 301.71 124.408 301.861 125.195C302.012 125.983 301.835 126.733 301.331 127.454C300.664 128.45 299.566 129.16 298.041 129.566C297.167 129.798 296.145 130.007 294.97 130.203C293.795 130.4 292.823 130.596 292.065 130.798L285.841 132.451C285.297 132.596 284.171 132.779 282.478 132.989C280.786 133.198 279.318 132.77 278.087 131.682L269.257 124.31C266.659 122.054 264.541 119.938 262.894 117.964C261.248 115.989 259.143 113.923 256.575 111.776L250.882 106.925L250.904 106.91Z" fill="var(--fill-0, #0D0D0D)"/>
<path d="M337.96 0.419193C339.484 0.0141898 340.68 -0.0992498 341.551 0.0871773C342.414 0.275793 343.11 0.464515 343.636 0.680422C344.602 1.25076 345.287 1.92262 345.673 2.70038C346.06 3.47813 346.357 4.25288 346.566 5.02463L348.57 12.4434C348.717 12.9911 348.821 13.4706 348.866 13.8677C348.914 14.273 349.015 14.7443 349.162 15.292C349.232 15.976 349.347 16.6303 349.509 17.2278L350.331 20.2733C350.598 21.2608 350.564 22.2127 350.229 23.1289C350.151 23.2653 349.989 23.5484 349.755 23.9574C349.515 24.3769 349.181 24.6436 348.745 24.7596L342.161 26.3319C341.51 26.5049 340.602 26.8352 339.453 27.3186C338.295 27.8042 337.287 28.8104 336.409 30.3333C336.17 30.7528 335.852 31.8333 335.452 33.5852C335.053 35.3454 335.352 38.0855 336.361 41.8197L337.697 46.7656C338.497 49.7281 339.064 51.7297 339.404 52.76C339.744 53.7903 339.962 54.4974 340.065 54.8791C340.168 55.2608 340.239 55.6242 340.271 55.9715C340.303 56.3187 340.438 57.3413 340.66 59.0434C341.014 61.662 341.396 63.4995 341.798 64.5664C342.201 65.6334 342.647 67.0537 343.12 68.8046L346.702 82.0654C346.923 82.8869 347.289 84.4707 347.805 86.8061C348.043 87.6857 348.211 88.4059 348.301 88.9689C348.392 89.532 348.524 90.1194 348.685 90.7169C348.847 91.3144 349.06 92.0049 349.323 92.753C349.59 93.5094 349.881 94.4904 350.206 95.6936L353.37 105.446C353.981 107.284 354.328 108.668 354.399 109.583C354.472 110.507 354.31 111.315 353.915 112.007C353.279 113.119 352.525 113.79 351.652 114.022L344.589 116.434C343.201 116.918 341.916 117.26 340.743 117.456C339.569 117.653 338.705 117.82 338.161 117.964L332.602 119.442C332.058 119.587 331.479 119.598 330.851 119.463C330.233 119.334 329.52 118.847 328.701 118.007C328.027 117.243 327.562 116.37 327.293 115.375L326.034 110.061L325.588 108.41C325.44 107.862 325.33 107.358 325.269 106.903C325.2 106.45 325.101 105.951 324.951 105.395L323.682 100.699C323.252 99.1052 322.772 97.5604 322.249 96.0454C321.904 95.1942 321.577 94.3116 321.266 93.3892C320.958 92.4751 320.746 91.5619 320.613 90.6455L318.705 81.6183C318.606 80.8264 318.422 80.048 318.164 79.2894C317.9 78.5413 317.725 77.7608 317.623 76.9606C317.504 76.5208 317.426 76.1325 317.394 75.7852C317.354 75.4402 317.284 75.0497 317.165 74.6099L316.631 72.6348C316.287 71.7837 316.059 71.1683 315.956 70.7866C315.853 70.4049 315.58 69.6236 315.145 68.4405L314.233 65.063C314.099 64.5651 313.975 64.0109 313.87 63.3898C313.764 62.7686 313.573 61.9654 313.306 60.9779L309.435 46.6467C308.931 44.7795 308.512 43.1299 308.182 41.6789C307.846 40.2385 306.682 38.84 304.684 37.4858C303.963 36.9747 303.218 36.7013 302.45 36.6655C301.683 36.638 301.026 36.6882 300.482 36.8327L291.534 39.3893C290.438 39.6804 289.62 39.7556 289.05 39.6048C288.481 39.4623 287.966 39.1547 287.488 38.6946C286.707 37.9594 286.034 36.5463 285.472 34.4634L284.537 31.003C284.151 29.5756 283.882 28.3488 283.722 27.3328L283.174 24.6501C283.116 24.4344 283.022 23.988 282.9 23.3088C282.781 22.6379 282.637 21.9111 282.487 21.124C282.338 20.3453 282.217 19.6036 282.155 18.9174C282.085 18.2333 282.116 17.6917 282.248 17.3006C282.43 16.6654 282.99 15.9294 283.927 15.0844C284.866 14.2478 286.267 13.582 288.12 13.0895C289.207 12.8005 290.251 12.5496 291.247 12.3471C292.243 12.1447 293.303 11.9518 294.419 11.7707C295.972 11.4736 297.48 11.1084 298.938 10.6584C300.399 10.2168 301.889 9.78514 303.413 9.38013C306.139 8.65551 308.847 7.99772 311.553 7.39411C314.251 6.79268 316.968 6.13272 319.694 5.40809L337.965 0.373326L337.96 0.419193Z" fill="var(--fill-0, #0D0D0D)"/>
</g>
</svg>
