<svg preserveAspectRatio="none" width="100%" height="100%" overflow="visible" style="display: block;" viewBox="0 0 75.3483 24" fill="none" xmlns="http://www.w3.org/2000/svg">
<g id="Logo">
<path id="Vector" d="M3.41925 0.0377319C3.74627 0.0377319 4.09813 0.0252103 4.47483 0.00434085C4.85152 -0.0207025 5.15371 0.0627752 5.38966 0.2506C5.64631 0.438425 5.78291 0.688858 5.79533 0.997725C5.80775 1.30659 5.79947 1.5779 5.77878 1.81581L5.74152 2.27493C5.69598 2.93858 5.68771 3.56466 5.72496 4.15736C5.75808 4.75005 5.77878 5.20917 5.77878 5.54308C5.77878 5.99386 5.76636 6.38204 5.74152 6.71595C5.71668 7.04568 5.75394 7.34203 5.84915 7.60498C5.94436 7.8429 6.1058 7.95976 6.34175 7.95976C6.52803 7.95976 6.70603 7.90133 6.87161 7.78446C7.03719 7.66759 7.1531 7.55907 7.22347 7.46307L8.17556 6.18586C8.29147 6.04395 8.41151 5.90204 8.52742 5.76013C8.64333 5.61821 8.76337 5.4763 8.87928 5.33439C9.09039 5.07561 9.27667 4.79179 9.44225 4.48292C9.60783 4.17405 9.79411 3.89023 10.0052 3.63145L10.8166 2.56711C11.0981 2.21233 11.2926 1.9452 11.3961 1.76989C11.4996 1.59459 11.6362 1.37337 11.8018 1.11459L12.1205 0.655467C12.1661 0.559467 12.2571 0.467642 12.3855 0.371643C12.5138 0.275643 12.6131 0.204687 12.6835 0.158775C12.8242 0.0878185 12.965 0.0544275 13.1057 0.0544275H14.0909C14.2772 0.0544275 14.4676 0.0669491 14.6539 0.0878185C14.8402 0.112862 15.0306 0.12121 15.2169 0.12121H16.3967C16.525 0.12121 16.6492 0.108688 16.7651 0.0878185C16.881 0.0627752 17.001 0.0544275 17.1169 0.0544275H17.4688C17.8206 0.0544275 18.0773 0.112862 18.2429 0.229731C18.3836 0.32573 18.454 0.47599 18.454 0.693032C18.454 0.951813 18.4126 1.15633 18.3298 1.29824C18.247 1.44016 18.1725 1.5445 18.1021 1.61546C17.9862 1.73233 17.9034 1.85337 17.8538 1.97024C17.8082 2.08711 17.6882 2.24154 17.5019 2.43354C17.386 2.55041 17.2784 2.65058 17.1832 2.73406C17.088 2.81754 17.0052 2.91771 16.9348 3.03458L15.8792 4.59561C15.784 4.73753 15.6557 4.92118 15.4901 5.14657C15.3245 5.37196 15.1631 5.589 14.9975 5.80187C14.8319 6.01473 14.6788 6.20256 14.5421 6.36951C14.4014 6.53647 14.2938 6.65334 14.2234 6.72429C14.1779 6.77021 14.1365 6.82029 14.0992 6.86621C14.0661 6.91212 13.9999 6.9956 13.9047 7.11664L13.3044 8.0015C13.0685 8.35628 12.8118 8.71106 12.5303 9.06584C12.2489 9.42062 12.0502 9.72949 11.9301 9.98827C11.8846 10.0592 11.8349 10.2011 11.7894 10.414C11.7438 10.6269 11.719 10.7813 11.719 10.8773C11.719 11.1361 11.7356 11.3406 11.7728 11.4825C11.8101 11.6244 11.8473 11.7413 11.897 11.8373C11.9425 11.9542 11.9798 12.046 12.0005 12.1044C12.0253 12.1629 12.0833 12.2881 12.1785 12.4759C12.3648 12.8307 12.5552 13.1896 12.7415 13.5569C12.9277 13.9242 13.1182 14.2832 13.3044 14.638C13.4203 14.8508 13.5321 15.0595 13.6397 15.2599C13.7432 15.4602 13.855 15.6689 13.975 15.8818C14.0206 15.9987 14.0744 16.1114 14.1323 16.2199C14.1903 16.3242 14.2565 16.4369 14.3269 16.558C14.3724 16.6039 14.4014 16.654 14.4138 16.6999C14.4262 16.7458 14.4552 16.7959 14.5008 16.8418C14.596 17.0087 14.6581 17.1381 14.6953 17.2341C14.7284 17.3301 14.7698 17.4345 14.8195 17.5513C15.0306 18.0731 15.1589 18.3986 15.2086 18.528C15.2541 18.6574 15.3038 18.7576 15.3494 18.8286L16.3718 20.4981C16.4422 20.615 16.5415 20.7945 16.6699 21.0282C16.7982 21.2661 16.9265 21.5207 17.059 21.792C17.1873 22.0633 17.3115 22.3304 17.4274 22.5892C17.5433 22.848 17.6137 23.0525 17.6385 23.1944C17.6385 23.2404 17.6426 23.2904 17.6551 23.3364C17.6675 23.3823 17.6592 23.4324 17.6385 23.4783C17.593 23.6202 17.5226 23.7245 17.4274 23.7955C17.3115 23.9123 17.179 23.9708 17.0383 23.9708H14.5049C14.2482 23.9708 14.0744 23.9666 13.9957 23.9541C13.9129 23.9416 13.8301 23.929 13.7474 23.9207C13.6646 23.9082 13.5487 23.904 13.3955 23.904H12.1826C12.017 23.904 11.8556 23.8581 11.69 23.7621C11.5037 23.6452 11.3506 23.4449 11.2305 23.1569C11.1602 22.9899 11.0939 22.8063 11.036 22.6059C10.978 22.4056 10.8911 22.1969 10.771 21.984L10.3116 20.9906C10.0756 20.4689 9.88518 20.0515 9.73202 19.7301C9.57886 19.4087 9.45053 19.1499 9.34291 18.9496C9.23528 18.7493 9.15663 18.6032 9.09453 18.5072C9.03658 18.4112 8.98277 18.3319 8.93723 18.2609C8.84202 18.144 8.76337 18.0355 8.693 17.9395C8.62263 17.8435 8.56467 17.7392 8.515 17.6223C8.46947 17.5054 8.44049 17.4428 8.42807 17.4428C8.41565 17.4428 8.38668 17.4178 8.34114 17.3719C8.27077 17.3009 8.21695 17.2007 8.18384 17.0714C8.15072 16.942 8.03896 16.7124 7.84854 16.3785L7.52979 15.7733C7.43458 15.5855 7.33524 15.4561 7.23175 15.3851C7.12412 15.3141 7.04961 15.2682 7.00407 15.2432C6.95854 15.2181 6.92956 15.2056 6.91714 15.2056C6.90473 15.2056 6.87575 15.1931 6.83021 15.1722C6.78468 15.1263 6.73501 15.1013 6.68947 15.1013H6.54873C6.47836 15.1013 6.39142 15.1138 6.2838 15.1347C6.18031 15.1597 6.06854 15.2641 5.9485 15.4561C5.83259 15.6439 5.76636 15.8067 5.75394 15.9361C5.74152 16.0654 5.73738 16.1573 5.73738 16.2032L5.70426 17.2675C5.70426 17.4804 5.69185 17.6473 5.67115 17.7642C5.64631 17.8811 5.62561 18.0063 5.60078 18.1357C5.57594 18.2651 5.56766 18.3903 5.56766 18.5072C5.56766 18.624 5.5718 18.7242 5.58422 18.8077C5.59664 18.8912 5.60078 18.9913 5.60078 19.1082C5.62561 19.367 5.62975 19.6299 5.61733 19.8887C5.60492 20.1475 5.61319 20.4105 5.63389 20.6692L5.70426 22.3722C5.7291 22.5851 5.67943 22.8313 5.56352 23.1193C5.44761 23.4031 5.2572 23.641 5.00054 23.8289C4.95501 23.8539 4.88464 23.8831 4.78943 23.9165C4.69422 23.9499 4.57831 23.9583 4.43757 23.9332L3.27436 23.9666L2.60376 24H2.37609C2.34297 24 2.30158 23.9958 2.2519 23.9833C2.20637 23.9708 2.14013 23.9583 2.05734 23.9499C1.97455 23.9374 1.82967 23.9332 1.61855 23.9332H1.44469C1.25842 23.9332 1.0473 23.9374 0.811347 23.9499C0.575394 23.9624 0.376697 23.8623 0.211116 23.6494C0.0703719 23.4616 0 23.2696 0 23.0817V22.8522C0 22.7687 0.0124186 22.6936 0.0331162 22.6226C0.0579533 22.4348 0.0662324 22.2637 0.0662324 22.1092V21.5958L0.0331162 17.1966C0.0331162 16.1573 0.0579533 15.214 0.103488 14.375C0.149023 13.5361 0.186279 12.8432 0.206976 12.3006V11.1987C0.182139 10.3222 0.161441 9.66688 0.136604 9.22863C0.111767 8.79037 0.103488 8.37298 0.103488 7.96811V5.65995C0.103488 5.47213 0.115907 5.33022 0.136604 5.23422C0.161441 5.13822 0.16972 5.04639 0.16972 4.95039C0.16972 4.80848 0.165581 4.70831 0.153162 4.64987C0.140744 4.59144 0.136604 4.53718 0.136604 4.49127C0.136604 4.44535 0.132465 4.37857 0.120046 4.29509C0.107628 4.21162 0.103488 4.07805 0.103488 3.88605V1.35251C0.103488 1.18555 0.120046 1.01442 0.157302 0.839118C0.190418 0.659641 0.281488 0.501033 0.422231 0.359121C0.587812 0.192166 0.749254 0.104514 0.914835 0.0919924C1.08042 0.0794708 1.25428 0.0752969 1.44469 0.0752969L3.41511 0.0419058L3.41925 0.0377319Z" fill="var(--fill-0, #0D0D0D)"/>
<path id="Vector_2" d="M29.2085 0.0752642C29.4445 0.0752642 29.6183 0.079438 29.7384 0.0919597C29.8543 0.104481 30.0323 0.108655 30.2682 0.108655C30.409 0.108655 30.5539 0.104481 30.707 0.0919597C30.8602 0.079438 31.0051 0.0752642 31.1458 0.0752642C31.3321 0.0752642 31.6136 0.104481 31.9903 0.162916C32.367 0.22135 32.6485 0.346567 32.8347 0.534391C32.9506 0.65126 33.0707 0.822389 33.1866 1.04778C33.3025 1.27317 33.3977 1.48186 33.4681 1.66969C33.5385 1.86169 33.5964 2.07038 33.6419 2.30829C33.6875 2.5462 33.7703 2.83003 33.8903 3.15976L34.2091 4.26167C34.325 4.59141 34.4202 4.90445 34.4905 5.20079C34.5609 5.49714 34.6437 5.88114 34.7389 6.35279C34.7638 6.61157 34.7969 6.82026 34.8424 6.97469C34.8879 7.12913 34.9831 7.40878 35.1239 7.80947C35.2398 8.13921 35.3309 8.40634 35.3888 8.60668C35.4468 8.80703 35.4882 8.99068 35.513 9.15764C35.5378 9.32459 35.5544 9.47068 35.5668 9.60007C35.5792 9.72946 35.5958 9.87972 35.6206 10.0425C35.7862 11.0108 35.9394 11.7955 36.0801 12.384C36.2209 12.9767 36.3244 13.4484 36.3989 13.8032L36.9246 16.3242C36.9701 16.5162 37.0239 16.704 37.0819 16.8918C37.1398 17.0838 37.1937 17.2717 37.2392 17.4595C37.2847 17.6014 37.3096 17.7433 37.3096 17.8852C37.3096 18.0271 37.3344 18.169 37.3799 18.311L38.0505 21.2911C38.0961 21.5499 38.1582 21.8462 38.2285 22.176C38.2989 22.5057 38.2741 22.8396 38.1582 23.1694C38.0878 23.3572 38.0009 23.4949 37.8932 23.5784C37.7856 23.6619 37.6863 23.7287 37.5952 23.7746C37.4296 23.8455 37.2475 23.8789 37.0488 23.8789C36.8501 23.8789 36.5272 23.8914 36.0801 23.9123L35.4095 23.9457H34.5982C34.4119 23.9457 34.2298 23.9415 34.0518 23.929C33.8738 23.9165 33.7413 23.8998 33.6461 23.8747C33.4598 23.8288 33.3232 23.7788 33.2404 23.7328C33.1576 23.6869 33.0831 23.616 33.0127 23.52C32.8472 23.3321 32.7561 23.1902 32.7312 23.0942C32.7064 22.9982 32.6733 22.8814 32.6278 22.7395L31.9944 20.8946C31.924 20.6817 31.8495 20.5356 31.7667 20.4522C31.6839 20.3687 31.6094 20.3144 31.5391 20.2936C31.4935 20.2685 31.3983 20.2518 31.2576 20.2393C31.1168 20.2268 30.972 20.2101 30.8188 20.185C30.6656 20.16 30.5207 20.1433 30.38 20.1308C30.2393 20.1183 30.1565 20.1141 30.1316 20.1141H29.2168C28.9808 20.1141 28.7242 20.1183 28.4427 20.1308C28.1612 20.1433 27.8797 20.16 27.5982 20.185C27.3168 20.2101 27.0477 20.2393 26.7869 20.2727C26.5302 20.3061 26.3191 20.3478 26.1535 20.3979C25.9424 20.4689 25.7479 20.569 25.574 20.6984C25.4002 20.8278 25.2511 21.0115 25.1352 21.2494C25.0193 21.4372 24.9282 21.6709 24.8703 21.9422C24.8123 22.2135 24.7254 22.585 24.6054 23.0608C24.5805 23.1318 24.5515 23.2445 24.5184 23.3989C24.4853 23.5534 24.4067 23.6786 24.2908 23.7704C24.2452 23.8163 24.179 23.8455 24.0962 23.8581C24.0134 23.8706 23.9513 23.8747 23.9016 23.8747C23.7857 23.8747 23.6616 23.8706 23.5332 23.8581C23.4049 23.8455 23.2807 23.8414 23.1648 23.8414C22.7177 23.7954 22.2789 23.7954 21.8443 23.8414C21.4096 23.8873 20.9709 23.8873 20.5238 23.8414C20.2423 23.8163 20.0188 23.7954 19.8532 23.7704C19.6876 23.7454 19.5262 23.641 19.3606 23.4532C19.2902 23.3572 19.2198 23.2403 19.1495 23.0984C19.0791 22.9565 19.046 22.8271 19.046 22.7061C19.046 22.6601 19.0625 22.5099 19.0998 22.2636C19.1371 22.0174 19.166 21.8671 19.1867 21.8212C19.2116 21.7502 19.2281 21.6835 19.2405 21.625C19.253 21.5666 19.2695 21.4998 19.2944 21.4289C19.3399 21.241 19.3647 21.049 19.3647 20.8612C19.3647 20.6734 19.3896 20.4814 19.4351 20.2936L19.6131 19.4421C19.729 18.8995 19.8077 18.4821 19.8408 18.1983C19.8739 17.9144 19.9153 17.6431 19.965 17.3802C20.0602 16.7416 20.1595 16.2741 20.263 15.9778C20.3706 15.6814 20.47 15.3684 20.561 15.0386C20.5859 14.8967 20.6066 14.784 20.6314 14.7006C20.6563 14.6171 20.6728 14.5169 20.6852 14.4C20.6977 14.2832 20.7184 14.1329 20.7556 13.9576C20.7929 13.7823 20.8425 13.5277 20.9129 13.1938C20.9377 13.0769 20.9791 12.8557 21.0371 12.5385C21.095 12.2213 21.1489 12 21.1944 11.8832C21.36 11.1736 21.5173 10.5183 21.6704 9.91311C21.8236 9.30789 21.9809 8.69016 22.1465 8.05156C22.3121 7.41295 22.4735 6.72009 22.6391 5.97714C22.8047 5.23001 22.9785 4.36184 23.1689 3.36846C23.2849 2.68394 23.409 2.11629 23.5374 1.66551C23.6657 1.21473 23.9306 0.826563 24.328 0.492653C24.564 0.304828 24.7502 0.204655 24.891 0.192133C25.0317 0.179611 25.1849 0.175437 25.3505 0.175437C25.4664 0.175437 25.5616 0.171263 25.632 0.158742C25.7023 0.14622 25.7893 0.133699 25.8969 0.125351C26.0004 0.112829 26.1328 0.100307 26.286 0.0919597C26.4392 0.079438 26.6668 0.0752642 26.9732 0.0752642H29.2251H29.2085ZM29.49 7.95138C29.4445 7.78443 29.3782 7.59243 29.2954 7.36704C29.2127 7.14165 29.1257 6.97052 29.0305 6.85365C28.9146 6.73678 28.7614 6.67835 28.5752 6.67835C28.3889 6.67835 28.1654 6.83696 27.9046 7.15834C27.6479 7.47973 27.4368 8.14756 27.2712 9.16181C27.2464 9.30372 27.2298 9.41642 27.2174 9.49989C27.205 9.58337 27.1884 9.68354 27.1636 9.80041C27.1388 9.91728 27.1181 10.0717 27.0932 10.2637C27.0684 10.4515 27.0228 10.702 26.9525 11.0108C26.8821 11.4616 26.8076 11.8289 26.7248 12.1127C26.642 12.3966 26.6006 12.6345 26.6006 12.8223V13.0352C26.6006 13.1061 26.5965 13.1729 26.5841 13.2313C26.5716 13.2898 26.5675 13.3566 26.5675 13.4275C26.5675 13.5486 26.5841 13.6821 26.6213 13.8366C26.6544 13.991 26.6958 14.1162 26.7455 14.208C26.791 14.3249 26.9318 14.4543 27.1677 14.5962C27.4037 14.7381 27.7762 14.8091 28.2937 14.8091H28.6828C28.8484 14.8091 29.0181 14.8049 29.192 14.7924C29.3658 14.7799 29.5397 14.7632 29.7011 14.7381C29.8667 14.7131 29.995 14.6797 30.0902 14.6338C30.4173 14.5169 30.6077 14.3458 30.6532 14.1204C30.6987 13.895 30.7236 13.6905 30.7236 13.4985C30.7236 13.2147 30.7112 12.9767 30.6905 12.7889C30.6656 12.6011 30.6449 12.4216 30.6201 12.2547C30.5953 12.0877 30.5621 11.9291 30.5125 11.7747C30.4669 11.6202 30.4173 11.4491 30.3717 11.2613C30.231 10.7395 30.1565 10.3806 30.144 10.1802C30.1316 9.97989 30.0778 9.75033 29.9867 9.48737L29.4941 7.95973L29.49 7.95138Z" fill="var(--fill-0, #0D0D0D)"/>
<path id="Vector_3" d="M50.2371 16.8961C50.026 16.5664 49.8397 16.2617 49.6741 15.9904C49.5085 15.7191 49.2643 15.3226 48.9331 14.8008C48.6516 14.35 48.4405 14.0328 48.2998 13.8408C48.159 13.653 48.0307 13.4401 47.9107 13.2022L47.6623 12.7389C47.356 12.1713 47.1655 11.7998 47.0828 11.6203C47 11.445 46.9255 11.3198 46.8551 11.2488C46.8095 11.2029 46.7392 11.1487 46.644 11.0902C46.5488 11.0318 46.4577 11.0026 46.3625 11.0026C46.1762 11.0026 46.0561 11.0735 46.0106 11.2154C45.9651 11.3574 45.9278 11.4534 45.903 11.4993C45.8781 11.5953 45.8492 11.7497 45.8161 11.9626C45.7829 12.1754 45.7747 12.4843 45.7995 12.885L45.8326 13.5236C45.8575 13.9243 45.8657 14.2206 45.8657 14.4085V15.5104C45.8657 15.7483 45.8533 15.9779 45.8326 16.2032C45.8078 16.4286 45.7995 16.6582 45.7995 16.8961C45.7995 17.0631 45.8119 17.2217 45.8326 17.3761C45.8575 17.5305 45.8657 17.6891 45.8657 17.8561L45.9361 21.3329C45.9361 21.4498 45.9402 21.5625 45.9527 21.671C45.9651 21.7754 45.9816 21.8881 46.0065 22.0091C46.0313 22.222 46.0479 22.3764 46.0603 22.4724C46.0727 22.5684 46.0768 22.6477 46.0768 22.7187C46.0768 23.0025 46.023 23.2321 45.9195 23.4115C45.8161 23.5868 45.7043 23.6995 45.5842 23.7496C45.3731 23.8665 45.0627 23.9166 44.6529 23.8915C44.243 23.8665 43.9326 23.8581 43.7215 23.8581H41.1177C40.9314 23.8581 40.8072 23.8331 40.7493 23.7872C40.6913 23.7413 40.6375 23.6912 40.592 23.6453C40.4264 23.4324 40.3436 23.2321 40.3436 23.0401C40.3684 22.6853 40.385 22.4975 40.3974 22.4724C40.4098 22.4474 40.414 22.3764 40.414 22.2595V21.4081L40.4471 15.9445C40.4471 15.4937 40.4347 15.0554 40.414 14.6297C40.3891 14.204 40.3767 13.7657 40.3767 13.3149V12.8558C40.3767 12.597 40.3809 12.3299 40.3933 12.0586C40.4057 11.7873 40.4223 11.5201 40.4471 11.2614C40.4471 11.1445 40.4512 11.0109 40.4637 10.869C40.4761 10.7271 40.4802 10.5977 40.4802 10.4767C40.4802 10.1469 40.4678 9.8005 40.4471 9.4499C40.4223 9.09512 40.4016 8.75286 40.3767 8.41895C40.3312 7.92225 40.3064 7.42139 40.3064 6.91217V3.66489C40.3064 3.42698 40.2939 3.19742 40.2732 2.97203C40.2484 2.74664 40.2277 2.51707 40.2029 2.27916C40.178 2.11221 40.1697 1.94943 40.1697 1.78247V1.28578C40.1697 0.976912 40.1946 0.751522 40.2401 0.60961C40.2857 0.467698 40.3353 0.371698 40.3809 0.325786C40.4968 0.208917 40.621 0.137961 40.7493 0.112918C40.8776 0.0878743 41.0018 0.0795265 41.1177 0.0795265H41.3288C41.867 0.0795265 42.4092 0.0920482 42.9474 0.112918C43.4855 0.137961 44.0485 0.125439 44.6363 0.0795265H45.2696C45.4352 0.0795265 45.5884 0.112918 45.7291 0.183874C45.8699 0.25483 46.0106 0.38422 46.1514 0.576219C46.2921 0.764044 46.4784 1.03535 46.7143 1.3943L49.3181 5.36784C49.4588 5.58071 49.583 5.77688 49.6865 5.95218C49.79 6.13166 49.8976 6.31531 50.0011 6.50313C50.1087 6.69096 50.2246 6.89965 50.353 7.12504C50.4813 7.35043 50.651 7.61756 50.8621 7.92225C51.1436 8.34799 51.4003 8.74034 51.6362 9.09512C51.777 9.3539 51.9012 9.57929 52.0046 9.77129C52.1081 9.95911 52.2033 10.1511 52.2861 10.3389C52.3689 10.5268 52.4641 10.7355 52.5676 10.9608C52.6711 11.1862 52.7953 11.4408 52.936 11.7247C53.0064 11.8415 53.1182 12.0377 53.2713 12.309C53.4245 12.5803 53.557 12.718 53.677 12.718C53.7019 12.718 53.735 12.7055 53.7805 12.6847C53.826 12.6596 53.8633 12.5803 53.8881 12.4384C53.913 12.3424 53.9171 12.2506 53.9047 12.1546C53.8923 12.0586 53.8799 11.9459 53.8716 11.8165C53.8592 11.6871 53.8467 11.516 53.8385 11.3031C53.826 11.0902 53.8219 10.8189 53.8219 10.485C53.8219 10.2722 53.8343 10.0676 53.855 9.86311C53.8798 9.66276 53.8881 9.45407 53.8881 9.2412C53.8881 8.86138 53.8716 8.51495 53.8343 8.19356C53.8012 7.87634 53.7929 7.58417 53.8178 7.32539L53.8509 6.86209C53.8757 6.64922 53.8798 6.39879 53.8674 6.11496C53.855 5.83114 53.8426 5.54731 53.8343 5.26349C53.8219 4.97967 53.8095 4.71254 53.8012 4.46628C53.7888 4.21585 53.7846 4.03637 53.7846 3.91533V3.59811C53.7846 3.28924 53.7888 2.98872 53.8012 2.69238C53.8136 2.39603 53.8178 2.09551 53.8178 1.78665C53.8178 1.59882 53.8136 1.42769 53.8012 1.27326C53.7888 1.11882 53.7971 0.947694 53.8178 0.75987C53.8178 0.572045 53.8633 0.430133 53.9585 0.334133C54.0744 0.217265 54.1572 0.163004 54.2027 0.175526C54.2483 0.188047 54.3186 0.192221 54.4139 0.192221L55.5771 0.225612H55.9124C55.9703 0.225612 56.0158 0.221439 56.0531 0.208917C56.0862 0.196395 56.1276 0.192221 56.1773 0.192221H56.4215C56.5871 0.217265 56.7278 0.23396 56.8437 0.246482C56.9597 0.259004 57.088 0.263177 57.2287 0.263177H57.829C58.0401 0.263177 58.276 0.259004 58.5327 0.246482C58.7893 0.23396 59.0253 0.325786 59.2364 0.51361C59.3316 0.584566 59.4061 0.697261 59.4641 0.851695C59.522 1.00613 59.551 1.22317 59.551 1.50699C59.551 1.69482 59.5469 1.87012 59.5344 2.02038C59.522 2.17482 59.5055 2.48786 59.4806 2.95951L59.4475 4.06141V6.61583C59.4475 6.80365 59.4434 7.04156 59.431 7.32539C59.4185 7.60921 59.4144 8.04747 59.4144 8.64016C59.3896 9.09094 59.3813 9.43737 59.3813 9.68781C59.3813 9.93824 59.3689 10.2262 59.3482 10.556C59.3233 11.1946 59.315 11.6454 59.315 11.9041V13.4109C59.315 13.7281 59.3026 14.2582 59.2819 14.9886L59.2116 17.9688C59.2116 18.4196 59.2157 18.8077 59.2281 19.1417C59.2405 19.4714 59.2612 19.7761 59.2985 20.0474C59.3357 20.3187 59.3689 20.5733 59.4061 20.8112C59.4392 21.0491 59.4599 21.3079 59.4599 21.5917L59.493 22.7646C59.493 22.9566 59.4889 23.1319 59.4765 23.2988C59.4641 23.4658 59.3896 23.6077 59.2488 23.7246C59.0625 23.8915 58.8017 23.9708 58.4747 23.9708C58.2843 23.9708 58.069 23.9583 57.8248 23.9374C57.5764 23.9124 57.3736 23.9041 57.208 23.9041H55.871C55.7551 23.9041 55.5191 23.879 55.1672 23.8331C54.8154 23.7872 54.5463 23.6202 54.3559 23.3364L52.9816 21.383C52.5842 20.7903 52.2737 20.2519 52.0502 19.7677C51.8266 19.2836 51.5162 18.7577 51.1188 18.19L50.2371 16.9128V16.8961Z" fill="var(--fill-0, #0D0D0D)"/>
<path id="Vector_4" d="M73.87 0.217187C74.197 0.217187 74.4453 0.258926 74.6109 0.342404C74.7765 0.425881 74.9048 0.501011 74.9959 0.571967C75.1615 0.738923 75.2608 0.910052 75.294 1.08536C75.3271 1.26066 75.3478 1.43596 75.3478 1.59874V3.19734C75.3478 3.31421 75.3436 3.41438 75.3312 3.49786C75.3188 3.58134 75.3146 3.68151 75.3146 3.79838C75.2898 3.94029 75.2815 4.07803 75.2815 4.20742V4.86272C75.2815 5.07559 75.2236 5.26341 75.1035 5.43037L74.9628 5.57228C74.8924 5.64324 74.8096 5.67663 74.7186 5.67663L73.3111 5.64324C73.1704 5.64324 72.9717 5.65993 72.7109 5.6975C72.4542 5.73089 72.1935 5.88115 71.9368 6.13993C71.8664 6.21089 71.7422 6.41123 71.5684 6.74514C71.3945 7.07488 71.3035 7.6467 71.3035 8.44809V9.51243C71.3035 10.151 71.3076 10.5851 71.32 10.8063C71.3324 11.0317 71.3366 11.1862 71.3366 11.2655C71.3366 11.3448 71.3324 11.4241 71.32 11.495C71.3076 11.566 71.2786 11.7788 71.2331 12.1336C71.1627 12.6762 71.1379 13.0686 71.1627 13.3065C71.1875 13.5444 71.1958 13.8491 71.1958 14.2289V17.0839C71.1958 17.2633 71.1834 17.5972 71.1627 18.0939C71.1627 18.2859 71.1586 18.4362 71.1461 18.5572C71.1337 18.6741 71.1296 18.7993 71.1296 18.9287C71.1296 19.0581 71.1337 19.2084 71.1461 19.3711C71.1586 19.5381 71.1627 19.751 71.1627 20.0097L71.2662 22.1384C71.291 22.5391 71.2828 22.8355 71.2496 23.0275C71.2165 23.2153 71.1379 23.3697 71.022 23.4908C70.8357 23.6786 70.6453 23.7746 70.459 23.7746L68.9108 23.8789C68.6045 23.904 68.3313 23.904 68.0829 23.8789C67.8345 23.8539 67.6524 23.8455 67.5365 23.8455H66.3402C66.2243 23.8455 66.1042 23.8163 65.9883 23.7579C65.8724 23.6995 65.7524 23.5617 65.6364 23.3489C65.5412 23.161 65.4957 22.9607 65.4957 22.7436L65.5288 21.6083V21.2536C65.5288 21.1367 65.533 21.0282 65.5454 20.9322C65.5578 20.8362 65.5619 20.7318 65.5619 20.615V19.6049C65.5619 19.2626 65.5495 18.9245 65.5288 18.5948C65.504 18.407 65.4874 18.2108 65.475 18.0105C65.4626 17.8101 65.4709 17.6139 65.4916 17.4261L65.595 15.5103C65.6199 15.3433 65.624 15.1806 65.6116 15.0136C65.5992 14.8467 65.6075 14.6839 65.6282 14.5169C65.6282 14.4209 65.6323 14.3416 65.6447 14.2707C65.6571 14.1997 65.6613 14.1162 65.6613 14.0202V13.5945C65.6364 13.4067 65.6282 13.2689 65.6282 13.1854C65.6282 13.102 65.6157 12.9308 65.595 12.6721V11.9458C65.595 11.8415 65.5992 11.7204 65.6116 11.591C65.624 11.4616 65.6282 11.2905 65.6282 11.0776V7.98896C65.6282 7.58827 65.6323 7.23349 65.6447 6.92462C65.6571 6.61575 65.4957 6.27349 65.1687 5.89784C65.0528 5.75593 64.9162 5.65993 64.763 5.61402C64.6098 5.56811 64.4774 5.54306 64.3573 5.54306L62.42 5.57645C62.1841 5.57645 62.0144 5.54724 61.9109 5.4888C61.8074 5.43037 61.7163 5.34272 61.6459 5.22167C61.53 5.03385 61.4721 4.71246 61.4721 4.26586V3.51873C61.4721 3.20986 61.4845 2.95108 61.5052 2.73821L61.5383 2.17057C61.5383 2.12465 61.5425 2.02865 61.5549 1.88674C61.5673 1.74483 61.5797 1.5904 61.588 1.42344C61.6004 1.25648 61.617 1.10205 61.6418 0.960139C61.6666 0.818227 61.6998 0.713879 61.7494 0.642923C61.8198 0.526055 61.973 0.405012 62.2048 0.288143C62.4407 0.171275 62.7553 0.11284 63.1569 0.11284C63.3928 0.11284 63.6164 0.117014 63.8275 0.129536C64.0386 0.142057 64.2621 0.158753 64.4981 0.183796C64.8251 0.208839 65.148 0.213013 65.4667 0.200492C65.7855 0.18797 66.1042 0.183796 66.4354 0.183796C67.0232 0.183796 67.6027 0.196318 68.1781 0.217187C68.7535 0.242231 69.333 0.250578 69.9208 0.250578L73.8617 0.217187H73.87Z" fill="var(--fill-0, #0D0D0D)"/>
</g>
</svg>
