<svg width="440" height="48" viewBox="0 0 440 48" fill="none" xmlns="http://www.w3.org/2000/svg">
<circle cx="20" cy="16.1045" r="7" fill="#F2F2F2"/>
<circle cx="60" cy="16.1045" r="7" fill="#F2F2F2"/>
<circle cx="100" cy="16.1045" r="7" fill="#F2F2F2"/>
<circle cx="140" cy="16.1045" r="7" fill="#F2F2F2"/>
<circle cx="180" cy="16.1045" r="7" fill="#F2F2F2"/>
<circle cx="220" cy="16.1045" r="7" fill="#F2F2F2"/>
<circle cx="260" cy="16.1045" r="7" fill="#F2F2F2"/>
<circle cx="300" cy="16.1045" r="7" fill="#F2F2F2"/>
<circle cx="340" cy="16.1045" r="7" fill="#F2F2F2"/>
<circle cx="380" cy="16.1045" r="7" fill="#F2F2F2"/>
<circle cx="420" cy="16.1045" r="7" fill="#F2F2F2"/>
<mask id="path-12-inside-1_450_369" fill="white">
<path d="M0 0H440V48H0V0Z"/>
</mask>
<path d="M0 48V48.5H3.92857V48V47.5H0V48ZM11.7857 48V48.5H19.6429V48V47.5H11.7857V48ZM27.5 48V48.5H35.3571V48V47.5H27.5V48ZM43.2143 48V48.5H51.0714V48V47.5H43.2143V48ZM58.9286 48V48.5H66.7857V48V47.5H58.9286V48ZM74.6429 48V48.5H82.5V48V47.5H74.6429V48ZM90.3571 48V48.5H98.2143V48V47.5H90.3571V48ZM106.071 48V48.5H113.929V48V47.5H106.071V48ZM121.786 48V48.5H129.643V48V47.5H121.786V48ZM137.5 48V48.5H145.357V48V47.5H137.5V48ZM153.214 48V48.5H161.071V48V47.5H153.214V48ZM168.929 48V48.5H176.786V48V47.5H168.929V48ZM184.643 48V48.5H192.5V48V47.5H184.643V48ZM200.357 48V48.5H208.214V48V47.5H200.357V48ZM216.071 48V48.5H223.929V48V47.5H216.071V48ZM231.786 48V48.5H239.643V48V47.5H231.786V48ZM247.5 48V48.5H255.357V48V47.5H247.5V48ZM263.214 48V48.5H271.071V48V47.5H263.214V48ZM278.929 48V48.5H286.786V48V47.5H278.929V48ZM294.643 48V48.5H302.5V48V47.5H294.643V48ZM310.357 48V48.5H318.214V48V47.5H310.357V48ZM326.071 48V48.5H333.929V48V47.5H326.071V48ZM341.786 48V48.5H349.643V48V47.5H341.786V48ZM357.5 48V48.5H365.357V48V47.5H357.5V48ZM373.214 48V48.5H381.072V48V47.5H373.214V48ZM388.929 48V48.5H396.786V48V47.5H388.929V48ZM404.643 48V48.5H412.5V48V47.5H404.643V48ZM420.357 48V48.5H428.214V48V47.5H420.357V48ZM436.072 48V48.5H440V48V47.5H436.072V48ZM0 48V49H3.92857V48V47H0V48ZM11.7857 48V49H19.6429V48V47H11.7857V48ZM27.5 48V49H35.3571V48V47H27.5V48ZM43.2143 48V49H51.0714V48V47H43.2143V48ZM58.9286 48V49H66.7857V48V47H58.9286V48ZM74.6429 48V49H82.5V48V47H74.6429V48ZM90.3571 48V49H98.2143V48V47H90.3571V48ZM106.071 48V49H113.929V48V47H106.071V48ZM121.786 48V49H129.643V48V47H121.786V48ZM137.5 48V49H145.357V48V47H137.5V48ZM153.214 48V49H161.071V48V47H153.214V48ZM168.929 48V49H176.786V48V47H168.929V48ZM184.643 48V49H192.5V48V47H184.643V48ZM200.357 48V49H208.214V48V47H200.357V48ZM216.071 48V49H223.929V48V47H216.071V48ZM231.786 48V49H239.643V48V47H231.786V48ZM247.5 48V49H255.357V48V47H247.5V48ZM263.214 48V49H271.071V48V47H263.214V48ZM278.929 48V49H286.786V48V47H278.929V48ZM294.643 48V49H302.5V48V47H294.643V48ZM310.357 48V49H318.214V48V47H310.357V48ZM326.071 48V49H333.929V48V47H326.071V48ZM341.786 48V49H349.643V48V47H341.786V48ZM357.5 48V49H365.357V48V47H357.5V48ZM373.214 48V49H381.072V48V47H373.214V48ZM388.929 48V49H396.786V48V47H388.929V48ZM404.643 48V49H412.5V48V47H404.643V48ZM420.357 48V49H428.214V48V47H420.357V48ZM436.072 48V49H440V48V47H436.072V48Z" fill="#F2F2F2" mask="url(#path-12-inside-1_450_369)"/>
</svg>
