<svg width="1118" height="1" viewBox="0 0 1118 1" fill="none" xmlns="http://www.w3.org/2000/svg">
<mask id="path-1-inside-1_456_451" fill="white">
<path d="M0 0H1118V1H0V0Z"/>
</mask>
<path d="M0 1V1.5H3.99286V1V0.5H0V1ZM11.9786 1V1.5H19.9643V1V0.5H11.9786V1ZM27.95 1V1.5H35.9357V1V0.5H27.95V1ZM43.9214 1V1.5H51.9071V1V0.5H43.9214V1ZM59.8929 1V1.5H67.8786V1V0.5H59.8929V1ZM75.8643 1V1.5H83.85V1V0.5H75.8643V1ZM91.8357 1V1.5H99.8214V1V0.5H91.8357V1ZM107.807 1V1.5H115.793V1V0.5H107.807V1ZM123.779 1V1.5H131.764V1V0.5H123.779V1ZM139.75 1V1.5H147.736V1V0.5H139.75V1ZM155.721 1V1.5H163.707V1V0.5H155.721V1ZM171.693 1V1.5H179.679V1V0.5H171.693V1ZM187.664 1V1.5H195.65V1V0.5H187.664V1ZM203.636 1V1.5H211.621V1V0.5H203.636V1ZM219.607 1V1.5H227.593V1V0.5H219.607V1ZM235.579 1V1.5H243.564V1V0.5H235.579V1ZM251.55 1V1.5H259.536V1V0.5H251.55V1ZM267.522 1V1.5H275.507V1V0.5H267.522V1ZM283.493 1V1.5H291.479V1V0.5H283.493V1ZM299.464 1V1.5H307.45V1V0.5H299.464V1ZM315.436 1V1.5H323.422V1V0.5H315.436V1ZM331.407 1V1.5H339.393V1V0.5H331.407V1ZM347.379 1V1.5H355.364V1V0.5H347.379V1ZM363.35 1V1.5H371.336V1V0.5H363.35V1ZM379.322 1V1.5H387.307V1V0.5H379.322V1ZM395.293 1V1.5H403.279V1V0.5H395.293V1ZM411.264 1V1.5H419.25V1V0.5H411.264V1ZM427.236 1V1.5H435.222V1V0.5H427.236V1ZM443.207 1V1.5H451.193V1V0.5H443.207V1ZM459.179 1V1.5H467.164V1V0.5H459.179V1ZM475.15 1V1.5H483.136V1V0.5H475.15V1ZM491.122 1V1.5H499.107V1V0.5H491.122V1ZM507.093 1V1.5H515.079V1V0.5H507.093V1ZM523.064 1V1.5H531.05V1V0.5H523.064V1ZM539.036 1V1.5H547.022V1V0.5H539.036V1ZM555.007 1V1.5H562.993V1V0.5H555.007V1ZM570.979 1V1.5H578.964V1V0.5H570.979V1ZM586.95 1V1.5H594.936V1V0.5H586.95V1ZM602.922 1V1.5H610.907V1V0.5H602.922V1ZM618.893 1V1.5H626.879V1V0.5H618.893V1ZM634.864 1V1.5H642.85V1V0.5H634.864V1ZM650.836 1V1.5H658.822V1V0.5H650.836V1ZM666.807 1V1.5H674.793V1V0.5H666.807V1ZM682.779 1V1.5H690.765V1V0.5H682.779V1ZM698.75 1V1.5H706.736V1V0.5H698.75V1ZM714.722 1V1.5H722.707V1V0.5H714.722V1ZM730.693 1V1.5H738.679V1V0.5H730.693V1ZM746.665 1V1.5H754.65V1V0.5H746.665V1ZM762.636 1V1.5H770.622V1V0.5H762.636V1ZM778.607 1V1.5H786.593V1V0.5H778.607V1ZM794.579 1V1.5H802.565V1V0.5H794.579V1ZM810.55 1V1.5H818.536V1V0.5H810.55V1ZM826.522 1V1.5H834.507V1V0.5H826.522V1ZM842.493 1V1.5H850.479V1V0.5H842.493V1ZM858.465 1V1.5H866.45V1V0.5H858.465V1ZM874.436 1V1.5H882.422V1V0.5H874.436V1ZM890.407 1V1.5H898.393V1V0.5H890.407V1ZM906.379 1V1.5H914.365V1V0.5H906.379V1ZM922.35 1V1.5H930.336V1V0.5H922.35V1ZM938.322 1V1.5H946.307V1V0.5H938.322V1ZM954.293 1V1.5H962.279V1V0.5H954.293V1ZM970.265 1V1.5H978.25V1V0.5H970.265V1ZM986.236 1V1.5H994.222V1V0.5H986.236V1ZM1002.21 1V1.5H1010.19V1V0.5H1002.21V1ZM1018.18 1V1.5H1026.16V1V0.5H1018.18V1ZM1034.15 1V1.5H1042.14V1V0.5H1034.15V1ZM1050.12 1V1.5H1058.11V1V0.5H1050.12V1ZM1066.09 1V1.5H1074.08V1V0.5H1066.09V1ZM1082.06 1V1.5H1090.05V1V0.5H1082.06V1ZM1098.04 1V1.5H1106.02V1V0.5H1098.04V1ZM1114.01 1V1.5H1118V1V0.5H1114.01V1ZM0 1V2H3.99286V1V0H0V1ZM11.9786 1V2H19.9643V1V0H11.9786V1ZM27.95 1V2H35.9357V1V0H27.95V1ZM43.9214 1V2H51.9071V1V0H43.9214V1ZM59.8929 1V2H67.8786V1V0H59.8929V1ZM75.8643 1V2H83.85V1V0H75.8643V1ZM91.8357 1V2H99.8214V1V0H91.8357V1ZM107.807 1V2H115.793V1V0H107.807V1ZM123.779 1V2H131.764V1V0H123.779V1ZM139.75 1V2H147.736V1V0H139.75V1ZM155.721 1V2H163.707V1V0H155.721V1ZM171.693 1V2H179.679V1V0H171.693V1ZM187.664 1V2H195.65V1V0H187.664V1ZM203.636 1V2H211.621V1V0H203.636V1ZM219.607 1V2H227.593V1V0H219.607V1ZM235.579 1V2H243.564V1V0H235.579V1ZM251.55 1V2H259.536V1V0H251.55V1ZM267.522 1V2H275.507V1V0H267.522V1ZM283.493 1V2H291.479V1V0H283.493V1ZM299.464 1V2H307.45V1V0H299.464V1ZM315.436 1V2H323.422V1V0H315.436V1ZM331.407 1V2H339.393V1V0H331.407V1ZM347.379 1V2H355.364V1V0H347.379V1ZM363.35 1V2H371.336V1V0H363.35V1ZM379.322 1V2H387.307V1V0H379.322V1ZM395.293 1V2H403.279V1V0H395.293V1ZM411.264 1V2H419.25V1V0H411.264V1ZM427.236 1V2H435.222V1V0H427.236V1ZM443.207 1V2H451.193V1V0H443.207V1ZM459.179 1V2H467.164V1V0H459.179V1ZM475.15 1V2H483.136V1V0H475.15V1ZM491.122 1V2H499.107V1V0H491.122V1ZM507.093 1V2H515.079V1V0H507.093V1ZM523.064 1V2H531.05V1V0H523.064V1ZM539.036 1V2H547.022V1V0H539.036V1ZM555.007 1V2H562.993V1V0H555.007V1ZM570.979 1V2H578.964V1V0H570.979V1ZM586.95 1V2H594.936V1V0H586.95V1ZM602.922 1V2H610.907V1V0H602.922V1ZM618.893 1V2H626.879V1V0H618.893V1ZM634.864 1V2H642.85V1V0H634.864V1ZM650.836 1V2H658.822V1V0H650.836V1ZM666.807 1V2H674.793V1V0H666.807V1ZM682.779 1V2H690.765V1V0H682.779V1ZM698.75 1V2H706.736V1V0H698.75V1ZM714.722 1V2H722.707V1V0H714.722V1ZM730.693 1V2H738.679V1V0H730.693V1ZM746.665 1V2H754.65V1V0H746.665V1ZM762.636 1V2H770.622V1V0H762.636V1ZM778.607 1V2H786.593V1V0H778.607V1ZM794.579 1V2H802.565V1V0H794.579V1ZM810.55 1V2H818.536V1V0H810.55V1ZM826.522 1V2H834.507V1V0H826.522V1ZM842.493 1V2H850.479V1V0H842.493V1ZM858.465 1V2H866.45V1V0H858.465V1ZM874.436 1V2H882.422V1V0H874.436V1ZM890.407 1V2H898.393V1V0H890.407V1ZM906.379 1V2H914.365V1V0H906.379V1ZM922.35 1V2H930.336V1V0H922.35V1ZM938.322 1V2H946.307V1V0H938.322V1ZM954.293 1V2H962.279V1V0H954.293V1ZM970.265 1V2H978.25V1V0H970.265V1ZM986.236 1V2H994.222V1V0H986.236V1ZM1002.21 1V2H1010.19V1V0H1002.21V1ZM1018.18 1V2H1026.16V1V0H1018.18V1ZM1034.15 1V2H1042.14V1V0H1034.15V1ZM1050.12 1V2H1058.11V1V0H1050.12V1ZM1066.09 1V2H1074.08V1V0H1066.09V1ZM1082.06 1V2H1090.05V1V0H1082.06V1ZM1098.04 1V2H1106.02V1V0H1098.04V1ZM1114.01 1V2H1118V1V0H1114.01V1Z" fill="#59514E" mask="url(#path-1-inside-1_456_451)"/>
</svg>
