<?xml version="1.0" encoding="UTF-8"?>
<svg id="Layer_1" xmlns="http://www.w3.org/2000/svg" version="1.1" viewBox="0 0 900 1200">
  <!-- Generator: Adobe Illustrator 29.8.2, SVG Export Plug-In . SVG Version: 2.1.1 Build 3)  -->
  <defs>
    <style>
      .st0 {
        fill: #d8cbba;
      }
    </style>
  </defs>
  <path class="st0" d="M893.29,135.53c0-.39.32-.71.71-.71h6V0H0v134.82h6c.39,0,.71.32.71.71s-.32.71-.71.71H0v1063.76h900V136.24h-6c-.39,0-.71-.32-.71-.71ZM29.68,136.24h-11.84c-.39,0-.71-.32-.71-.71s.32-.71.71-.71h11.84c.39,0,.71.32.71.71s-.32.71-.71.71ZM53.36,136.24h-11.84c-.39,0-.71-.32-.71-.71s.32-.71.71-.71h11.84c.39,0,.71.32.71.71s-.32.71-.71.71ZM48,35.64c0-7.46,6.04-13.5,13.5-13.5s13.5,6.04,13.5,13.5-6.04,13.5-13.5,13.5-13.5-6.04-13.5-13.5ZM77.04,136.24h-11.84c-.39,0-.71-.32-.71-.71s.32-.71.71-.71h11.84c.39,0,.71.32.71.71s-.32.71-.71.71ZM100.72,136.24h-11.84c-.39,0-.71-.32-.71-.71s.32-.71.71-.71h11.84c.39,0,.71.32.71.71s-.32.71-.71.71ZM124.4,136.24h-11.84c-.39,0-.71-.32-.71-.71s.32-.71.71-.71h11.84c.39,0,.71.32.71.71s-.32.71-.71.71ZM148.08,136.24h-11.84c-.39,0-.71-.32-.71-.71s.32-.71.71-.71h11.84c.39,0,.71.32.71.71s-.32.71-.71.71ZM147.79,49.14c-7.46,0-13.5-6.04-13.5-13.5s6.04-13.5,13.5-13.5,13.5,6.04,13.5,13.5-6.04,13.5-13.5,13.5ZM171.76,136.24h-11.84c-.39,0-.71-.32-.71-.71s.32-.71.71-.71h11.84c.39,0,.71.32.71.71s-.32.71-.71.71ZM195.44,136.24h-11.84c-.39,0-.71-.32-.71-.71s.32-.71.71-.71h11.84c.39,0,.71.32.71.71s-.32.71-.71.71ZM219.12,136.24h-11.84c-.39,0-.71-.32-.71-.71s.32-.71.71-.71h11.84c.39,0,.71.32.71.71s-.32.71-.71.71ZM242.8,136.24h-11.84c-.39,0-.71-.32-.71-.71s.32-.71.71-.71h11.84c.39,0,.71.32.71.71s-.32.71-.71.71ZM234.08,49.14c-7.46,0-13.5-6.04-13.5-13.5s6.04-13.5,13.5-13.5,13.5,6.04,13.5,13.5-6.04,13.5-13.5,13.5ZM266.48,136.24h-11.84c-.39,0-.71-.32-.71-.71s.32-.71.71-.71h11.84c.39,0,.71.32.71.71s-.32.71-.71.71ZM290.16,136.24h-11.84c-.39,0-.71-.32-.71-.71s.32-.71.71-.71h11.84c.39,0,.71.32.71.71s-.32.71-.71.71ZM313.84,136.24h-11.84c-.39,0-.71-.32-.71-.71s.32-.71.71-.71h11.84c.39,0,.71.32.71.71s-.32.71-.71.71ZM306.88,35.64c0-7.46,6.04-13.5,13.5-13.5s13.5,6.04,13.5,13.5-6.04,13.5-13.5,13.5-13.5-6.04-13.5-13.5ZM337.52,136.24h-11.84c-.39,0-.71-.32-.71-.71s.32-.71.71-.71h11.84c.39,0,.71.32.71.71s-.32.71-.71.71ZM361.2,136.24h-11.84c-.39,0-.71-.32-.71-.71s.32-.71.71-.71h11.84c.39,0,.71.32.71.71s-.32.71-.71.71ZM384.88,136.24h-11.84c-.39,0-.71-.32-.71-.71s.32-.71.71-.71h11.84c.39,0,.71.32.71.71s-.32.71-.71.71ZM408.56,136.24h-11.84c-.39,0-.71-.32-.71-.71s.32-.71.71-.71h11.84c.39,0,.71.32.71.71s-.32.71-.71.71ZM406.67,49.14c-7.46,0-13.5-6.04-13.5-13.5s6.04-13.5,13.5-13.5,13.5,6.04,13.5,13.5-6.04,13.5-13.5,13.5ZM432.24,136.24h-11.84c-.39,0-.71-.32-.71-.71s.32-.71.71-.71h11.84c.39,0,.71.32.71.71s-.32.71-.71.71ZM455.92,136.24h-11.84c-.39,0-.71-.32-.71-.71s.32-.71.71-.71h11.84c.39,0,.71.32.71.71s-.32.71-.71.71ZM479.6,136.24h-11.84c-.39,0-.71-.32-.71-.71s.32-.71.71-.71h11.84c.39,0,.71.32.71.71s-.32.71-.71.71ZM503.28,136.24h-11.84c-.39,0-.71-.32-.71-.71s.32-.71.71-.71h11.84c.39,0,.71.32.71.71s-.32.71-.71.71ZM492.96,49.14c-7.46,0-13.5-6.04-13.5-13.5s6.04-13.5,13.5-13.5,13.5,6.04,13.5,13.5-6.04,13.5-13.5,13.5ZM526.96,136.24h-11.84c-.39,0-.71-.32-.71-.71s.32-.71.71-.71h11.84c.39,0,.71.32.71.71s-.32.71-.71.71ZM550.64,136.24h-11.84c-.39,0-.71-.32-.71-.71s.32-.71.71-.71h11.84c.39,0,.71.32.71.71s-.32.71-.71.71ZM574.32,136.24h-11.84c-.39,0-.71-.32-.71-.71s.32-.71.71-.71h11.84c.39,0,.71.32.71.71s-.32.71-.71.71ZM565.75,35.64c0-7.46,6.04-13.5,13.5-13.5s13.5,6.04,13.5,13.5-6.04,13.5-13.5,13.5-13.5-6.04-13.5-13.5ZM598,136.24h-11.84c-.39,0-.71-.32-.71-.71s.32-.71.71-.71h11.84c.39,0,.71.32.71.71s-.32.71-.71.71ZM621.68,136.24h-11.84c-.39,0-.71-.32-.71-.71s.32-.71.71-.71h11.84c.39,0,.71.32.71.71s-.32.71-.71.71ZM645.36,136.24h-11.84c-.39,0-.71-.32-.71-.71s.32-.71.71-.71h11.84c.39,0,.71.32.71.71s-.32.71-.71.71ZM669.04,136.24h-11.84c-.39,0-.71-.32-.71-.71s.32-.71.71-.71h11.84c.39,0,.71.32.71.71s-.32.71-.71.71ZM665.54,49.14c-7.46,0-13.5-6.04-13.5-13.5s6.04-13.5,13.5-13.5,13.5,6.04,13.5,13.5-6.04,13.5-13.5,13.5ZM692.72,136.24h-11.84c-.39,0-.71-.32-.71-.71s.32-.71.71-.71h11.84c.39,0,.71.32.71.71s-.32.71-.71.71ZM716.4,136.24h-11.84c-.39,0-.71-.32-.71-.71s.32-.71.71-.71h11.84c.39,0,.71.32.71.71s-.32.71-.71.71ZM740.08,136.24h-11.84c-.39,0-.71-.32-.71-.71s.32-.71.71-.71h11.84c.39,0,.71.32.71.71s-.32.71-.71.71ZM763.76,136.24h-11.84c-.39,0-.71-.32-.71-.71s.32-.71.71-.71h11.84c.39,0,.71.32.71.71s-.32.71-.71.71ZM751.83,49.14c-7.46,0-13.5-6.04-13.5-13.5s6.04-13.5,13.5-13.5,13.5,6.04,13.5,13.5-6.04,13.5-13.5,13.5ZM787.44,136.24h-11.84c-.39,0-.71-.32-.71-.71s.32-.71.71-.71h11.84c.39,0,.71.32.71.71s-.32.71-.71.71ZM811.12,136.24h-11.84c-.39,0-.71-.32-.71-.71s.32-.71.71-.71h11.84c.39,0,.71.32.71.71s-.32.71-.71.71ZM834.8,136.24h-11.84c-.39,0-.71-.32-.71-.71s.32-.71.71-.71h11.84c.39,0,.71.32.71.71s-.32.71-.71.71ZM825,35.64c0-7.46,6.04-13.5,13.5-13.5s13.5,6.04,13.5,13.5-6.04,13.5-13.5,13.5-13.5-6.04-13.5-13.5ZM858.48,136.24h-11.84c-.39,0-.71-.32-.71-.71s.32-.71.71-.71h11.84c.39,0,.71.32.71.71s-.32.71-.71.71ZM882.16,136.24h-11.84c-.39,0-.71-.32-.71-.71s.32-.71.71-.71h11.84c.39,0,.71.32.71.71s-.32.71-.71.71Z"/>
</svg>