<?xml version="1.0" encoding="UTF-8"?>
<svg id="Layer_1" xmlns="http://www.w3.org/2000/svg" version="1.1" viewBox="0 0 1080 1350">
  <!-- Generator: Adobe Illustrator 29.8.2, SVG Export Plug-In . SVG Version: 2.1.1 Build 3)  -->
  <defs>
    <style>
      .st0 {
        fill: #d8cbba;
      }
    </style>
  </defs>
  <path class="st0" d="M1073.29,144c0-.39.32-.71.71-.71h6V0H0v143.29h6c.39,0,.71.32.71.71s-.32.71-.71.71H0v1205.29h1080V144.71h-6c-.39,0-.71-.32-.71-.71ZM30,144.71h-12c-.39,0-.71-.32-.71-.71s.32-.71.71-.71h12c.39,0,.71.32.71.71s-.32.71-.71.71ZM54,144.71h-12c-.39,0-.71-.32-.71-.71s.32-.71.71-.71h12c.39,0,.71.32.71.71s-.32.71-.71.71ZM78,144.71h-12c-.39,0-.71-.32-.71-.71s.32-.71.71-.71h12c.39,0,.71.32.71.71s-.32.71-.71.71ZM74.76,58.36c-9.21,0-16.68-7.47-16.68-16.68s7.47-16.68,16.68-16.68,16.68,7.47,16.68,16.68-7.47,16.68-16.68,16.68ZM102,144.71h-12c-.39,0-.71-.32-.71-.71s.32-.71.71-.71h12c.39,0,.71.32.71.71s-.32.71-.71.71ZM126,144.71h-12c-.39,0-.71-.32-.71-.71s.32-.71.71-.71h12c.39,0,.71.32.71.71s-.32.71-.71.71ZM150,144.71h-12c-.39,0-.71-.32-.71-.71s.32-.71.71-.71h12c.39,0,.71.32.71.71s-.32.71-.71.71ZM174,144.71h-12c-.39,0-.71-.32-.71-.71s.32-.71.71-.71h12c.39,0,.71.32.71.71s-.32.71-.71.71ZM161.53,41.68c0-9.21,7.47-16.68,16.68-16.68s16.68,7.47,16.68,16.68-7.47,16.68-16.68,16.68-16.68-7.47-16.68-16.68ZM198,144.71h-12c-.39,0-.71-.32-.71-.71s.32-.71.71-.71h12c.39,0,.71.32.71.71s-.32.71-.71.71ZM222,144.71h-12c-.39,0-.71-.32-.71-.71s.32-.71.71-.71h12c.39,0,.71.32.71.71s-.32.71-.71.71ZM246,144.71h-12c-.39,0-.71-.32-.71-.71s.32-.71.71-.71h12c.39,0,.71.32.71.71s-.32.71-.71.71ZM270,144.71h-12c-.39,0-.71-.32-.71-.71s.32-.71.71-.71h12c.39,0,.71.32.71.71s-.32.71-.71.71ZM294,144.71h-12c-.39,0-.71-.32-.71-.71s.32-.71.71-.71h12c.39,0,.71.32.71.71s-.32.71-.71.71ZM281.65,58.36c-9.21,0-16.68-7.47-16.68-16.68s7.47-16.68,16.68-16.68,16.68,7.47,16.68,16.68-7.47,16.68-16.68,16.68ZM318,144.71h-12c-.39,0-.71-.32-.71-.71s.32-.71.71-.71h12c.39,0,.71.32.71.71s-.32.71-.71.71ZM342,144.71h-12c-.39,0-.71-.32-.71-.71s.32-.71.71-.71h12c.39,0,.71.32.71.71s-.32.71-.71.71ZM366,144.71h-12c-.39,0-.71-.32-.71-.71s.32-.71.71-.71h12c.39,0,.71.32.71.71s-.32.71-.71.71ZM390,144.71h-12c-.39,0-.71-.32-.71-.71s.32-.71.71-.71h12c.39,0,.71.32.71.71s-.32.71-.71.71ZM385.1,58.36c-9.21,0-16.68-7.47-16.68-16.68s7.47-16.68,16.68-16.68,16.68,7.47,16.68,16.68-7.47,16.68-16.68,16.68ZM414,144.71h-12c-.39,0-.71-.32-.71-.71s.32-.71.71-.71h12c.39,0,.71.32.71.71s-.32.71-.71.71ZM438,144.71h-12c-.39,0-.71-.32-.71-.71s.32-.71.71-.71h12c.39,0,.71.32.71.71s-.32.71-.71.71ZM462,144.71h-12c-.39,0-.71-.32-.71-.71s.32-.71.71-.71h12c.39,0,.71.32.71.71s-.32.71-.71.71ZM486,144.71h-12c-.39,0-.71-.32-.71-.71s.32-.71.71-.71h12c.39,0,.71.32.71.71s-.32.71-.71.71ZM471.86,41.68c0-9.21,7.47-16.68,16.68-16.68s16.68,7.47,16.68,16.68-7.47,16.68-16.68,16.68-16.68-7.47-16.68-16.68ZM510,144.71h-12c-.39,0-.71-.32-.71-.71s.32-.71.71-.71h12c.39,0,.71.32.71.71s-.32.71-.71.71ZM534,144.71h-12c-.39,0-.71-.32-.71-.71s.32-.71.71-.71h12c.39,0,.71.32.71.71s-.32.71-.71.71ZM558,144.71h-12c-.39,0-.71-.32-.71-.71s.32-.71.71-.71h12c.39,0,.71.32.71.71s-.32.71-.71.71ZM582,144.71h-12c-.39,0-.71-.32-.71-.71s.32-.71.71-.71h12c.39,0,.71.32.71.71s-.32.71-.71.71ZM606,144.71h-12c-.39,0-.71-.32-.71-.71s.32-.71.71-.71h12c.39,0,.71.32.71.71s-.32.71-.71.71ZM591.99,58.36c-9.21,0-16.68-7.47-16.68-16.68s7.47-16.68,16.68-16.68,16.68,7.47,16.68,16.68-7.47,16.68-16.68,16.68ZM630,144.71h-12c-.39,0-.71-.32-.71-.71s.32-.71.71-.71h12c.39,0,.71.32.71.71s-.32.71-.71.71ZM654,144.71h-12c-.39,0-.71-.32-.71-.71s.32-.71.71-.71h12c.39,0,.71.32.71.71s-.32.71-.71.71ZM678,144.71h-12c-.39,0-.71-.32-.71-.71s.32-.71.71-.71h12c.39,0,.71.32.71.71s-.32.71-.71.71ZM702,144.71h-12c-.39,0-.71-.32-.71-.71s.32-.71.71-.71h12c.39,0,.71.32.71.71s-.32.71-.71.71ZM695.43,58.36c-9.21,0-16.68-7.47-16.68-16.68s7.47-16.68,16.68-16.68,16.68,7.47,16.68,16.68-7.47,16.68-16.68,16.68ZM726,144.71h-12c-.39,0-.71-.32-.71-.71s.32-.71.71-.71h12c.39,0,.71.32.71.71s-.32.71-.71.71ZM750,144.71h-12c-.39,0-.71-.32-.71-.71s.32-.71.71-.71h12c.39,0,.71.32.71.71s-.32.71-.71.71ZM774,144.71h-12c-.39,0-.71-.32-.71-.71s.32-.71.71-.71h12c.39,0,.71.32.71.71s-.32.71-.71.71ZM798,144.71h-12c-.39,0-.71-.32-.71-.71s.32-.71.71-.71h12c.39,0,.71.32.71.71s-.32.71-.71.71ZM782.19,41.68c0-9.21,7.47-16.68,16.68-16.68s16.68,7.47,16.68,16.68-7.47,16.68-16.68,16.68-16.68-7.47-16.68-16.68ZM822,144.71h-12c-.39,0-.71-.32-.71-.71s.32-.71.71-.71h12c.39,0,.71.32.71.71s-.32.71-.71.71ZM846,144.71h-12c-.39,0-.71-.32-.71-.71s.32-.71.71-.71h12c.39,0,.71.32.71.71s-.32.71-.71.71ZM870,144.71h-12c-.39,0-.71-.32-.71-.71s.32-.71.71-.71h12c.39,0,.71.32.71.71s-.32.71-.71.71ZM894,144.71h-12c-.39,0-.71-.32-.71-.71s.32-.71.71-.71h12c.39,0,.71.32.71.71s-.32.71-.71.71ZM918,144.71h-12c-.39,0-.71-.32-.71-.71s.32-.71.71-.71h12c.39,0,.71.32.71.71s-.32.71-.71.71ZM902.32,58.36c-9.21,0-16.68-7.47-16.68-16.68s7.47-16.68,16.68-16.68,16.68,7.47,16.68,16.68-7.47,16.68-16.68,16.68ZM942,144.71h-12c-.39,0-.71-.32-.71-.71s.32-.71.71-.71h12c.39,0,.71.32.71.71s-.32.71-.71.71ZM966,144.71h-12c-.39,0-.71-.32-.71-.71s.32-.71.71-.71h12c.39,0,.71.32.71.71s-.32.71-.71.71ZM990,144.71h-12c-.39,0-.71-.32-.71-.71s.32-.71.71-.71h12c.39,0,.71.32.71.71s-.32.71-.71.71ZM1014,144.71h-12c-.39,0-.71-.32-.71-.71s.32-.71.71-.71h12c.39,0,.71.32.71.71s-.32.71-.71.71ZM1005.76,58.36c-9.21,0-16.68-7.47-16.68-16.68s7.47-16.68,16.68-16.68,16.68,7.47,16.68,16.68-7.47,16.68-16.68,16.68ZM1038,144.71h-12c-.39,0-.71-.32-.71-.71s.32-.71.71-.71h12c.39,0,.71.32.71.71s-.32.71-.71.71ZM1062,144.71h-12c-.39,0-.71-.32-.71-.71s.32-.71.71-.71h12c.39,0,.71.32.71.71s-.32.71-.71.71Z"/>
</svg>