<?xml version="1.0" encoding="UTF-8"?>
<svg id="Layer_1" xmlns="http://www.w3.org/2000/svg" version="1.1" viewBox="0 0 1080 1080">
  <!-- Generator: Adobe Illustrator 29.8.2, SVG Export Plug-In . SVG Version: 2.1.1 Build 3)  -->
  <defs>
    <style>
      .st0 {
        fill: #d8cbba;
      }
    </style>
  </defs>
  <path class="st0" d="M138.64,0v12c0,.59-.48,1.06-1.06,1.06s-1.06-.48-1.06-1.06V0H0v1080h136.52c0-.59.48-1.07,1.06-1.07s1.06.47,1.06,1.06h0s941.36,0,941.36,0V0H138.64ZM66.92,982.5c-16.29,0-29.5-13.21-29.5-29.5s13.21-29.5,29.5-29.5,29.5,13.21,29.5,29.5-13.21,29.5-29.5,29.5ZM66.92,569.5c-16.29,0-29.5-13.21-29.5-29.5s13.21-29.5,29.5-29.5,29.5,13.21,29.5,29.5-13.21,29.5-29.5,29.5ZM66.92,156.5c-16.29,0-29.5-13.21-29.5-29.5s13.21-29.5,29.5-29.5,29.5,13.21,29.5,29.5-13.21,29.5-29.5,29.5ZM138.64,1067.99c0,.59-.48,1.06-1.06,1.06s-1.06-.48-1.06-1.06v-12c0-.59.48-1.06,1.06-1.06s1.06.48,1.06,1.06v12ZM138.64,1043.99c0,.59-.48,1.06-1.06,1.06s-1.06-.48-1.06-1.06v-12c0-.59.48-1.06,1.06-1.06s1.06.48,1.06,1.06v12ZM138.64,1019.99c0,.59-.48,1.06-1.06,1.06s-1.06-.48-1.06-1.06v-12c0-.59.48-1.06,1.06-1.06s1.06.48,1.06,1.06v12ZM138.64,995.99c0,.59-.48,1.06-1.06,1.06s-1.06-.48-1.06-1.06v-12c0-.59.48-1.06,1.06-1.06s1.06.48,1.06,1.06v12ZM138.64,971.99c0,.59-.48,1.06-1.06,1.06s-1.06-.48-1.06-1.06v-12c0-.59.48-1.06,1.06-1.06s1.06.48,1.06,1.06v12ZM138.64,947.99c0,.59-.48,1.06-1.06,1.06s-1.06-.48-1.06-1.06v-12c0-.59.48-1.06,1.06-1.06s1.06.48,1.06,1.06v12ZM138.64,923.99c0,.59-.48,1.06-1.06,1.06s-1.06-.48-1.06-1.06v-12c0-.59.48-1.06,1.06-1.06s1.06.48,1.06,1.06v12ZM138.64,899.99c0,.59-.48,1.06-1.06,1.06s-1.06-.48-1.06-1.06v-12c0-.59.48-1.06,1.06-1.06s1.06.48,1.06,1.06v12ZM138.64,875.99c0,.59-.48,1.06-1.06,1.06s-1.06-.48-1.06-1.06v-12c0-.59.48-1.06,1.06-1.06s1.06.48,1.06,1.06v12ZM138.64,851.99c0,.59-.48,1.06-1.06,1.06s-1.06-.48-1.06-1.06v-12c0-.59.48-1.06,1.06-1.06s1.06.48,1.06,1.06v12ZM138.64,827.99c0,.59-.48,1.06-1.06,1.06s-1.06-.48-1.06-1.06v-12c0-.59.48-1.06,1.06-1.06s1.06.48,1.06,1.06v12ZM138.64,803.99c0,.59-.48,1.06-1.06,1.06s-1.06-.48-1.06-1.06v-12c0-.59.48-1.06,1.06-1.06s1.06.48,1.06,1.06v12ZM138.64,779.99c0,.59-.48,1.06-1.06,1.06s-1.06-.48-1.06-1.06v-12c0-.59.48-1.06,1.06-1.06s1.06.48,1.06,1.06v12ZM138.64,755.99c0,.59-.48,1.06-1.06,1.06s-1.06-.48-1.06-1.06v-12c0-.59.48-1.06,1.06-1.06s1.06.48,1.06,1.06v12ZM138.64,731.99c0,.59-.48,1.06-1.06,1.06s-1.06-.48-1.06-1.06v-12c0-.59.48-1.06,1.06-1.06s1.06.48,1.06,1.06v12ZM138.64,707.99c0,.59-.48,1.06-1.06,1.06s-1.06-.48-1.06-1.06v-12c0-.59.48-1.06,1.06-1.06s1.06.48,1.06,1.06v12ZM138.64,683.99c0,.59-.48,1.06-1.06,1.06s-1.06-.48-1.06-1.06v-12c0-.59.48-1.06,1.06-1.06s1.06.48,1.06,1.06v12ZM138.64,659.99c0,.59-.48,1.06-1.06,1.06s-1.06-.48-1.06-1.06v-12c0-.59.48-1.06,1.06-1.06s1.06.48,1.06,1.06v12ZM138.64,635.99c0,.59-.48,1.06-1.06,1.06s-1.06-.48-1.06-1.06v-12c0-.59.48-1.06,1.06-1.06s1.06.48,1.06,1.06v12ZM138.64,611.99c0,.59-.48,1.06-1.06,1.06s-1.06-.48-1.06-1.06v-12c0-.59.48-1.06,1.06-1.06s1.06.48,1.06,1.06v12ZM138.64,588c0,.59-.48,1.06-1.06,1.06s-1.06-.48-1.06-1.06v-12c0-.59.48-1.06,1.06-1.06s1.06.48,1.06,1.06v12ZM138.64,564c0,.59-.48,1.06-1.06,1.06s-1.06-.48-1.06-1.06v-12c0-.59.48-1.06,1.06-1.06s1.06.48,1.06,1.06v12ZM138.64,540c0,.59-.48,1.06-1.06,1.06s-1.06-.48-1.06-1.06v-12c0-.59.48-1.06,1.06-1.06s1.06.48,1.06,1.06v12ZM138.64,516c0,.59-.48,1.06-1.06,1.06s-1.06-.48-1.06-1.06v-12c0-.59.48-1.06,1.06-1.06s1.06.48,1.06,1.06v12ZM138.64,492c0,.59-.48,1.06-1.06,1.06s-1.06-.48-1.06-1.06v-12c0-.59.48-1.06,1.06-1.06s1.06.48,1.06,1.06v12ZM138.64,468c0,.59-.48,1.06-1.06,1.06s-1.06-.48-1.06-1.06v-12c0-.59.48-1.06,1.06-1.06s1.06.48,1.06,1.06v12ZM138.64,444c0,.59-.48,1.06-1.06,1.06s-1.06-.48-1.06-1.06v-12c0-.59.48-1.06,1.06-1.06s1.06.48,1.06,1.06v12ZM138.64,420c0,.59-.48,1.06-1.06,1.06s-1.06-.48-1.06-1.06v-12c0-.59.48-1.06,1.06-1.06s1.06.48,1.06,1.06v12ZM138.64,396c0,.59-.48,1.06-1.06,1.06s-1.06-.48-1.06-1.06v-12c0-.59.48-1.06,1.06-1.06s1.06.48,1.06,1.06v12ZM138.64,372c0,.59-.48,1.06-1.06,1.06s-1.06-.48-1.06-1.06v-12c0-.59.48-1.06,1.06-1.06s1.06.48,1.06,1.06v12ZM138.64,348c0,.59-.48,1.06-1.06,1.06s-1.06-.48-1.06-1.06v-12c0-.59.48-1.06,1.06-1.06s1.06.48,1.06,1.06v12ZM138.64,324c0,.59-.48,1.06-1.06,1.06s-1.06-.48-1.06-1.06v-12c0-.59.48-1.06,1.06-1.06s1.06.48,1.06,1.06v12ZM138.64,300c0,.59-.48,1.06-1.06,1.06s-1.06-.48-1.06-1.06v-12c0-.59.48-1.06,1.06-1.06s1.06.48,1.06,1.06v12ZM138.64,276c0,.59-.48,1.06-1.06,1.06s-1.06-.48-1.06-1.06v-12c0-.59.48-1.06,1.06-1.06s1.06.48,1.06,1.06v12ZM138.64,252c0,.59-.48,1.06-1.06,1.06s-1.06-.48-1.06-1.06v-12c0-.59.48-1.06,1.06-1.06s1.06.48,1.06,1.06v12ZM138.64,228c0,.59-.48,1.06-1.06,1.06s-1.06-.48-1.06-1.06v-12c0-.59.48-1.06,1.06-1.06s1.06.48,1.06,1.06v12ZM138.64,204c0,.59-.48,1.06-1.06,1.06s-1.06-.48-1.06-1.06v-12c0-.59.48-1.06,1.06-1.06s1.06.48,1.06,1.06v12ZM138.64,180c0,.59-.48,1.06-1.06,1.06s-1.06-.48-1.06-1.06v-12c0-.59.48-1.06,1.06-1.06s1.06.48,1.06,1.06v12ZM138.64,156c0,.59-.48,1.06-1.06,1.06s-1.06-.48-1.06-1.06v-12c0-.59.48-1.06,1.06-1.06s1.06.48,1.06,1.06v12ZM138.64,132c0,.59-.48,1.06-1.06,1.06s-1.06-.48-1.06-1.06v-12c0-.59.48-1.06,1.06-1.06s1.06.48,1.06,1.06v12ZM138.64,108c0,.59-.48,1.06-1.06,1.06s-1.06-.48-1.06-1.06v-12c0-.59.48-1.06,1.06-1.06s1.06.48,1.06,1.06v12ZM138.64,84c0,.59-.48,1.06-1.06,1.06s-1.06-.48-1.06-1.06v-12c0-.59.48-1.06,1.06-1.06s1.06.48,1.06,1.06v12ZM138.64,60c0,.59-.48,1.06-1.06,1.06s-1.06-.48-1.06-1.06v-12c0-.59.48-1.06,1.06-1.06s1.06.48,1.06,1.06v12ZM138.64,36c0,.59-.48,1.06-1.06,1.06s-1.06-.48-1.06-1.06v-12c0-.59.48-1.06,1.06-1.06s1.06.48,1.06,1.06v12Z"/>
</svg>