<?xml version="1.0" encoding="UTF-8"?>
<svg id="Layer_1" xmlns="http://www.w3.org/2000/svg" version="1.1" viewBox="0 0 1080 1920">
  <!-- Generator: Adobe Illustrator 29.8.2, SVG Export Plug-In . SVG Version: 2.1.1 Build 3)  -->
  <defs>
    <style>
      .st0 {
        fill: #d8cbba;
      }
    </style>
  </defs>
  <path class="st0" d="M1080,178.24c-.39,0-.71-.32-.71-.71s.31-.71.7-.71h.01s0-176.82,0-176.82H0v176.82h12c.39,0,.71.32.71.71s-.32.71-.71.71H0v1741.76h1080V178.24h0ZM36,178.24h-12c-.39,0-.71-.32-.71-.71s.32-.71.71-.71h12c.39,0,.71.32.71.71s-.32.71-.71.71ZM60,178.24h-12c-.39,0-.71-.32-.71-.71s.32-.71.71-.71h12c.39,0,.71.32.71.71s-.32.71-.71.71ZM84,178.24h-12c-.39,0-.71-.32-.71-.71s.32-.71.71-.71h12c.39,0,.71.32.71.71s-.32.71-.71.71ZM73,61.64c-9.08,0-16.44-7.36-16.44-16.44s7.36-16.44,16.44-16.44,16.44,7.36,16.44,16.44-7.36,16.44-16.44,16.44ZM108,178.24h-12c-.39,0-.71-.32-.71-.71s.32-.71.71-.71h12c.39,0,.71.32.71.71s-.32.71-.71.71ZM132,178.24h-12c-.39,0-.71-.32-.71-.71s.32-.71.71-.71h12c.39,0,.71.32.71.71s-.32.71-.71.71ZM156,178.24h-12c-.39,0-.71-.32-.71-.71s.32-.71.71-.71h12c.39,0,.71.32.71.71s-.32.71-.71.71ZM180,178.24h-12c-.39,0-.71-.32-.71-.71s.32-.71.71-.71h12c.39,0,.71.32.71.71s-.32.71-.71.71ZM176.78,61.64c-9.08,0-16.44-7.36-16.44-16.44s7.36-16.44,16.44-16.44,16.44,7.36,16.44,16.44-7.36,16.44-16.44,16.44ZM204,178.24h-12c-.39,0-.71-.32-.71-.71s.32-.71.71-.71h12c.39,0,.71.32.71.71s-.32.71-.71.71ZM228,178.24h-12c-.39,0-.71-.32-.71-.71s.32-.71.71-.71h12c.39,0,.71.32.71.71s-.32.71-.71.71ZM252,178.24h-12c-.39,0-.71-.32-.71-.71s.32-.71.71-.71h12c.39,0,.71.32.71.71s-.32.71-.71.71ZM276,178.24h-12c-.39,0-.71-.32-.71-.71s.32-.71.71-.71h12c.39,0,.71.32.71.71s-.32.71-.71.71ZM264.11,45.19c0-9.08,7.36-16.44,16.44-16.44s16.44,7.36,16.44,16.44-7.36,16.44-16.44,16.44-16.44-7.36-16.44-16.44ZM300,178.24h-12c-.39,0-.71-.32-.71-.71s.32-.71.71-.71h12c.39,0,.71.32.71.71s-.32.71-.71.71ZM324,178.24h-12c-.39,0-.71-.32-.71-.71s.32-.71.71-.71h12c.39,0,.71.32.71.71s-.32.71-.71.71ZM348,178.24h-12c-.39,0-.71-.32-.71-.71s.32-.71.71-.71h12c.39,0,.71.32.71.71s-.32.71-.71.71ZM372,178.24h-12c-.39,0-.71-.32-.71-.71s.32-.71.71-.71h12c.39,0,.71.32.71.71s-.32.71-.71.71ZM396,178.24h-12c-.39,0-.71-.32-.71-.71s.32-.71.71-.71h12c.39,0,.71.32.71.71s-.32.71-.71.71ZM384.33,61.64c-9.08,0-16.44-7.36-16.44-16.44s7.36-16.44,16.44-16.44,16.44,7.36,16.44,16.44-7.36,16.44-16.44,16.44ZM420,178.24h-12c-.39,0-.71-.32-.71-.71s.32-.71.71-.71h12c.39,0,.71.32.71.71s-.32.71-.71.71ZM444,178.24h-12c-.39,0-.71-.32-.71-.71s.32-.71.71-.71h12c.39,0,.71.32.71.71s-.32.71-.71.71ZM468,178.24h-12c-.39,0-.71-.32-.71-.71s.32-.71.71-.71h12c.39,0,.71.32.71.71s-.32.71-.71.71ZM492,178.24h-12c-.39,0-.71-.32-.71-.71s.32-.71.71-.71h12c.39,0,.71.32.71.71s-.32.71-.71.71ZM488.11,61.64c-9.08,0-16.44-7.36-16.44-16.44s7.36-16.44,16.44-16.44,16.44,7.36,16.44,16.44-7.36,16.44-16.44,16.44ZM516,178.24h-12c-.39,0-.71-.32-.71-.71s.32-.71.71-.71h12c.39,0,.71.32.71.71s-.32.71-.71.71ZM540,178.24h-12c-.39,0-.71-.32-.71-.71s.32-.71.71-.71h12c.39,0,.71.32.71.71s-.32.71-.71.71ZM563.99,178.24h-12c-.39,0-.71-.32-.71-.71s.32-.71.71-.71h12c.39,0,.71.32.71.71s-.32.71-.71.71ZM587.99,178.24h-12c-.39,0-.71-.32-.71-.71s.32-.71.71-.71h12c.39,0,.71.32.71.71s-.32.71-.71.71ZM575.44,45.19c0-9.08,7.36-16.44,16.44-16.44s16.44,7.36,16.44,16.44-7.36,16.44-16.44,16.44-16.44-7.36-16.44-16.44ZM611.99,178.24h-12c-.39,0-.71-.32-.71-.71s.32-.71.71-.71h12c.39,0,.71.32.71.71s-.32.71-.71.71ZM635.99,178.24h-12c-.39,0-.71-.32-.71-.71s.32-.71.71-.71h12c.39,0,.71.32.71.71s-.32.71-.71.71ZM659.99,178.24h-12c-.39,0-.71-.32-.71-.71s.32-.71.71-.71h12c.39,0,.71.32.71.71s-.32.71-.71.71ZM683.99,178.24h-12c-.39,0-.71-.32-.71-.71s.32-.71.71-.71h12c.39,0,.71.32.71.71s-.32.71-.71.71ZM707.99,178.24h-12c-.39,0-.71-.32-.71-.71s.32-.71.71-.71h12c.39,0,.71.32.71.71s-.32.71-.71.71ZM695.67,61.64c-9.08,0-16.44-7.36-16.44-16.44s7.36-16.44,16.44-16.44,16.44,7.36,16.44,16.44-7.36,16.44-16.44,16.44ZM731.99,178.24h-12c-.39,0-.71-.32-.71-.71s.32-.71.71-.71h12c.39,0,.71.32.71.71s-.32.71-.71.71ZM755.99,178.24h-12c-.39,0-.71-.32-.71-.71s.32-.71.71-.71h12c.39,0,.71.32.71.71s-.32.71-.71.71ZM779.99,178.24h-12c-.39,0-.71-.32-.71-.71s.32-.71.71-.71h12c.39,0,.71.32.71.71s-.32.71-.71.71ZM803.99,178.24h-12c-.39,0-.71-.32-.71-.71s.32-.71.71-.71h12c.39,0,.71.32.71.71s-.32.71-.71.71ZM799.44,61.64c-9.08,0-16.44-7.36-16.44-16.44s7.36-16.44,16.44-16.44,16.44,7.36,16.44,16.44-7.36,16.44-16.44,16.44ZM827.99,178.24h-12c-.39,0-.71-.32-.71-.71s.32-.71.71-.71h12c.39,0,.71.32.71.71s-.32.71-.71.71ZM851.99,178.24h-12c-.39,0-.71-.32-.71-.71s.32-.71.71-.71h12c.39,0,.71.32.71.71s-.32.71-.71.71ZM875.99,178.24h-12c-.39,0-.71-.32-.71-.71s.32-.71.71-.71h12c.39,0,.71.32.71.71s-.32.71-.71.71ZM899.99,178.24h-12c-.39,0-.71-.32-.71-.71s.32-.71.71-.71h12c.39,0,.71.32.71.71s-.32.71-.71.71ZM886.78,45.19c0-9.08,7.36-16.44,16.44-16.44s16.44,7.36,16.44,16.44-7.36,16.44-16.44,16.44-16.44-7.36-16.44-16.44ZM923.99,178.24h-12c-.39,0-.71-.32-.71-.71s.32-.71.71-.71h12c.39,0,.71.32.71.71s-.32.71-.71.71ZM947.99,178.24h-12c-.39,0-.71-.32-.71-.71s.32-.71.71-.71h12c.39,0,.71.32.71.71s-.32.71-.71.71ZM971.99,178.24h-12c-.39,0-.71-.32-.71-.71s.32-.71.71-.71h12c.39,0,.71.32.71.71s-.32.71-.71.71ZM995.99,178.24h-12c-.39,0-.71-.32-.71-.71s.32-.71.71-.71h12c.39,0,.71.32.71.71s-.32.71-.71.71ZM1019.99,178.24h-12c-.39,0-.71-.32-.71-.71s.32-.71.71-.71h12c.39,0,.71.32.71.71s-.32.71-.71.71ZM1007,61.64c-9.08,0-16.44-7.36-16.44-16.44s7.36-16.44,16.44-16.44,16.44,7.36,16.44,16.44-7.36,16.44-16.44,16.44ZM1043.99,178.24h-12c-.39,0-.71-.32-.71-.71s.32-.71.71-.71h12c.39,0,.71.32.71.71s-.32.71-.71.71ZM1067.99,178.24h-12c-.39,0-.71-.32-.71-.71s.32-.71.71-.71h12c.39,0,.71.32.71.71s-.32.71-.71.71Z"/>
</svg>