<?xml version="1.0" encoding="UTF-8"?>
<svg id="Layer_1" xmlns="http://www.w3.org/2000/svg" version="1.1" viewBox="0 0 2561.53 1080">
  <!-- Generator: Adobe Illustrator 29.8.2, SVG Export Plug-In . SVG Version: 2.1.1 Build 3)  -->
  <defs>
    <style>
      .st0 {
        fill: #d8cbba;
      }
    </style>
  </defs>
  <path class="st0" d="M164.61,0v12c0,.39-.32.71-.71.71s-.71-.32-.71-.71V0H0v1080h163.19c0-.39.32-.71.71-.71s.71.31.71.7h0s2396.92,0,2396.92,0V0H164.61ZM83.9,977.76c-17.3,0-31.33-14.03-31.33-31.33s14.03-31.33,31.33-31.33,31.33,14.03,31.33,31.33-14.03,31.33-31.33,31.33ZM83.9,571.33c-17.3,0-31.33-14.03-31.33-31.33s14.03-31.33,31.33-31.33,31.33,14.03,31.33,31.33-14.03,31.33-31.33,31.33ZM83.9,164.9c-17.3,0-31.33-14.03-31.33-31.33s14.03-31.33,31.33-31.33,31.33,14.03,31.33,31.33-14.03,31.33-31.33,31.33ZM164.61,1067.99c0,.39-.32.71-.71.71s-.71-.32-.71-.71v-12c0-.39.32-.71.71-.71s.71.32.71.71v12ZM164.61,1043.99c0,.39-.32.71-.71.71s-.71-.32-.71-.71v-12c0-.39.32-.71.71-.71s.71.32.71.71v12ZM164.61,1019.99c0,.39-.32.71-.71.71s-.71-.32-.71-.71v-12c0-.39.32-.71.71-.71s.71.32.71.71v12ZM164.61,995.99c0,.39-.32.71-.71.71s-.71-.32-.71-.71v-12c0-.39.32-.71.71-.71s.71.32.71.71v12ZM164.61,971.99c0,.39-.32.71-.71.71s-.71-.32-.71-.71v-12c0-.39.32-.71.71-.71s.71.32.71.71v12ZM164.61,947.99c0,.39-.32.71-.71.71s-.71-.32-.71-.71v-12c0-.39.32-.71.71-.71s.71.32.71.71v12ZM164.61,923.99c0,.39-.32.71-.71.71s-.71-.32-.71-.71v-12c0-.39.32-.71.71-.71s.71.32.71.71v12ZM164.61,899.99c0,.39-.32.71-.71.71s-.71-.32-.71-.71v-12c0-.39.32-.71.71-.71s.71.32.71.71v12ZM164.61,875.99c0,.39-.32.71-.71.71s-.71-.32-.71-.71v-12c0-.39.32-.71.71-.71s.71.32.71.71v12ZM164.61,851.99c0,.39-.32.71-.71.71s-.71-.32-.71-.71v-12c0-.39.32-.71.71-.71s.71.32.71.71v12ZM164.61,827.99c0,.39-.32.71-.71.71s-.71-.32-.71-.71v-12c0-.39.32-.71.71-.71s.71.32.71.71v12ZM164.61,803.99c0,.39-.32.71-.71.71s-.71-.32-.71-.71v-12c0-.39.32-.71.71-.71s.71.32.71.71v12ZM164.61,779.99c0,.39-.32.71-.71.71s-.71-.32-.71-.71v-12c0-.39.32-.71.71-.71s.71.32.71.71v12ZM164.61,755.99c0,.39-.32.71-.71.71s-.71-.32-.71-.71v-12c0-.39.32-.71.71-.71s.71.32.71.71v12ZM164.61,731.99c0,.39-.32.71-.71.71s-.71-.32-.71-.71v-12c0-.39.32-.71.71-.71s.71.32.71.71v12ZM164.61,707.99c0,.39-.32.71-.71.71s-.71-.32-.71-.71v-12c0-.39.32-.71.71-.71s.71.32.71.71v12ZM164.61,683.99c0,.39-.32.71-.71.71s-.71-.32-.71-.71v-12c0-.39.32-.71.71-.71s.71.32.71.71v12ZM164.61,659.99c0,.39-.32.71-.71.71s-.71-.32-.71-.71v-12c0-.39.32-.71.71-.71s.71.32.71.71v12ZM164.61,636c0,.39-.32.71-.71.71s-.71-.32-.71-.71v-12c0-.39.32-.71.71-.71s.71.32.71.71v12ZM164.61,612c0,.39-.32.71-.71.71s-.71-.32-.71-.71v-12c0-.39.32-.71.71-.71s.71.32.71.71v12ZM164.61,588c0,.39-.32.71-.71.71s-.71-.32-.71-.71v-12c0-.39.32-.71.71-.71s.71.32.71.71v12ZM164.61,564c0,.39-.32.71-.71.71s-.71-.32-.71-.71v-12c0-.39.32-.71.71-.71s.71.32.71.71v12ZM164.61,540c0,.39-.32.71-.71.71s-.71-.32-.71-.71v-12c0-.39.32-.71.71-.71s.71.32.71.71v12ZM164.61,516c0,.39-.32.71-.71.71s-.71-.32-.71-.71v-12c0-.39.32-.71.71-.71s.71.32.71.71v12ZM164.61,492c0,.39-.32.71-.71.71s-.71-.32-.71-.71v-12c0-.39.32-.71.71-.71s.71.32.71.71v12ZM164.61,468c0,.39-.32.71-.71.71s-.71-.32-.71-.71v-12c0-.39.32-.71.71-.71s.71.32.71.71v12ZM164.61,444c0,.39-.32.71-.71.71s-.71-.32-.71-.71v-12c0-.39.32-.71.71-.71s.71.32.71.71v12ZM164.61,420c0,.39-.32.71-.71.71s-.71-.32-.71-.71v-12c0-.39.32-.71.71-.71s.71.32.71.71v12ZM164.61,396c0,.39-.32.71-.71.71s-.71-.32-.71-.71v-12c0-.39.32-.71.71-.71s.71.32.71.71v12ZM164.61,372c0,.39-.32.71-.71.71s-.71-.32-.71-.71v-12c0-.39.32-.71.71-.71s.71.32.71.71v12ZM164.61,348c0,.39-.32.71-.71.71s-.71-.32-.71-.71v-12c0-.39.32-.71.71-.71s.71.32.71.71v12ZM164.61,324c0,.39-.32.71-.71.71s-.71-.32-.71-.71v-12c0-.39.32-.71.71-.71s.71.32.71.71v12ZM164.61,300c0,.39-.32.71-.71.71s-.71-.32-.71-.71v-12c0-.39.32-.71.71-.71s.71.32.71.71v12ZM164.61,276c0,.39-.32.71-.71.71s-.71-.32-.71-.71v-12c0-.39.32-.71.71-.71s.71.32.71.71v12ZM164.61,252c0,.39-.32.71-.71.71s-.71-.32-.71-.71v-12c0-.39.32-.71.71-.71s.71.32.71.71v12ZM164.61,228c0,.39-.32.71-.71.71s-.71-.32-.71-.71v-12c0-.39.32-.71.71-.71s.71.32.71.71v12ZM164.61,204c0,.39-.32.71-.71.71s-.71-.32-.71-.71v-12c0-.39.32-.71.71-.71s.71.32.71.71v12ZM164.61,180c0,.39-.32.71-.71.71s-.71-.32-.71-.71v-12c0-.39.32-.71.71-.71s.71.32.71.71v12ZM164.61,156c0,.39-.32.71-.71.71s-.71-.32-.71-.71v-12c0-.39.32-.71.71-.71s.71.32.71.71v12ZM164.61,132c0,.39-.32.71-.71.71s-.71-.32-.71-.71v-12c0-.39.32-.71.71-.71s.71.32.71.71v12ZM164.61,108c0,.39-.32.71-.71.71s-.71-.32-.71-.71v-12c0-.39.32-.71.71-.71s.71.32.71.71v12ZM164.61,84c0,.39-.32.71-.71.71s-.71-.32-.71-.71v-12c0-.39.32-.71.71-.71s.71.32.71.71v12ZM164.61,60c0,.39-.32.71-.71.71s-.71-.32-.71-.71v-12c0-.39.32-.71.71-.71s.71.32.71.71v12ZM164.61,36c0,.39-.32.71-.71.71s-.71-.32-.71-.71v-12c0-.39.32-.71.71-.71s.71.32.71.71v12Z"/>
</svg>