<?xml version="1.0" encoding="UTF-8"?>
<svg id="Layer_1" xmlns="http://www.w3.org/2000/svg" version="1.1" viewBox="0 0 1920 1080">
  <!-- Generator: Adobe Illustrator 29.8.2, SVG Export Plug-In . SVG Version: 2.1.1 Build 3)  -->
  <defs>
    <style>
      .st0 {
        fill: #d8cbba;
      }
    </style>
  </defs>
  <path class="st0" d="M111.68,0v12c0,.39-.32.71-.71.71s-.71-.32-.71-.71V0H0v1080h110.26c0-.39.32-.71.71-.71s.71.31.71.7h0s1808.32,0,1808.32,0V0H111.68ZM52.92,1040.83c-12.89,0-23.33-10.45-23.33-23.33s10.45-23.33,23.33-23.33,23.33,10.45,23.33,23.33-10.45,23.33-23.33,23.33ZM52.92,954.02c-12.89,0-23.33-10.45-23.33-23.33s10.45-23.33,23.33-23.33,23.33,10.45,23.33,23.33-10.45,23.33-23.33,23.33ZM52.92,867.2c-12.89,0-23.33-10.45-23.33-23.33s10.45-23.33,23.33-23.33,23.33,10.45,23.33,23.33-10.45,23.33-23.33,23.33ZM52.92,780.38c-12.89,0-23.33-10.45-23.33-23.33s10.45-23.33,23.33-23.33,23.33,10.45,23.33,23.33-10.45,23.33-23.33,23.33ZM52.92,693.56c-12.89,0-23.33-10.45-23.33-23.33s10.45-23.33,23.33-23.33,23.33,10.45,23.33,23.33-10.45,23.33-23.33,23.33ZM52.92,606.74c-12.89,0-23.33-10.45-23.33-23.33s10.45-23.33,23.33-23.33,23.33,10.45,23.33,23.33-10.45,23.33-23.33,23.33ZM52.92,519.92c-12.89,0-23.33-10.45-23.33-23.33s10.45-23.33,23.33-23.33,23.33,10.45,23.33,23.33-10.45,23.33-23.33,23.33ZM52.92,433.11c-12.89,0-23.33-10.45-23.33-23.33s10.45-23.33,23.33-23.33,23.33,10.45,23.33,23.33-10.45,23.33-23.33,23.33ZM52.92,346.29c-12.89,0-23.33-10.45-23.33-23.33s10.45-23.33,23.33-23.33,23.33,10.45,23.33,23.33-10.45,23.33-23.33,23.33ZM52.92,259.47c-12.89,0-23.33-10.45-23.33-23.33s10.45-23.33,23.33-23.33,23.33,10.45,23.33,23.33-10.45,23.33-23.33,23.33ZM52.92,172.65c-12.89,0-23.33-10.45-23.33-23.33s10.45-23.33,23.33-23.33,23.33,10.45,23.33,23.33-10.45,23.33-23.33,23.33ZM52.92,85.83c-12.89,0-23.33-10.45-23.33-23.33s10.45-23.33,23.33-23.33,23.33,10.45,23.33,23.33-10.45,23.33-23.33,23.33ZM111.68,1067.99c0,.39-.32.71-.71.71s-.71-.32-.71-.71v-12c0-.39.32-.71.71-.71s.71.32.71.71v12ZM111.68,1043.99c0,.39-.32.71-.71.71s-.71-.32-.71-.71v-12c0-.39.32-.71.71-.71s.71.32.71.71v12ZM111.68,1019.99c0,.39-.32.71-.71.71s-.71-.32-.71-.71v-12c0-.39.32-.71.71-.71s.71.32.71.71v12ZM111.68,995.99c0,.39-.32.71-.71.71s-.71-.32-.71-.71v-12c0-.39.32-.71.71-.71s.71.32.71.71v12ZM111.68,971.99c0,.39-.32.71-.71.71s-.71-.32-.71-.71v-12c0-.39.32-.71.71-.71s.71.32.71.71v12ZM111.68,947.99c0,.39-.32.71-.71.71s-.71-.32-.71-.71v-12c0-.39.32-.71.71-.71s.71.32.71.71v12ZM111.68,923.99c0,.39-.32.71-.71.71s-.71-.32-.71-.71v-12c0-.39.32-.71.71-.71s.71.32.71.71v12ZM111.68,899.99c0,.39-.32.71-.71.71s-.71-.32-.71-.71v-12c0-.39.32-.71.71-.71s.71.32.71.71v12ZM111.68,875.99c0,.39-.32.71-.71.71s-.71-.32-.71-.71v-12c0-.39.32-.71.71-.71s.71.32.71.71v12ZM111.68,851.99c0,.39-.32.71-.71.71s-.71-.32-.71-.71v-12c0-.39.32-.71.71-.71s.71.32.71.71v12ZM111.68,827.99c0,.39-.32.71-.71.71s-.71-.32-.71-.71v-12c0-.39.32-.71.71-.71s.71.32.71.71v12ZM111.68,803.99c0,.39-.32.71-.71.71s-.71-.32-.71-.71v-12c0-.39.32-.71.71-.71s.71.32.71.71v12ZM111.68,779.99c0,.39-.32.71-.71.71s-.71-.32-.71-.71v-12c0-.39.32-.71.71-.71s.71.32.71.71v12ZM111.68,755.99c0,.39-.32.71-.71.71s-.71-.32-.71-.71v-12c0-.39.32-.71.71-.71s.71.32.71.71v12ZM111.68,731.99c0,.39-.32.71-.71.71s-.71-.32-.71-.71v-12c0-.39.32-.71.71-.71s.71.32.71.71v12ZM111.68,707.99c0,.39-.32.71-.71.71s-.71-.32-.71-.71v-12c0-.39.32-.71.71-.71s.71.32.71.71v12ZM111.68,683.99c0,.39-.32.71-.71.71s-.71-.32-.71-.71v-12c0-.39.32-.71.71-.71s.71.32.71.71v12ZM111.68,659.99c0,.39-.32.71-.71.71s-.71-.32-.71-.71v-12c0-.39.32-.71.71-.71s.71.32.71.71v12ZM111.68,636c0,.39-.32.71-.71.71s-.71-.32-.71-.71v-12c0-.39.32-.71.71-.71s.71.32.71.71v12ZM111.68,612c0,.39-.32.71-.71.71s-.71-.32-.71-.71v-12c0-.39.32-.71.71-.71s.71.32.71.71v12ZM111.68,588c0,.39-.32.71-.71.71s-.71-.32-.71-.71v-12c0-.39.32-.71.71-.71s.71.32.71.71v12ZM111.68,564c0,.39-.32.71-.71.71s-.71-.32-.71-.71v-12c0-.39.32-.71.71-.71s.71.32.71.71v12ZM111.68,540c0,.39-.32.71-.71.71s-.71-.32-.71-.71v-12c0-.39.32-.71.71-.71s.71.32.71.71v12ZM111.68,516c0,.39-.32.71-.71.71s-.71-.32-.71-.71v-12c0-.39.32-.71.71-.71s.71.32.71.71v12ZM111.68,492c0,.39-.32.71-.71.71s-.71-.32-.71-.71v-12c0-.39.32-.71.71-.71s.71.32.71.71v12ZM111.68,468c0,.39-.32.71-.71.71s-.71-.32-.71-.71v-12c0-.39.32-.71.71-.71s.71.32.71.71v12ZM111.68,444c0,.39-.32.71-.71.71s-.71-.32-.71-.71v-12c0-.39.32-.71.71-.71s.71.32.71.71v12ZM111.68,420c0,.39-.32.71-.71.71s-.71-.32-.71-.71v-12c0-.39.32-.71.71-.71s.71.32.71.71v12ZM111.68,396c0,.39-.32.71-.71.71s-.71-.32-.71-.71v-12c0-.39.32-.71.71-.71s.71.32.71.71v12ZM111.68,372c0,.39-.32.71-.71.71s-.71-.32-.71-.71v-12c0-.39.32-.71.71-.71s.71.32.71.71v12ZM111.68,348c0,.39-.32.71-.71.71s-.71-.32-.71-.71v-12c0-.39.32-.71.71-.71s.71.32.71.71v12ZM111.68,324c0,.39-.32.71-.71.71s-.71-.32-.71-.71v-12c0-.39.32-.71.71-.71s.71.32.71.71v12ZM111.68,300c0,.39-.32.71-.71.71s-.71-.32-.71-.71v-12c0-.39.32-.71.71-.71s.71.32.71.71v12ZM111.68,276c0,.39-.32.71-.71.71s-.71-.32-.71-.71v-12c0-.39.32-.71.71-.71s.71.32.71.71v12ZM111.68,252c0,.39-.32.71-.71.71s-.71-.32-.71-.71v-12c0-.39.32-.71.71-.71s.71.32.71.71v12ZM111.68,228c0,.39-.32.71-.71.71s-.71-.32-.71-.71v-12c0-.39.32-.71.71-.71s.71.32.71.71v12ZM111.68,204c0,.39-.32.71-.71.71s-.71-.32-.71-.71v-12c0-.39.32-.71.71-.71s.71.32.71.71v12ZM111.68,180c0,.39-.32.71-.71.71s-.71-.32-.71-.71v-12c0-.39.32-.71.71-.71s.71.32.71.71v12ZM111.68,156c0,.39-.32.71-.71.71s-.71-.32-.71-.71v-12c0-.39.32-.71.71-.71s.71.32.71.71v12ZM111.68,132c0,.39-.32.71-.71.71s-.71-.32-.71-.71v-12c0-.39.32-.71.71-.71s.71.32.71.71v12ZM111.68,108c0,.39-.32.71-.71.71s-.71-.32-.71-.71v-12c0-.39.32-.71.71-.71s.71.32.71.71v12ZM111.68,84c0,.39-.32.71-.71.71s-.71-.32-.71-.71v-12c0-.39.32-.71.71-.71s.71.32.71.71v12ZM111.68,60c0,.39-.32.71-.71.71s-.71-.32-.71-.71v-12c0-.39.32-.71.71-.71s.71.32.71.71v12ZM111.68,36c0,.39-.32.71-.71.71s-.71-.32-.71-.71v-12c0-.39.32-.71.71-.71s.71.32.71.71v12Z"/>
</svg>