<?xml version="1.0" encoding="UTF-8"?>
<svg id="Layer_1" xmlns="http://www.w3.org/2000/svg" version="1.1" viewBox="0 0 1200 800">
  <!-- Generator: Adobe Illustrator 29.8.2, SVG Export Plug-In . SVG Version: 2.1.1 Build 3)  -->
  <defs>
    <style>
      .st0 {
        fill: #d8cbba;
      }
    </style>
  </defs>
  <polygon class="st0" points="0 0 0 30.75 35.14 30.75 35.14 61.75 0 61.75 0 94.98 35.14 94.98 35.14 125.98 0 125.98 0 159.2 35.14 159.2 35.14 190.2 0 190.2 0 223.43 35.14 223.43 35.14 254.43 0 254.43 0 287.66 35.14 287.66 35.14 318.66 0 318.66 0 351.89 35.14 351.89 35.14 382.89 0 382.89 0 416.11 35.14 416.11 35.14 447.11 0 447.11 0 480.34 35.14 480.34 35.14 511.34 0 511.34 0 544.57 35.14 544.57 35.14 575.57 0 575.57 0 608.8 35.14 608.8 35.14 639.8 0 639.8 0 673.02 35.14 673.02 35.14 704.02 0 704.02 0 737.25 35.14 737.25 35.14 768.25 0 768.25 0 800 1200 800 1200 0 0 0"/>
</svg>