<?xml version="1.0" encoding="UTF-8"?>
<svg id="Layer_1" xmlns="http://www.w3.org/2000/svg" version="1.1" viewBox="0 0 327 196.56">
  <!-- Generator: Adobe Illustrator 29.8.2, SVG Export Plug-In . SVG Version: 2.1.1 Build 3)  -->
  <defs>
    <style>
      .st0 {
        fill: #f2f2f2;
      }

      .st1 {
        fill: #0d0d0d;
      }
    </style>
  </defs>
  <polygon class="st1" points="0 0 0 196.56 327 0 0 0"/>
  <g>
    <path class="st0" d="M21.51,13.17c.79,0,1.64-.03,2.55-.08.91-.06,1.64.14,2.21.59.62.45.95,1.05.98,1.79.03.74.01,1.39-.04,1.96l-.09,1.1c-.11,1.59-.13,3.09-.04,4.51.08,1.42.13,2.52.13,3.32,0,1.08-.03,2.01-.09,2.81-.06.79.03,1.5.26,2.13.23.57.62.85,1.19.85.45,0,.88-.14,1.28-.42.4-.28.68-.54.85-.77l2.3-3.06c.28-.34.57-.68.85-1.02.28-.34.57-.68.85-1.02.51-.62.96-1.3,1.36-2.04.4-.74.85-1.42,1.36-2.04l1.96-2.55c.68-.85,1.15-1.49,1.4-1.91.25-.42.58-.95.98-1.57l.77-1.1c.11-.23.33-.45.64-.68.31-.23.55-.4.72-.51.34-.17.68-.25,1.02-.25h2.38c.45,0,.91.03,1.36.08.45.06.91.08,1.36.08h2.85c.31,0,.61-.03.89-.08.28-.06.57-.08.85-.08h.85c.85,0,1.47.14,1.87.42.34.23.51.59.51,1.11,0,.62-.1,1.11-.3,1.45-.2.34-.38.59-.55.76-.28.28-.48.57-.6.85-.11.28-.4.65-.85,1.11-.28.28-.54.52-.77.72-.23.2-.43.44-.6.72l-2.55,3.74c-.23.34-.54.78-.94,1.32-.4.54-.79,1.06-1.19,1.57-.4.51-.77.96-1.1,1.36-.34.4-.6.68-.77.85-.11.11-.21.23-.3.34-.08.11-.24.31-.47.6l-1.45,2.12c-.57.85-1.19,1.7-1.87,2.55s-1.16,1.59-1.45,2.21c-.11.17-.23.51-.34,1.02-.11.51-.17.88-.17,1.11,0,.62.04,1.11.13,1.45s.18.62.3.85c.11.28.2.5.25.64.06.14.2.44.43.89.45.85.91,1.71,1.36,2.59.45.88.91,1.74,1.36,2.59.28.51.55,1.01.81,1.49.25.48.52.98.81,1.49.11.28.24.55.38.81.14.25.3.52.47.81.11.11.18.23.21.34.03.11.1.23.21.34.23.4.38.71.47.94.08.23.18.48.3.76.51,1.25.82,2.03.94,2.34.11.31.23.55.34.72l2.47,4c.17.28.41.71.72,1.27.31.57.62,1.18.94,1.83.31.65.61,1.29.89,1.91.28.62.45,1.11.51,1.45,0,.11.01.23.04.34.03.11.01.23-.04.34-.11.34-.28.59-.51.76-.28.28-.6.42-.94.42h-6.12c-.62,0-1.04-.01-1.23-.04-.2-.03-.4-.06-.6-.08-.2-.03-.48-.04-.85-.04h-2.93c-.4,0-.79-.11-1.19-.34-.45-.28-.82-.76-1.11-1.45-.17-.4-.33-.84-.47-1.32-.14-.48-.35-.98-.64-1.49l-1.11-2.38c-.57-1.25-1.03-2.25-1.4-3.02-.37-.77-.68-1.39-.94-1.87-.26-.48-.45-.83-.6-1.06-.14-.23-.27-.42-.38-.59-.23-.28-.42-.54-.59-.77-.17-.23-.31-.48-.43-.76-.11-.28-.18-.43-.21-.43-.03,0-.1-.06-.21-.17-.17-.17-.3-.41-.38-.72-.08-.31-.35-.86-.81-1.66l-.77-1.45c-.23-.45-.47-.76-.72-.93-.26-.17-.44-.28-.55-.34-.11-.06-.18-.09-.21-.09s-.1-.03-.21-.08c-.11-.11-.23-.17-.34-.17h-.34c-.17,0-.38.03-.64.08-.25.06-.52.31-.81.77-.28.45-.44.84-.47,1.15-.03.31-.04.53-.04.64l-.08,2.55c0,.51-.03.91-.08,1.19-.06.28-.11.58-.17.89-.06.31-.08.61-.08.89s.01.52.04.72c.03.2.04.44.04.72.06.62.07,1.25.04,1.87-.03.62-.01,1.25.04,1.87l.17,4.08c.06.51-.06,1.1-.34,1.79-.28.68-.74,1.25-1.36,1.7-.11.06-.28.13-.51.21-.23.08-.51.1-.85.04l-2.81.08-1.62.08h-.55c-.08,0-.18-.01-.3-.04-.11-.03-.27-.06-.47-.08-.2-.03-.55-.04-1.06-.04h-.42c-.45,0-.96.01-1.53.04-.57.03-1.05-.21-1.45-.72-.34-.45-.51-.91-.51-1.36v-.55c0-.2.03-.38.08-.55.06-.45.08-.86.08-1.23v-1.23l-.08-10.54c0-2.49.06-4.75.17-6.76.11-2.01.2-3.67.25-4.97v-2.64c-.06-2.1-.11-3.67-.17-4.72-.06-1.05-.08-2.05-.08-3.02v-5.53c0-.45.03-.79.08-1.02.06-.23.08-.45.08-.68,0-.34-.01-.58-.04-.72-.03-.14-.04-.27-.04-.38s-.01-.27-.04-.47c-.03-.2-.04-.52-.04-.98v-6.04c0-.4.04-.81.13-1.23.08-.43.3-.81.64-1.15.4-.4.79-.61,1.19-.64.4-.03.82-.04,1.28-.04l4.76-.08Z"/>
    <path class="st0" d="M83.81,13.26c.57,0,.99.01,1.28.04.28.03.71.04,1.28.04.34,0,.69-.01,1.06-.04.37-.03.72-.04,1.06-.04.45,0,1.13.07,2.04.21.91.14,1.59.44,2.04.89.28.28.57.69.85,1.23.28.54.51,1.04.68,1.49.17.46.31.96.42,1.53.11.57.31,1.25.6,2.04l.77,2.64c.28.79.51,1.54.68,2.25.17.71.37,1.63.6,2.76.06.62.14,1.12.25,1.49.11.37.34,1.04.68,2,.28.79.5,1.43.64,1.91.14.48.24.92.3,1.32.06.4.1.75.13,1.06.03.31.07.67.13,1.06.4,2.32.77,4.2,1.11,5.61.34,1.42.59,2.55.77,3.4l1.27,6.04c.11.46.24.91.38,1.36.14.46.27.91.38,1.36.11.34.17.68.17,1.02s.06.68.17,1.02l1.62,7.14c.11.62.26,1.33.43,2.12.17.79.11,1.59-.17,2.38-.17.45-.38.78-.64.98-.26.2-.5.36-.72.47-.4.17-.84.25-1.32.25s-1.26.03-2.34.08l-1.62.08h-1.96c-.45,0-.89-.01-1.32-.04-.43-.03-.75-.07-.98-.13-.45-.11-.78-.23-.98-.34-.2-.11-.38-.28-.55-.51-.4-.45-.62-.79-.68-1.02-.06-.23-.14-.51-.25-.85l-1.53-4.42c-.17-.51-.35-.86-.55-1.06-.2-.2-.38-.33-.55-.38-.11-.06-.34-.1-.68-.13-.34-.03-.69-.07-1.06-.13-.37-.06-.72-.1-1.06-.13-.34-.03-.54-.04-.6-.04h-2.21c-.57,0-1.19.01-1.87.04-.68.03-1.36.07-2.04.13-.68.06-1.33.13-1.96.21-.62.08-1.13.18-1.53.3-.51.17-.98.41-1.4.72-.42.31-.78.75-1.06,1.32-.28.45-.5,1.01-.64,1.66-.14.65-.35,1.54-.64,2.68-.06.17-.13.44-.21.81-.08.37-.27.67-.55.89-.11.11-.27.18-.47.21-.2.03-.35.04-.47.04-.28,0-.58-.01-.89-.04-.31-.03-.61-.04-.89-.04-1.08-.11-2.14-.11-3.19,0-1.05.11-2.11.11-3.19,0-.68-.06-1.22-.11-1.62-.17-.4-.06-.79-.31-1.19-.76-.17-.23-.34-.51-.51-.85-.17-.34-.25-.65-.25-.94,0-.11.04-.47.13-1.06s.16-.95.21-1.06c.06-.17.1-.33.13-.47.03-.14.07-.3.13-.47.11-.45.17-.91.17-1.36s.06-.91.17-1.36l.43-2.04c.28-1.3.47-2.3.55-2.98.08-.68.18-1.33.3-1.96.23-1.53.47-2.65.72-3.36.26-.71.5-1.46.72-2.25.06-.34.11-.61.17-.81.06-.2.1-.44.13-.72.03-.28.08-.64.17-1.06s.21-1.03.38-1.83c.06-.28.16-.81.3-1.57.14-.76.27-1.29.38-1.57.4-1.7.78-3.27,1.15-4.72.37-1.45.75-2.93,1.15-4.46.4-1.53.79-3.19,1.19-4.97.4-1.79.82-3.87,1.28-6.25.28-1.64.58-3,.89-4.08.31-1.08.95-2.01,1.91-2.81.57-.45,1.02-.69,1.36-.72.34-.03.71-.04,1.11-.04.28,0,.51-.01.68-.04.17-.03.38-.06.64-.08.25-.03.57-.06.94-.08.37-.03.92-.04,1.66-.04h5.44ZM84.49,32.13c-.11-.4-.27-.86-.47-1.4-.2-.54-.41-.95-.64-1.23-.28-.28-.65-.42-1.1-.42s-.99.38-1.62,1.15c-.62.77-1.13,2.37-1.53,4.8-.06.34-.1.61-.13.81-.03.2-.07.44-.13.72-.06.28-.11.65-.17,1.11-.06.45-.17,1.05-.34,1.79-.17,1.08-.35,1.96-.55,2.64-.2.68-.3,1.25-.3,1.7v.51c0,.17-.01.33-.04.47-.03.14-.04.3-.04.47,0,.29.04.61.13.98.08.37.18.67.3.89.11.28.45.59,1.02.93.57.34,1.47.51,2.72.51h.94c.4,0,.81-.01,1.23-.04.42-.03.84-.07,1.23-.13.4-.06.71-.14.94-.25.79-.28,1.25-.69,1.36-1.23.11-.54.17-1.03.17-1.49,0-.68-.03-1.25-.08-1.7-.06-.45-.11-.88-.17-1.28-.06-.4-.14-.78-.26-1.15-.11-.37-.23-.78-.34-1.23-.34-1.25-.52-2.11-.55-2.59-.03-.48-.16-1.03-.38-1.66l-1.19-3.66Z"/>
    <path class="st0" d="M134.61,53.56c-.51-.79-.96-1.52-1.36-2.17-.4-.65-.99-1.6-1.79-2.85-.68-1.08-1.19-1.84-1.53-2.3-.34-.45-.65-.96-.94-1.53l-.6-1.11c-.74-1.36-1.2-2.25-1.4-2.68-.2-.42-.38-.72-.55-.89-.11-.11-.28-.24-.51-.38-.23-.14-.45-.21-.68-.21-.45,0-.74.17-.85.51-.11.34-.2.57-.26.68-.06.23-.13.6-.21,1.11s-.1,1.25-.04,2.21l.08,1.53c.06.96.08,1.67.08,2.12v2.64c0,.57-.03,1.12-.08,1.66-.06.54-.08,1.09-.08,1.66,0,.4.03.78.08,1.15.06.37.08.75.08,1.15l.17,8.33c0,.28.01.55.04.81.03.25.07.52.13.81.06.51.1.88.13,1.11.03.23.04.42.04.59,0,.68-.13,1.23-.38,1.66-.25.42-.52.69-.81.81-.51.28-1.26.4-2.25.34-.99-.06-1.74-.08-2.25-.08h-6.29c-.45,0-.75-.06-.89-.17-.14-.11-.27-.23-.38-.34-.4-.51-.6-.99-.6-1.45.06-.85.1-1.3.13-1.36.03-.06.04-.23.04-.51v-2.04l.08-13.09c0-1.08-.03-2.13-.08-3.15-.06-1.02-.09-2.07-.09-3.15v-1.1c0-.62.01-1.26.04-1.91.03-.65.07-1.29.13-1.91,0-.28.01-.6.04-.94.03-.34.04-.65.04-.94,0-.79-.03-1.62-.08-2.46-.06-.85-.11-1.67-.17-2.47-.11-1.19-.17-2.39-.17-3.61v-7.78c0-.57-.03-1.12-.08-1.66-.06-.54-.11-1.09-.17-1.66-.06-.4-.08-.79-.08-1.19v-1.19c0-.74.06-1.28.17-1.62.11-.34.23-.57.34-.68.28-.28.58-.45.89-.51.31-.06.61-.08.89-.08h.51c1.3,0,2.61.03,3.91.08,1.3.06,2.66.03,4.08-.08h1.53c.4,0,.77.08,1.11.25.34.17.68.48,1.02.94.34.45.79,1.1,1.36,1.96l6.29,9.52c.34.51.64.98.89,1.4.25.43.51.87.76,1.32.26.45.54.95.85,1.49.31.54.72,1.18,1.23,1.91.68,1.02,1.3,1.96,1.87,2.81.34.62.64,1.16.89,1.62.25.45.48.91.68,1.36.2.45.43.95.68,1.49.25.54.55,1.15.89,1.83.17.28.44.75.81,1.4.37.65.69.98.98.98.06,0,.14-.03.25-.08.11-.06.2-.25.26-.59.06-.23.07-.45.04-.68-.03-.23-.06-.5-.08-.81-.03-.31-.06-.72-.08-1.23-.03-.51-.04-1.16-.04-1.96,0-.51.03-1,.08-1.49.06-.48.08-.98.08-1.49,0-.91-.04-1.74-.13-2.51-.08-.76-.1-1.46-.04-2.08l.08-1.11c.06-.51.07-1.11.04-1.79-.03-.68-.06-1.36-.08-2.04-.03-.68-.06-1.32-.08-1.91-.03-.6-.04-1.03-.04-1.32v-.76c0-.74.01-1.46.04-2.17.03-.71.04-1.43.04-2.17,0-.45-.01-.86-.04-1.23-.03-.37-.01-.78.04-1.23,0-.45.11-.79.34-1.02.28-.28.48-.41.59-.38.11.03.28.04.51.04l2.81.08h.81c.14,0,.25-.01.34-.04.08-.03.18-.04.3-.04h.59c.4.06.74.1,1.02.13.28.03.59.04.93.04h1.45c.51,0,1.08-.01,1.7-.04.62-.03,1.19.19,1.7.64.23.17.41.44.55.81.14.37.21.89.21,1.57,0,.45-.01.87-.04,1.23-.03.37-.07,1.12-.13,2.25l-.08,2.64v6.12c0,.45-.01,1.02-.04,1.7-.03.68-.04,1.73-.04,3.15-.06,1.08-.08,1.91-.08,2.51s-.03,1.29-.08,2.08c-.06,1.53-.08,2.61-.08,3.23v3.61c0,.76-.03,2.03-.08,3.78l-.17,7.14c0,1.08.01,2.01.04,2.81.03.79.08,1.52.17,2.17.09.65.17,1.26.26,1.83.08.57.13,1.19.13,1.87l.08,2.81c0,.46-.01.88-.04,1.28-.03.4-.21.74-.55,1.02-.45.4-1.08.59-1.87.59-.46,0-.98-.03-1.57-.08-.6-.06-1.09-.08-1.49-.08h-3.23c-.28,0-.85-.06-1.7-.17-.85-.11-1.5-.51-1.96-1.19l-3.32-4.68c-.96-1.42-1.71-2.71-2.25-3.87-.54-1.16-1.29-2.42-2.25-3.78l-2.13-3.06Z"/>
    <path class="st0" d="M191.7,13.6c.79,0,1.39.1,1.79.3.4.2.71.38.93.55.4.4.64.81.72,1.23s.13.84.13,1.23v3.83c0,.28-.01.52-.04.72-.03.2-.04.44-.04.72-.06.34-.08.67-.08.98v1.57c0,.51-.14.96-.43,1.36l-.34.34c-.17.17-.37.25-.59.25l-3.4-.08c-.34,0-.82.04-1.45.13-.62.08-1.25.44-1.87,1.06-.17.17-.47.65-.89,1.45-.42.79-.64,2.16-.64,4.08v2.55c0,1.53.01,2.57.04,3.1.03.54.04.91.04,1.1s-.01.38-.04.55-.1.68-.21,1.53c-.17,1.3-.23,2.24-.17,2.81.06.57.08,1.3.08,2.21v6.84c0,.43-.03,1.23-.08,2.42,0,.46-.01.82-.04,1.11-.03.28-.04.58-.04.89s.01.67.04,1.06c.03.4.04.91.04,1.53l.25,5.1c.06.96.04,1.67-.04,2.13-.08.45-.27.82-.55,1.11-.45.45-.91.68-1.36.68l-3.74.25c-.74.06-1.4.06-2,0-.6-.06-1.04-.08-1.32-.08h-2.89c-.28,0-.57-.07-.85-.21-.28-.14-.57-.47-.85-.98-.23-.45-.34-.93-.34-1.45l.08-2.72v-.85c0-.28.01-.54.04-.77.03-.23.04-.48.04-.76v-2.42c0-.82-.03-1.63-.08-2.42-.06-.45-.1-.92-.13-1.4-.03-.48-.01-.95.04-1.4l.25-4.59c.06-.4.07-.79.04-1.19-.03-.4-.01-.79.04-1.19,0-.23.01-.42.04-.59.03-.17.04-.37.04-.6v-1.02c-.06-.45-.08-.78-.08-.98s-.03-.61-.08-1.23v-1.74c0-.25.01-.54.04-.85.03-.31.04-.72.04-1.23v-7.4c0-.96.01-1.81.04-2.55.03-.74-.36-1.56-1.15-2.46-.28-.34-.61-.57-.98-.68-.37-.11-.69-.17-.98-.17l-4.68.08c-.57,0-.98-.07-1.23-.21-.25-.14-.47-.35-.64-.64-.28-.45-.42-1.22-.42-2.29v-1.79c0-.74.03-1.36.08-1.87l.08-1.36c0-.11.01-.34.04-.68.03-.34.06-.71.08-1.11.03-.4.07-.77.13-1.11.06-.34.14-.59.26-.76.17-.28.54-.57,1.1-.85.57-.28,1.33-.42,2.3-.42.57,0,1.11.01,1.62.04.51.03,1.05.07,1.62.13.79.06,1.57.07,2.34.04.77-.03,1.54-.04,2.34-.04,1.42,0,2.82.03,4.21.08,1.39.06,2.79.08,4.21.08l9.52-.08Z"/>
  </g>
</svg>