<svg preserveAspectRatio="none" width="100%" height="100%" overflow="visible" style="display: block;" viewBox="0 0 32 32" fill="none" xmlns="http://www.w3.org/2000/svg">
<path id="Arrow_Right" d="M2.27451 32C1.65752 32 1.12418 31.7752 0.67451 31.3255C0.224837 30.8758 0 30.3425 0 29.7255V2.27451C0 1.65752 0.224837 1.12418 0.67451 0.67451C1.12418 0.224837 1.65752 0 2.27451 0H29.7098C30.3268 0 30.8601 0.224837 31.3098 0.67451C31.7699 1.11373 32 1.64183 32 2.25882V29.7255C32 30.3425 31.7752 30.8758 31.3255 31.3255C30.8758 31.7752 30.3425 32 29.7255 32H2.27451ZM20.3451 22.0706L26.8235 16L20.3451 9.92941V14.4471H5.67843V17.5529H20.3451V22.0706Z" fill="var(--fill-0, #FF5800)"/>
</svg>
