<svg width="24" height="24" viewBox="0 0 24 24" fill="none" xmlns="http://www.w3.org/2000/svg">
<path d="M1.90385 24C1.38846 24 0.942308 23.8115 0.565385 23.4346C0.188462 23.0577 0 22.6115 0 22.0962V1.89231C0 1.36923 0.188462 0.923077 0.565385 0.553846C0.942308 0.184615 1.39231 0 1.91538 0H22.0962C22.6192 0 23.0654 0.188462 23.4346 0.565385C23.8115 0.934615 24 1.38077 24 1.90385V22.0962C24 22.6115 23.8115 23.0577 23.4346 23.4346C23.0654 23.8115 22.6192 24 22.0962 24H1.90385ZM9.03462 16.9962V13.3731H19.8231V10.6269H9.03462V7.00385L3.70385 12L9.03462 16.9962Z" fill="#0D0D0D"/>
</svg>
