<svg preserveAspectRatio="none" width="100%" height="100%" overflow="visible" style="display: block;" viewBox="0 0 32 32" fill="none" xmlns="http://www.w3.org/2000/svg">
<path id="Arrow_Lefr" d="M2.53846 32C1.85128 32 1.25641 31.7487 0.753846 31.2462C0.251282 30.7436 0 30.1487 0 29.4615V2.52308C0 1.82564 0.251282 1.23077 0.753846 0.738462C1.25641 0.246154 1.85641 0 2.55385 0H29.4615C30.159 0 30.7538 0.251282 31.2462 0.753846C31.7487 1.24615 32 1.84103 32 2.53846V29.4615C32 30.1487 31.7487 30.7436 31.2462 31.2462C30.7538 31.7487 30.159 32 29.4615 32H2.53846ZM12.0462 22.6615V17.8308H26.4308V14.1692H12.0462V9.33846L4.93846 16L12.0462 22.6615Z" fill="var(--fill-0, #0D0D0D)"/>
</svg>
