<svg width="24" height="24" viewBox="0 0 24 24" fill="none" xmlns="http://www.w3.org/2000/svg">
<path d="M1.70588 24C1.24314 24 0.843137 23.8314 0.505882 23.4941C0.168627 23.1569 0 22.7569 0 22.2941V1.70588C0 1.24314 0.168627 0.843137 0.505882 0.505882C0.843137 0.168627 1.24314 0 1.70588 0H22.2824C22.7451 0 23.1451 0.168627 23.4824 0.505882C23.8274 0.835294 24 1.23137 24 1.69412V22.2941C24 22.7569 23.8314 23.1569 23.4941 23.4941C23.1569 23.8314 22.7569 24 22.2941 24H1.70588ZM15.2588 16.5529L20.1176 12L15.2588 7.44706V10.8353H4.25882V13.1647H15.2588V16.5529Z" fill="#0D0D0D"/>
</svg>
