<svg preserveAspectRatio="none" width="100%" height="100%" overflow="visible" style="display: block;" viewBox="0 0 24 24" fill="none" xmlns="http://www.w3.org/2000/svg">
<path id="Download" d="M1.90385 24C1.38846 24 0.942308 23.8115 0.565385 23.4346C0.188462 23.0577 0 22.6115 0 22.0962V1.90385C0 1.38077 0.188462 0.934615 0.565385 0.565385C0.942308 0.188462 1.38846 0 1.90385 0H22.0846C22.6077 0 23.0577 0.184615 23.4346 0.553846C23.8115 0.923077 24 1.36923 24 1.89231V22.0962C24 22.6115 23.8115 23.0577 23.4346 23.4346C23.0654 23.8115 22.6192 24 22.0962 24H1.90385ZM14.7577 21.1385L19.7538 15.8077H16.1308V9.18462C16.1308 8.02308 15.8731 6.99231 15.3577 6.09231C14.8423 5.18462 14.1308 4.47308 13.2231 3.95769C12.3231 3.43462 11.2962 3.17308 10.1423 3.17308C8.97308 3.17308 7.93462 3.43077 7.02692 3.94615C6.12692 4.46154 5.41923 5.17308 4.90385 6.08077C4.39615 6.98077 4.14231 8.01538 4.14231 9.18462V11.0308H6.87692V9.18462C6.87692 8.19231 7.17308 7.4 7.76538 6.80769C8.36538 6.20769 9.15769 5.90769 10.1423 5.90769C11.1192 5.90769 11.9038 6.20769 12.4962 6.80769C13.0885 7.40769 13.3846 8.2 13.3846 9.18462V15.8077H9.76154L14.7577 21.1385Z" fill="var(--fill-0, #0D0D0D)"/>
</svg>
