<svg preserveAspectRatio="none" width="100%" height="100%" overflow="visible" style="display: block;" viewBox="0 0 24 18.75" fill="none" xmlns="http://www.w3.org/2000/svg">
<path id="&#240;&#159;&#145;&#136;" d="M13.6875 18.75C11.5296 18.75 9.92434 18.5395 8.87171 18.1184C7.82566 17.7039 7.30263 17.0691 7.30263 16.2138C7.30263 15.8191 7.42434 15.4605 7.66776 15.1382C7.30592 14.9671 7.01974 14.7204 6.80921 14.398C6.59868 14.0757 6.49342 13.7039 6.49342 13.2829C6.49342 12.8158 6.625 12.4046 6.88816 12.0493C6.46053 11.8651 6.13487 11.6086 5.91118 11.2796C5.6875 10.9507 5.57566 10.5658 5.57566 10.125C5.57566 9.75 5.66447 9.40461 5.84211 9.08882H2.44737C1.70395 9.08882 1.10855 8.89145 0.661184 8.49671C0.220395 8.09539 0 7.58553 0 6.96711C0 6.34868 0.220395 5.84211 0.661184 5.44737C1.10855 5.04605 1.70395 4.84539 2.44737 4.84539H12.2961L11.6447 4.53947C10.7895 4.13158 10.1612 3.72368 9.75987 3.31579C9.36513 2.90789 9.16776 2.4375 9.16776 1.90461C9.16776 1.33882 9.36513 0.881579 9.75987 0.532895C10.1612 0.177632 10.6283 0 11.1612 0C11.5296 0 11.8914 0.0756579 12.2467 0.226974C12.602 0.371711 12.9572 0.546053 13.3125 0.75C13.6678 0.953947 14.0296 1.13816 14.398 1.30263C14.6414 1.40789 14.8651 1.50658 15.0691 1.59868C15.273 1.68421 15.5197 1.78289 15.8092 1.89474C16.5329 2.17763 17.1513 2.44737 17.6645 2.70395C18.1776 2.95395 18.625 3.21711 19.0066 3.49342C19.3882 3.76974 19.7401 4.08553 20.0625 4.44079C20.4046 4.80921 20.7599 5.12171 21.1283 5.37829C21.4967 5.62829 21.9112 5.83553 22.3717 6C22.8388 6.16447 23.3816 6.30263 24 6.41447V15.8289C22.5197 16.8224 20.9408 17.5559 19.2632 18.0296C17.5855 18.5099 15.727 18.75 13.6875 18.75ZM13.6875 17.6645C15.0428 17.6645 16.2467 17.5757 17.2993 17.398C18.352 17.227 19.3191 16.9572 20.2007 16.5888C21.0888 16.227 21.9605 15.7664 22.8158 15.2072V7.35197C22.3618 7.25329 21.9276 7.11513 21.5132 6.9375C21.1053 6.75329 20.7171 6.52632 20.3487 6.25658C19.9868 5.98026 19.6414 5.66118 19.3125 5.29934C18.8783 4.8125 18.3684 4.39474 17.7829 4.04605C17.1974 3.69737 16.4211 3.33882 15.4539 2.97039C15.1579 2.85855 14.9013 2.75987 14.6842 2.67434C14.4737 2.58224 14.2434 2.48026 13.9934 2.36842C13.7039 2.23684 13.3816 2.06908 13.0263 1.86513C12.6776 1.66118 12.3388 1.48026 12.0099 1.32237C11.6809 1.16447 11.398 1.08553 11.1612 1.08553C10.9572 1.08553 10.7697 1.15461 10.5987 1.29276C10.4342 1.42434 10.352 1.62829 10.352 1.90461C10.352 2.19408 10.4934 2.46711 10.7763 2.72368C11.0592 2.97368 11.6283 3.29276 12.4836 3.68092L14.6743 4.67763L14.3487 5.93092H2.44737C2.07237 5.93092 1.76645 6.02961 1.52961 6.22697C1.29934 6.41776 1.18421 6.66447 1.18421 6.96711C1.18421 7.26974 1.29934 7.51974 1.52961 7.71711C1.76645 7.90789 2.07237 8.00329 2.44737 8.00329H10.1842V9.08882H8.02303C7.77303 9.08882 7.55263 9.13487 7.36184 9.22697C7.17105 9.3125 7.02303 9.43421 6.91776 9.59211C6.8125 9.74342 6.75987 9.92105 6.75987 10.125C6.75987 10.4276 6.875 10.6776 7.10526 10.875C7.34211 11.0658 7.64803 11.1612 8.02303 11.1612H10.2829V12.2467H8.74342C8.36842 12.2467 8.09539 12.3421 7.92434 12.5329C7.75987 12.7237 7.67763 12.9737 7.67763 13.2829C7.67763 13.5855 7.75987 13.8355 7.92434 14.0329C8.09539 14.2237 8.36842 14.3191 8.74342 14.3191H10.3816V15.4046H9.35526C9.09211 15.4046 8.88158 15.4868 8.72368 15.6513C8.56579 15.8158 8.48684 16.0033 8.48684 16.2138C8.48684 16.6875 8.93092 17.0461 9.81908 17.2895C10.7072 17.5395 11.9967 17.6645 13.6875 17.6645Z" fill="var(--fill-0, #0D0D0D)"/>
</svg>
