<svg width="24" height="24" viewBox="0 0 24 24" fill="none" xmlns="http://www.w3.org/2000/svg">
<path d="M10.3125 21.75C8.27303 21.75 6.41447 21.5099 4.73684 21.0296C3.05921 20.5559 1.48026 19.8224 0 18.8289V9.41447C0.618421 9.30263 1.15789 9.16447 1.61842 9C2.08553 8.83553 2.50329 8.62829 2.87171 8.37829C3.24671 8.12171 3.60197 7.80921 3.9375 7.44079C4.25987 7.08553 4.61184 6.76974 4.99342 6.49342C5.375 6.21711 5.82237 5.95395 6.33553 5.70395C6.84868 5.44737 7.46711 5.17763 8.19079 4.89474C8.48026 4.78289 8.72697 4.68421 8.93092 4.59868C9.13487 4.50658 9.35855 4.40789 9.60197 4.30263C9.97039 4.13816 10.3322 3.95395 10.6875 3.75C11.0428 3.54605 11.398 3.37171 11.7533 3.22697C12.1151 3.07566 12.477 3 12.8388 3C13.3717 3 13.8355 3.17763 14.2303 3.53289C14.6316 3.88158 14.8322 4.33882 14.8322 4.90461C14.8322 5.4375 14.6349 5.90789 14.2401 6.31579C13.8454 6.72368 13.2171 7.13158 12.3553 7.53947L11.7039 7.84539H21.5526C22.2961 7.84539 22.8882 8.04605 23.3289 8.44737C23.7763 8.84211 24 9.34868 24 9.96711C24 10.5855 23.7763 11.0954 23.3289 11.4967C22.8882 11.8914 22.2961 12.0888 21.5526 12.0888H18.1579C18.3355 12.4046 18.4243 12.75 18.4243 13.125C18.4243 13.5658 18.3125 13.9507 18.0888 14.2796C17.8651 14.6086 17.5395 14.8651 17.1118 15.0493C17.375 15.4046 17.5066 15.8158 17.5066 16.2829C17.5066 16.7039 17.4013 17.0757 17.1908 17.398C16.9803 17.7204 16.6941 17.9671 16.3322 18.1382C16.5757 18.4605 16.6974 18.8191 16.6974 19.2138C16.6974 20.0691 16.1743 20.7039 15.1283 21.1184C14.0822 21.5395 12.477 21.75 10.3125 21.75ZM10.3125 20.6645C12.0033 20.6645 13.2928 20.5395 14.1809 20.2895C15.0691 20.0461 15.5132 19.6875 15.5132 19.2138C15.5132 19.0033 15.4342 18.8158 15.2763 18.6513C15.1184 18.4868 14.9079 18.4046 14.6447 18.4046H13.6184V17.3191H15.2566C15.6316 17.3191 15.9013 17.2237 16.0658 17.0329C16.2368 16.8355 16.3224 16.5855 16.3224 16.2829C16.3224 15.9737 16.2368 15.7237 16.0658 15.5329C15.9013 15.3421 15.6316 15.2467 15.2566 15.2467H13.7171V14.1612H15.977C16.352 14.1612 16.6546 14.0658 16.8849 13.875C17.1217 13.6776 17.2401 13.4276 17.2401 13.125C17.2401 12.9211 17.1875 12.7434 17.0822 12.5921C16.977 12.4342 16.8289 12.3125 16.6382 12.227C16.4474 12.1349 16.227 12.0888 15.977 12.0888H13.8158V11.0033H21.5526C21.9276 11.0033 22.2303 10.9079 22.4605 10.7171C22.6974 10.5197 22.8158 10.2697 22.8158 9.96711C22.8158 9.66447 22.6974 9.41776 22.4605 9.22697C22.2303 9.02961 21.9276 8.93092 21.5526 8.93092H9.65132L9.32566 7.67763L11.5164 6.68092C12.3717 6.29276 12.9408 5.97368 13.2237 5.72368C13.5066 5.46711 13.648 5.19408 13.648 4.90461C13.648 4.62829 13.5658 4.42434 13.4013 4.29276C13.2368 4.15461 13.0493 4.08553 12.8388 4.08553C12.602 4.08553 12.3191 4.16447 11.9901 4.32237C11.6612 4.48026 11.3224 4.66118 10.9737 4.86513C10.625 5.06908 10.3026 5.23684 10.0066 5.36842C9.75658 5.48026 9.52303 5.58224 9.30592 5.67434C9.09539 5.75987 8.8421 5.85855 8.54605 5.97039C7.57895 6.33882 6.80263 6.69737 6.21711 7.04605C5.63158 7.39474 5.12171 7.8125 4.6875 8.29934C4.36513 8.66118 4.01974 8.98026 3.65132 9.25658C3.28289 9.52632 2.89474 9.75329 2.48684 9.9375C2.07895 10.1151 1.64474 10.2533 1.18421 10.352V18.2072C2.03947 18.7664 2.90789 19.227 3.78947 19.5888C4.67763 19.9572 5.64803 20.227 6.70066 20.398C7.75329 20.5757 8.95724 20.6645 10.3125 20.6645Z" fill="#0D0D0D"/>
</svg>
