<svg width="24" height="24" viewBox="0 0 24 24" fill="none" xmlns="http://www.w3.org/2000/svg">
<path d="M13.6875 21.75C11.5296 21.75 9.92434 21.5395 8.87171 21.1184C7.82566 20.7039 7.30263 20.0691 7.30263 19.2138C7.30263 18.8191 7.42434 18.4605 7.66776 18.1382C7.30592 17.9671 7.01974 17.7204 6.80921 17.398C6.59868 17.0757 6.49342 16.7039 6.49342 16.2829C6.49342 15.8158 6.625 15.4046 6.88816 15.0493C6.46053 14.8651 6.13487 14.6086 5.91118 14.2796C5.6875 13.9507 5.57566 13.5658 5.57566 13.125C5.57566 12.75 5.66447 12.4046 5.84211 12.0888H2.44737C1.70395 12.0888 1.10855 11.8914 0.661184 11.4967C0.220395 11.0954 0 10.5855 0 9.96711C0 9.34868 0.220395 8.84211 0.661184 8.44737C1.10855 8.04605 1.70395 7.84539 2.44737 7.84539H12.2961L11.6447 7.53947C10.7895 7.13158 10.1612 6.72368 9.75987 6.31579C9.36513 5.90789 9.16776 5.4375 9.16776 4.90461C9.16776 4.33882 9.36513 3.88158 9.75987 3.53289C10.1612 3.17763 10.6283 3 11.1612 3C11.5296 3 11.8914 3.07566 12.2467 3.22697C12.602 3.37171 12.9572 3.54605 13.3125 3.75C13.6678 3.95395 14.0296 4.13816 14.398 4.30263C14.6414 4.40789 14.8651 4.50658 15.0691 4.59868C15.273 4.68421 15.5197 4.78289 15.8092 4.89474C16.5329 5.17763 17.1513 5.44737 17.6645 5.70395C18.1776 5.95395 18.625 6.21711 19.0066 6.49342C19.3882 6.76974 19.7401 7.08553 20.0625 7.44079C20.4046 7.80921 20.7599 8.12171 21.1283 8.37829C21.4967 8.62829 21.9112 8.83553 22.3717 9C22.8388 9.16447 23.3816 9.30263 24 9.41447V18.8289C22.5197 19.8224 20.9408 20.5559 19.2632 21.0296C17.5855 21.5099 15.727 21.75 13.6875 21.75ZM13.6875 20.6645C15.0428 20.6645 16.2467 20.5757 17.2993 20.398C18.352 20.227 19.3191 19.9572 20.2007 19.5888C21.0888 19.227 21.9605 18.7664 22.8158 18.2072V10.352C22.3618 10.2533 21.9276 10.1151 21.5132 9.9375C21.1053 9.75329 20.7171 9.52632 20.3487 9.25658C19.9868 8.98026 19.6414 8.66118 19.3125 8.29934C18.8783 7.8125 18.3684 7.39474 17.7829 7.04605C17.1974 6.69737 16.4211 6.33882 15.4539 5.97039C15.1579 5.85855 14.9013 5.75987 14.6842 5.67434C14.4737 5.58224 14.2434 5.48026 13.9934 5.36842C13.7039 5.23684 13.3816 5.06908 13.0263 4.86513C12.6776 4.66118 12.3388 4.48026 12.0099 4.32237C11.6809 4.16447 11.398 4.08553 11.1612 4.08553C10.9572 4.08553 10.7697 4.15461 10.5987 4.29276C10.4342 4.42434 10.352 4.62829 10.352 4.90461C10.352 5.19408 10.4934 5.46711 10.7763 5.72368C11.0592 5.97368 11.6283 6.29276 12.4836 6.68092L14.6743 7.67763L14.3487 8.93092H2.44737C2.07237 8.93092 1.76645 9.02961 1.52961 9.22697C1.29934 9.41776 1.18421 9.66447 1.18421 9.96711C1.18421 10.2697 1.29934 10.5197 1.52961 10.7171C1.76645 10.9079 2.07237 11.0033 2.44737 11.0033H10.1842V12.0888H8.02303C7.77303 12.0888 7.55263 12.1349 7.36184 12.227C7.17105 12.3125 7.02303 12.4342 6.91776 12.5921C6.8125 12.7434 6.75987 12.9211 6.75987 13.125C6.75987 13.4276 6.875 13.6776 7.10526 13.875C7.3421 14.0658 7.64803 14.1612 8.02303 14.1612H10.2829V15.2467H8.74342C8.36842 15.2467 8.09539 15.3421 7.92434 15.5329C7.75987 15.7237 7.67763 15.9737 7.67763 16.2829C7.67763 16.5855 7.75987 16.8355 7.92434 17.0329C8.09539 17.2237 8.36842 17.3191 8.74342 17.3191H10.3816V18.4046H9.35526C9.0921 18.4046 8.88158 18.4868 8.72368 18.6513C8.56579 18.8158 8.48684 19.0033 8.48684 19.2138C8.48684 19.6875 8.93092 20.0461 9.81908 20.2895C10.7072 20.5395 11.9967 20.6645 13.6875 20.6645Z" fill="#0D0D0D"/>
</svg>
