<svg preserveAspectRatio="none" width="100%" height="100%" overflow="visible" style="display: block;" viewBox="0 0 24 18.75" fill="none" xmlns="http://www.w3.org/2000/svg">
<path id="&#240;&#159;&#145;&#137;" d="M10.3125 18.75C8.27303 18.75 6.41447 18.5099 4.73684 18.0296C3.05921 17.5559 1.48026 16.8224 0 15.8289V6.41447C0.618421 6.30263 1.15789 6.16447 1.61842 6C2.08553 5.83553 2.50329 5.62829 2.87171 5.37829C3.24671 5.12171 3.60197 4.80921 3.9375 4.44079C4.25987 4.08553 4.61184 3.76974 4.99342 3.49342C5.375 3.21711 5.82237 2.95395 6.33553 2.70395C6.84868 2.44737 7.46711 2.17763 8.19079 1.89474C8.48026 1.78289 8.72697 1.68421 8.93092 1.59868C9.13487 1.50658 9.35855 1.40789 9.60197 1.30263C9.97039 1.13816 10.3322 0.953947 10.6875 0.75C11.0428 0.546053 11.398 0.371711 11.7533 0.226974C12.1151 0.0756579 12.477 0 12.8388 0C13.3717 0 13.8355 0.177632 14.2303 0.532895C14.6316 0.881579 14.8322 1.33882 14.8322 1.90461C14.8322 2.4375 14.6349 2.90789 14.2401 3.31579C13.8454 3.72368 13.2171 4.13158 12.3553 4.53947L11.7039 4.84539H21.5526C22.2961 4.84539 22.8882 5.04605 23.3289 5.44737C23.7763 5.84211 24 6.34868 24 6.96711C24 7.58553 23.7763 8.09539 23.3289 8.49671C22.8882 8.89145 22.2961 9.08882 21.5526 9.08882H18.1579C18.3355 9.40461 18.4243 9.75 18.4243 10.125C18.4243 10.5658 18.3125 10.9507 18.0888 11.2796C17.8651 11.6086 17.5395 11.8651 17.1118 12.0493C17.375 12.4046 17.5066 12.8158 17.5066 13.2829C17.5066 13.7039 17.4013 14.0757 17.1908 14.398C16.9803 14.7204 16.6941 14.9671 16.3322 15.1382C16.5757 15.4605 16.6974 15.8191 16.6974 16.2138C16.6974 17.0691 16.1743 17.7039 15.1283 18.1184C14.0822 18.5395 12.477 18.75 10.3125 18.75ZM10.3125 17.6645C12.0033 17.6645 13.2928 17.5395 14.1809 17.2895C15.0691 17.0461 15.5132 16.6875 15.5132 16.2138C15.5132 16.0033 15.4342 15.8158 15.2763 15.6513C15.1184 15.4868 14.9079 15.4046 14.6447 15.4046H13.6184V14.3191H15.2566C15.6316 14.3191 15.9013 14.2237 16.0658 14.0329C16.2368 13.8355 16.3224 13.5855 16.3224 13.2829C16.3224 12.9737 16.2368 12.7237 16.0658 12.5329C15.9013 12.3421 15.6316 12.2467 15.2566 12.2467H13.7171V11.1612H15.977C16.352 11.1612 16.6546 11.0658 16.8849 10.875C17.1217 10.6776 17.2401 10.4276 17.2401 10.125C17.2401 9.92105 17.1875 9.74342 17.0822 9.59211C16.977 9.43421 16.8289 9.3125 16.6382 9.22697C16.4474 9.13487 16.227 9.08882 15.977 9.08882H13.8158V8.00329H21.5526C21.9276 8.00329 22.2303 7.90789 22.4605 7.71711C22.6974 7.51974 22.8158 7.26974 22.8158 6.96711C22.8158 6.66447 22.6974 6.41776 22.4605 6.22697C22.2303 6.02961 21.9276 5.93092 21.5526 5.93092H9.65132L9.32566 4.67763L11.5164 3.68092C12.3717 3.29276 12.9408 2.97368 13.2237 2.72368C13.5066 2.46711 13.648 2.19408 13.648 1.90461C13.648 1.62829 13.5658 1.42434 13.4013 1.29276C13.2368 1.15461 13.0493 1.08553 12.8388 1.08553C12.602 1.08553 12.3191 1.16447 11.9901 1.32237C11.6612 1.48026 11.3224 1.66118 10.9737 1.86513C10.625 2.06908 10.3026 2.23684 10.0066 2.36842C9.75658 2.48026 9.52303 2.58224 9.30592 2.67434C9.09539 2.75987 8.84211 2.85855 8.54605 2.97039C7.57895 3.33882 6.80263 3.69737 6.21711 4.04605C5.63158 4.39474 5.12171 4.8125 4.6875 5.29934C4.36513 5.66118 4.01974 5.98026 3.65132 6.25658C3.28289 6.52632 2.89474 6.75329 2.48684 6.9375C2.07895 7.11513 1.64474 7.25329 1.18421 7.35197V15.2072C2.03947 15.7664 2.90789 16.227 3.78947 16.5888C4.67763 16.9572 5.64803 17.227 6.70066 17.398C7.75329 17.5757 8.95724 17.6645 10.3125 17.6645Z" fill="var(--fill-0, #0D0D0D)"/>
</svg>
