<svg preserveAspectRatio="none" width="100%" height="100%" overflow="visible" style="display: block;" viewBox="0 0 19.065 24" fill="none" xmlns="http://www.w3.org/2000/svg">
<g id="Group 188">
<path id="Material" d="M0 24V0H12.71C13.4523 0.253681 14.1403 0.570782 14.774 0.951303C15.4258 1.33182 15.978 1.74859 16.4306 2.20159C16.9195 2.65459 17.354 3.16195 17.7342 3.72367C18.1144 4.28539 18.558 5.10079 19.065 6.16988V24H0ZM0.678952 23.2933H18.3589V6.1427C18.033 5.85278 17.7161 5.60815 17.4083 5.40883C17.1186 5.19139 16.6932 4.99207 16.1319 4.81087C15.6793 4.68403 15.1723 4.59343 14.611 4.53907C14.0679 4.48471 13.6062 4.44847 13.226 4.43035L12.6557 4.40317L12.71 3.83239C12.7824 3.19819 12.8096 2.62741 12.7915 2.12005C12.7915 1.59456 12.7552 1.11438 12.6828 0.679503H0.678952V23.2933ZM3.01455 5.92526C2.8697 5.92526 2.74297 5.8709 2.63433 5.76217C2.5257 5.65345 2.47139 5.53567 2.47139 5.40883C2.47139 5.26387 2.5257 5.13703 2.63433 5.02831C2.74297 4.91959 2.8697 4.86523 3.01455 4.86523H8.58195C8.7268 4.86523 8.84448 4.91959 8.93501 5.02831C9.04364 5.13703 9.09796 5.26387 9.09796 5.40883C9.09796 5.53567 9.04364 5.65345 8.93501 5.76217C8.84448 5.8709 8.7268 5.92526 8.58195 5.92526H3.01455ZM3.01455 8.8607C2.8697 8.8607 2.74297 8.80634 2.63433 8.69762C2.5257 8.5889 2.47139 8.46206 2.47139 8.3171C2.47139 8.17214 2.5257 8.05436 2.63433 7.96376C2.74297 7.85504 2.8697 7.80068 3.01455 7.80068H16.0504C16.1953 7.80068 16.322 7.85504 16.4306 7.96376C16.5393 8.05436 16.5936 8.17214 16.5936 8.3171C16.5936 8.46206 16.5393 8.5889 16.4306 8.69762C16.322 8.80634 16.1953 8.8607 16.0504 8.8607H3.01455ZM3.01455 11.769C2.8697 11.769 2.74297 11.7146 2.63433 11.6059C2.5257 11.4972 2.47139 11.3703 2.47139 11.2254C2.47139 11.0804 2.5257 10.9626 2.63433 10.872C2.74297 10.7633 2.8697 10.7089 3.01455 10.7089H16.0504C16.1953 10.7089 16.322 10.7633 16.4306 10.872C16.5393 10.9626 16.5936 11.0804 16.5936 11.2254C16.5936 11.3703 16.5393 11.4972 16.4306 11.6059C16.322 11.7146 16.1953 11.769 16.0504 11.769H3.01455ZM3.01455 14.6772C2.8697 14.6772 2.74297 14.6229 2.63433 14.5142C2.5257 14.4054 2.47139 14.2786 2.47139 14.1336C2.47139 13.9887 2.5257 13.8709 2.63433 13.7803C2.74297 13.6716 2.8697 13.6172 3.01455 13.6172H16.0504C16.1953 13.6172 16.322 13.6716 16.4306 13.7803C16.5393 13.8709 16.5936 13.9887 16.5936 14.1336C16.5936 14.2786 16.5393 14.4054 16.4306 14.5142C16.322 14.6229 16.1953 14.6772 16.0504 14.6772H3.01455ZM3.01455 17.5855C2.8697 17.5855 2.74297 17.5402 2.63433 17.4496C2.5257 17.3409 2.47139 17.214 2.47139 17.0691C2.47139 16.9241 2.5257 16.7973 2.63433 16.6886C2.74297 16.5798 2.8697 16.5255 3.01455 16.5255H16.0504C16.1953 16.5255 16.322 16.5798 16.4306 16.6886C16.5393 16.7973 16.5936 16.9241 16.5936 17.0691C16.5936 17.214 16.5393 17.3409 16.4306 17.4496C16.322 17.5402 16.1953 17.5855 16.0504 17.5855H3.01455Z" fill="var(--fill-0, #0D0D0D)"/>
</g>
</svg>
