<svg width="24" height="24" viewBox="0 0 24 24" fill="none" xmlns="http://www.w3.org/2000/svg">
<path d="M2.46777 24V0H15.1778C15.9201 0.253681 16.6081 0.570782 17.2418 0.951303C17.8936 1.33182 18.4458 1.74859 18.8984 2.20159C19.3873 2.65459 19.8218 3.16195 20.202 3.72367C20.5822 4.28539 21.0258 5.10079 21.5327 6.16988V24H2.46777ZM3.14673 23.2933H20.8266V6.1427C20.5007 5.85278 20.1839 5.60815 19.8761 5.40883C19.5864 5.19139 19.1609 4.99207 18.5997 4.81087C18.147 4.68403 17.6401 4.59343 17.0788 4.53907C16.5357 4.48471 16.074 4.44847 15.6938 4.43035L15.1234 4.40317L15.1778 3.83239C15.2502 3.19819 15.2773 2.62741 15.2592 2.12005C15.2592 1.59456 15.223 1.11438 15.1506 0.679503H3.14673V23.2933ZM5.48232 5.92526C5.33748 5.92526 5.21074 5.8709 5.10211 5.76217C4.99347 5.65345 4.93916 5.53567 4.93916 5.40883C4.93916 5.26387 4.99347 5.13703 5.10211 5.02831C5.21074 4.91959 5.33748 4.86523 5.48232 4.86523H11.0497C11.1946 4.86523 11.3123 4.91959 11.4028 5.02831C11.5114 5.13703 11.5657 5.26387 11.5657 5.40883C11.5657 5.53567 11.5114 5.65345 11.4028 5.76217C11.3123 5.8709 11.1946 5.92526 11.0497 5.92526H5.48232ZM5.48232 8.8607C5.33748 8.8607 5.21074 8.80634 5.10211 8.69762C4.99347 8.5889 4.93916 8.46206 4.93916 8.3171C4.93916 8.17214 4.99347 8.05436 5.10211 7.96376C5.21074 7.85504 5.33748 7.80068 5.48232 7.80068H18.5182C18.663 7.80068 18.7898 7.85504 18.8984 7.96376C19.007 8.05436 19.0614 8.17214 19.0614 8.3171C19.0614 8.46206 19.007 8.5889 18.8984 8.69762C18.7898 8.80634 18.663 8.8607 18.5182 8.8607H5.48232ZM5.48232 11.769C5.33748 11.769 5.21074 11.7146 5.10211 11.6059C4.99347 11.4972 4.93916 11.3703 4.93916 11.2254C4.93916 11.0804 4.99347 10.9626 5.10211 10.872C5.21074 10.7633 5.33748 10.7089 5.48232 10.7089H18.5182C18.663 10.7089 18.7898 10.7633 18.8984 10.872C19.007 10.9626 19.0614 11.0804 19.0614 11.2254C19.0614 11.3703 19.007 11.4972 18.8984 11.6059C18.7898 11.7146 18.663 11.769 18.5182 11.769H5.48232ZM5.48232 14.6772C5.33748 14.6772 5.21074 14.6229 5.10211 14.5142C4.99347 14.4054 4.93916 14.2786 4.93916 14.1336C4.93916 13.9887 4.99347 13.8709 5.10211 13.7803C5.21074 13.6716 5.33748 13.6172 5.48232 13.6172H18.5182C18.663 13.6172 18.7898 13.6716 18.8984 13.7803C19.007 13.8709 19.0614 13.9887 19.0614 14.1336C19.0614 14.2786 19.007 14.4054 18.8984 14.5142C18.7898 14.6229 18.663 14.6772 18.5182 14.6772H5.48232ZM5.48232 17.5855C5.33748 17.5855 5.21074 17.5402 5.10211 17.4496C4.99347 17.3409 4.93916 17.214 4.93916 17.0691C4.93916 16.9241 4.99347 16.7973 5.10211 16.6886C5.21074 16.5798 5.33748 16.5255 5.48232 16.5255H18.5182C18.663 16.5255 18.7898 16.5798 18.8984 16.6886C19.007 16.7973 19.0614 16.9241 19.0614 17.0691C19.0614 17.214 19.007 17.3409 18.8984 17.4496C18.7898 17.5402 18.663 17.5855 18.5182 17.5855H5.48232Z" fill="#0D0D0D"/>
</svg>
