<svg width="24" height="24" viewBox="0 0 24 24" fill="none" xmlns="http://www.w3.org/2000/svg">
<path d="M13.0615 15.3304L0.126923 8.21117V7.73809L1.11923 7.34578C1.18846 7.16117 1.22308 6.96117 1.22308 6.74578C1.22308 6.54578 1.18846 6.32271 1.11923 6.07655C1.05769 5.8304 0.961538 5.56501 0.830769 5.2804H1.25769C1.55 5.67271 1.69615 6.14194 1.69615 6.68809C1.69615 6.93424 1.66154 7.19578 1.59231 7.47271C1.52308 7.74963 1.41154 8.02655 1.25769 8.30347L12.9462 14.7419L12.6462 14.7535C12.8538 14.2996 12.9577 13.765 12.9577 13.1496C12.9577 12.8804 12.9308 12.615 12.8769 12.3535C12.8308 12.0842 12.7538 11.8535 12.6462 11.6612L0 4.99194V4.50732L8.45769 0.549628C8.86539 0.365013 9.22692 0.272705 9.54231 0.272705C9.85 0.272705 10.1654 0.35732 10.4885 0.526551L22.0385 6.59578C22.6615 6.92655 23.1038 7.26886 23.3654 7.6227C23.6346 7.96886 23.7692 8.36886 23.7692 8.82271C23.7692 9.27655 23.6423 9.66501 23.3885 9.98809C23.1346 10.3035 22.75 10.5881 22.2346 10.8419L13.0615 15.3304ZM7.40769 17.2112L0.484615 13.4612V12.965L3.86538 11.3842L4.05 11.7996L1.01538 13.2304L7.40769 16.6804V17.2112ZM13.3962 23.8112L0.484615 16.7958V16.2881L1.47692 15.8958C1.55385 15.6881 1.59231 15.4881 1.59231 15.2958C1.59231 15.0958 1.55769 14.8727 1.48846 14.6266C1.41923 14.3804 1.31923 14.115 1.18846 13.8304H1.61538C1.74615 14.0227 1.85 14.2381 1.92692 14.4766C2.01154 14.7073 2.05385 14.9612 2.05385 15.2381C2.05385 15.4842 2.01923 15.7496 1.95 16.0342C1.88077 16.3189 1.76923 16.5996 1.61538 16.8766L13.3038 23.2342L12.8885 23.315C13.0885 22.8766 13.1885 22.3419 13.1885 21.7112C13.1885 21.4419 13.1654 21.1804 13.1192 20.9266C13.0731 20.6727 12.9962 20.4496 12.8885 20.2573L10.0385 18.6535L10.7308 18.515L13.2577 19.9342L21.5423 16.0919C21.9808 15.8919 22.3615 15.7919 22.6846 15.7919C23.0923 15.7919 23.4115 15.9381 23.6423 16.2304C23.8808 16.515 24 16.8804 24 17.3266C24 18.2573 23.3538 19.0342 22.0615 19.6573L13.3962 23.8112ZM9.48462 18.815C8.56154 18.815 7.93462 18.5689 7.60385 18.0766L2.98846 11.0727C2.69615 10.6189 2.55 10.1496 2.55 9.66501C2.55 9.58809 2.55385 9.51501 2.56154 9.44578C2.56923 9.36886 2.57692 9.29194 2.58462 9.21501L6.18462 11.2573L8.94231 15.7573L22.5231 12.9996L20.6538 11.1766L21.1385 10.9919L23.0077 12.8381V13.3689L9.16154 16.1496C8.73846 16.2342 8.41923 16.3842 8.20385 16.5996C7.99615 16.815 7.89231 17.0804 7.89231 17.3958C7.89231 17.7342 8.01538 17.9881 8.26154 18.1573C8.51538 18.3266 8.88846 18.4112 9.38077 18.4112C9.60385 18.4112 9.85 18.3958 10.1192 18.365C10.3885 18.3266 10.6769 18.2727 10.9846 18.2035L22.5231 15.665L21.5308 14.3381V13.5881L23.0077 15.5266V16.0342L11.1 18.6189C10.7923 18.6804 10.5038 18.7304 10.2346 18.7689C9.96538 18.7996 9.71538 18.815 9.48462 18.815ZM13.3731 23.3035L21.8538 19.2419C22.4462 18.9573 22.8731 18.6689 23.1346 18.3766C23.4038 18.0842 23.5385 17.7381 23.5385 17.3381C23.5385 17.0227 23.4654 16.7612 23.3192 16.5535C23.1731 16.3381 22.9577 16.2304 22.6731 16.2304C22.5423 16.2304 22.3962 16.2573 22.2346 16.3112C22.0731 16.365 21.9038 16.4342 21.7269 16.5189L13.4308 20.3612C13.5154 20.5766 13.5731 20.8035 13.6038 21.0419C13.6346 21.2804 13.65 21.5073 13.65 21.7227C13.65 22.0612 13.6192 22.3689 13.5577 22.6458C13.4962 22.9304 13.4346 23.1496 13.3731 23.3035ZM13.0615 11.3842L20.8615 7.66886L8.23846 1.16117L0.542308 4.76117L13.0615 11.3842ZM21.6346 15.9881C21.3731 15.3804 21.2423 14.8419 21.2423 14.3727C21.2423 14.2419 21.2462 14.1112 21.2538 13.9804C21.2692 13.8496 21.2962 13.6881 21.3346 13.4958L21.9231 13.3227C21.7692 13.7612 21.6923 14.1342 21.6923 14.4419C21.6923 14.665 21.7269 14.8919 21.7962 15.1227C21.8731 15.3535 21.9885 15.6073 22.1423 15.8842L21.6346 15.9881ZM13.1538 14.765L22.0154 10.4381C22.4538 10.2227 22.7769 9.98809 22.9846 9.73424C23.2 9.4804 23.3077 9.17655 23.3077 8.82271C23.3077 8.49194 23.2269 8.21501 23.0654 7.99194C22.9115 7.76117 22.6923 7.64578 22.4077 7.64578C22.1231 7.64578 21.7769 7.74194 21.3692 7.93424L13.1885 11.8342C13.2731 12.0496 13.3308 12.2727 13.3615 12.5035C13.3923 12.7266 13.4077 12.9458 13.4077 13.1612C13.4077 13.4996 13.3808 13.815 13.3269 14.1073C13.2731 14.3919 13.2154 14.6112 13.1538 14.765Z" fill="#0D0D0D"/>
</svg>
