<svg xmlns="http://www.w3.org/2000/svg" width="24" height="24" viewBox="0 0 24 24" fill="none">
  <path d="M22 5.8a8.49 8.49 0 0 1-2.36.64 4.13 4.13 0 0 0 1.81-2.27 8.21 8.21 0 0 1-2.61 1 4.1 4.1 0 0 0-7 3.74A11.64 11.64 0 0 1 3.39 4.62a4.16 4.16 0 0 0-.55 2.07 4.09 4.09 0 0 0 1.82 3.41 4.05 4.05 0 0 1-1.86-.51v.05a4.1 4.1 0 0 0 3.3 4.03 4.1 4.1 0 0 1-1.86.07 4.11 4.11 0 0 0 3.83 2.85A8.23 8.23 0 0 1 2 18.34a11.62 11.62 0 0 0 6.29 1.84c7.55 0 11.67-6.25 11.67-11.67 0-.18 0-.35-.01-.53A8.18 8.18 0 0 0 22 5.8z" fill="#F2F2F2"/>
</svg>
