<?xml version="1.0" encoding="UTF-8"?>
<svg id="Layer_1" xmlns="http://www.w3.org/2000/svg" version="1.1" viewBox="0 0 766.92 461">
  <!-- Generator: Adobe Illustrator 29.8.2, SVG Export Plug-In . SVG Version: 2.1.1 Build 3)  -->
  <defs>
    <style>
      .st0 {
        fill: #f2f2f2;
      }

      .st1 {
        fill: #0d0d0d;
      }
    </style>
  </defs>
  <polygon class="st1" points="766.92 0 766.92 461 0 0 766.92 0"/>
  <g>
    <path class="st0" d="M334.95,31.47c1.85,0,3.84-.06,5.96-.2,2.12-.13,3.84.33,5.16,1.39,1.46,1.06,2.22,2.45,2.28,4.17.06,1.72.03,3.25-.1,4.57l-.2,2.58c-.27,3.71-.3,7.22-.1,10.52.2,3.31.3,5.89.3,7.74,0,2.52-.07,4.7-.2,6.55-.13,1.85.06,3.51.6,4.96.53,1.32,1.46,1.99,2.78,1.99,1.06,0,2.05-.33,2.98-.99.92-.66,1.59-1.26,1.99-1.79l5.36-7.15c.66-.79,1.32-1.59,1.99-2.38.66-.79,1.32-1.59,1.99-2.38,1.19-1.46,2.25-3.04,3.18-4.77.92-1.72,1.99-3.31,3.18-4.77l4.57-5.96c1.59-1.99,2.68-3.48,3.28-4.47s1.36-2.21,2.28-3.67l1.79-2.58c.26-.53.76-1.06,1.49-1.59.73-.53,1.29-.92,1.69-1.19.79-.4,1.59-.6,2.38-.6h5.56c1.06,0,2.12.07,3.18.2,1.06.13,2.12.2,3.18.2h6.65c.73,0,1.42-.06,2.08-.2.66-.13,1.32-.2,1.99-.2h1.99c1.99,0,3.44.33,4.37.99.79.53,1.19,1.39,1.19,2.58,0,1.46-.23,2.58-.7,3.38-.47.79-.89,1.39-1.29,1.79-.66.66-1.13,1.32-1.39,1.99-.27.66-.93,1.52-1.99,2.58-.66.66-1.26,1.23-1.79,1.69-.53.47-.99,1.03-1.39,1.69l-5.96,8.74c-.53.79-1.26,1.82-2.18,3.08-.93,1.26-1.86,2.48-2.78,3.67-.93,1.19-1.79,2.25-2.58,3.18-.79.93-1.39,1.59-1.79,1.99-.27.27-.5.53-.7.79-.2.27-.56.73-1.09,1.39l-3.38,4.96c-1.33,1.99-2.78,3.97-4.37,5.96-1.59,1.99-2.71,3.71-3.38,5.16-.27.4-.53,1.19-.79,2.38-.27,1.19-.4,2.05-.4,2.58,0,1.46.1,2.58.3,3.38.2.79.43,1.46.7,1.99.26.66.46,1.16.6,1.49.13.33.46,1.03.99,2.08,1.06,1.99,2.12,4.01,3.18,6.06,1.06,2.05,2.12,4.07,3.18,6.06.66,1.19,1.29,2.35,1.89,3.47.6,1.13,1.22,2.28,1.89,3.47.26.66.56,1.29.89,1.89.33.6.69,1.23,1.09,1.89.26.27.43.53.5.79.07.27.23.53.5.79.53.93.89,1.66,1.09,2.18.2.53.43,1.13.7,1.79,1.19,2.91,1.92,4.73,2.18,5.46.26.73.53,1.29.79,1.69l5.76,9.33c.4.66.96,1.66,1.69,2.98.73,1.32,1.46,2.75,2.18,4.27.73,1.52,1.42,3.01,2.08,4.47.66,1.46,1.06,2.58,1.19,3.38,0,.27.03.53.1.79.07.27.03.53-.1.79-.27.79-.66,1.39-1.19,1.79-.66.66-1.39.99-2.18.99h-14.3c-1.46,0-2.42-.03-2.88-.1-.46-.07-.93-.13-1.39-.2-.46-.07-1.13-.1-1.99-.1h-6.85c-.93,0-1.85-.26-2.78-.79-1.06-.66-1.92-1.79-2.58-3.38-.4-.92-.76-1.95-1.09-3.08-.33-1.12-.83-2.28-1.49-3.47l-2.58-5.56c-1.32-2.91-2.42-5.26-3.28-7.05-.86-1.79-1.59-3.24-2.18-4.37-.6-1.12-1.06-1.95-1.39-2.48-.33-.53-.63-.99-.89-1.39-.53-.66-.99-1.26-1.39-1.79-.4-.53-.73-1.12-.99-1.79-.27-.66-.43-.99-.5-.99-.07,0-.23-.13-.5-.4-.4-.4-.69-.96-.89-1.69-.2-.73-.83-2.02-1.89-3.87l-1.79-3.38c-.53-1.06-1.09-1.79-1.69-2.18-.6-.4-1.03-.66-1.29-.79-.27-.13-.43-.2-.5-.2s-.23-.06-.5-.2c-.27-.26-.53-.4-.79-.4h-.79c-.4,0-.89.07-1.49.2-.6.13-1.23.73-1.89,1.79-.66,1.06-1.03,1.95-1.09,2.68-.07.73-.1,1.23-.1,1.49l-.2,5.96c0,1.19-.07,2.12-.2,2.78-.13.66-.27,1.36-.4,2.08-.13.73-.2,1.42-.2,2.08s.03,1.23.1,1.69c.06.47.1,1.03.1,1.69.13,1.46.17,2.91.1,4.37-.07,1.46-.03,2.91.1,4.37l.4,9.53c.13,1.19-.13,2.58-.79,4.17-.66,1.59-1.72,2.91-3.18,3.97-.27.13-.66.3-1.19.5-.53.2-1.19.23-1.99.1l-6.55.2-3.77.2h-1.29c-.2,0-.43-.03-.7-.1-.27-.07-.63-.13-1.09-.2-.47-.07-1.29-.1-2.48-.1h-.99c-1.06,0-2.25.03-3.57.1-1.33.06-2.45-.5-3.38-1.69-.79-1.06-1.19-2.12-1.19-3.18v-1.29c0-.46.07-.89.2-1.29.13-1.06.2-2.02.2-2.88v-2.88l-.2-24.62c0-5.82.13-11.08.4-15.79.26-4.7.46-8.57.6-11.62v-6.16c-.13-4.9-.27-8.57-.4-11.02-.13-2.45-.2-4.8-.2-7.05v-12.91c0-1.06.07-1.85.2-2.38.13-.53.2-1.06.2-1.59,0-.79-.03-1.36-.1-1.69-.07-.33-.1-.63-.1-.89s-.03-.63-.1-1.09c-.07-.46-.1-1.22-.1-2.28v-14.1c0-.92.1-1.89.3-2.88.2-.99.7-1.89,1.49-2.68.92-.92,1.85-1.42,2.78-1.49.92-.06,1.92-.1,2.98-.1l11.12-.2Z"/>
    <path class="st0" d="M478.47,31.66c1.32,0,2.31.03,2.98.1.66.07,1.65.1,2.98.1.79,0,1.62-.03,2.48-.1.86-.06,1.69-.1,2.48-.1,1.06,0,2.65.17,4.77.5,2.12.33,3.7,1.03,4.77,2.08.66.66,1.32,1.62,1.99,2.88.66,1.26,1.19,2.42,1.59,3.48.4,1.06.73,2.25.99,3.57.26,1.32.73,2.91,1.39,4.77l1.79,6.15c.66,1.86,1.19,3.61,1.59,5.26.4,1.66.86,3.81,1.39,6.45.13,1.46.33,2.62.6,3.48.26.86.79,2.42,1.59,4.67.66,1.85,1.16,3.34,1.49,4.47.33,1.13.56,2.15.7,3.08.13.93.23,1.76.3,2.48.07.73.16,1.56.3,2.48.92,5.43,1.79,9.8,2.58,13.1.79,3.31,1.39,5.96,1.79,7.94l2.98,14.1c.26,1.06.56,2.12.89,3.18.33,1.06.63,2.12.89,3.18.26.79.4,1.59.4,2.38s.13,1.59.4,2.38l3.77,16.68c.26,1.46.6,3.11.99,4.96.4,1.85.26,3.71-.4,5.56-.4,1.06-.89,1.82-1.49,2.28-.6.47-1.16.83-1.69,1.09-.93.4-1.95.6-3.08.6s-2.95.06-5.46.2l-3.77.2h-4.57c-1.06,0-2.08-.03-3.08-.1-.99-.07-1.76-.17-2.28-.3-1.06-.26-1.82-.53-2.28-.79-.47-.26-.89-.66-1.29-1.19-.93-1.06-1.46-1.85-1.59-2.38-.13-.53-.33-1.19-.6-1.99l-3.57-10.32c-.4-1.19-.83-2.02-1.29-2.48-.46-.46-.89-.76-1.29-.89-.27-.13-.79-.23-1.59-.3-.79-.07-1.62-.16-2.48-.3-.86-.13-1.69-.23-2.48-.3-.79-.07-1.26-.1-1.39-.1h-5.16c-1.33,0-2.78.03-4.37.1-1.59.07-3.18.17-4.76.3-1.59.13-3.11.3-4.57.5-1.46.2-2.65.43-3.57.7-1.19.4-2.28.96-3.28,1.69-.99.73-1.82,1.76-2.48,3.08-.66,1.06-1.16,2.35-1.49,3.87-.33,1.52-.83,3.61-1.49,6.25-.13.4-.3,1.03-.5,1.89-.2.86-.63,1.56-1.29,2.08-.27.27-.63.43-1.09.5-.46.07-.83.1-1.09.1-.66,0-1.36-.03-2.08-.1-.73-.07-1.42-.1-2.08-.1-2.52-.26-5-.26-7.45,0-2.45.26-4.93.26-7.45,0-1.59-.13-2.85-.26-3.77-.4-.93-.13-1.86-.73-2.78-1.79-.4-.53-.79-1.19-1.19-1.99-.4-.79-.6-1.52-.6-2.18,0-.26.1-1.09.3-2.48.2-1.39.36-2.21.5-2.48.13-.4.23-.76.3-1.09.07-.33.16-.69.3-1.09.26-1.06.4-2.12.4-3.18s.13-2.12.4-3.18l.99-4.77c.66-3.04,1.09-5.36,1.29-6.95.2-1.59.43-3.11.7-4.57.53-3.57,1.09-6.19,1.69-7.84.6-1.65,1.16-3.41,1.69-5.26.13-.79.26-1.42.4-1.89.13-.46.23-1.02.3-1.69.07-.66.2-1.49.4-2.48s.5-2.41.89-4.27c.13-.66.36-1.89.69-3.67.33-1.79.63-3.01.89-3.67.92-3.97,1.82-7.64,2.68-11.02.86-3.38,1.75-6.85,2.68-10.42.92-3.57,1.85-7.45,2.78-11.62.92-4.17,1.92-9.03,2.98-14.59.66-3.84,1.36-7.01,2.08-9.53.73-2.51,2.21-4.7,4.47-6.55,1.32-1.06,2.38-1.62,3.18-1.69.79-.06,1.65-.1,2.58-.1.66,0,1.19-.03,1.59-.1.4-.06.89-.13,1.49-.2.6-.07,1.32-.13,2.18-.2.86-.06,2.15-.1,3.87-.1h12.71ZM480.06,75.74c-.27-.92-.63-2.02-1.09-3.28-.47-1.26-.96-2.22-1.49-2.88-.66-.66-1.52-.99-2.58-.99s-2.32.89-3.77,2.68c-1.46,1.79-2.65,5.53-3.57,11.22-.13.79-.23,1.42-.3,1.89-.07.47-.17,1.03-.3,1.69-.13.66-.27,1.52-.4,2.58-.13,1.06-.4,2.45-.79,4.17-.4,2.52-.83,4.57-1.29,6.15-.46,1.59-.69,2.91-.69,3.97v1.19c0,.4-.03.76-.1,1.09-.07.33-.1.69-.1,1.09,0,.66.1,1.42.3,2.28.2.86.43,1.56.7,2.08.26.66,1.06,1.39,2.38,2.18,1.32.79,3.44,1.19,6.35,1.19h2.18c.92,0,1.89-.03,2.88-.1.99-.07,1.95-.16,2.88-.3.92-.13,1.65-.33,2.18-.6,1.85-.66,2.91-1.62,3.18-2.88.26-1.26.4-2.41.4-3.48,0-1.59-.07-2.91-.2-3.97-.13-1.06-.27-2.05-.4-2.98-.13-.92-.33-1.82-.6-2.68-.27-.86-.53-1.82-.79-2.88-.79-2.91-1.23-4.93-1.29-6.06-.07-1.12-.37-2.41-.89-3.87l-2.78-8.54Z"/>
    <path class="st0" d="M595.12,125.78c-1.19-1.85-2.25-3.54-3.18-5.06-.93-1.52-2.32-3.74-4.17-6.65-1.59-2.51-2.78-4.3-3.57-5.36-.79-1.06-1.52-2.25-2.18-3.57l-1.39-2.58c-1.72-3.18-2.81-5.26-3.28-6.25-.47-.99-.89-1.69-1.29-2.08-.27-.26-.66-.56-1.19-.89-.53-.33-1.06-.5-1.59-.5-1.06,0-1.72.4-1.99,1.19-.27.79-.47,1.32-.6,1.59-.13.53-.3,1.39-.5,2.58-.2,1.19-.23,2.91-.1,5.16l.2,3.57c.13,2.25.2,3.91.2,4.96v6.16c0,1.32-.07,2.62-.2,3.87-.13,1.26-.2,2.55-.2,3.87,0,.93.06,1.82.2,2.68.13.86.2,1.76.2,2.68l.4,19.46c0,.66.03,1.29.1,1.89.06.6.16,1.23.3,1.89.13,1.19.23,2.05.3,2.58.06.53.1.99.1,1.39,0,1.59-.3,2.88-.89,3.87s-1.23,1.62-1.89,1.89c-1.19.66-2.95.92-5.26.79-2.32-.13-4.07-.2-5.26-.2h-14.69c-1.06,0-1.76-.13-2.08-.4-.33-.26-.63-.53-.89-.79-.93-1.19-1.39-2.31-1.39-3.38.13-1.99.23-3.04.3-3.18.07-.13.1-.53.1-1.19v-4.77l.2-30.58c0-2.51-.07-4.96-.2-7.35-.13-2.38-.2-4.83-.2-7.35v-2.58c0-1.46.03-2.94.1-4.47.07-1.52.16-3.01.3-4.47,0-.66.03-1.39.1-2.18.06-.79.1-1.52.1-2.18,0-1.85-.07-3.77-.2-5.76-.13-1.99-.27-3.9-.4-5.76-.27-2.78-.4-5.59-.4-8.44v-18.17c0-1.32-.07-2.61-.2-3.87-.13-1.26-.27-2.55-.4-3.87-.13-.92-.2-1.85-.2-2.78v-2.78c0-1.72.13-2.98.4-3.77.26-.79.53-1.32.79-1.59.66-.66,1.36-1.06,2.08-1.19.73-.13,1.42-.2,2.08-.2h1.19c3.04,0,6.09.07,9.13.2,3.04.13,6.22.07,9.53-.2h3.57c.92,0,1.79.2,2.58.6.79.4,1.59,1.13,2.38,2.18.79,1.06,1.85,2.58,3.18,4.57l14.69,22.24c.79,1.19,1.49,2.28,2.08,3.28s1.19,2.02,1.79,3.08c.6,1.06,1.26,2.22,1.99,3.47.73,1.26,1.69,2.75,2.88,4.47,1.59,2.38,3.04,4.57,4.37,6.55.79,1.46,1.49,2.71,2.08,3.77.6,1.06,1.12,2.12,1.59,3.18.46,1.06.99,2.22,1.59,3.48.6,1.26,1.29,2.68,2.08,4.27.4.66,1.02,1.76,1.89,3.28.86,1.52,1.62,2.28,2.28,2.28.13,0,.33-.06.6-.2.26-.13.46-.6.6-1.39.13-.53.16-1.06.1-1.59-.07-.53-.13-1.16-.2-1.89-.07-.73-.13-1.69-.2-2.88-.07-1.19-.1-2.71-.1-4.57,0-1.19.07-2.35.2-3.47.13-1.12.2-2.28.2-3.48,0-2.12-.1-4.07-.3-5.86-.2-1.79-.23-3.41-.1-4.86l.2-2.58c.13-1.19.17-2.58.1-4.17-.07-1.59-.13-3.18-.2-4.77-.07-1.59-.13-3.08-.2-4.47-.07-1.39-.1-2.41-.1-3.08v-1.79c0-1.72.03-3.41.1-5.06.07-1.65.1-3.34.1-5.06,0-1.06-.03-2.02-.1-2.88-.07-.86-.03-1.82.1-2.88,0-1.06.26-1.85.79-2.38.66-.66,1.12-.96,1.39-.89.26.07.66.1,1.19.1l6.55.2h1.89c.33,0,.6-.03.79-.1.2-.06.43-.1.69-.1h1.39c.92.13,1.72.23,2.38.3.66.07,1.39.1,2.18.1h3.38c1.19,0,2.51-.03,3.97-.1,1.46-.07,2.78.43,3.97,1.49.53.4.96,1.03,1.29,1.89.33.86.5,2.08.5,3.67,0,1.06-.03,2.02-.1,2.88-.07.86-.17,2.62-.3,5.26l-.2,6.16v14.3c0,1.06-.03,2.38-.1,3.97-.07,1.59-.1,4.04-.1,7.35-.13,2.52-.2,4.47-.2,5.86s-.07,3.01-.2,4.86c-.13,3.57-.2,6.09-.2,7.55v8.44c0,1.79-.07,4.73-.2,8.84l-.4,16.68c0,2.52.03,4.7.1,6.55.06,1.85.2,3.54.4,5.06.2,1.52.4,2.95.6,4.27.2,1.32.3,2.78.3,4.37l.2,6.55c0,1.06-.03,2.05-.1,2.98-.07.93-.5,1.72-1.29,2.38-1.06.92-2.52,1.39-4.37,1.39-1.06,0-2.28-.07-3.67-.2-1.39-.13-2.55-.2-3.47-.2h-7.54c-.66,0-1.99-.13-3.97-.4s-3.51-1.19-4.57-2.78l-7.74-10.92c-2.25-3.31-4-6.32-5.26-9.03-1.26-2.71-3.01-5.66-5.26-8.84l-4.96-7.15Z"/>
    <path class="st0" d="M726.46,32.46c1.85,0,3.24.23,4.17.7.92.47,1.65.89,2.18,1.29.92.93,1.49,1.89,1.69,2.88s.3,1.95.3,2.88v8.94c0,.66-.03,1.23-.1,1.69-.07.47-.1,1.03-.1,1.69-.13.79-.2,1.56-.2,2.28v3.67c0,1.19-.33,2.25-.99,3.18-.13.13-.4.4-.79.79-.4.4-.86.6-1.39.6l-7.94-.2c-.79,0-1.92.1-3.38.3-1.46.2-2.91,1.03-4.37,2.48-.4.4-1.09,1.52-2.08,3.38-.99,1.86-1.49,5.03-1.49,9.53v5.96c0,3.57.03,5.99.1,7.25.06,1.26.1,2.12.1,2.58s-.03.89-.1,1.29c-.07.4-.23,1.59-.5,3.57-.4,3.05-.53,5.23-.4,6.55.13,1.32.2,3.05.2,5.16v15.98c0,.99-.07,2.88-.2,5.66,0,1.06-.03,1.92-.1,2.58-.07.66-.1,1.36-.1,2.08s.03,1.56.1,2.48c.07.93.1,2.12.1,3.57l.6,11.91c.13,2.25.1,3.91-.1,4.96-.2,1.06-.63,1.92-1.29,2.58-1.06,1.06-2.12,1.59-3.18,1.59l-8.74.6c-1.72.13-3.28.13-4.67,0-1.39-.13-2.42-.2-3.08-.2h-6.75c-.66,0-1.33-.16-1.99-.5-.66-.33-1.33-1.09-1.99-2.28-.53-1.06-.79-2.18-.79-3.38l.2-6.35v-1.99c0-.66.03-1.26.1-1.79.07-.53.1-1.12.1-1.79v-5.66c0-1.92-.07-3.8-.2-5.66-.13-1.06-.23-2.15-.3-3.28-.07-1.12-.03-2.21.1-3.28l.6-10.72c.13-.92.16-1.85.1-2.78-.07-.92-.03-1.85.1-2.78,0-.53.03-.99.1-1.39.07-.4.1-.86.1-1.39v-2.38c-.13-1.06-.2-1.82-.2-2.28s-.07-1.42-.2-2.88v-4.07c0-.6.03-1.26.1-1.99.06-.73.1-1.69.1-2.88v-17.27c0-2.25.03-4.23.1-5.96.07-1.72-.83-3.64-2.68-5.76-.66-.79-1.42-1.32-2.28-1.59-.86-.26-1.62-.4-2.28-.4l-10.92.2c-1.32,0-2.28-.16-2.88-.5-.6-.33-1.09-.83-1.49-1.49-.66-1.06-.99-2.85-.99-5.36v-4.17c0-1.72.07-3.18.2-4.37l.2-3.18c0-.26.03-.79.1-1.59.06-.79.13-1.65.2-2.58.07-.92.16-1.79.3-2.58.13-.79.33-1.39.6-1.79.4-.66,1.26-1.32,2.58-1.99,1.32-.66,3.11-.99,5.36-.99,1.32,0,2.58.03,3.77.1,1.19.07,2.45.17,3.77.3,1.85.13,3.67.17,5.46.1,1.79-.06,3.61-.1,5.46-.1,3.31,0,6.58.07,9.83.2,3.24.13,6.52.2,9.83.2l22.24-.2Z"/>
  </g>
  <g>
    <path class="st0" d="M476.29,188.8c.34,0,.7-.01,1.08-.04.38-.02.7.06.94.25.26.19.4.44.41.76.01.31,0,.59-.02.83l-.04.47c-.05.67-.05,1.31-.02,1.91s.05,1.07.05,1.4c0,.46-.01.85-.04,1.19-.02.34.01.64.11.9.1.24.26.36.5.36.19,0,.37-.06.54-.18s.29-.23.36-.32l.97-1.3c.12-.14.24-.29.36-.43.12-.14.24-.29.36-.43.22-.26.41-.55.58-.86.17-.31.36-.6.58-.86l.83-1.08c.29-.36.49-.63.59-.81.11-.18.25-.4.41-.67l.32-.47c.05-.1.14-.19.27-.29.13-.1.23-.17.31-.22.14-.07.29-.11.43-.11h1.01c.19,0,.38.01.58.04.19.02.38.04.58.04h1.21c.13,0,.26-.01.38-.04.12-.02.24-.04.36-.04h.36c.36,0,.62.06.79.18.14.1.22.25.22.47,0,.26-.04.47-.13.61-.08.14-.16.25-.23.32-.12.12-.2.24-.25.36-.05.12-.17.28-.36.47-.12.12-.23.22-.32.31s-.18.19-.25.31l-1.08,1.58c-.1.14-.23.33-.4.56-.17.23-.34.45-.5.67-.17.22-.32.41-.47.58-.14.17-.25.29-.32.36-.05.05-.09.1-.13.14-.04.05-.1.13-.2.25l-.61.9c-.24.36-.5.72-.79,1.08-.29.36-.49.67-.61.94-.05.07-.1.22-.14.43s-.07.37-.07.47c0,.26.02.47.05.61.04.14.08.26.13.36.05.12.08.21.11.27.02.06.08.19.18.38.19.36.38.73.58,1.1.19.37.38.74.58,1.1.12.22.23.43.34.63.11.2.22.41.34.63.05.12.1.23.16.34.06.11.13.22.2.34.05.05.08.1.09.14.01.05.04.1.09.14.1.17.16.3.2.4.04.1.08.2.13.32.22.53.35.86.4.99.05.13.1.23.14.31l1.04,1.69c.07.12.17.3.31.54.13.24.26.5.4.77s.26.55.38.81c.12.26.19.47.22.61,0,.05,0,.1.02.14.01.05,0,.1-.02.14-.05.14-.12.25-.22.32-.12.12-.25.18-.4.18h-2.59c-.26,0-.44,0-.52-.02l-.25-.04c-.08-.01-.2-.02-.36-.02h-1.24c-.17,0-.34-.05-.5-.14-.19-.12-.35-.32-.47-.61-.07-.17-.14-.35-.2-.56-.06-.2-.15-.41-.27-.63l-.47-1.01c-.24-.53-.44-.95-.59-1.28-.16-.32-.29-.59-.4-.79-.11-.2-.19-.35-.25-.45s-.11-.18-.16-.25c-.1-.12-.18-.23-.25-.32-.07-.1-.13-.2-.18-.32-.05-.12-.08-.18-.09-.18-.01,0-.04-.02-.09-.07-.07-.07-.13-.17-.16-.31s-.15-.37-.34-.7l-.32-.61c-.1-.19-.2-.32-.31-.4-.11-.07-.19-.12-.23-.14-.05-.02-.08-.04-.09-.04-.01,0-.04-.01-.09-.04-.05-.05-.1-.07-.14-.07h-.14c-.07,0-.16.01-.27.04s-.22.13-.34.32c-.12.19-.19.35-.2.49-.01.13-.02.22-.02.27l-.04,1.08c0,.22-.01.38-.04.5-.02.12-.05.25-.07.38-.02.13-.04.26-.04.38s0,.22.02.31c.01.08.02.19.02.31.02.26.03.53.02.79-.01.26,0,.53.02.79l.07,1.73c.02.22-.02.47-.14.76s-.31.53-.58.72c-.05.02-.12.05-.22.09-.1.04-.22.04-.36.02l-1.19.04-.68.04h-.23s-.08,0-.13-.02-.11-.02-.2-.04c-.08-.01-.23-.02-.45-.02h-.18c-.19,0-.41,0-.65.02-.24.01-.44-.09-.61-.31-.14-.19-.22-.38-.22-.58v-.23c0-.08.01-.16.04-.23.02-.19.04-.37.04-.52v-.52l-.04-4.46c0-1.06.02-2.01.07-2.86.05-.85.08-1.55.11-2.11v-1.12c-.02-.89-.05-1.55-.07-2-.02-.44-.04-.87-.04-1.28v-2.34c0-.19.01-.34.04-.43.02-.1.04-.19.04-.29,0-.14,0-.25-.02-.31-.01-.06-.02-.11-.02-.16s0-.11-.02-.2c-.01-.08-.02-.22-.02-.41v-2.56c0-.17.02-.34.05-.52s.13-.34.27-.49c.17-.17.34-.26.5-.27s.35-.02.54-.02l2.02-.04Z"/>
    <path class="st0" d="M503.71,205.9c-.22-.34-.41-.64-.58-.92-.17-.28-.42-.68-.76-1.21-.29-.46-.5-.78-.65-.97-.14-.19-.28-.41-.4-.65l-.25-.47c-.31-.58-.51-.95-.59-1.13-.08-.18-.16-.31-.23-.38-.05-.05-.12-.1-.22-.16-.1-.06-.19-.09-.29-.09-.19,0-.31.07-.36.22-.05.14-.08.24-.11.29-.02.1-.05.25-.09.47-.04.22-.04.53-.02.94l.04.65c.02.41.04.71.04.9v1.12c0,.24-.01.47-.04.7-.02.23-.04.46-.04.7,0,.17.01.33.04.49.02.16.04.32.04.49l.07,3.53c0,.12,0,.23.02.34.01.11.03.22.05.34.02.22.04.37.05.47.01.1.02.18.02.25,0,.29-.05.52-.16.7-.11.18-.22.29-.34.34-.22.12-.53.17-.95.14-.42-.02-.74-.04-.95-.04h-2.66c-.19,0-.32-.02-.38-.07-.06-.05-.11-.1-.16-.14-.17-.22-.25-.42-.25-.61.02-.36.04-.55.05-.58.01-.02.02-.1.02-.22v-.86l.04-5.54c0-.46-.01-.9-.04-1.33-.02-.43-.04-.88-.04-1.33v-.47c0-.26,0-.53.02-.81.01-.28.03-.55.05-.81,0-.12,0-.25.02-.4s.02-.28.02-.4c0-.34-.01-.68-.04-1.04-.02-.36-.05-.71-.07-1.04-.05-.5-.07-1.01-.07-1.53v-3.29c0-.24-.01-.47-.04-.7-.02-.23-.05-.46-.07-.7-.02-.17-.04-.34-.04-.5v-.5c0-.31.02-.54.07-.68.05-.14.1-.24.14-.29.12-.12.25-.19.38-.22.13-.02.26-.04.38-.04h.22c.55,0,1.1.01,1.66.04.55.02,1.13.01,1.73-.04h.65c.17,0,.32.04.47.11.14.07.29.2.43.4.14.19.34.47.58.83l2.66,4.03c.14.22.27.41.38.59.11.18.22.37.32.56.11.19.23.4.36.63.13.23.31.5.52.81.29.43.55.83.79,1.19.14.26.27.49.38.68.11.19.2.38.29.58.08.19.18.4.29.63.11.23.23.49.38.77.07.12.19.32.34.59.16.28.29.41.41.41.02,0,.06-.01.11-.04.05-.02.08-.11.11-.25.02-.1.03-.19.02-.29-.01-.1-.02-.21-.04-.34s-.02-.31-.04-.52c-.01-.22-.02-.49-.02-.83,0-.22.01-.43.04-.63.02-.2.04-.41.04-.63,0-.38-.02-.74-.05-1.06-.04-.32-.04-.62-.02-.88l.04-.47c.02-.22.03-.47.02-.76s-.02-.58-.04-.86c-.01-.29-.02-.56-.04-.81-.01-.25-.02-.44-.02-.56v-.32c0-.31,0-.62.02-.92.01-.3.02-.61.02-.92,0-.19,0-.37-.02-.52-.01-.16,0-.33.02-.52,0-.19.05-.34.14-.43.12-.12.2-.17.25-.16.05.01.12.02.22.02l1.19.04h.34c.06,0,.11,0,.14-.02.04-.01.08-.02.13-.02h.25c.17.02.31.04.43.05.12.01.25.02.4.02h.61c.22,0,.46,0,.72-.02.26-.01.5.08.72.27.1.07.17.19.23.34.06.16.09.38.09.67,0,.19,0,.37-.02.52-.01.16-.03.47-.05.95l-.04,1.12v2.59c0,.19,0,.43-.02.72-.01.29-.02.73-.02,1.33-.02.46-.04.81-.04,1.06s-.01.55-.04.88c-.02.65-.04,1.1-.04,1.37v1.53c0,.32-.01.86-.04,1.6l-.07,3.02c0,.46,0,.85.02,1.19.01.34.04.64.07.92.04.28.07.54.11.77.04.24.05.5.05.79l.04,1.19c0,.19,0,.37-.02.54-.01.17-.09.31-.23.43-.19.17-.46.25-.79.25-.19,0-.41-.01-.67-.04-.25-.02-.46-.04-.63-.04h-1.37c-.12,0-.36-.02-.72-.07s-.64-.22-.83-.5l-1.4-1.98c-.41-.6-.73-1.15-.95-1.64-.23-.49-.55-1.03-.95-1.6l-.9-1.3Z"/>
    <path class="st0" d="M519.73,210.54c-.22-.17-.4-.31-.54-.41-.14-.11-.28-.23-.41-.36-.13-.13-.27-.3-.41-.5-.14-.2-.34-.49-.58-.85-.36-.55-.68-1.09-.97-1.62-.29-.53-.5-1.18-.65-1.94-.05-.17-.1-.44-.14-.81-.05-.37-.09-.76-.13-1.17-.04-.41-.07-.79-.11-1.15-.04-.36-.05-.62-.05-.79,0-.36.03-.74.09-1.15.06-.41.13-.8.2-1.19.07-.38.15-.74.23-1.06s.15-.57.2-.74c.22-.7.55-1.43,1.01-2.2.46-.77.92-1.46,1.4-2.09.48-.6.89-1.06,1.24-1.37.35-.31.62-.54.81-.68.38-.29.85-.54,1.39-.76s1.09-.4,1.66-.56c.56-.16,1.12-.28,1.66-.36s1.01-.13,1.42-.13c1.22,0,2.26.15,3.11.45.85.3,1.49.56,1.93.77.58.29,1.09.6,1.55.94s.85.67,1.19,1.01c.33.34.62.64.85.92.23.28.39.49.49.63.33.5.65,1.07.94,1.69s.53,1.2.72,1.73c.05.14.11.34.18.58.07.24.14.55.2.94s.11.86.14,1.42.04,1.24.02,2.03c-.02,1.37-.2,2.57-.54,3.62s-.74,1.96-1.21,2.74c-.47.78-.95,1.42-1.44,1.93-.49.5-.92.88-1.28,1.12-.7.5-1.37.89-2.02,1.15-.65.26-1.25.46-1.82.59-.56.13-1.07.21-1.51.23-.44.02-.81.04-1.1.04-1.32,0-2.51-.11-3.58-.32-1.07-.22-2.12-.73-3.15-1.55l-.97-.76ZM532.76,201.38c0-.65-.06-1.36-.18-2.13-.12-.77-.35-1.43-.68-1.99-.19-.36-.44-.71-.76-1.05-.31-.34-.67-.64-1.08-.92-.41-.28-.86-.5-1.35-.67-.49-.17-1.01-.25-1.57-.25-.41,0-.71.03-.9.09-.19.06-.41.11-.65.16-.26.07-.55.15-.86.22-.31.07-.71.31-1.19.72-.72.6-1.28,1.37-1.67,2.29-.4.93-.59,1.89-.59,2.91,0,.7.08,1.44.23,2.22.16.78.47,1.56.95,2.33.5.84,1.21,1.46,2.11,1.86.9.4,1.81.6,2.72.6.53,0,1.01-.08,1.46-.23.44-.16.83-.35,1.17-.58.34-.23.62-.46.85-.7.23-.24.41-.45.56-.61.46-.58.81-1.26,1.06-2.04s.38-1.52.38-2.22Z"/>
    <path class="st0" d="M539.36,192.5c-.19-.96-.33-1.6-.41-1.91-.08-.31-.13-.55-.13-.72,0-.43.11-.71.32-.83.14-.1.31-.14.5-.14.22-.02.35-.04.41-.04s.11,0,.16.02.11.02.18.02h.47c.19-.02.41-.04.65-.04h.86c.67,0,1.12.04,1.35.11.23.07.4.2.52.4.12.19.22.43.31.7.08.28.15.52.2.74.1.55.16.91.18,1.08.02.17.04.28.04.34v.22c0,.08.04.33.11.74.07.48.17.9.31,1.26.13.36.26.78.38,1.26l.22.86c.07.24.13.43.16.56s.07.26.11.38.08.26.13.43c.05.17.11.42.18.76.1.48.18.88.25,1.21.07.32.17.75.29,1.28.14.6.28,1.13.4,1.58.12.46.23.95.32,1.48.02.14.07.31.13.49.06.18.16.27.31.27.1,0,.19-.07.27-.22.08-.14.16-.32.22-.52.06-.2.11-.4.14-.59.04-.19.07-.35.09-.47.05-.31.14-.71.27-1.21.13-.49.25-.86.34-1.1l.32-.83c.02-.1.06-.17.11-.23.05-.06.09-.13.13-.22.04-.08.07-.19.09-.32.02-.13.04-.32.04-.56v-.58c0-.31-.01-.57-.04-.77-.02-.2-.05-.38-.09-.54s-.07-.32-.11-.5c-.04-.18-.07-.4-.09-.67l-.07-.68c-.02-.19-.06-.37-.11-.52s-.1-.33-.14-.52c-.05-.14-.07-.28-.07-.41s-.01-.27-.04-.41c-.02-.17-.05-.31-.07-.43-.02-.12-.05-.25-.09-.38s-.07-.28-.11-.45-.08-.38-.13-.65l-.14-.9c-.05-.34-.08-.59-.11-.76-.02-.17.05-.31.22-.43.14-.12.43-.18.86-.18l2.16.07,1.3-.07c.34-.02.56.01.68.11s.2.18.25.25c.14.26.23.44.25.54.02.1.05.23.07.4l.58,4.03c.09.65.25,1.36.45,2.12.2.77.39,1.54.56,2.3.17.77.28,1.33.34,1.67.06.35.1.62.13.81.02.19.05.37.07.52.02.16.07.43.14.81.14.65.26,1.07.34,1.28.08.2.13.37.13.49,0,.05.01.11.04.18.05.1.1.14.14.14h.07c.12,0,.22-.07.29-.22.12-.31.18-.49.18-.52s.02-.15.07-.34l.11-.32c.12-.36.2-.73.25-1.12.05-.38.13-.76.25-1.12.07-.26.15-.51.23-.74.08-.23.15-.47.2-.74l.36-2.23c.07-.38.15-.7.23-.95.08-.25.17-.51.27-.77.1-.26.19-.56.29-.88s.19-.74.29-1.24l.29-1.69c.02-.14.08-.4.18-.77s.17-.65.22-.85.14-.39.27-.59c.13-.2.26-.34.38-.41.12-.07.25-.11.4-.11h.4l2.16.07c.34.02.62.03.86.02.24-.01.47.04.68.16.1.05.19.13.29.25.1.12.14.23.14.32,0,.07,0,.16-.02.25-.01.1-.04.24-.09.43l-.18.68c-.14.5-.24.88-.29,1.12-.05.24-.08.42-.11.54-.02.12-.03.21-.02.27.01.06,0,.17-.02.34-.07.29-.13.46-.18.5,0,.02-.02.11-.07.25,0,.05,0,.09-.02.13-.01.04-.02.08-.02.13-.05.26-.11.51-.18.74-.07.23-.14.46-.22.7l-.32,1.22c-.1.34-.17.65-.23.95-.06.3-.13.62-.2.95-.1.41-.18.82-.25,1.22-.07.41-.17.82-.29,1.22-.12.41-.21.71-.25.9-.05.19-.09.33-.13.41-.04.08-.06.14-.07.16-.01.02-.03.08-.05.18-.02.1-.07.25-.13.47-.06.22-.15.55-.27,1.01-.05.26-.09.44-.13.54s-.07.17-.09.22c-.05.12-.07.24-.07.36s-.05.4-.14.83c-.1.41-.16.72-.18.94-.02.22-.06.41-.11.58l-.61,2.23c-.14.5-.25.91-.32,1.21-.07.3-.14.53-.2.7s-.13.29-.2.38c-.07.08-.18.16-.32.23-.12.05-.23.1-.34.14-.11.05-.28.07-.52.07-.14,0-.24,0-.29-.02-.05-.01-.13-.02-.23-.02s-.28,0-.5-.02c-.23-.01-.61-.02-1.13-.02h-3.1c-.26,0-.48-.07-.65-.22-.17-.14-.29-.28-.36-.4-.19-.29-.31-.57-.36-.85-.05-.28-.1-.51-.14-.7-.02-.07-.04-.13-.04-.18s-.01-.11-.04-.18c-.05-.07-.08-.15-.11-.23-.02-.08-.06-.22-.11-.41-.07-.24-.13-.42-.16-.54-.04-.12-.06-.21-.07-.27s-.03-.11-.05-.14c-.02-.04-.05-.09-.07-.16l-.18-.61s-.04-.08-.04-.09c0-.01-.01-.04-.04-.09,0-.02,0-.04-.02-.05-.01-.01-.02-.03-.02-.05-.12-.17-.24-.17-.36,0-.05.07-.11.19-.18.36-.07.17-.14.35-.22.56s-.14.4-.2.59c-.06.19-.1.34-.13.43l-.32,1.51c-.1.38-.19.71-.27.99-.08.28-.2.47-.34.59-.19.19-.43.28-.7.25-.28-.02-.55-.04-.81-.04l-3.71-.07c-.26,0-.47-.03-.63-.09-.16-.06-.26-.11-.31-.16-.17-.14-.31-.36-.43-.65-.12-.29-.22-.61-.31-.97-.08-.36-.15-.73-.2-1.1-.05-.37-.1-.7-.14-.99l-.22-1.3c-.12-.62-.29-1.24-.5-1.85-.22-.61-.38-1.23-.5-1.85-.05-.26-.08-.52-.11-.76-.02-.24-.06-.49-.11-.76-.12-.67-.31-1.45-.58-2.34-.26-.89-.52-1.88-.76-2.99l-1.01-4.64Z"/>
    <path class="st0" d="M568.74,191.57v-1.48c.05-.43.18-.74.4-.94.26-.24.63-.35,1.1-.32.47.02.91.04,1.31.04h1.98c.14,0,.3.01.47.04.17.02.32.12.47.29.19.19.28.41.27.65-.01.24-.03.46-.05.65l-.07.86c-.02.31-.02.62,0,.94.02.31.04.62.04.94,0,.36-.01.72-.04,1.08-.02.36-.04.72-.04,1.08,0,.34,0,.68.02,1.03.01.35.03.69.05,1.03.02.34.04.68.05,1.03.01.35.02.69.02,1.03,0,.17,0,.38-.02.63-.01.25-.03.59-.05,1.03-.05.29-.08.51-.09.67s-.02.33-.02.52v.61c0,.19,0,.46.02.79.01.34.03.7.05,1.08.02.38.05.74.09,1.08s.08.58.13.72c.12.34.29.54.52.61.23.07.4.11.52.11l5.11.04c.41,0,.64,0,.7-.02.06-.01.22-.02.49-.02.24,0,.42.04.54.11s.2.13.25.18c.05.07.1.19.14.36.05.17.07.4.07.68v1.19c0,.17,0,.29-.02.38-.01.08-.02.18-.02.29v.49c0,.22.01.53.04.94,0,.14,0,.3-.02.47-.01.17-.1.31-.27.43-.19.14-.47.22-.83.22-.14,0-.23,0-.27-.02-.04-.01-.08-.02-.13-.02s-.14,0-.27-.02c-.13-.01-.37-.02-.7-.02h-2.52l-1.3-.04c-.6-.02-1.14-.02-1.62,0s-.83.05-1.04.07c-.55.02-1.03.02-1.44-.02-.41-.04-.8-.05-1.19-.05h-.58c-.36,0-.68.01-.95.04-.28.02-.56-.12-.85-.43-.19-.22-.31-.42-.36-.61-.05-.19-.07-.36-.07-.5,0-.34.01-.65.04-.95.02-.3.04-.62.04-.95,0-.26,0-.54-.02-.83-.01-.29,0-.56.02-.83,0-.17,0-.32.02-.47.01-.14.02-.3.02-.47v-1.22c0-.34-.01-.65-.04-.95-.02-.3-.05-.69-.07-1.17v-.68c0-.31.01-.62.04-.92.02-.3.04-.61.04-.92l-.04-1.48c0-.31,0-.62-.02-.94-.01-.31-.02-.62-.02-.94,0-.7,0-1.39.02-2.09.01-.7,0-1.39-.02-2.09l-.04-1.98Z"/>
    <path class="st0" d="M590.86,189.01c.67.02,1.34.02,2.02-.02s1.34-.05,2.02-.05h.65c.34.02.66.05.97.09s.6.04.86.02l1.3-.07c.12,0,.25.01.38.04.13.02.26.13.38.32.17.24.25.61.25,1.12,0,.1,0,.16-.02.18-.01.02-.02.17-.02.43-.02.22-.05.38-.07.49-.02.11-.05.22-.07.34l-.14.83c-.02.17-.05.36-.09.58-.04.22-.11.38-.23.5-.05.05-.14.11-.29.18-.14.07-.4.1-.76.07l-5.36-.22c-.7-.02-1.2.12-1.51.43-.19.19-.3.4-.32.61-.02.22-.02.4,0,.54l.04.4c0,.07,0,.14.02.2.01.06.02.13.02.2v.43c0,.12.01.25.04.4.02.14.1.29.22.43.19.26.46.42.81.47.35.05.65.07.92.07l1.4-.04c.22,0,.41,0,.59-.02.18-.01.41-.02.7-.02h.23s.07,0,.09.02c.02.01.05.02.07.04.02.01.08.02.18.02l.58.04c.33.02.63.02.88-.02s.46-.05.63-.05.39.03.67.09c.28.06.47.15.59.27.19.19.29.59.29,1.19v1.58c0,.14-.01.36-.04.65-.02.29-.05.49-.07.61-.05.19-.11.34-.2.45-.08.11-.19.19-.31.23-.26.14-.53.23-.81.25-.28.02-.55.04-.81.04s-.58,0-.94-.02c-.36-.01-.74-.02-1.13-.04-.4-.01-.79-.03-1.17-.05-.38-.02-.71-.05-.97-.07l-1.4-.11c-.07,0-.17.02-.31.05s-.26.11-.38.23c-.19.26-.31.49-.34.67-.04.18-.05.33-.05.45v1.71c0,.25.02.47.07.67.02.1.05.2.07.31.02.11.1.21.22.31.12.1.24.16.36.18.12.02.23.05.32.07l.65.07c.55.05,1.01.07,1.37.07s.64-.01.83-.04c.41-.02.83-.02,1.26,0,.43.02.85.04,1.26.04.22,0,.44-.01.67-.04.23-.02.45-.04.67-.04.53-.02.91.02,1.15.13.24.11.41.21.5.31.17.17.26.39.29.67.02.28.04.55.04.81,0,.38,0,.77.02,1.15.01.38-.01.73-.07,1.04-.06.31-.17.57-.32.77-.16.2-.4.31-.74.31h-.72c-.46,0-.91-.01-1.35-.04-.45-.02-.89-.04-1.35-.04-.41,0-.82.01-1.22.04-.41.02-.82.04-1.22.04h-3.85c-.17,0-.34,0-.5-.02-.17-.01-.34-.02-.5-.02h-1.51c-.26,0-.59,0-.97.02s-.67-.15-.86-.49c-.05-.07-.1-.16-.14-.27-.05-.11-.07-.22-.07-.34l-.07-1.55c0-.12,0-.25-.02-.38-.01-.13-.02-.26-.02-.38v-1.12l-.04-1.91c-.02-.55-.01-1.08.04-1.58.05-.5.05-1.15,0-1.94-.02-.41-.04-.76-.05-1.06-.01-.3-.02-.62-.02-.95,0-.24,0-.45.02-.63.01-.18.02-.36.02-.54s0-.38.02-.61c.01-.23.02-.52.02-.88v-.86c0-.22,0-.39-.02-.52-.01-.13-.02-.25-.04-.36-.01-.11-.02-.23-.02-.36s.01-.31.04-.52c0-.14,0-.3.02-.47.01-.17.03-.4.05-.68l.04-.9v-.47c0-.19-.01-.4-.04-.61-.02-.22-.05-.5-.07-.86v-.65c0-.24.03-.56.09-.95.06-.4.25-.7.56-.92.19-.12.42-.2.68-.25.26-.05.55-.06.86-.04l3.67.14Z"/>
    <path class="st0" d="M611.27,188.94h1.87c.7,0,1.43.13,2.2.4l1.04.36c.91.31,1.75.69,2.5,1.13.76.44,1.51,1.1,2.25,1.96.65.77,1.17,1.52,1.57,2.25.4.73.7,1.46.92,2.2.22.73.36,1.49.43,2.27.07.78.11,1.6.11,2.47,0,1.37-.23,2.63-.7,3.78-.47,1.15-.95,2.08-1.46,2.77-1.13,1.58-2.53,2.72-4.21,3.4-1.68.68-3.6,1.03-5.76,1.03h-5.94c-.7,0-1.16-.02-1.39-.07s-.37-.1-.41-.14c-.34-.22-.53-.54-.58-.97-.05-.43-.07-.83-.07-1.19,0-.34,0-.67.02-1.01s.02-.67.02-1.01c0-.79-.01-1.44-.04-1.94-.02-.5-.02-1.03,0-1.58l.04-1.01c0-.12,0-.25.02-.4.01-.14.03-.28.05-.4,0-.07,0-.14.02-.22.01-.07.02-.14.02-.22,0-.29-.01-.58-.04-.88-.02-.3-.05-.62-.07-.95v-.61c.02-.26.05-.67.09-1.21s.04-1.01.02-1.42l-.07-1.22c-.05-.58-.05-1.16,0-1.75.05-.59.07-1.17.07-1.75,0-.36-.01-.71-.04-1.06-.02-.35-.04-.7-.04-1.06,0-.19.02-.46.05-.79s.16-.6.38-.79c.12-.1.29-.19.52-.29.23-.1.51-.14.85-.14.22,0,.35,0,.4.02s.09.02.13.02.08,0,.14.02c.06.01.22.02.49.02h4.61ZM613.32,207.62c.17,0,.36-.02.58-.07s.44-.1.67-.16c.23-.06.44-.13.65-.2.2-.07.38-.14.52-.22.67-.31,1.13-.64,1.39-.99.25-.35.47-.73.67-1.13.36-.82.59-1.46.68-1.93.1-.47.14-.94.14-1.42,0-1.08-.11-1.94-.34-2.59-.23-.65-.47-1.15-.74-1.51-.48-.67-1.18-1.29-2.11-1.85-.92-.56-2.05-.82-3.37-.77-.26-.02-.61,0-1.04.05-.43.06-.78.25-1.04.56-.26.31-.41.68-.45,1.12-.04.43-.07.92-.09,1.48l-.11,2.45.04,1.44c.02.41.04.8.04,1.19v2.05c.02.5.05.85.07,1.03.02.18.06.31.11.38.24.48.62.79,1.15.92.53.13,1.14.2,1.84.2h.76Z"/>
    <path class="st0" d="M642.61,197.91c.55,0,1.04-.04,1.48-.11.43-.07.8,0,1.12.22.26.19.42.43.47.7.05.28.07.51.07.7.05.89.05,1.75,0,2.59s-.07,1.68-.07,2.52c0,.55.01,1.12.04,1.69.02.58.04,1.15.04,1.73,0,1.44-.04,2.48-.13,3.11s-.2,1.07-.34,1.31c-.12.22-.3.37-.54.45-.24.08-.46.13-.65.13-.58.07-1.1.11-1.58.11h-2.05c-.36,0-.74-.01-1.15-.04-.41-.02-.81-.04-1.21-.05-.4-.01-.73-.04-.99-.09-.72-.1-1.52-.3-2.39-.61-.88-.31-1.74-.71-2.59-1.19-.85-.48-1.65-1.04-2.39-1.67-.74-.64-1.37-1.31-1.87-2.03-.34-.5-.64-1.08-.92-1.73-.28-.65-.51-1.33-.7-2.05-.19-.72-.34-1.45-.43-2.18-.1-.73-.14-1.43-.14-2.11,0-.29.02-.71.07-1.26.05-.55.18-1.19.4-1.91.22-.72.56-1.48,1.03-2.27s1.12-1.57,1.96-2.34c.41-.38.86-.74,1.37-1.06.5-.32,1.12-.61,1.84-.85.72-.24,1.58-.43,2.57-.56,1-.13,2.19-.2,3.58-.2,1.49,0,2.54.02,3.17.07.62.05,1.01.08,1.15.11.46.07.82.18,1.08.33s.48.37.65.69c.19.34.29.68.31,1.03.01.35.03.79.05,1.32l.04,1.08c.05.87-.32,1.3-1.12,1.3-.34,0-.73-.07-1.17-.2-.44-.13-.83-.23-1.17-.3-.31-.07-.78-.15-1.4-.25-.62-.09-1.25-.14-1.87-.14-.55,0-1.13.05-1.75.14s-1.19.25-1.75.47c-.62.26-1.17.62-1.64,1.08-.47.46-.87,1.05-1.21,1.79-.1.22-.21.56-.34,1.02-.13.47-.2,1.11-.2,1.92,0,.69.1,1.29.29,1.78.19.49.4.94.61,1.35.24.48.55.97.92,1.47.37.5,1.01,1.01,1.93,1.51.48.26,1.04.49,1.67.67.64.18,1.4.27,2.29.27.24,0,.48-.04.72-.11.24-.07.46-.2.65-.4.17-.19.28-.41.34-.65.06-.24.09-.49.09-.76v-.49c0-.2-.01-.41-.04-.63-.02-.22-.05-.42-.09-.61-.04-.19-.1-.36-.2-.5-.19-.26-.38-.42-.58-.47s-.35-.07-.47-.07l-.5.04c-.14.02-.28.04-.4.05-.12.01-.24-.03-.36-.13-.12-.07-.2-.2-.23-.4s-.05-.41-.05-.65.01-.49.04-.74c.02-.25.04-.47.04-.67v-.83c0-.36.04-.64.13-.85.08-.2.19-.36.32-.47s.27-.19.41-.23c.14-.05.29-.07.43-.07h.47c.55.02.92.05,1.1.09.18.04.41.05.7.05h1.08Z"/>
    <path class="st0" d="M655.17,189.01c.67.02,1.34.02,2.02-.02s1.34-.05,2.02-.05h.65c.34.02.66.05.97.09s.6.04.86.02l1.3-.07c.12,0,.25.01.38.04.13.02.26.13.38.32.17.24.25.61.25,1.12,0,.1,0,.16-.02.18-.01.02-.02.17-.02.43-.02.22-.05.38-.07.49-.02.11-.05.22-.07.34l-.14.83c-.02.17-.05.36-.09.58-.04.22-.11.38-.23.5-.05.05-.14.11-.29.18-.14.07-.4.1-.76.07l-5.36-.22c-.7-.02-1.2.12-1.51.43-.19.19-.3.4-.32.61-.02.22-.02.4,0,.54l.04.4c0,.07,0,.14.02.2.01.06.02.13.02.2v.43c0,.12.01.25.04.4.02.14.1.29.22.43.19.26.46.42.81.47.35.05.65.07.92.07l1.4-.04c.22,0,.41,0,.59-.02.18-.01.41-.02.7-.02h.23s.07,0,.09.02c.02.01.05.02.07.04.02.01.08.02.18.02l.58.04c.33.02.63.02.88-.02s.46-.05.63-.05.39.03.67.09c.28.06.47.15.59.27.19.19.29.59.29,1.19v1.58c0,.14-.01.36-.04.65-.02.29-.05.49-.07.61-.05.19-.11.34-.2.45-.08.11-.19.19-.31.23-.26.14-.53.23-.81.25-.28.02-.55.04-.81.04s-.58,0-.94-.02c-.36-.01-.74-.02-1.13-.04-.4-.01-.79-.03-1.17-.05-.38-.02-.71-.05-.97-.07l-1.4-.11c-.07,0-.17.02-.31.05s-.26.11-.38.23c-.19.26-.31.49-.34.67-.04.18-.05.33-.05.45v1.71c0,.25.02.47.07.67.02.1.05.2.07.31.02.11.1.21.22.31.12.1.24.16.36.18.12.02.23.05.32.07l.65.07c.55.05,1.01.07,1.37.07s.64-.01.83-.04c.41-.02.83-.02,1.26,0,.43.02.85.04,1.26.04.22,0,.44-.01.67-.04.23-.02.45-.04.67-.04.53-.02.91.02,1.15.13.24.11.41.21.5.31.17.17.26.39.29.67.02.28.04.55.04.81,0,.38,0,.77.02,1.15.01.38-.01.73-.07,1.04-.06.31-.17.57-.32.77-.16.2-.4.31-.74.31h-.72c-.46,0-.91-.01-1.35-.04-.45-.02-.89-.04-1.35-.04-.41,0-.82.01-1.22.04-.41.02-.82.04-1.22.04h-3.85c-.17,0-.34,0-.5-.02-.17-.01-.34-.02-.5-.02h-1.51c-.26,0-.59,0-.97.02s-.67-.15-.86-.49c-.05-.07-.1-.16-.14-.27-.05-.11-.07-.22-.07-.34l-.07-1.55c0-.12,0-.25-.02-.38-.01-.13-.02-.26-.02-.38v-1.12l-.04-1.91c-.02-.55-.01-1.08.04-1.58.05-.5.05-1.15,0-1.94-.02-.41-.04-.76-.05-1.06-.01-.3-.02-.62-.02-.95,0-.24,0-.45.02-.63.01-.18.02-.36.02-.54s0-.38.02-.61c.01-.23.02-.52.02-.88v-.86c0-.22,0-.39-.02-.52-.01-.13-.02-.25-.04-.36-.01-.11-.02-.23-.02-.36s.01-.31.04-.52c0-.14,0-.3.02-.47.01-.17.03-.4.05-.68l.04-.9v-.47c0-.19-.01-.4-.04-.61-.02-.22-.05-.5-.07-.86v-.65c0-.24.03-.56.09-.95.06-.4.25-.7.56-.92.19-.12.42-.2.68-.25.26-.05.55-.06.86-.04l3.67.14Z"/>
    <path class="st0" d="M679.61,213.03c-.34,0-.56,0-.67.02-.11.01-.29.02-.56.02-.43,0-.74-.04-.92-.13-.18-.08-.31-.19-.38-.31-.05-.07-.1-.19-.16-.36-.06-.17-.09-.43-.09-.79s0-.59.02-.7c.01-.11.02-.19.04-.25.01-.06.02-.14.04-.23.01-.1.02-.31.02-.65,0-.19,0-.4-.02-.61-.01-.22-.02-.42-.02-.61-.02-.33-.03-.67-.02-1.01.01-.34.02-.67.02-1.01,0-.53,0-.94.02-1.24.01-.3.02-.55.04-.76.01-.2.02-.38.04-.54.01-.16.02-.34.02-.56v-.88c0-.3-.01-.62-.04-.95-.02-.38-.04-.69-.04-.92v-2.3c0-.08,0-.23.02-.43s.03-.57.05-1.1c.05-.84.08-1.41.09-1.71.01-.3.02-.51.02-.63,0-.53-.01-1.04-.04-1.55-.02-.5-.04-1.02-.04-1.55,0-.6.04-1.03.13-1.3.08-.26.17-.46.27-.58.17-.22.38-.36.65-.43.26-.07.54-.12.85-.14.3-.02.6-.02.9.02.3.04.57.05.81.05.58.05,1.16.05,1.75.02.59-.04,1.17-.04,1.75-.02.43.02.86.05,1.3.07.43.02.86.02,1.3,0l1.98-.11c.55-.02.99-.04,1.31-.04s.58.03.77.09c.19.06.33.14.43.24.1.1.18.22.25.36.1.17.14.36.14.58,0,.1,0,.19-.02.27-.01.08-.02.18-.02.27-.02.12-.04.23-.04.33v1.56c0,.1-.01.26-.04.49-.02.23-.11.44-.25.63-.22.27-.47.39-.77.38-.3-.01-.55-.02-.74-.02l-5.26-.11c-.1,0-.31.02-.65.05-.34.04-.6.17-.79.41-.24.26-.35.57-.34.93.01.36.02.67.02.93v.25c0,.21,0,.42.02.61.01.19.09.38.23.57.19.24.53.4,1.01.48s.89.12,1.22.12c.36,0,.64,0,.83-.02.19-.01.34-.03.45-.05.11-.02.19-.04.23-.04h.22l1.22.07c.46.02.86.01,1.21-.04.35-.05.73-.01,1.13.11.1.05.22.14.38.27.16.13.23.4.23.81,0,.24-.01.42-.04.54-.02.14-.04.28-.05.41-.01.13-.02.27-.02.41v1.4c0,.19-.04.35-.11.49s-.14.23-.22.31c-.12.1-.25.16-.38.18-.13.02-.26.04-.38.04s-.25,0-.4-.02c-.14-.01-.28-.02-.4-.02h-.54c-.34,0-.67.01-.99.04-.32.02-.65.02-.99,0l-1.51-.07c-.5-.02-.87,0-1.1.09-.23.08-.41.19-.56.31-.12.12-.23.25-.34.38-.11.13-.19.32-.23.56-.07.31-.12.67-.14,1.08-.02.41-.04.8-.05,1.19-.01.38-.02.73-.02,1.04v.68l-.11,2.16c-.02.34-.03.61-.02.81s.01.38,0,.54-.04.29-.07.4c-.04.11-.11.22-.23.34-.24.26-.6.4-1.08.4l-1.55-.04Z"/>
    <path class="st0" d="M696.87,210.54c-.22-.17-.4-.31-.54-.41-.14-.11-.28-.23-.41-.36s-.27-.3-.41-.5c-.14-.2-.34-.49-.58-.85-.36-.55-.68-1.09-.97-1.62-.29-.53-.5-1.18-.65-1.94-.05-.17-.1-.44-.14-.81-.05-.37-.09-.76-.13-1.17-.04-.41-.07-.79-.11-1.15-.04-.36-.05-.62-.05-.79,0-.36.03-.74.09-1.15s.13-.8.2-1.19.15-.74.23-1.06c.08-.32.15-.57.2-.74.22-.7.55-1.43,1.01-2.2.46-.77.92-1.46,1.4-2.09.48-.6.89-1.06,1.24-1.37s.62-.54.81-.68c.38-.29.85-.54,1.39-.76s1.09-.4,1.66-.56c.56-.16,1.12-.28,1.66-.36s1.01-.13,1.42-.13c1.22,0,2.26.15,3.11.45s1.49.56,1.93.77c.58.29,1.09.6,1.55.94.46.34.85.67,1.19,1.01.34.34.62.64.85.92.23.28.39.49.49.63.34.5.65,1.07.94,1.69.29.62.53,1.2.72,1.73.05.14.11.34.18.58.07.24.14.55.2.94.06.38.11.86.14,1.42s.04,1.24.02,2.03c-.02,1.37-.2,2.57-.54,3.62-.34,1.04-.74,1.96-1.21,2.74-.47.78-.95,1.42-1.44,1.93s-.92.88-1.28,1.12c-.7.5-1.37.89-2.02,1.15-.65.26-1.25.46-1.82.59-.56.13-1.07.21-1.51.23-.44.02-.81.04-1.1.04-1.32,0-2.51-.11-3.58-.32-1.07-.22-2.12-.73-3.15-1.55l-.97-.76ZM709.91,201.38c0-.65-.06-1.36-.18-2.13-.12-.77-.35-1.43-.68-1.99-.19-.36-.44-.71-.76-1.05-.31-.34-.67-.64-1.08-.92-.41-.28-.86-.5-1.35-.67-.49-.17-1.01-.25-1.57-.25-.41,0-.71.03-.9.09-.19.06-.41.11-.65.16-.26.07-.55.15-.86.22-.31.07-.71.31-1.19.72-.72.6-1.28,1.37-1.67,2.29-.4.93-.59,1.89-.59,2.91,0,.7.08,1.44.23,2.22.16.78.47,1.56.95,2.33.5.84,1.21,1.46,2.11,1.86.9.4,1.81.6,2.72.6.53,0,1.01-.08,1.46-.23.44-.16.83-.35,1.17-.58.33-.23.62-.46.85-.7.23-.24.41-.45.56-.61.46-.58.81-1.26,1.06-2.04s.38-1.52.38-2.22Z"/>
    <path class="st0" d="M719.62,213.06h-.49c-.18,0-.35-.02-.5-.07-.16-.05-.28-.14-.38-.29-.1-.14-.14-.36-.14-.65,0-.14,0-.28.02-.41.01-.13.02-.27.02-.41,0-.22,0-.43-.02-.63-.01-.2-.02-.41-.02-.63,0-.17,0-.32.02-.47.01-.14.03-.3.05-.47,0-.1,0-.19.02-.27.01-.08.02-.17.02-.27l.04-1.44v-1.1c0-.28,0-.52-.02-.72s-.03-.39-.05-.56c-.02-.17-.04-.37-.04-.61v-.32c0-.31,0-.61.02-.9.01-.29.03-.59.05-.9.02-.6.02-1.19,0-1.76-.02-.58-.02-1.16,0-1.76,0-.46.01-.86.04-1.21.02-.35.04-.68.05-.99.01-.31.02-.63.04-.95.01-.32.02-.7.02-1.13l-.07-4.07c0-.1.02-.24.05-.43.04-.19.15-.37.34-.54.12-.1.29-.17.52-.23.23-.06.44-.09.63-.09l2.3.07c.6.02,1.05.04,1.35.04h.72c.18,0,.35,0,.52-.02s.42-.02.76-.02c.12,0,.22,0,.31.02.08.01.19.02.31.02.48,0,1,.01,1.55.04.55.02,1.12.1,1.69.22.58.12,1.15.29,1.71.52.56.23,1.12.53,1.67.92.77.55,1.42,1.32,1.94,2.3.53.98.79,2.23.79,3.74,0,.36-.03.77-.09,1.22-.06.46-.14.91-.25,1.37-.11.46-.25.89-.41,1.3-.17.41-.36.76-.58,1.04-.02.05-.05.08-.07.09-.02.01-.05.04-.07.09-.05.05-.08.09-.09.13s-.04.08-.09.13c-.17.24-.32.43-.45.56s-.26.26-.38.4-.26.28-.43.45c-.17.17-.37.41-.61.72-.22.26-.32.53-.32.79,0,.17.03.3.09.41.06.11.2.25.41.44.41.35.79.62,1.13.78.35.17.64.3.88.39.26.12.47.2.63.25.16.05.28.12.38.21.1.12.16.27.18.45.02.18.04.33.04.45,0,.27-.01.54-.04.83-.02.29-.04.57-.04.83l-.04,1.09c-.02.51-.04.89-.05,1.14s-.11.45-.31.6c-.14.12-.36.21-.65.27-.29.06-.52.09-.68.09-.12,0-.34-.01-.67-.04-.32-.02-.63-.13-.92-.32-.17-.12-.41-.31-.72-.58-.48-.41-.87-.73-1.17-.97-.3-.24-.58-.5-.85-.79l-.58-.65-.29-.29c-.12-.05-.19-.08-.2-.11-.01-.02-.03-.05-.05-.07l-.94-.58c-.29-.19-.5-.37-.65-.52-.14-.16-.38-.29-.72-.41-.17-.05-.3-.08-.4-.09-.1-.01-.22-.02-.36-.02-.05,0-.17.02-.36.05-.19.04-.35.13-.47.27-.17.19-.26.37-.29.54-.02.17-.04.28-.04.32v1.98c0,.19,0,.35.02.47.01.12.03.24.05.36.07.22.11.42.11.61,0,.43-.19.67-.56.72-.37.05-.76.05-1.17,0-.12-.02-.28-.04-.47-.04l-2.27.07ZM723.98,201.25c.05.5.18.82.4.94.1.05.22.09.38.13.16.04.31.05.45.05.41,0,.79-.07,1.13-.2.35-.13.66-.29.94-.49.28-.19.51-.38.7-.58.19-.19.34-.35.43-.47s.22-.29.38-.5c.16-.22.31-.47.47-.76.16-.29.29-.62.4-.99.11-.37.16-.76.16-1.17s-.07-.8-.22-1.19c-.14-.38-.36-.71-.65-.97-.36-.34-.84-.55-1.44-.65-.6-.1-1.16-.14-1.69-.14-.34,0-.68.04-1.03.11-.35.07-.58.26-.7.58-.05.1-.09.24-.13.43s-.05.41-.05.65c0,.17,0,.31.02.41.01.11.02.23.02.36v.49c0,.19-.01.46-.04.79,0,.12,0,.32-.02.59-.01.28-.02.47-.02.59l.11,1.98Z"/>
    <path class="st0" d="M501.43,224.83c.24,0,.42,0,.54.02s.3.02.54.02c.14,0,.29,0,.45-.02s.31-.02.45-.02c.19,0,.48.03.86.09.38.06.67.19.86.38.12.12.24.29.36.52.12.23.22.44.29.63.07.19.13.41.18.65s.13.53.25.86l.32,1.12c.12.34.22.65.29.95.07.3.16.69.25,1.17.02.26.06.47.11.63.05.16.14.44.29.85.12.34.21.61.27.81.06.2.1.39.13.56.02.17.04.32.05.45.01.13.03.28.05.45.17.98.32,1.78.47,2.38.14.6.25,1.08.32,1.44l.54,2.56c.05.19.1.38.16.58.06.19.11.38.16.58.05.14.07.29.07.43s.02.29.07.43l.68,3.02c.05.26.11.56.18.9.07.34.05.67-.07,1.01-.07.19-.16.33-.27.41-.11.08-.21.15-.31.2-.17.07-.35.11-.56.11s-.54.01-.99.04l-.68.04h-.83c-.19,0-.38,0-.56-.02-.18-.01-.32-.03-.41-.05-.19-.05-.33-.1-.41-.14s-.16-.12-.23-.22c-.17-.19-.26-.33-.29-.43-.02-.1-.06-.22-.11-.36l-.65-1.87c-.07-.22-.15-.37-.23-.45s-.16-.14-.23-.16c-.05-.02-.14-.04-.29-.05-.14-.01-.29-.03-.45-.05-.16-.02-.31-.04-.45-.05-.14-.01-.23-.02-.25-.02h-.94c-.24,0-.5,0-.79.02-.29.01-.58.03-.86.05-.29.02-.56.05-.83.09-.26.04-.48.08-.65.13-.22.07-.41.17-.59.31s-.33.32-.45.56c-.12.19-.21.43-.27.7-.06.28-.15.65-.27,1.13-.02.07-.05.19-.09.34-.04.16-.11.28-.23.38-.05.05-.11.08-.2.09-.08.01-.15.02-.2.02-.12,0-.25,0-.38-.02-.13-.01-.26-.02-.38-.02-.46-.05-.91-.05-1.35,0s-.89.05-1.35,0c-.29-.02-.52-.05-.68-.07-.17-.02-.34-.13-.5-.32-.07-.1-.14-.22-.22-.36-.07-.14-.11-.28-.11-.4,0-.05.02-.2.05-.45s.07-.4.09-.45c.02-.07.04-.14.05-.2.01-.06.03-.13.05-.2.05-.19.07-.38.07-.58s.02-.38.07-.58l.18-.86c.12-.55.2-.97.23-1.26s.08-.56.13-.83c.1-.65.2-1.12.31-1.42.11-.3.21-.62.31-.95.02-.14.05-.26.07-.34.02-.08.04-.19.05-.31.01-.12.04-.27.07-.45.04-.18.09-.44.16-.77.02-.12.07-.34.13-.67.06-.32.11-.55.16-.67.17-.72.33-1.39.49-2s.32-1.24.49-1.89c.17-.65.34-1.35.5-2.11s.35-1.64.54-2.65c.12-.7.25-1.27.38-1.73.13-.46.4-.85.81-1.19.24-.19.43-.29.58-.31.14-.01.3-.02.47-.02.12,0,.22,0,.29-.02.07-.01.16-.02.27-.04.11-.01.24-.02.4-.04s.39-.02.7-.02h2.3ZM501.72,232.83c-.05-.17-.11-.37-.2-.59-.08-.23-.17-.4-.27-.52-.12-.12-.28-.18-.47-.18s-.42.16-.68.49c-.26.32-.48,1-.65,2.03-.02.14-.04.26-.05.34-.01.08-.03.19-.05.31-.02.12-.05.28-.07.47-.02.19-.07.44-.14.76-.07.46-.15.83-.23,1.12-.08.29-.13.53-.13.72v.22c0,.07,0,.14-.02.2-.01.06-.02.13-.02.2,0,.12.02.26.05.41.04.16.08.28.13.38.05.12.19.25.43.4.24.14.62.22,1.15.22h.4c.17,0,.34,0,.52-.02.18-.01.35-.03.52-.05.17-.02.3-.06.4-.11.34-.12.53-.29.58-.52.05-.23.07-.44.07-.63,0-.29-.01-.53-.04-.72-.02-.19-.05-.37-.07-.54-.02-.17-.06-.33-.11-.49-.05-.16-.1-.33-.14-.52-.14-.53-.22-.89-.23-1.1-.01-.2-.07-.44-.16-.7l-.5-1.55Z"/>
    <path class="st0" d="M522.86,241.9c-.22-.34-.41-.64-.58-.92-.17-.28-.42-.68-.76-1.21-.29-.46-.5-.78-.65-.97-.14-.19-.28-.41-.4-.65l-.25-.47c-.31-.58-.51-.95-.59-1.13-.08-.18-.16-.31-.23-.38-.05-.05-.12-.1-.22-.16-.1-.06-.19-.09-.29-.09-.19,0-.31.07-.36.22-.05.14-.08.24-.11.29-.02.1-.05.25-.09.47-.04.22-.04.53-.02.94l.04.65c.02.41.04.71.04.9v1.12c0,.24-.01.47-.04.7-.02.23-.04.46-.04.7,0,.17.01.33.04.49.02.16.04.32.04.49l.07,3.53c0,.12,0,.23.02.34.01.11.03.22.05.34.02.22.04.37.05.47.01.1.02.18.02.25,0,.29-.05.52-.16.7-.11.18-.22.29-.34.34-.22.12-.53.17-.95.14-.42-.02-.74-.04-.95-.04h-2.66c-.19,0-.32-.02-.38-.07-.06-.05-.11-.1-.16-.14-.17-.22-.25-.42-.25-.61.02-.36.04-.55.05-.58.01-.02.02-.1.02-.22v-.86l.04-5.54c0-.46-.01-.9-.04-1.33-.02-.43-.04-.88-.04-1.33v-.47c0-.26,0-.53.02-.81.01-.28.03-.55.05-.81,0-.12,0-.25.02-.4s.02-.28.02-.4c0-.34-.01-.68-.04-1.04-.02-.36-.05-.71-.07-1.04-.05-.5-.07-1.01-.07-1.53v-3.29c0-.24-.01-.47-.04-.7-.02-.23-.05-.46-.07-.7-.02-.17-.04-.34-.04-.5v-.5c0-.31.02-.54.07-.68.05-.14.1-.24.14-.29.12-.12.25-.19.38-.22.13-.02.26-.04.38-.04h.22c.55,0,1.1.01,1.66.04.55.02,1.13.01,1.73-.04h.65c.17,0,.32.04.47.11.14.07.29.2.43.4.14.19.34.47.58.83l2.66,4.03c.14.22.27.41.38.59.11.18.22.37.32.56.11.19.23.4.36.63.13.23.31.5.52.81.29.43.55.83.79,1.19.14.26.27.49.38.68.11.19.2.38.29.58.08.19.18.4.29.63.11.23.23.49.38.77.07.12.19.32.34.59.16.28.29.41.41.41.02,0,.06-.01.11-.04.05-.02.08-.11.11-.25.02-.1.03-.19.02-.29-.01-.1-.02-.21-.04-.34s-.02-.31-.04-.52c-.01-.22-.02-.49-.02-.83,0-.22.01-.43.04-.63.02-.2.04-.41.04-.63,0-.38-.02-.74-.05-1.06-.04-.32-.04-.62-.02-.88l.04-.47c.02-.22.03-.47.02-.76s-.02-.58-.04-.86c-.01-.29-.02-.56-.04-.81-.01-.25-.02-.44-.02-.56v-.32c0-.31,0-.62.02-.92.01-.3.02-.61.02-.92,0-.19,0-.37-.02-.52-.01-.16,0-.33.02-.52,0-.19.05-.34.14-.43.12-.12.2-.17.25-.16.05.01.12.02.22.02l1.19.04h.34c.06,0,.11,0,.14-.02.04-.01.08-.02.13-.02h.25c.17.02.31.04.43.05.12.01.25.02.4.02h.61c.22,0,.46,0,.72-.02.26-.01.5.08.72.27.1.07.17.19.23.34.06.16.09.38.09.67,0,.19,0,.37-.02.52-.01.16-.03.47-.05.95l-.04,1.12v2.59c0,.19,0,.43-.02.72-.01.29-.02.73-.02,1.33-.02.46-.04.81-.04,1.06s-.01.55-.04.88c-.02.65-.04,1.1-.04,1.37v1.53c0,.32-.01.86-.04,1.6l-.07,3.02c0,.46,0,.85.02,1.19.01.34.04.64.07.92.04.28.07.54.11.77.04.24.05.5.05.79l.04,1.19c0,.19,0,.37-.02.54-.01.17-.09.31-.23.43-.19.17-.46.25-.79.25-.19,0-.41-.01-.67-.04-.25-.02-.46-.04-.63-.04h-1.37c-.12,0-.36-.02-.72-.07s-.64-.22-.83-.5l-1.4-1.98c-.41-.6-.73-1.15-.95-1.64-.23-.49-.55-1.03-.95-1.6l-.9-1.3Z"/>
    <path class="st0" d="M546.97,224.98c.34,0,.59.04.76.13s.3.16.4.23c.17.17.27.34.31.52s.05.35.05.52v1.62c0,.12,0,.22-.02.31-.01.08-.02.19-.02.31-.02.14-.04.28-.04.41v.67c0,.22-.06.41-.18.58-.02.02-.07.07-.14.14-.07.07-.16.11-.25.11l-1.44-.04c-.14,0-.35.02-.61.05-.26.04-.53.19-.79.45-.07.07-.2.28-.38.61-.18.34-.27.91-.27,1.73v1.08c0,.65,0,1.09.02,1.31.01.23.02.38.02.47s0,.16-.02.23c-.01.07-.04.29-.09.65-.07.55-.1.95-.07,1.19.02.24.04.55.04.94v2.9c0,.18-.01.52-.04,1.03,0,.19,0,.35-.02.47-.01.12-.02.25-.02.38s0,.28.02.45c.01.17.02.38.02.65l.11,2.16c.02.41.02.71-.02.9-.04.19-.11.35-.23.47-.19.19-.38.29-.58.29l-1.58.11c-.31.02-.59.02-.85,0-.25-.02-.44-.04-.56-.04h-1.22c-.12,0-.24-.03-.36-.09-.12-.06-.24-.2-.36-.41-.1-.19-.14-.4-.14-.61l.04-1.15v-.36c0-.12,0-.23.02-.32.01-.1.02-.2.02-.32v-1.03c0-.35-.01-.69-.04-1.03-.02-.19-.04-.39-.05-.59-.01-.2,0-.4.02-.59l.11-1.94c.02-.17.03-.34.02-.5-.01-.17,0-.34.02-.5,0-.1,0-.18.02-.25s.02-.16.02-.25v-.43c-.02-.19-.04-.33-.04-.41s-.01-.26-.04-.52v-.74c0-.11,0-.23.02-.36.01-.13.02-.31.02-.52v-3.13c0-.41,0-.77.02-1.08.01-.31-.15-.66-.49-1.04-.12-.14-.26-.24-.41-.29-.16-.05-.29-.07-.41-.07l-1.98.04c-.24,0-.41-.03-.52-.09-.11-.06-.2-.15-.27-.27-.12-.19-.18-.52-.18-.97v-.76c0-.31.01-.58.04-.79l.04-.58s0-.14.02-.29c.01-.14.02-.3.04-.47.01-.17.03-.32.05-.47s.06-.25.11-.32c.07-.12.23-.24.47-.36s.56-.18.97-.18c.24,0,.47,0,.68.02s.44.03.68.05c.34.02.67.03.99.02.32-.01.65-.02.99-.02.6,0,1.19.01,1.78.04.59.02,1.18.04,1.78.04l4.03-.04Z"/>
    <path class="st0" d="M550.58,230.74c0-.22.01-.44.04-.67.02-.23.04-.45.04-.67,0-.1,0-.19-.02-.27-.01-.08-.02-.17-.02-.27v-.4c0-.14-.01-.28-.04-.4l-.11-.97-.04-.61c0-.12.02-.3.07-.54.05-.24.2-.47.47-.68.19-.14.36-.24.5-.29s.29-.07.43-.07l3.1-.04c.31,0,.57.07.77.2s.35.29.45.49.16.4.2.63.05.43.05.59c0,.34,0,.67-.02.99-.01.32-.03.69-.05,1.1l-.04,1.55c0,.12,0,.22-.02.31-.01.08-.02.19-.02.31,0,.24.02.47.05.7.04.23.05.47.05.74l-.04,2.09v2.77c0,.5,0,.89.02,1.15.01.26.02.55.02.86v4.86c0,.24,0,.47-.02.7-.01.23-.02.46-.02.7,0,.12.01.2.04.25v1.33c0,.41.01.72.04.94.02.22-.06.43-.25.65-.07.1-.15.16-.23.18s-.23.04-.45.04c-.26,0-.47,0-.63-.02-.16-.01-.46-.02-.92-.02h-2.66c-.14,0-.27-.04-.38-.13-.11-.08-.19-.15-.23-.2-.1-.12-.15-.26-.16-.41-.01-.16-.02-.26-.02-.31v-.11s.01-.1.04-.22v-.4l.04-.68c0-.22,0-.54.02-.97.01-.43.02-.87.04-1.31.01-.44.02-.85.02-1.22v-.77l-.04-6.41-.11-3.13.04-1.94Z"/>
    <path class="st0" d="M562.74,234.48h.2c.08,0,.21-.01.38-.04h1.17c.18,0,.4.01.67.04.82.02,1.3.06,1.44.11.22.12.36.3.43.54.02.05.04.16.04.34s.01.43.04.74l.07.83-.07.9c-.05.58-.11.94-.18,1.08-.17.24-.56.36-1.19.36h-.58l-1.4-.07h-.5l-.94-.04c-1.56-.05-2.39-.1-2.48-.14-.26-.14-.4-.72-.4-1.73v-.97c.02-.84.11-1.39.25-1.66.1-.17.35-.28.76-.32l2.3.04Z"/>
    <path class="st0" d="M570.19,230.31c0-.31,0-.53-.02-.65-.01-.12-.02-.22-.04-.31-.01-.08-.03-.19-.05-.31-.02-.12-.04-.35-.04-.68v-.43c0-.14-.01-.29-.04-.43,0-.05,0-.09-.02-.13s-.02-.08-.02-.13v-.43c.02-.31.05-.59.09-.85s.15-.47.34-.67c.05-.05.13-.11.23-.18.11-.07.28-.12.52-.14.14-.02.28-.02.41,0,.13.02.27.04.41.04.17,0,.33,0,.49-.02.16-.01.32-.02.49-.02.07,0,.14,0,.2.02.06.01.13.02.2.02.17,0,.32,0,.47-.02.14-.01.3-.02.47-.02.31,0,.57.11.77.34.2.23.44.56.7.99.07.1.21.31.41.63.2.32.42.67.65,1.03.23.36.44.7.65,1.03s.34.53.41.63c.12.19.28.43.49.7.2.28.42.56.65.86.23.3.46.61.68.92.23.31.44.58.63.79.05.07.14.19.27.34.13.16.28.32.43.49.16.17.31.31.47.43.16.12.27.18.34.18.05,0,.1-.02.16-.07.06-.05.16-.17.31-.36.07-.12.13-.22.16-.29s.11-.19.23-.36c.05-.07.11-.16.2-.25.08-.09.21-.28.38-.54l.5-.76c.12-.19.25-.4.38-.61.13-.22.27-.42.41-.61.05-.1.11-.18.18-.25s.13-.16.18-.25c.07-.12.22-.37.43-.76.22-.38.4-.71.54-.97l1.15-2.23c.05-.07.14-.22.29-.45.14-.23.25-.38.32-.45.05-.05.13-.11.25-.2s.26-.13.43-.13l2.63.07c.36,0,.64.01.83.04.19.02.34.06.45.11.11.05.19.1.23.16.05.06.11.13.18.2.05.05.11.13.18.25.07.12.1.3.07.54l-.04.94v3.38c0,.48-.01.82-.04,1.01-.02.19-.04.37-.05.52-.01.16-.02.35-.04.58-.01.23,0,.62.02,1.17.02.72.04,1.27.05,1.66.01.38.02.7.02.95s-.01.47-.04.67c-.02.19-.04.44-.04.76v1.04c0,.22.01.43.04.63.02.2.04.46.05.77.01.31.02.8.02,1.48v.29c0,.19,0,.41-.02.67-.01.25-.04.73-.09,1.42l-.04.65c0,.24,0,.42.02.54s.02.23.04.32c.01.1.03.19.05.29.02.1.04.25.04.47v.68c0,.17-.01.36-.04.58-.02.22-.07.43-.14.63-.07.2-.19.37-.34.5-.16.13-.38.2-.67.2h-3.82c-.1,0-.18,0-.25-.02s-.16-.04-.25-.09c-.24-.14-.36-.44-.36-.9,0-.36.03-.74.09-1.13.06-.4.09-.7.09-.92l-.04-6.34c0-.14-.02-.31-.05-.5-.04-.19-.13-.35-.27-.47-.14-.12-.24-.18-.29-.18-.12,0-.25.05-.4.14-.12.07-.21.13-.27.18s-.13.11-.2.2c-.07.08-.18.21-.32.38-.14.17-.36.43-.65.79l-1.26,1.51c-.19.26-.34.47-.43.61-.1.14-.22.28-.36.4-.14.14-.34.22-.58.22-.12,0-.25-.02-.38-.05s-.25-.08-.34-.13c-.05-.05-.16-.14-.34-.29-.18-.14-.45-.46-.81-.94l-.86-1.15c-.17-.22-.29-.36-.36-.43s-.15-.14-.23-.22c-.08-.07-.18-.17-.29-.29-.11-.12-.28-.32-.52-.61l-.43-.54c-.1-.12-.24-.25-.43-.4-.19-.14-.38-.22-.58-.22-.31,0-.49.14-.54.43s-.07.5-.07.65,0,.29-.02.43c-.01.14-.02.29-.02.43v.43l-.14,5.94v.7c0,.08,0,.22.02.4.01.18.02.49.02.92,0,.14-.02.31-.05.5-.04.19-.11.35-.23.47-.07.05-.17.09-.31.13-.13.04-.25.05-.34.05h-.22c-.14-.02-.25-.05-.31-.07-.06-.02-.2-.02-.41,0l-1.58.11h-.76c-.17,0-.33,0-.49-.02s-.27-.02-.34-.02c-.02,0-.08-.02-.18-.05-.1-.04-.18-.09-.25-.16-.12-.12-.19-.25-.2-.4-.01-.14-.02-.23-.02-.25v-1.26l-.07-1.4c-.02-.5,0-.98.09-1.42.08-.44.13-.86.13-1.24,0-.22,0-.4-.02-.54-.01-.14-.02-.29-.02-.43s0-.32-.02-.52c-.01-.2-.02-.47-.02-.81v-3.11c0-.23,0-.43.02-.59.01-.17.02-.37.02-.61v-1.26l-.04-2.81.04-1.87Z"/>
    <path class="st0" d="M596.87,230.74c0-.22.01-.44.04-.67.02-.23.04-.45.04-.67,0-.1,0-.19-.02-.27-.01-.08-.02-.17-.02-.27v-.4c0-.14-.01-.28-.04-.4l-.11-.97-.04-.61c0-.12.02-.3.07-.54.05-.24.2-.47.47-.68.19-.14.36-.24.5-.29s.29-.07.43-.07l3.1-.04c.31,0,.57.07.77.2s.35.29.45.49.16.4.2.63.05.43.05.59c0,.34,0,.67-.02.99-.01.32-.03.69-.05,1.1l-.04,1.55c0,.12,0,.22-.02.31-.01.08-.02.19-.02.31,0,.24.02.47.05.7.04.23.05.47.05.74l-.04,2.09v2.77c0,.5,0,.89.02,1.15.01.26.02.55.02.86v4.86c0,.24,0,.47-.02.7-.01.23-.02.46-.02.7,0,.12.01.2.04.25v1.33c0,.41.01.72.04.94.02.22-.06.43-.25.65-.07.1-.15.16-.23.18s-.23.04-.45.04c-.26,0-.47,0-.63-.02-.16-.01-.46-.02-.92-.02h-2.66c-.14,0-.27-.04-.38-.13-.11-.08-.19-.15-.23-.2-.1-.12-.15-.26-.16-.41-.01-.16-.02-.26-.02-.31v-.11s.01-.1.04-.22v-.4l.04-.68c0-.22,0-.54.02-.97.01-.43.02-.87.04-1.31.01-.44.02-.85.02-1.22v-.77l-.04-6.41-.11-3.13.04-1.94Z"/>
    <path class="st0" d="M606.62,227.57v-1.48c.05-.43.18-.74.4-.94.26-.24.63-.35,1.1-.32.47.02.91.04,1.31.04h1.98c.14,0,.3.01.47.04.17.02.32.12.47.29.19.19.28.41.27.65-.01.24-.03.46-.05.65l-.07.86c-.02.31-.02.62,0,.94.02.31.04.62.04.94,0,.36-.01.72-.04,1.08-.02.36-.04.72-.04,1.08,0,.34,0,.68.02,1.03.01.35.03.69.05,1.03.02.34.04.68.05,1.03.01.35.02.69.02,1.03,0,.17,0,.38-.02.63-.01.25-.03.59-.05,1.03-.05.29-.08.51-.09.67s-.02.33-.02.52v.61c0,.19,0,.46.02.79.01.34.03.7.05,1.08.02.38.05.74.09,1.08s.08.58.13.72c.12.34.29.54.52.61.23.07.4.11.52.11l5.11.04c.41,0,.64,0,.7-.02.06-.01.22-.02.49-.02.24,0,.42.04.54.11s.2.13.25.18c.05.07.1.19.14.36.05.17.07.4.07.68v1.19c0,.17,0,.29-.02.38-.01.08-.02.18-.02.29v.49c0,.22.01.53.04.94,0,.14,0,.3-.02.47-.01.17-.1.31-.27.43-.19.14-.47.22-.83.22-.14,0-.23,0-.27-.02-.04-.01-.08-.02-.13-.02s-.14,0-.27-.02c-.13-.01-.37-.02-.7-.02h-2.52l-1.3-.04c-.6-.02-1.14-.02-1.62,0s-.83.05-1.04.07c-.55.02-1.03.02-1.44-.02-.41-.04-.8-.05-1.19-.05h-.58c-.36,0-.68.01-.95.04-.28.02-.56-.12-.85-.43-.19-.22-.31-.42-.36-.61-.05-.19-.07-.36-.07-.5,0-.34.01-.65.04-.95.02-.3.04-.62.04-.95,0-.26,0-.54-.02-.83-.01-.29,0-.56.02-.83,0-.17,0-.32.02-.47.01-.14.02-.3.02-.47v-1.22c0-.34-.01-.65-.04-.95-.02-.3-.05-.69-.07-1.17v-.68c0-.31.01-.62.04-.92.02-.3.04-.61.04-.92l-.04-1.48c0-.31,0-.62-.02-.94-.01-.31-.02-.62-.02-.94,0-.7,0-1.39.02-2.09.01-.7,0-1.39-.02-2.09l-.04-1.98Z"/>
    <path class="st0" d="M622.99,230.74c0-.22.01-.44.04-.67.02-.23.04-.45.04-.67,0-.1,0-.19-.02-.27-.01-.08-.02-.17-.02-.27v-.4c0-.14-.01-.28-.04-.4l-.11-.97-.04-.61c0-.12.02-.3.07-.54.05-.24.2-.47.47-.68.19-.14.36-.24.5-.29s.29-.07.43-.07l3.1-.04c.31,0,.57.07.77.2s.35.29.45.49.16.4.2.63.05.43.05.59c0,.34,0,.67-.02.99-.01.32-.03.69-.05,1.1l-.04,1.55c0,.12,0,.22-.02.31-.01.08-.02.19-.02.31,0,.24.02.47.05.7.04.23.05.47.05.74l-.04,2.09v2.77c0,.5,0,.89.02,1.15.01.26.02.55.02.86v4.86c0,.24,0,.47-.02.7-.01.23-.02.46-.02.7,0,.12.01.2.04.25v1.33c0,.41.01.72.04.94.02.22-.06.43-.25.65-.07.1-.15.16-.23.18s-.23.04-.45.04c-.26,0-.47,0-.63-.02-.16-.01-.46-.02-.92-.02h-2.66c-.14,0-.27-.04-.38-.13-.11-.08-.19-.15-.23-.2-.1-.12-.15-.26-.16-.41-.01-.16-.02-.26-.02-.31v-.11s.01-.1.04-.22v-.4l.04-.68c0-.22,0-.54.02-.97.01-.43.02-.87.04-1.31.01-.44.02-.85.02-1.22v-.77l-.04-6.41-.11-3.13.04-1.94Z"/>
    <path class="st0" d="M643.52,224.98c.33,0,.59.04.76.13.17.08.3.16.4.23.17.17.27.34.31.52.04.18.05.35.05.52v1.62c0,.12,0,.22-.02.31-.01.08-.02.19-.02.31-.02.14-.04.28-.04.41v.67c0,.22-.06.41-.18.58-.02.02-.07.07-.14.14-.07.07-.16.11-.25.11l-1.44-.04c-.14,0-.35.02-.61.05-.26.04-.53.19-.79.45-.07.07-.2.28-.38.61s-.27.91-.27,1.73v1.08c0,.65,0,1.09.02,1.31.01.23.02.38.02.47s0,.16-.02.23c-.01.07-.04.29-.09.65-.07.55-.1.95-.07,1.19.02.24.04.55.04.94v2.9c0,.18-.01.52-.04,1.03,0,.19,0,.35-.02.47-.01.12-.02.25-.02.38s0,.28.02.45c.01.17.02.38.02.65l.11,2.16c.02.41.02.71-.02.9-.04.19-.11.35-.23.47-.19.19-.38.29-.58.29l-1.58.11c-.31.02-.59.02-.85,0-.25-.02-.44-.04-.56-.04h-1.22c-.12,0-.24-.03-.36-.09-.12-.06-.24-.2-.36-.41-.1-.19-.14-.4-.14-.61l.04-1.15v-.36c0-.12,0-.23.02-.32.01-.1.02-.2.02-.32v-1.03c0-.35-.01-.69-.04-1.03-.02-.19-.04-.39-.05-.59-.01-.2,0-.4.02-.59l.11-1.94c.02-.17.03-.34.02-.5-.01-.17,0-.34.02-.5,0-.1,0-.18.02-.25.01-.07.02-.16.02-.25v-.43c-.02-.19-.04-.33-.04-.41s-.01-.26-.04-.52v-.74c0-.11,0-.23.02-.36.01-.13.02-.31.02-.52v-3.13c0-.41,0-.77.02-1.08.01-.31-.15-.66-.49-1.04-.12-.14-.26-.24-.41-.29-.16-.05-.29-.07-.41-.07l-1.98.04c-.24,0-.41-.03-.52-.09-.11-.06-.2-.15-.27-.27-.12-.19-.18-.52-.18-.97v-.76c0-.31.01-.58.04-.79l.04-.58s0-.14.02-.29c.01-.14.02-.3.04-.47.01-.17.03-.32.05-.47.02-.14.06-.25.11-.32.07-.12.23-.24.47-.36.24-.12.56-.18.97-.18.24,0,.47,0,.68.02.22.01.44.03.68.05.34.02.67.03.99.02.32-.01.65-.02.99-.02.6,0,1.19.01,1.78.04.59.02,1.18.04,1.78.04l4.03-.04Z"/>
    <path class="st0" d="M655.19,224.83c.24,0,.42,0,.54.02s.3.02.54.02c.14,0,.29,0,.45-.02.16-.01.31-.02.45-.02.19,0,.48.03.86.09.38.06.67.19.86.38.12.12.24.29.36.52.12.23.22.44.29.63.07.19.13.41.18.65.05.24.13.53.25.86l.32,1.12c.12.34.22.65.29.95.07.3.16.69.25,1.17.02.26.06.47.11.63.05.16.14.44.29.85.12.34.21.61.27.81.06.2.1.39.13.56.02.17.04.32.05.45.01.13.03.28.05.45.17.98.32,1.78.47,2.38.14.6.25,1.08.32,1.44l.54,2.56c.05.19.1.38.16.58.06.19.11.38.16.58.05.14.07.29.07.43s.02.29.07.43l.68,3.02c.05.26.11.56.18.9s.05.67-.07,1.01c-.07.19-.16.33-.27.41s-.21.15-.31.2c-.17.07-.35.11-.56.11s-.53.01-.99.04l-.68.04h-.83c-.19,0-.38,0-.56-.02-.18-.01-.32-.03-.41-.05-.19-.05-.33-.1-.41-.14-.08-.05-.16-.12-.23-.22-.17-.19-.26-.33-.29-.43-.02-.1-.06-.22-.11-.36l-.65-1.87c-.07-.22-.15-.37-.23-.45-.08-.08-.16-.14-.23-.16-.05-.02-.14-.04-.29-.05-.14-.01-.29-.03-.45-.05-.16-.02-.31-.04-.45-.05-.14-.01-.23-.02-.25-.02h-.94c-.24,0-.5,0-.79.02-.29.01-.58.03-.86.05-.29.02-.56.05-.83.09-.26.04-.48.08-.65.13-.22.07-.41.17-.59.31-.18.13-.33.32-.45.56-.12.19-.21.43-.27.7-.06.28-.15.65-.27,1.13-.02.07-.05.19-.09.34-.04.16-.11.28-.23.38-.05.05-.11.08-.2.09-.08.01-.15.02-.2.02-.12,0-.25,0-.38-.02-.13-.01-.26-.02-.38-.02-.46-.05-.91-.05-1.35,0-.44.05-.89.05-1.35,0-.29-.02-.52-.05-.68-.07-.17-.02-.34-.13-.5-.32-.07-.1-.14-.22-.22-.36-.07-.14-.11-.28-.11-.4,0-.05.02-.2.05-.45.04-.25.07-.4.09-.45.02-.07.04-.14.05-.2.01-.06.03-.13.05-.2.05-.19.07-.38.07-.58s.02-.38.07-.58l.18-.86c.12-.55.2-.97.23-1.26s.08-.56.13-.83c.1-.65.2-1.12.31-1.42s.21-.62.31-.95c.02-.14.05-.26.07-.34.02-.08.04-.19.05-.31.01-.12.04-.27.07-.45.04-.18.09-.44.16-.77.02-.12.07-.34.13-.67.06-.32.11-.55.16-.67.17-.72.33-1.39.49-2,.16-.61.32-1.24.49-1.89.17-.65.34-1.35.5-2.11s.35-1.64.54-2.65c.12-.7.25-1.27.38-1.73.13-.46.4-.85.81-1.19.24-.19.43-.29.58-.31.14-.01.3-.02.47-.02.12,0,.22,0,.29-.02.07-.01.16-.02.27-.04.11-.01.24-.02.4-.04.16-.01.39-.02.7-.02h2.3ZM655.48,232.83c-.05-.17-.11-.37-.2-.59-.08-.23-.17-.4-.27-.52-.12-.12-.28-.18-.47-.18s-.42.16-.68.49c-.26.32-.48,1-.65,2.03-.02.14-.04.26-.05.34-.01.08-.03.19-.05.31-.02.12-.05.28-.07.47-.02.19-.07.44-.14.76-.07.46-.15.83-.23,1.12s-.13.53-.13.72v.22c0,.07,0,.14-.02.2-.01.06-.02.13-.02.2,0,.12.02.26.05.41.04.16.08.28.13.38.05.12.19.25.43.4.24.14.62.22,1.15.22h.4c.17,0,.34,0,.52-.02.18-.01.35-.03.52-.05.17-.02.3-.06.4-.11.33-.12.53-.29.58-.52.05-.23.07-.44.07-.63,0-.29-.01-.53-.04-.72-.02-.19-.05-.37-.07-.54-.02-.17-.06-.33-.11-.49-.05-.16-.1-.33-.14-.52-.14-.53-.22-.89-.23-1.1-.01-.2-.07-.44-.16-.7l-.5-1.55Z"/>
    <path class="st0" d="M667.92,249.06h-.49c-.18,0-.35-.02-.5-.07-.16-.05-.28-.14-.38-.29-.1-.14-.14-.36-.14-.65,0-.14,0-.28.02-.41.01-.13.02-.27.02-.41,0-.22,0-.43-.02-.63-.01-.2-.02-.41-.02-.63,0-.17,0-.32.02-.47.01-.14.03-.3.05-.47,0-.1,0-.19.02-.27.01-.08.02-.17.02-.27l.04-1.44v-1.1c0-.28,0-.52-.02-.72s-.03-.39-.05-.56c-.02-.17-.04-.37-.04-.61v-.32c0-.31,0-.61.02-.9.01-.29.03-.59.05-.9.02-.6.02-1.19,0-1.76-.02-.58-.02-1.16,0-1.76,0-.46.01-.86.04-1.21.02-.35.04-.68.05-.99.01-.31.02-.63.04-.95.01-.32.02-.7.02-1.13l-.07-4.07c0-.1.02-.24.05-.43.04-.19.15-.37.34-.54.12-.1.29-.17.52-.23.23-.06.44-.09.63-.09l2.3.07c.6.02,1.05.04,1.35.04h.72c.18,0,.35,0,.52-.02s.42-.02.76-.02c.12,0,.22,0,.31.02.08.01.19.02.31.02.48,0,1,.01,1.55.04.55.02,1.12.1,1.69.22.58.12,1.15.29,1.71.52.56.23,1.12.53,1.67.92.77.55,1.42,1.32,1.94,2.3.53.98.79,2.23.79,3.74,0,.36-.03.77-.09,1.22-.06.46-.14.91-.25,1.37-.11.46-.25.89-.41,1.3-.17.41-.36.76-.58,1.04-.02.05-.05.08-.07.09-.02.01-.05.04-.07.09-.05.05-.08.09-.09.13s-.04.08-.09.13c-.17.24-.32.43-.45.56s-.26.26-.38.4-.26.28-.43.45c-.17.17-.37.41-.61.72-.22.26-.32.53-.32.79,0,.17.03.3.09.41.06.11.2.25.41.44.41.35.79.62,1.13.78.35.17.64.3.88.39.26.12.47.2.63.25.16.05.28.12.38.21.1.12.16.27.18.45.02.18.04.33.04.45,0,.27-.01.54-.04.83-.02.29-.04.57-.04.83l-.04,1.09c-.02.51-.04.89-.05,1.14s-.11.45-.31.6c-.14.12-.36.21-.65.27-.29.06-.52.09-.68.09-.12,0-.34-.01-.67-.04-.32-.02-.63-.13-.92-.32-.17-.12-.41-.31-.72-.58-.48-.41-.87-.73-1.17-.97-.3-.24-.58-.5-.85-.79l-.58-.65-.29-.29c-.12-.05-.19-.08-.2-.11-.01-.02-.03-.05-.05-.07l-.94-.58c-.29-.19-.5-.37-.65-.52-.14-.16-.38-.29-.72-.41-.17-.05-.3-.08-.4-.09-.1-.01-.22-.02-.36-.02-.05,0-.17.02-.36.05-.19.04-.35.13-.47.27-.17.19-.26.37-.29.54-.02.17-.04.28-.04.32v1.98c0,.19,0,.35.02.47.01.12.03.24.05.36.07.22.11.42.11.61,0,.43-.19.67-.56.72-.37.05-.76.05-1.17,0-.12-.02-.28-.04-.47-.04l-2.27.07ZM672.28,237.25c.05.5.18.82.4.94.1.05.22.09.38.13.16.04.31.05.45.05.41,0,.79-.07,1.13-.2.35-.13.66-.29.94-.49.28-.19.51-.38.7-.58.19-.19.34-.35.43-.47s.22-.29.38-.5c.16-.22.31-.47.47-.76.16-.29.29-.62.4-.99.11-.37.16-.76.16-1.17s-.07-.8-.22-1.19c-.14-.38-.36-.71-.65-.97-.36-.34-.84-.55-1.44-.65-.6-.1-1.16-.14-1.69-.14-.34,0-.68.04-1.03.11-.35.07-.58.26-.7.58-.05.1-.09.24-.13.43s-.05.41-.05.65c0,.17,0,.31.02.41.01.11.02.23.02.36v.49c0,.19-.01.46-.04.79,0,.12,0,.32-.02.59-.01.28-.02.47-.02.59l.11,1.98Z"/>
    <path class="st0" d="M687.06,230.74c0-.22.01-.44.04-.67.02-.23.04-.45.04-.67,0-.1,0-.19-.02-.27-.01-.08-.02-.17-.02-.27v-.4c0-.14-.01-.28-.04-.4l-.11-.97-.04-.61c0-.12.02-.3.07-.54.05-.24.2-.47.47-.68.19-.14.36-.24.5-.29s.29-.07.43-.07l3.1-.04c.31,0,.57.07.77.2s.35.29.45.49.16.4.2.63.05.43.05.59c0,.34,0,.67-.02.99-.01.32-.03.69-.05,1.1l-.04,1.55c0,.12,0,.22-.02.31-.01.08-.02.19-.02.31,0,.24.02.47.05.7.04.23.05.47.05.74l-.04,2.09v2.77c0,.5,0,.89.02,1.15.01.26.02.55.02.86v4.86c0,.24,0,.47-.02.7-.01.23-.02.46-.02.7,0,.12.01.2.04.25v1.33c0,.41.01.72.04.94.02.22-.06.43-.25.65-.07.1-.15.16-.23.18s-.23.04-.45.04c-.26,0-.47,0-.63-.02-.16-.01-.46-.02-.92-.02h-2.66c-.14,0-.27-.04-.38-.13-.11-.08-.19-.15-.23-.2-.1-.12-.15-.26-.16-.41-.01-.16-.02-.26-.02-.31v-.11s.01-.1.04-.22v-.4l.04-.68c0-.22,0-.54.02-.97.01-.43.02-.87.04-1.31.01-.44.02-.85.02-1.22v-.77l-.04-6.41-.11-3.13.04-1.94Z"/>
    <path class="st0" d="M708.31,228.07v.59c0,.06,0,.13.02.22.01.08.02.2.02.34,0,.07-.01.19-.04.34-.02.16-.08.29-.18.41-.1.1-.21.16-.34.18-.13.02-.26.04-.38.04h-.18c-.34,0-.67-.02-.99-.05-.32-.04-.65-.08-.99-.13-.19-.02-.37-.04-.54-.05-.17-.01-.32-.02-.47-.02-.38,0-.73.04-1.03.11-.3.07-.56.23-.77.47-.17.17-.28.34-.32.5-.05.17-.07.32-.07.47s.03.31.09.49c.06.18.2.41.41.7.05.07.19.22.41.45s.71.63,1.46,1.21l.83.65c.48.38,1.03.85,1.64,1.39s1.13,1.23,1.57,2.07c.29.55.48,1.15.58,1.8.1.65.14,1.2.14,1.66,0,.91-.11,1.7-.34,2.38-.23.67-.52,1.25-.86,1.75-.35.49-.73.9-1.13,1.22-.41.32-.78.59-1.12.81-.46.26-1.04.5-1.75.7-.71.2-1.73.31-3.08.31h-1.06c-.42,0-.84-.02-1.26-.05-.42-.04-.82-.1-1.19-.2s-.67-.24-.88-.43c-.07-.07-.14-.18-.22-.32-.07-.14-.11-.3-.11-.47l.04-1.01c.02-.53.03-.92.02-1.19s-.02-.47-.04-.61-.02-.26-.04-.34c-.01-.08-.02-.19-.02-.31,0-.33.08-.58.25-.72.12-.1.28-.17.49-.22.2-.05.38-.07.52-.07.1,0,.25.01.45.04.2.02.43.05.67.09.24.04.46.07.67.11s.35.07.45.09c.19.05.35.08.47.09.12.01.32.02.61.02.12,0,.28,0,.47-.02.19-.01.4-.05.61-.11s.43-.15.63-.27c.2-.12.38-.3.52-.54.07-.12.14-.28.22-.47.07-.19.11-.38.11-.58,0-.24-.04-.45-.11-.63-.07-.18-.16-.34-.25-.49-.19-.29-.38-.52-.56-.68s-.38-.35-.59-.54c-.58-.43-1.03-.8-1.37-1.12-.12-.12-.24-.23-.36-.34s-.24-.22-.36-.34c-.17-.14-.32-.29-.47-.43-.14-.14-.3-.29-.47-.43l-.72-.65c-.14-.14-.33-.35-.56-.63-.23-.28-.46-.62-.68-1.04-.23-.42-.42-.91-.58-1.46-.16-.55-.23-1.18-.23-1.87,0-.98.13-1.79.38-2.43.25-.64.51-1.11.77-1.42.53-.67,1.37-1.21,2.54-1.6,1.16-.4,2.77-.59,4.81-.59.24,0,.52,0,.85.02s.65.04.97.07c.32.04.63.08.92.14s.53.15.72.27c.24.14.38.34.41.58.04.24.04.65.02,1.22l-.04.9Z"/>
    <path class="st0" d="M712.14,230.31c0-.31,0-.53-.02-.65-.01-.12-.02-.22-.04-.31s-.03-.19-.05-.31c-.02-.12-.04-.35-.04-.68v-.43c0-.14-.01-.29-.04-.43,0-.05,0-.09-.02-.13-.01-.04-.02-.08-.02-.13v-.43c.02-.31.05-.59.09-.85.04-.25.15-.47.34-.67.05-.05.13-.11.23-.18.11-.07.28-.12.52-.14.14-.02.28-.02.41,0,.13.02.27.04.41.04.17,0,.33,0,.49-.02.16-.01.32-.02.49-.02.07,0,.14,0,.2.02.06.01.13.02.2.02.17,0,.32,0,.47-.02.14-.01.3-.02.47-.02.31,0,.57.11.77.34.2.23.44.56.7.99.07.1.21.31.41.63s.42.67.65,1.03c.23.36.44.7.65,1.03.2.32.34.53.41.63.12.19.28.43.49.7.2.28.42.56.65.86.23.3.46.61.68.92.23.31.44.58.63.79.05.07.14.19.27.34.13.16.28.32.43.49s.31.31.47.43.27.18.34.18c.05,0,.1-.02.16-.07s.16-.17.31-.36c.07-.12.13-.22.16-.29.04-.07.11-.19.23-.36.05-.07.11-.16.2-.25.08-.09.21-.28.38-.54l.5-.76c.12-.19.25-.4.38-.61s.27-.42.41-.61c.05-.1.11-.18.18-.25.07-.07.13-.16.18-.25.07-.12.22-.37.43-.76s.4-.71.54-.97l1.15-2.23c.05-.07.14-.22.29-.45.14-.23.25-.38.32-.45.05-.05.13-.11.25-.2s.26-.13.43-.13l2.63.07c.36,0,.64.01.83.04.19.02.34.06.45.11.11.05.19.1.23.16s.11.13.18.2c.05.05.11.13.18.25.07.12.1.3.07.54l-.04.94v3.38c0,.48-.01.82-.04,1.01-.02.19-.04.37-.05.52-.01.16-.02.35-.04.58-.01.23,0,.62.02,1.17.02.72.04,1.27.05,1.66.01.38.02.7.02.95s-.01.47-.04.67c-.02.19-.04.44-.04.76v1.04c0,.22.01.43.04.63.02.2.04.46.05.77.01.31.02.8.02,1.48v.29c0,.19,0,.41-.02.67-.01.25-.04.73-.09,1.42l-.04.65c0,.24,0,.42.02.54.01.12.02.23.04.32.01.1.03.19.05.29.02.1.04.25.04.47v.68c0,.17-.01.36-.04.58-.02.22-.07.43-.14.63-.07.2-.19.37-.34.5-.16.13-.38.2-.67.2h-3.82c-.1,0-.18,0-.25-.02-.07-.01-.16-.04-.25-.09-.24-.14-.36-.44-.36-.9,0-.36.03-.74.09-1.13.06-.4.09-.7.09-.92l-.04-6.34c0-.14-.02-.31-.05-.5s-.13-.35-.27-.47c-.14-.12-.24-.18-.29-.18-.12,0-.25.05-.4.14-.12.07-.21.13-.27.18-.06.05-.13.11-.2.2s-.18.21-.32.38c-.14.17-.36.43-.65.79l-1.26,1.51c-.19.26-.34.47-.43.61-.1.14-.22.28-.36.4-.14.14-.34.22-.58.22-.12,0-.25-.02-.38-.05s-.25-.08-.34-.13c-.05-.05-.16-.14-.34-.29-.18-.14-.45-.46-.81-.94l-.86-1.15c-.17-.22-.29-.36-.36-.43-.07-.07-.15-.14-.23-.22-.08-.07-.18-.17-.29-.29-.11-.12-.28-.32-.52-.61l-.43-.54c-.1-.12-.24-.25-.43-.4-.19-.14-.38-.22-.58-.22-.31,0-.49.14-.54.43-.05.29-.07.5-.07.65s0,.29-.02.43c-.01.14-.02.29-.02.43v.43l-.14,5.94v.7c0,.08,0,.22.02.4.01.18.02.49.02.92,0,.14-.02.31-.05.5-.04.19-.11.35-.23.47-.07.05-.17.09-.31.13-.13.04-.25.05-.34.05h-.22c-.14-.02-.25-.05-.31-.07-.06-.02-.2-.02-.41,0l-1.58.11h-.76c-.17,0-.33,0-.49-.02-.16-.01-.27-.02-.34-.02-.02,0-.08-.02-.18-.05-.1-.04-.18-.09-.25-.16-.12-.12-.19-.25-.2-.4-.01-.14-.02-.23-.02-.25v-1.26l-.07-1.4c-.02-.5,0-.98.09-1.42.08-.44.13-.86.13-1.24,0-.22,0-.4-.02-.54-.01-.14-.02-.29-.02-.43s0-.32-.02-.52c-.01-.2-.02-.47-.02-.81v-3.11c0-.23,0-.43.02-.59.01-.17.02-.37.02-.61v-1.26l-.04-2.81.04-1.87Z"/>
    <path class="st0" d="M546.04,260.83c.24,0,.42,0,.54.02.12.01.3.02.54.02.14,0,.29,0,.45-.02.16-.01.31-.02.45-.02.19,0,.48.03.86.09.38.06.67.19.86.38.12.12.24.29.36.52.12.23.22.44.29.63.07.19.13.41.18.65.05.24.13.53.25.86l.32,1.12c.12.34.22.65.29.95.07.3.16.69.25,1.17.02.26.06.47.11.63.05.16.14.44.29.85.12.34.21.61.27.81.06.2.1.39.13.56.02.17.04.32.05.45.01.13.03.28.05.45.17.98.32,1.78.47,2.38.14.6.25,1.08.32,1.44l.54,2.56c.05.19.1.38.16.58.06.19.11.38.16.58.05.14.07.29.07.43s.02.29.07.43l.68,3.02c.05.26.11.56.18.9.07.34.05.67-.07,1.01-.07.19-.16.33-.27.41s-.21.15-.31.2c-.17.07-.35.11-.56.11s-.53.01-.99.04l-.68.04h-.83c-.19,0-.38,0-.56-.02-.18-.01-.32-.03-.41-.05-.19-.05-.33-.1-.41-.14-.08-.05-.16-.12-.23-.22-.17-.19-.26-.34-.29-.43-.02-.1-.06-.22-.11-.36l-.65-1.87c-.07-.22-.15-.37-.23-.45-.08-.08-.16-.14-.23-.16-.05-.02-.14-.04-.29-.05-.14-.01-.29-.03-.45-.05-.16-.02-.31-.04-.45-.05-.14-.01-.23-.02-.25-.02h-.94c-.24,0-.5,0-.79.02s-.58.03-.86.05c-.29.02-.56.05-.83.09s-.48.08-.65.13c-.22.07-.41.17-.59.31-.18.13-.33.32-.45.56-.12.19-.21.43-.27.7-.06.28-.15.65-.27,1.13-.02.07-.05.19-.09.34-.04.16-.11.28-.23.38-.05.05-.11.08-.2.09-.08.01-.15.02-.2.02-.12,0-.25,0-.38-.02-.13-.01-.26-.02-.38-.02-.46-.05-.91-.05-1.35,0-.44.05-.89.05-1.35,0-.29-.02-.52-.05-.68-.07-.17-.02-.34-.13-.5-.32-.07-.09-.14-.22-.22-.36-.07-.14-.11-.28-.11-.4,0-.05.02-.2.05-.45.04-.25.07-.4.09-.45.02-.07.04-.14.05-.2.01-.06.03-.13.05-.2.05-.19.07-.38.07-.58s.02-.38.07-.58l.18-.86c.12-.55.2-.97.23-1.26s.08-.56.13-.83c.1-.65.2-1.12.31-1.42s.21-.62.31-.95c.02-.14.05-.26.07-.34.02-.08.04-.19.05-.31.01-.12.04-.27.07-.45.04-.18.09-.44.16-.77.02-.12.07-.34.13-.67.06-.32.11-.55.16-.67.17-.72.33-1.39.49-2,.16-.61.32-1.24.49-1.89.17-.65.34-1.35.5-2.11s.35-1.64.54-2.65c.12-.7.25-1.27.38-1.73s.4-.85.81-1.19c.24-.19.43-.29.58-.31.14-.01.3-.02.47-.02.12,0,.22,0,.29-.02.07-.01.16-.02.27-.04.11-.01.24-.02.4-.04.16-.01.39-.02.7-.02h2.3ZM546.33,268.83c-.05-.17-.11-.37-.2-.59s-.17-.4-.27-.52c-.12-.12-.28-.18-.47-.18s-.42.16-.68.49c-.26.32-.48,1-.65,2.03-.02.14-.04.26-.05.34-.01.08-.03.19-.05.31-.02.12-.05.28-.07.47-.02.19-.07.44-.14.76-.07.46-.15.83-.23,1.12s-.13.53-.13.72v.22c0,.07,0,.14-.02.2-.01.06-.02.13-.02.2,0,.12.02.26.05.41.04.16.08.28.13.38.05.12.19.25.43.4.24.14.62.22,1.15.22h.4c.17,0,.34,0,.52-.02.18-.01.35-.03.52-.05.17-.02.3-.06.4-.11.33-.12.53-.29.58-.52.05-.23.07-.44.07-.63,0-.29-.01-.53-.04-.72-.02-.19-.05-.37-.07-.54-.02-.17-.06-.33-.11-.49-.05-.16-.1-.33-.14-.52-.14-.53-.22-.89-.23-1.1-.01-.2-.07-.44-.16-.7l-.5-1.55Z"/>
    <path class="st0" d="M567.46,277.9c-.22-.34-.41-.64-.58-.92-.17-.28-.42-.68-.76-1.21-.29-.46-.5-.78-.65-.97-.14-.19-.28-.41-.4-.65l-.25-.47c-.31-.58-.51-.95-.59-1.13-.08-.18-.16-.31-.23-.38-.05-.05-.12-.1-.22-.16-.1-.06-.19-.09-.29-.09-.19,0-.31.07-.36.22-.05.14-.08.24-.11.29-.02.1-.05.25-.09.47-.04.22-.04.53-.02.94l.04.65c.02.41.04.71.04.9v1.12c0,.24-.01.47-.04.7-.02.23-.04.46-.04.7,0,.17.01.33.04.49.02.16.04.32.04.49l.07,3.53c0,.12,0,.23.02.34.01.11.03.22.05.34.02.22.04.37.05.47.01.1.02.18.02.25,0,.29-.05.52-.16.7-.11.18-.22.29-.34.34-.22.12-.53.17-.95.14-.42-.02-.74-.04-.95-.04h-2.66c-.19,0-.32-.02-.38-.07-.06-.05-.11-.1-.16-.14-.17-.22-.25-.42-.25-.61.02-.36.04-.55.05-.58.01-.02.02-.1.02-.22v-.86l.04-5.54c0-.46-.01-.9-.04-1.33-.02-.43-.04-.88-.04-1.33v-.47c0-.26,0-.53.02-.81.01-.28.03-.55.05-.81,0-.12,0-.25.02-.4.01-.14.02-.28.02-.4,0-.34-.01-.68-.04-1.04-.02-.36-.05-.71-.07-1.04-.05-.5-.07-1.01-.07-1.53v-3.29c0-.24-.01-.47-.04-.7-.02-.23-.05-.46-.07-.7-.02-.17-.04-.34-.04-.5v-.5c0-.31.02-.54.07-.68.05-.14.1-.24.14-.29.12-.12.25-.19.38-.22.13-.02.26-.04.38-.04h.22c.55,0,1.1.01,1.66.04.55.02,1.13.01,1.73-.04h.65c.17,0,.32.04.47.11.14.07.29.2.43.4.14.19.34.47.58.83l2.66,4.03c.14.22.27.41.38.59s.22.37.32.56c.11.19.23.4.36.63.13.23.31.5.52.81.29.43.55.83.79,1.19.14.26.27.49.38.68.11.19.2.38.29.58s.18.4.29.63c.11.23.23.49.38.77.07.12.19.32.34.59.16.28.29.41.41.41.02,0,.06-.01.11-.04.05-.02.08-.11.11-.25.02-.1.03-.19.02-.29-.01-.1-.02-.21-.04-.34-.01-.13-.02-.31-.04-.52-.01-.22-.02-.49-.02-.83,0-.22.01-.43.04-.63.02-.2.04-.41.04-.63,0-.38-.02-.74-.05-1.06-.04-.32-.04-.62-.02-.88l.04-.47c.02-.22.03-.47.02-.76-.01-.29-.02-.58-.04-.86-.01-.29-.02-.56-.04-.81-.01-.25-.02-.44-.02-.56v-.32c0-.31,0-.62.02-.92.01-.3.02-.61.02-.92,0-.19,0-.37-.02-.52-.01-.16,0-.33.02-.52,0-.19.05-.34.14-.43.12-.12.2-.17.25-.16.05.01.12.02.22.02l1.19.04h.34c.06,0,.11,0,.14-.02.04-.01.08-.02.13-.02h.25c.17.02.31.04.43.05.12.01.25.02.4.02h.61c.22,0,.46,0,.72-.02.26-.01.5.08.72.27.1.07.17.19.23.34s.09.38.09.67c0,.19,0,.37-.02.52-.01.16-.03.47-.05.95l-.04,1.12v2.59c0,.19,0,.43-.02.72s-.02.73-.02,1.33c-.02.46-.04.81-.04,1.06s-.01.55-.04.88c-.02.65-.04,1.1-.04,1.37v1.53c0,.32-.01.86-.04,1.6l-.07,3.02c0,.46,0,.85.02,1.19.01.34.04.64.07.92.04.28.07.53.11.77.04.24.05.5.05.79l.04,1.19c0,.19,0,.37-.02.54-.01.17-.09.31-.23.43-.19.17-.46.25-.79.25-.19,0-.41-.01-.67-.04-.25-.02-.46-.04-.63-.04h-1.37c-.12,0-.36-.02-.72-.07-.36-.05-.64-.22-.83-.5l-1.4-1.98c-.41-.6-.73-1.15-.95-1.64-.23-.49-.55-1.03-.95-1.6l-.9-1.3Z"/>
    <path class="st0" d="M588.38,260.94h1.87c.7,0,1.43.13,2.2.4l1.04.36c.91.31,1.75.69,2.5,1.13.76.44,1.51,1.1,2.25,1.96.65.77,1.17,1.52,1.57,2.25.4.73.7,1.46.92,2.2.22.73.36,1.49.43,2.27.07.78.11,1.6.11,2.47,0,1.37-.23,2.63-.7,3.78-.47,1.15-.95,2.08-1.46,2.77-1.13,1.58-2.53,2.72-4.21,3.4-1.68.68-3.6,1.03-5.76,1.03h-5.94c-.7,0-1.16-.02-1.39-.07-.23-.05-.37-.1-.41-.14-.34-.22-.53-.54-.58-.97-.05-.43-.07-.83-.07-1.19,0-.34,0-.67.02-1.01s.02-.67.02-1.01c0-.79-.01-1.44-.04-1.94-.02-.5-.02-1.03,0-1.58l.04-1.01c0-.12,0-.25.02-.4.01-.14.03-.28.05-.4,0-.07,0-.14.02-.22.01-.07.02-.14.02-.22,0-.29-.01-.58-.04-.88-.02-.3-.05-.62-.07-.95v-.61c.02-.26.05-.67.09-1.21s.04-1.01.02-1.42l-.07-1.22c-.05-.58-.05-1.16,0-1.75.05-.59.07-1.17.07-1.75,0-.36-.01-.71-.04-1.06-.02-.35-.04-.7-.04-1.06,0-.19.02-.46.05-.79.04-.34.16-.6.38-.79.12-.1.29-.19.52-.29.23-.09.51-.14.85-.14.22,0,.35,0,.4.02.05.01.09.02.13.02s.08,0,.14.02c.06.01.22.02.49.02h4.61ZM590.43,279.62c.17,0,.36-.02.58-.07.22-.05.44-.1.67-.16.23-.06.44-.13.65-.2.2-.07.38-.14.52-.22.67-.31,1.13-.64,1.39-.99s.47-.73.67-1.13c.36-.82.59-1.46.68-1.93.1-.47.14-.94.14-1.42,0-1.08-.11-1.94-.34-2.59-.23-.65-.47-1.15-.74-1.51-.48-.67-1.18-1.29-2.11-1.85-.92-.56-2.05-.82-3.37-.77-.26-.02-.61,0-1.04.05-.43.06-.78.25-1.04.56-.26.31-.41.68-.45,1.12-.04.43-.07.92-.09,1.48l-.11,2.45.04,1.44c.02.41.04.8.04,1.19v2.05c.02.5.05.85.07,1.03.02.18.06.31.11.38.24.48.62.79,1.15.92.53.13,1.14.2,1.84.2h.76Z"/>
    <path class="st0" d="M623.01,277.9c-.22-.34-.41-.64-.58-.92-.17-.28-.42-.68-.76-1.21-.29-.46-.5-.78-.65-.97-.14-.19-.28-.41-.4-.65l-.25-.47c-.31-.58-.51-.95-.59-1.13-.08-.18-.16-.31-.23-.38-.05-.05-.12-.1-.22-.16-.1-.06-.19-.09-.29-.09-.19,0-.31.07-.36.22-.05.14-.08.24-.11.29-.02.1-.05.25-.09.47-.04.22-.04.53-.02.94l.04.65c.02.41.04.71.04.9v1.12c0,.24-.01.47-.04.7-.02.23-.04.46-.04.7,0,.17.01.33.04.49.02.16.04.32.04.49l.07,3.53c0,.12,0,.23.02.34.01.11.03.22.05.34.02.22.04.37.05.47.01.1.02.18.02.25,0,.29-.05.52-.16.7-.11.18-.22.29-.34.34-.22.12-.53.17-.95.14-.42-.02-.74-.04-.95-.04h-2.66c-.19,0-.32-.02-.38-.07-.06-.05-.11-.1-.16-.14-.17-.22-.25-.42-.25-.61.02-.36.04-.55.05-.58.01-.02.02-.1.02-.22v-.86l.04-5.54c0-.46-.01-.9-.04-1.33-.02-.43-.04-.88-.04-1.33v-.47c0-.26,0-.53.02-.81.01-.28.03-.55.05-.81,0-.12,0-.25.02-.4.01-.14.02-.28.02-.4,0-.34-.01-.68-.04-1.04-.02-.36-.05-.71-.07-1.04-.05-.5-.07-1.01-.07-1.53v-3.29c0-.24-.01-.47-.04-.7-.02-.23-.05-.46-.07-.7-.02-.17-.04-.34-.04-.5v-.5c0-.31.02-.54.07-.68.05-.14.1-.24.14-.29.12-.12.25-.19.38-.22.13-.02.26-.04.38-.04h.22c.55,0,1.1.01,1.66.04.55.02,1.13.01,1.73-.04h.65c.17,0,.32.04.47.11.14.07.29.2.43.4.14.19.34.47.58.83l2.66,4.03c.14.22.27.41.38.59s.22.37.32.56c.11.19.23.4.36.63.13.23.31.5.52.81.29.43.55.83.79,1.19.14.26.27.49.38.68.11.19.2.38.29.58s.18.4.29.63c.11.23.23.49.38.77.07.12.19.32.34.59.16.28.29.41.41.41.02,0,.06-.01.11-.04.05-.02.08-.11.11-.25.02-.1.03-.19.02-.29-.01-.1-.02-.21-.04-.34-.01-.13-.02-.31-.04-.52-.01-.22-.02-.49-.02-.83,0-.22.01-.43.04-.63.02-.2.04-.41.04-.63,0-.38-.02-.74-.05-1.06-.04-.32-.04-.62-.02-.88l.04-.47c.02-.22.03-.47.02-.76-.01-.29-.02-.58-.04-.86-.01-.29-.02-.56-.04-.81-.01-.25-.02-.44-.02-.56v-.32c0-.31,0-.62.02-.92.01-.3.02-.61.02-.92,0-.19,0-.37-.02-.52-.01-.16,0-.33.02-.52,0-.19.05-.34.14-.43.12-.12.2-.17.25-.16.05.01.12.02.22.02l1.19.04h.34c.06,0,.11,0,.14-.02.04-.01.08-.02.13-.02h.25c.17.02.31.04.43.05.12.01.25.02.4.02h.61c.22,0,.46,0,.72-.02.26-.01.5.08.72.27.1.07.17.19.23.34s.09.38.09.67c0,.19,0,.37-.02.52-.01.16-.03.47-.05.95l-.04,1.12v2.59c0,.19,0,.43-.02.72s-.02.73-.02,1.33c-.02.46-.04.81-.04,1.06s-.01.55-.04.88c-.02.65-.04,1.1-.04,1.37v1.53c0,.32-.01.86-.04,1.6l-.07,3.02c0,.46,0,.85.02,1.19.01.34.04.64.07.92.04.28.07.53.11.77.04.24.05.5.05.79l.04,1.19c0,.19,0,.37-.02.54-.01.17-.09.31-.23.43-.19.17-.46.25-.79.25-.19,0-.41-.01-.67-.04-.25-.02-.46-.04-.63-.04h-1.37c-.12,0-.36-.02-.72-.07-.36-.05-.64-.22-.83-.5l-1.4-1.98c-.41-.6-.73-1.15-.95-1.64-.23-.49-.55-1.03-.95-1.6l-.9-1.3Z"/>
    <path class="st0" d="M639.03,282.54c-.22-.17-.4-.31-.54-.41-.14-.11-.28-.23-.41-.36-.13-.13-.27-.3-.41-.5-.14-.2-.34-.49-.58-.85-.36-.55-.68-1.09-.97-1.62-.29-.53-.5-1.18-.65-1.94-.05-.17-.1-.44-.14-.81-.05-.37-.09-.76-.13-1.17-.04-.41-.07-.79-.11-1.15-.04-.36-.05-.62-.05-.79,0-.36.03-.74.09-1.15.06-.41.13-.8.2-1.19.07-.38.15-.74.23-1.06s.15-.57.2-.74c.22-.7.55-1.43,1.01-2.2.46-.77.92-1.46,1.4-2.09.48-.6.89-1.06,1.24-1.37.35-.31.62-.54.81-.68.38-.29.85-.54,1.39-.76s1.09-.4,1.66-.56c.56-.16,1.12-.28,1.66-.36s1.01-.13,1.42-.13c1.22,0,2.26.15,3.11.45.85.3,1.49.56,1.93.77.58.29,1.09.6,1.55.94s.85.67,1.19,1.01c.33.34.62.64.85.92.23.28.39.49.49.63.33.5.65,1.07.94,1.69s.53,1.2.72,1.73c.05.14.11.34.18.58.07.24.14.55.2.94.06.38.11.86.14,1.42.04.56.04,1.24.02,2.03-.02,1.37-.2,2.57-.54,3.62s-.74,1.96-1.21,2.74c-.47.78-.95,1.42-1.44,1.93-.49.5-.92.88-1.28,1.12-.7.5-1.37.89-2.02,1.15-.65.26-1.25.46-1.82.59-.56.13-1.07.21-1.51.23-.44.02-.81.04-1.1.04-1.32,0-2.51-.11-3.58-.32-1.07-.22-2.12-.73-3.15-1.55l-.97-.76ZM652.06,273.38c0-.65-.06-1.36-.18-2.13-.12-.77-.35-1.43-.68-1.99-.19-.36-.44-.71-.76-1.05-.31-.34-.67-.64-1.08-.92-.41-.28-.86-.5-1.35-.67-.49-.17-1.01-.25-1.57-.25-.41,0-.71.03-.9.09-.19.06-.41.11-.65.16-.26.07-.55.14-.86.22-.31.07-.71.31-1.19.72-.72.6-1.28,1.37-1.67,2.29-.4.93-.59,1.9-.59,2.91,0,.7.08,1.44.23,2.22.16.78.47,1.56.95,2.33.5.84,1.21,1.46,2.11,1.86.9.4,1.81.6,2.72.6.53,0,1.01-.08,1.46-.24.44-.16.83-.35,1.17-.58s.62-.46.85-.7c.23-.24.41-.44.56-.61.46-.58.81-1.26,1.06-2.04.25-.78.38-1.52.38-2.22Z"/>
    <path class="st0" d="M663.39,270.48h.2c.08,0,.21-.01.38-.04h1.17c.18,0,.4.01.67.04.82.02,1.3.06,1.44.11.22.12.36.3.43.54.02.05.04.16.04.34s.01.43.04.74l.07.83-.07.9c-.05.58-.11.94-.18,1.08-.17.24-.56.36-1.19.36h-.58l-1.4-.07h-.5l-.94-.04c-1.56-.05-2.39-.1-2.48-.14-.26-.14-.4-.72-.4-1.73v-.97c.02-.84.11-1.39.25-1.66.1-.17.35-.28.76-.32l2.3.04Z"/>
    <path class="st0" d="M669.17,264.5c-.19-.96-.33-1.6-.41-1.91-.08-.31-.13-.55-.13-.72,0-.43.11-.71.32-.83.14-.1.31-.14.5-.14.22-.02.35-.04.41-.04s.11,0,.16.02c.05.01.11.02.18.02h.47c.19-.02.41-.04.65-.04h.86c.67,0,1.12.04,1.35.11.23.07.4.2.52.4.12.19.22.43.31.7.08.28.15.52.2.74.1.55.16.91.18,1.08.02.17.04.28.04.34v.22c0,.08.04.33.11.74.07.48.17.9.31,1.26.13.36.26.78.38,1.26l.22.86c.07.24.13.43.16.56.04.13.07.26.11.38.04.12.08.26.13.43s.11.42.18.76c.1.48.18.88.25,1.21s.17.75.29,1.28c.14.6.28,1.13.4,1.58.12.46.23.95.32,1.48.02.14.07.31.13.49.06.18.16.27.31.27.1,0,.19-.07.27-.22.08-.14.16-.32.22-.52.06-.2.11-.4.14-.59.04-.19.07-.35.09-.47.05-.31.14-.71.27-1.21s.25-.86.34-1.1l.32-.83c.02-.1.06-.17.11-.23.05-.06.09-.13.13-.22s.07-.19.09-.32c.02-.13.04-.32.04-.56v-.58c0-.31-.01-.57-.04-.77-.02-.2-.05-.38-.09-.54-.04-.16-.07-.32-.11-.5-.04-.18-.07-.4-.09-.67l-.07-.68c-.02-.19-.06-.37-.11-.52-.05-.16-.1-.33-.14-.52-.05-.14-.07-.28-.07-.41s-.01-.27-.04-.41c-.02-.17-.05-.31-.07-.43-.02-.12-.05-.25-.09-.38-.04-.13-.07-.28-.11-.45s-.08-.38-.13-.65l-.14-.9c-.05-.34-.08-.59-.11-.76-.02-.17.05-.31.22-.43.14-.12.43-.18.86-.18l2.16.07,1.3-.07c.34-.02.56.01.68.11.12.1.2.18.25.25.14.26.23.44.25.54.02.1.05.23.07.4l.58,4.03c.1.65.25,1.36.45,2.12.2.77.39,1.54.56,2.3.17.77.28,1.33.34,1.67.06.35.1.62.13.81.02.19.05.37.07.52.02.16.07.43.14.81.14.65.26,1.08.34,1.28.08.2.13.37.13.49,0,.05.01.11.04.18.05.1.1.14.14.14h.07c.12,0,.22-.07.29-.22.12-.31.18-.49.18-.52s.02-.15.07-.34l.11-.32c.12-.36.2-.73.25-1.12s.13-.76.25-1.12c.07-.26.15-.51.23-.74.08-.23.15-.47.2-.74l.36-2.23c.07-.38.15-.7.23-.95s.17-.51.27-.77c.1-.26.19-.56.29-.88.09-.32.19-.74.29-1.24l.29-1.69c.02-.14.08-.4.18-.77.1-.37.17-.65.22-.85.05-.19.14-.39.27-.59.13-.2.26-.34.38-.41s.25-.11.4-.11h.4l2.16.07c.34.02.62.03.86.02.24-.01.47.04.68.16.1.05.19.13.29.25s.14.23.14.32c0,.07,0,.16-.02.25-.01.1-.04.24-.09.43l-.18.68c-.14.5-.24.88-.29,1.12-.05.24-.08.42-.11.54-.02.12-.03.21-.02.27.01.06,0,.17-.02.34-.07.29-.13.46-.18.5,0,.02-.02.11-.07.25,0,.05,0,.09-.02.13-.01.04-.02.08-.02.13-.05.26-.11.51-.18.74-.07.23-.14.46-.22.7l-.32,1.22c-.1.34-.17.65-.23.95-.06.3-.13.62-.2.95-.1.41-.18.82-.25,1.22s-.17.82-.29,1.22c-.12.41-.2.71-.25.9-.05.19-.09.33-.13.41s-.06.14-.07.16c-.01.02-.03.08-.05.18-.02.1-.07.25-.13.47-.06.22-.15.55-.27,1.01-.05.26-.09.44-.13.54-.04.1-.07.17-.09.22-.05.12-.07.24-.07.36s-.05.4-.14.83c-.1.41-.16.72-.18.94-.02.22-.06.41-.11.58l-.61,2.23c-.14.5-.25.91-.32,1.21-.07.3-.14.53-.2.7-.06.17-.13.29-.2.38s-.18.16-.32.23c-.12.05-.23.1-.34.14-.11.05-.28.07-.52.07-.14,0-.24,0-.29-.02-.05-.01-.13-.02-.23-.02s-.28,0-.5-.02c-.23-.01-.61-.02-1.13-.02h-3.1c-.26,0-.48-.07-.65-.22-.17-.14-.29-.28-.36-.4-.19-.29-.31-.57-.36-.85-.05-.28-.1-.51-.14-.7-.02-.07-.04-.13-.04-.18s-.01-.11-.04-.18c-.05-.07-.08-.15-.11-.23-.02-.08-.06-.22-.11-.41-.07-.24-.13-.42-.16-.54-.04-.12-.06-.21-.07-.27-.01-.06-.03-.11-.05-.14-.02-.04-.05-.09-.07-.16l-.18-.61s-.04-.08-.04-.09c0-.01-.01-.04-.04-.09,0-.02,0-.04-.02-.05-.01-.01-.02-.03-.02-.05-.12-.17-.24-.17-.36,0-.05.07-.11.19-.18.36-.07.17-.14.35-.22.56-.07.2-.14.4-.2.59-.06.19-.1.34-.13.43l-.32,1.51c-.1.38-.19.71-.27.99-.08.28-.2.47-.34.59-.19.19-.43.28-.7.25-.28-.02-.55-.04-.81-.04l-3.71-.07c-.26,0-.47-.03-.63-.09s-.26-.11-.31-.16c-.17-.14-.31-.36-.43-.65s-.22-.61-.31-.97-.15-.73-.2-1.1-.1-.7-.14-.99l-.22-1.3c-.12-.62-.29-1.24-.5-1.85-.22-.61-.38-1.23-.5-1.85-.05-.26-.08-.52-.11-.76-.02-.24-.06-.49-.11-.76-.12-.67-.31-1.45-.58-2.34-.26-.89-.52-1.88-.76-2.99l-1.01-4.64Z"/>
    <path class="st0" d="M706.89,260.83c.24,0,.42,0,.54.02.12.01.3.02.54.02.14,0,.29,0,.45-.02.16-.01.31-.02.45-.02.19,0,.48.03.86.09.38.06.67.19.86.38.12.12.24.29.36.52.12.23.22.44.29.63.07.19.13.41.18.65.05.24.13.53.25.86l.32,1.12c.12.34.22.65.29.95.07.3.16.69.25,1.17.02.26.06.47.11.63.05.16.14.44.29.85.12.34.21.61.27.81.06.2.1.39.13.56.02.17.04.32.05.45.01.13.03.28.05.45.17.98.32,1.78.47,2.38.14.6.25,1.08.32,1.44l.54,2.56c.05.19.1.38.16.58.06.19.11.38.16.58.05.14.07.29.07.43s.02.29.07.43l.68,3.02c.05.26.11.56.18.9.07.34.05.67-.07,1.01-.07.19-.16.33-.27.41s-.21.15-.31.2c-.17.07-.35.11-.56.11s-.53.01-.99.04l-.68.04h-.83c-.19,0-.38,0-.56-.02-.18-.01-.32-.03-.41-.05-.19-.05-.33-.1-.41-.14-.08-.05-.16-.12-.23-.22-.17-.19-.26-.34-.29-.43-.02-.1-.06-.22-.11-.36l-.65-1.87c-.07-.22-.15-.37-.23-.45-.08-.08-.16-.14-.23-.16-.05-.02-.14-.04-.29-.05-.14-.01-.29-.03-.45-.05-.16-.02-.31-.04-.45-.05-.14-.01-.23-.02-.25-.02h-.94c-.24,0-.5,0-.79.02s-.58.03-.86.05c-.29.02-.56.05-.83.09s-.48.08-.65.13c-.22.07-.41.17-.59.31-.18.13-.33.32-.45.56-.12.19-.21.43-.27.7-.06.28-.15.65-.27,1.13-.02.07-.05.19-.09.34-.04.16-.11.28-.23.38-.05.05-.11.08-.2.09-.08.01-.15.02-.2.02-.12,0-.25,0-.38-.02-.13-.01-.26-.02-.38-.02-.46-.05-.91-.05-1.35,0-.44.05-.89.05-1.35,0-.29-.02-.52-.05-.68-.07-.17-.02-.34-.13-.5-.32-.07-.09-.14-.22-.22-.36-.07-.14-.11-.28-.11-.4,0-.05.02-.2.05-.45.04-.25.07-.4.09-.45.02-.07.04-.14.05-.2.01-.06.03-.13.05-.2.05-.19.07-.38.07-.58s.02-.38.07-.58l.18-.86c.12-.55.2-.97.23-1.26s.08-.56.13-.83c.1-.65.2-1.12.31-1.42s.21-.62.31-.95c.02-.14.05-.26.07-.34.02-.08.04-.19.05-.31.01-.12.04-.27.07-.45.04-.18.09-.44.16-.77.02-.12.07-.34.13-.67.06-.32.11-.55.16-.67.17-.72.33-1.39.49-2,.16-.61.32-1.24.49-1.89.17-.65.34-1.35.5-2.11s.35-1.64.54-2.65c.12-.7.25-1.27.38-1.73s.4-.85.81-1.19c.24-.19.43-.29.58-.31.14-.01.3-.02.47-.02.12,0,.22,0,.29-.02.07-.01.16-.02.27-.04.11-.01.24-.02.4-.04.16-.01.39-.02.7-.02h2.3ZM707.18,268.83c-.05-.17-.11-.37-.2-.59s-.17-.4-.27-.52c-.12-.12-.28-.18-.47-.18s-.42.16-.68.49c-.26.32-.48,1-.65,2.03-.02.14-.04.26-.05.34-.01.08-.03.19-.05.31-.02.12-.05.28-.07.47-.02.19-.07.44-.14.76-.07.46-.15.83-.23,1.12s-.13.53-.13.72v.22c0,.07,0,.14-.02.2-.01.06-.02.13-.02.2,0,.12.02.26.05.41.04.16.08.28.13.38.05.12.19.25.43.4.24.14.62.22,1.15.22h.4c.17,0,.34,0,.52-.02.18-.01.35-.03.52-.05.17-.02.3-.06.4-.11.33-.12.53-.29.58-.52.05-.23.07-.44.07-.63,0-.29-.01-.53-.04-.72-.02-.19-.05-.37-.07-.54-.02-.17-.06-.33-.11-.49-.05-.16-.1-.33-.14-.52-.14-.53-.22-.89-.23-1.1-.01-.2-.07-.44-.16-.7l-.5-1.55Z"/>
    <path class="st0" d="M719.62,285.06h-.49c-.18,0-.35-.02-.5-.07-.16-.05-.28-.14-.38-.29-.1-.14-.14-.36-.14-.65,0-.14,0-.28.02-.41.01-.13.02-.27.02-.41,0-.22,0-.43-.02-.63-.01-.2-.02-.41-.02-.63,0-.17,0-.32.02-.47.01-.14.03-.3.05-.47,0-.1,0-.19.02-.27.01-.08.02-.17.02-.27l.04-1.44v-1.1c0-.28,0-.52-.02-.72s-.03-.39-.05-.56c-.02-.17-.04-.37-.04-.61v-.32c0-.31,0-.61.02-.9.01-.29.03-.59.05-.9.02-.6.02-1.19,0-1.76-.02-.58-.02-1.16,0-1.76,0-.46.01-.86.04-1.21.02-.35.04-.68.05-.99.01-.31.02-.63.04-.95.01-.32.02-.7.02-1.13l-.07-4.07c0-.09.02-.24.05-.43.04-.19.15-.37.34-.54.12-.1.29-.17.52-.23.23-.06.44-.09.63-.09l2.3.07c.6.02,1.05.04,1.35.04h.72c.18,0,.35,0,.52-.02.17-.01.42-.02.76-.02.12,0,.22,0,.31.02.08.01.19.02.31.02.48,0,1,.01,1.55.04.55.02,1.12.1,1.69.22s1.15.29,1.71.52c.56.23,1.12.53,1.67.92.77.55,1.42,1.32,1.94,2.3.53.98.79,2.23.79,3.74,0,.36-.03.77-.09,1.22-.06.46-.14.91-.25,1.37-.11.46-.25.89-.41,1.3-.17.41-.36.76-.58,1.04-.02.05-.05.08-.07.09-.02.01-.05.04-.07.09-.05.05-.08.09-.09.13-.01.04-.04.08-.09.13-.17.24-.32.43-.45.56s-.26.26-.38.4c-.12.13-.26.28-.43.45s-.37.41-.61.72c-.22.26-.32.53-.32.79,0,.17.03.3.09.41.06.11.2.25.41.44.41.35.79.62,1.13.78.35.17.64.3.88.39.26.12.47.2.63.25.16.05.28.12.38.21.1.12.16.27.18.45.02.18.04.33.04.45,0,.27-.01.54-.04.83-.02.29-.04.57-.04.83l-.04,1.09c-.02.51-.04.89-.05,1.14-.01.25-.11.45-.31.6-.14.12-.36.21-.65.27-.29.06-.52.09-.68.09-.12,0-.34-.01-.67-.04-.32-.02-.63-.13-.92-.32-.17-.12-.41-.31-.72-.58-.48-.41-.87-.73-1.17-.97-.3-.24-.58-.5-.85-.79l-.58-.65-.29-.29c-.12-.05-.19-.08-.2-.11-.01-.02-.03-.05-.05-.07l-.94-.58c-.29-.19-.5-.37-.65-.52-.14-.16-.38-.29-.72-.41-.17-.05-.3-.08-.4-.09-.1-.01-.22-.02-.36-.02-.05,0-.17.02-.36.05s-.35.13-.47.27c-.17.19-.26.37-.29.54-.02.17-.04.28-.04.32v1.98c0,.19,0,.35.02.47.01.12.03.24.05.36.07.22.11.42.11.61,0,.43-.19.67-.56.72-.37.05-.76.05-1.17,0-.12-.02-.28-.04-.47-.04l-2.27.07ZM723.98,273.25c.05.5.18.82.4.94.1.05.22.09.38.13.16.04.31.05.45.05.41,0,.79-.07,1.13-.2.35-.13.66-.29.94-.49.28-.19.51-.38.7-.58s.34-.35.43-.47.22-.29.38-.5c.16-.22.31-.47.47-.76.16-.29.29-.62.4-.99.11-.37.16-.76.16-1.17s-.07-.8-.22-1.19-.36-.71-.65-.97c-.36-.34-.84-.55-1.44-.65-.6-.1-1.16-.14-1.69-.14-.34,0-.68.04-1.03.11-.35.07-.58.26-.7.58-.05.1-.09.24-.13.43-.04.19-.05.41-.05.65,0,.17,0,.31.02.41.01.11.02.23.02.36v.49c0,.19-.01.46-.04.79,0,.12,0,.32-.02.59-.01.28-.02.47-.02.59l.11,1.98Z"/>
    <path class="st0" d="M599.4,296.98c.33,0,.59.04.76.13.17.08.3.16.4.23.17.17.27.34.31.52.04.18.05.35.05.52v1.62c0,.12,0,.22-.02.31-.01.08-.02.19-.02.31-.02.14-.04.28-.04.41v.67c0,.22-.06.41-.18.58-.02.02-.07.07-.14.14-.07.07-.16.11-.25.11l-1.44-.04c-.14,0-.35.02-.61.05-.26.04-.53.19-.79.45-.07.07-.2.28-.38.61s-.27.91-.27,1.73v1.08c0,.65,0,1.09.02,1.31.01.23.02.38.02.47s0,.16-.02.23c-.01.07-.04.29-.09.65-.07.55-.1.95-.07,1.19.02.24.04.55.04.94v2.9c0,.18-.01.52-.04,1.03,0,.19,0,.35-.02.47-.01.12-.02.25-.02.38s0,.28.02.45c.01.17.02.38.02.65l.11,2.16c.02.41.02.71-.02.9-.04.19-.11.35-.23.47-.19.19-.38.29-.58.29l-1.58.11c-.31.02-.59.02-.85,0-.25-.02-.44-.04-.56-.04h-1.22c-.12,0-.24-.03-.36-.09s-.24-.2-.36-.41c-.1-.19-.14-.4-.14-.61l.04-1.15v-.36c0-.12,0-.23.02-.32.01-.1.02-.2.02-.32v-1.03c0-.35-.01-.69-.04-1.03-.02-.19-.04-.39-.05-.59-.01-.2,0-.4.02-.59l.11-1.94c.02-.17.03-.34.02-.5-.01-.17,0-.34.02-.5,0-.1,0-.18.02-.25.01-.07.02-.16.02-.25v-.43c-.02-.19-.04-.33-.04-.41s-.01-.26-.04-.52v-.74c0-.11,0-.23.02-.36.01-.13.02-.31.02-.52v-3.13c0-.41,0-.77.02-1.08.01-.31-.15-.66-.49-1.04-.12-.14-.26-.24-.41-.29s-.29-.07-.41-.07l-1.98.04c-.24,0-.41-.03-.52-.09-.11-.06-.2-.15-.27-.27-.12-.19-.18-.52-.18-.97v-.76c0-.31.01-.58.04-.79l.04-.58s0-.14.02-.29c.01-.14.02-.3.04-.47.01-.17.03-.32.05-.47.02-.14.06-.25.11-.32.07-.12.23-.24.47-.36.24-.12.56-.18.97-.18.24,0,.47,0,.68.02.22.01.44.03.68.05.34.02.67.03.99.02.32-.01.65-.02.99-.02.6,0,1.19.01,1.78.04.59.02,1.18.04,1.78.04l4.03-.04Z"/>
    <path class="st0" d="M608.72,297.01c.67.02,1.34.02,2.02-.02s1.34-.05,2.02-.05h.65c.34.02.66.05.97.09s.6.04.86.02l1.3-.07c.12,0,.25.01.38.04.13.02.26.13.38.32.17.24.25.61.25,1.12,0,.1,0,.16-.02.18-.01.02-.02.17-.02.43-.02.22-.05.38-.07.49-.02.11-.05.22-.07.34l-.14.83c-.02.17-.05.36-.09.58s-.11.38-.23.5c-.05.05-.14.11-.29.18-.14.07-.4.1-.76.07l-5.36-.22c-.7-.02-1.2.12-1.51.43-.19.19-.3.4-.32.61-.02.22-.02.4,0,.54l.04.4c0,.07,0,.14.02.2.01.06.02.13.02.2v.43c0,.12.01.25.04.4.02.14.1.29.22.43.19.26.46.42.81.47.35.05.65.07.92.07l1.4-.04c.22,0,.41,0,.59-.02.18-.01.41-.02.7-.02h.23s.07,0,.09.02c.02.01.05.02.07.04.02.01.08.02.18.02l.58.04c.33.02.63.02.88-.02s.46-.05.63-.05.39.03.67.09c.28.06.47.15.59.27.19.19.29.59.29,1.19v1.58c0,.14-.01.36-.04.65-.02.29-.05.49-.07.61-.05.19-.11.34-.2.45-.08.11-.19.19-.31.23-.26.14-.53.23-.81.25-.28.02-.55.04-.81.04s-.58,0-.94-.02c-.36-.01-.74-.02-1.13-.04-.4-.01-.79-.03-1.17-.05-.38-.02-.71-.05-.97-.07l-1.4-.11c-.07,0-.17.02-.31.05s-.26.11-.38.23c-.19.26-.31.49-.34.67-.04.18-.05.33-.05.45v1.71c0,.25.02.47.07.67.02.1.05.2.07.31.02.11.1.21.22.31s.24.16.36.18c.12.02.23.05.32.07l.65.07c.55.05,1.01.07,1.37.07s.64-.01.83-.04c.41-.02.83-.02,1.26,0,.43.02.85.04,1.26.04.22,0,.44-.01.67-.04.23-.02.45-.04.67-.04.53-.02.91.02,1.15.13.24.11.41.21.5.31.17.17.26.39.29.67.02.28.04.55.04.81,0,.38,0,.77.02,1.15s-.01.73-.07,1.04c-.06.31-.17.57-.32.77-.16.2-.4.31-.74.31h-.72c-.46,0-.91-.01-1.35-.04-.45-.02-.89-.04-1.35-.04-.41,0-.82.01-1.22.04-.41.02-.82.04-1.22.04h-3.85c-.17,0-.34,0-.5-.02-.17-.01-.34-.02-.5-.02h-1.51c-.26,0-.59,0-.97.02-.38.01-.67-.15-.86-.49-.05-.07-.1-.16-.14-.27-.05-.11-.07-.22-.07-.34l-.07-1.55c0-.12,0-.25-.02-.38-.01-.13-.02-.26-.02-.38v-1.12l-.04-1.91c-.02-.55-.01-1.08.04-1.58.05-.5.05-1.15,0-1.94-.02-.41-.04-.76-.05-1.06-.01-.3-.02-.62-.02-.95,0-.24,0-.45.02-.63s.02-.36.02-.54,0-.38.02-.61c.01-.23.02-.52.02-.88v-.86c0-.22,0-.39-.02-.52-.01-.13-.02-.25-.04-.36-.01-.11-.02-.23-.02-.36s.01-.31.04-.52c0-.14,0-.3.02-.47.01-.17.03-.4.05-.68l.04-.9v-.47c0-.19-.01-.4-.04-.61-.02-.22-.05-.5-.07-.86v-.65c0-.24.03-.56.09-.95.06-.4.25-.7.56-.92.19-.12.42-.2.68-.25.26-.05.55-.06.86-.04l3.67.14Z"/>
    <path class="st0" d="M630.24,296.83c.24,0,.42,0,.54.02.12.01.3.02.54.02.14,0,.29,0,.45-.02.16-.01.31-.02.45-.02.19,0,.48.03.86.09.38.06.67.19.86.38.12.12.24.29.36.52.12.23.22.44.29.63.07.19.13.41.18.65.05.24.13.53.25.86l.32,1.12c.12.34.22.65.29.95.07.3.16.69.25,1.17.02.26.06.47.11.63.05.16.14.44.29.85.12.34.21.61.27.81.06.2.1.39.13.56.02.17.04.32.05.45.01.13.03.28.05.45.17.98.32,1.78.47,2.38.14.6.25,1.08.32,1.44l.54,2.56c.05.19.1.38.16.58.06.19.11.38.16.58.05.14.07.29.07.43s.02.29.07.43l.68,3.02c.05.26.11.56.18.9.07.34.05.67-.07,1.01-.07.19-.16.33-.27.41s-.21.15-.31.2c-.17.07-.35.11-.56.11s-.53.01-.99.04l-.68.04h-.83c-.19,0-.38,0-.56-.02-.18-.01-.32-.03-.41-.05-.19-.05-.33-.1-.41-.14-.08-.05-.16-.12-.23-.22-.17-.19-.26-.34-.29-.43-.02-.1-.06-.22-.11-.36l-.65-1.87c-.07-.22-.15-.37-.23-.45-.08-.08-.16-.14-.23-.16-.05-.02-.14-.04-.29-.05-.14-.01-.29-.03-.45-.05-.16-.02-.31-.04-.45-.05-.14-.01-.23-.02-.25-.02h-.94c-.24,0-.5,0-.79.02s-.58.03-.86.05c-.29.02-.56.05-.83.09s-.48.08-.65.13c-.22.07-.41.17-.59.31-.18.13-.33.32-.45.56-.12.19-.21.43-.27.7-.06.28-.15.65-.27,1.13-.02.07-.05.19-.09.34-.04.16-.11.28-.23.38-.05.05-.11.08-.2.09-.08.01-.15.02-.2.02-.12,0-.25,0-.38-.02-.13-.01-.26-.02-.38-.02-.46-.05-.91-.05-1.35,0-.44.05-.89.05-1.35,0-.29-.02-.52-.05-.68-.07-.17-.02-.34-.13-.5-.32-.07-.09-.14-.22-.22-.36-.07-.14-.11-.28-.11-.4,0-.05.02-.2.05-.45.04-.25.07-.4.09-.45.02-.07.04-.14.05-.2.01-.06.03-.13.05-.2.05-.19.07-.38.07-.58s.02-.38.07-.58l.18-.86c.12-.55.2-.97.23-1.26s.08-.56.13-.83c.1-.65.2-1.12.31-1.42s.21-.62.31-.95c.02-.14.05-.26.07-.34.02-.08.04-.19.05-.31.01-.12.04-.27.07-.45.04-.18.09-.44.16-.77.02-.12.07-.34.13-.67.06-.32.11-.55.16-.67.17-.72.33-1.39.49-2,.16-.61.32-1.24.49-1.89.17-.65.34-1.35.5-2.11s.35-1.64.54-2.65c.12-.7.25-1.27.38-1.73s.4-.85.81-1.19c.24-.19.43-.29.58-.31.14-.01.3-.02.47-.02.12,0,.22,0,.29-.02.07-.01.16-.02.27-.04.11-.01.24-.02.4-.04.16-.01.39-.02.7-.02h2.3ZM630.53,304.83c-.05-.17-.11-.37-.2-.59s-.17-.4-.27-.52c-.12-.12-.28-.18-.47-.18s-.42.16-.68.49c-.26.32-.48,1-.65,2.03-.02.14-.04.26-.05.34-.01.08-.03.19-.05.31-.02.12-.05.28-.07.47-.02.19-.07.44-.14.76-.07.46-.15.83-.23,1.12s-.13.53-.13.72v.22c0,.07,0,.14-.02.2-.01.06-.02.13-.02.2,0,.12.02.26.05.41.04.16.08.28.13.38.05.12.19.25.43.4.24.14.62.22,1.15.22h.4c.17,0,.34,0,.52-.02.18-.01.35-.03.52-.05.17-.02.3-.06.4-.11.33-.12.53-.29.58-.52.05-.23.07-.44.07-.63,0-.29-.01-.53-.04-.72-.02-.19-.05-.37-.07-.54-.02-.17-.06-.33-.11-.49-.05-.16-.1-.33-.14-.52-.14-.53-.22-.89-.23-1.1-.01-.2-.07-.44-.16-.7l-.5-1.55Z"/>
    <path class="st0" d="M650.72,321.06c-.17,0-.4-.02-.7-.05-.3-.04-.62-.09-.95-.16-.34-.07-.67-.15-1.01-.23-.34-.08-.62-.17-.86-.27-.55-.24-1.03-.51-1.44-.81s-.73-.55-.97-.74c-.53-.43-1.02-.84-1.48-1.22-.46-.38-.9-.91-1.33-1.58-.38-.6-.7-1.22-.94-1.85-.24-.64-.43-1.27-.56-1.91-.13-.63-.22-1.24-.27-1.82s-.07-1.1-.07-1.58c0-1.58.16-3.05.49-4.39.32-1.34.91-2.56,1.75-3.64.72-.94,1.49-1.67,2.32-2.21s1.64-.94,2.45-1.21c.8-.26,1.55-.43,2.25-.5.7-.07,1.28-.11,1.76-.11.31,0,.61,0,.9.02s.6.05.94.13c.24.05.43.16.58.34.14.18.23.62.25,1.31v.43c0,.07,0,.13-.02.16-.01.04-.02.08-.02.13v.61c0,.24,0,.44.02.61.01.17.02.38.02.65,0,.34-.02.55-.05.65-.04.1-.1.19-.2.29s-.22.14-.36.14c-.26,0-.49-.02-.68-.07-.19-.05-.49-.1-.9-.14l-.32-.04c-.17-.02-.37-.01-.61.04-.24.05-.49.11-.76.2-.26.08-.52.18-.76.29-.24.11-.45.21-.61.31-.38.22-.69.44-.92.68-.23.24-.47.58-.74,1.01-.26.41-.52.9-.76,1.48-.24.58-.36,1.27-.36,2.09,0,.55.03,1.08.09,1.58.06.5.17,1,.34,1.48.12.36.26.73.43,1.1.17.37.36.73.58,1.06s.44.64.67.92c.23.28.45.5.67.67.24.17.46.29.67.36.2.07.44.16.7.25.22.07.45.15.7.23.25.08.56.13.92.13.12,0,.25-.01.4-.04.14-.02.28-.06.4-.11.19-.05.35-.07.47-.07h.14c.26,0,.47.08.61.25.12.14.19.31.2.49.01.18.02.33.02.45,0,.1,0,.18-.02.25-.01.07-.02.16-.02.25v2.12c0,.19,0,.38-.02.58-.01.19-.08.38-.2.58-.07.12-.2.24-.38.36s-.5.17-.95.14l-1.48-.04Z"/>
    <path class="st0" d="M662.24,300c0,.1,0,.19-.02.29-.01.1-.02.19-.02.29s0,.19-.02.29c-.01.1-.02.19-.02.29v.18c0,.17,0,.32.02.47.01.14.04.44.09.9l.07,1.01c.02.26.05.52.09.76.04.24.15.46.34.65.12.12.29.23.52.32s.5.14.81.14l1.62-.04h.95c.16,0,.29.01.4.04.11.02.26.04.45.05.19.01.54.02,1.04.02h.25c.07,0,.17-.02.29-.07.12-.05.35-.13.68-.25.19-.1.32-.18.4-.25.07-.07.13-.16.18-.25.12-.14.23-.29.34-.45.11-.16.16-.4.16-.74l-.11-4.75c0-.41,0-.75-.02-1.03-.01-.28.09-.51.31-.7.17-.14.41-.22.72-.22l2.23.07c.14,0,.29,0,.45-.02.16-.01.31-.03.45-.05.12-.02.24-.04.36-.05.12-.01.24-.02.36-.02.22,0,.38.04.49.13.11.08.19.15.23.2.12.14.19.28.2.4.01.12.02.28.02.47l-.04.79-.07.86v.36c0,.1,0,.2.02.32.01.12.02.27.04.45.01.18.02.41.02.7v.32c0,.26-.01.53-.04.81-.02.28-.04.55-.04.81,0,.36,0,.72.02,1.08.01.36.02.72.02,1.08,0,.41,0,.8-.02,1.17-.01.37-.02.76-.02,1.17v.36l-.04,3.24c0,.34,0,.65.02.95.01.3,0,.62-.02.95-.02.34-.05.67-.07,1.01-.02.34-.02.67,0,1.01l.18,4.1c.02.36,0,.62-.07.79s-.13.28-.18.32c-.12.14-.22.22-.31.23-.08.01-.19.02-.31.02h-.54c-.12,0-.25,0-.38-.02-.13-.01-.37-.02-.7-.02l-1.73.04c-.38,0-.67-.05-.85-.14-.18-.1-.29-.17-.34-.22-.17-.17-.28-.35-.34-.56-.06-.2-.09-.42-.09-.65s.01-.46.04-.68c.02-.23.04-.46.04-.7v-3.74c0-.48-.02-.91-.05-1.3s-.08-.64-.13-.76c-.05-.17-.16-.33-.32-.49-.17-.16-.38-.27-.65-.34-.14-.02-.34-.05-.59-.07-.25-.02-.52-.05-.81-.07-.29-.02-.58-.04-.88-.04h-2.75c-.55,0-1.01.11-1.37.32-.36.22-.6.46-.72.72-.19.41-.29.72-.29.94v.72l-.07,5.94c0,.12-.02.25-.05.4-.04.14-.11.28-.23.4s-.27.2-.45.23c-.18.04-.32.05-.41.05-.17,0-.34,0-.5-.02-.17-.01-.34-.02-.5-.02h-.47c-.24,0-.48.01-.72.04-.24.02-.6.02-1.08,0-.31-.02-.52-.05-.63-.09-.11-.04-.21-.11-.31-.23-.1-.12-.16-.26-.2-.43s-.05-.44-.05-.83c0-.26.01-.49.04-.68.02-.19.05-.46.07-.79.02-.34.02-.62,0-.85-.02-.23-.04-.49-.04-.77v-3.17c0-.31-.01-.65-.04-1.01-.02-.36-.04-.78-.04-1.26,0-.46.02-.9.07-1.33.05-.43.06-.96.04-1.58l-.04-1.51v-3.67c0-.67,0-1.19-.02-1.57-.01-.37-.02-.69-.04-.95-.01-.26-.02-.53-.02-.79s.01-.62.04-1.08l.04-.65c0-.07.01-.16.04-.27.02-.11.08-.2.18-.27s.23-.13.4-.18c.17-.05.31-.07.43-.07l3.6.04c.12,0,.25,0,.4.02.14.01.28.08.4.2.07.07.14.17.2.31.06.13.09.29.09.49l-.07,2.05Z"/>
    <path class="st0" d="M682.72,306.48h.2c.08,0,.21-.01.38-.04h1.17c.18,0,.4.01.67.04.82.02,1.3.06,1.44.11.22.12.36.3.43.54.02.05.04.16.04.34s.01.43.04.74l.07.83-.07.9c-.05.58-.11.94-.18,1.08-.17.24-.56.36-1.19.36h-.58l-1.4-.07h-.5l-.94-.04c-1.56-.05-2.39-.1-2.48-.14-.26-.14-.4-.72-.4-1.73v-.97c.02-.84.11-1.39.25-1.66.1-.17.35-.28.76-.32l2.3.04Z"/>
    <path class="st0" d="M690.14,302.74c0-.22.01-.44.04-.67.02-.23.04-.45.04-.67,0-.1,0-.19-.02-.27-.01-.08-.02-.17-.02-.27v-.4c0-.14-.01-.28-.04-.4l-.11-.97-.04-.61c0-.12.02-.3.07-.54.05-.24.2-.47.47-.68.19-.14.36-.24.5-.29s.29-.07.43-.07l3.1-.04c.31,0,.57.07.77.2s.35.29.45.49c.1.19.16.4.2.63.04.23.05.43.05.59,0,.34,0,.67-.02.99-.01.32-.03.69-.05,1.1l-.04,1.55c0,.12,0,.22-.02.31-.01.08-.02.19-.02.31,0,.24.02.47.05.7.04.23.05.47.05.74l-.04,2.09v2.77c0,.5,0,.89.02,1.15.01.26.02.55.02.86v4.86c0,.24,0,.47-.02.7-.01.23-.02.46-.02.7,0,.12.01.2.04.25v1.33c0,.41.01.72.04.94.02.22-.06.43-.25.65-.07.1-.15.16-.23.18s-.23.04-.45.04c-.26,0-.47,0-.63-.02-.16-.01-.46-.02-.92-.02h-2.66c-.14,0-.27-.04-.38-.13-.11-.08-.19-.15-.23-.2-.1-.12-.15-.26-.16-.41-.01-.16-.02-.26-.02-.31v-.11s.01-.1.04-.22v-.4l.04-.68c0-.22,0-.54.02-.97.01-.43.02-.87.04-1.31.01-.44.02-.85.02-1.22v-.77l-.04-6.41-.11-3.13.04-1.94Z"/>
    <path class="st0" d="M710.13,313.9c-.22-.34-.41-.64-.58-.92-.17-.28-.42-.68-.76-1.21-.29-.46-.5-.78-.65-.97-.14-.19-.28-.41-.4-.65l-.25-.47c-.31-.58-.51-.95-.59-1.13-.08-.18-.16-.31-.23-.38-.05-.05-.12-.1-.22-.16-.1-.06-.19-.09-.29-.09-.19,0-.31.07-.36.22-.05.14-.08.24-.11.29-.02.1-.05.25-.09.47-.04.22-.04.53-.02.94l.04.65c.02.41.04.71.04.9v1.12c0,.24-.01.47-.04.7-.02.23-.04.46-.04.7,0,.17.01.33.04.49.02.16.04.32.04.49l.07,3.53c0,.12,0,.23.02.34.01.11.03.22.05.34.02.22.04.37.05.47.01.1.02.18.02.25,0,.29-.05.52-.16.7-.11.18-.22.29-.34.34-.22.12-.53.17-.95.14-.42-.02-.74-.04-.95-.04h-2.66c-.19,0-.32-.02-.38-.07-.06-.05-.11-.1-.16-.14-.17-.22-.25-.42-.25-.61.02-.36.04-.55.05-.58.01-.02.02-.1.02-.22v-.86l.04-5.54c0-.46-.01-.9-.04-1.33-.02-.43-.04-.88-.04-1.33v-.47c0-.26,0-.53.02-.81.01-.28.03-.55.05-.81,0-.12,0-.25.02-.4.01-.14.02-.28.02-.4,0-.34-.01-.68-.04-1.04-.02-.36-.05-.71-.07-1.04-.05-.5-.07-1.01-.07-1.53v-3.29c0-.24-.01-.47-.04-.7-.02-.23-.05-.46-.07-.7-.02-.17-.04-.34-.04-.5v-.5c0-.31.02-.54.07-.68.05-.14.1-.24.14-.29.12-.12.25-.19.38-.22.13-.02.26-.04.38-.04h.22c.55,0,1.1.01,1.66.04.55.02,1.13.01,1.73-.04h.65c.17,0,.32.04.47.11.14.07.29.2.43.4.14.19.34.47.58.83l2.66,4.03c.14.22.27.41.38.59.11.18.22.37.32.56.11.19.23.4.36.63.13.23.31.5.52.81.29.43.55.83.79,1.19.14.26.27.49.38.68.11.19.2.38.29.58.08.19.18.4.29.63.11.23.23.49.38.77.07.12.19.32.34.59.16.28.29.41.41.41.02,0,.06-.01.11-.04.05-.02.08-.11.11-.25.02-.1.03-.19.02-.29s-.02-.21-.04-.34-.02-.31-.04-.52c-.01-.22-.02-.49-.02-.83,0-.22.01-.43.04-.63.02-.2.04-.41.04-.63,0-.38-.02-.74-.05-1.06-.04-.32-.04-.62-.02-.88l.04-.47c.02-.22.03-.47.02-.76l-.04-.86c-.01-.29-.02-.56-.04-.81-.01-.25-.02-.44-.02-.56v-.32c0-.31,0-.62.02-.92.01-.3.02-.61.02-.92,0-.19,0-.37-.02-.52-.01-.16,0-.33.02-.52,0-.19.05-.34.14-.43.12-.12.2-.17.25-.16.05.01.12.02.22.02l1.19.04h.34c.06,0,.11,0,.14-.02.04-.01.08-.02.13-.02h.25c.17.02.31.04.43.05.12.01.25.02.4.02h.61c.22,0,.46,0,.72-.02.26-.01.5.08.72.27.1.07.17.19.23.34.06.16.09.38.09.67,0,.19,0,.37-.02.52-.01.16-.03.47-.05.95l-.04,1.12v2.59c0,.19,0,.43-.02.72-.01.29-.02.73-.02,1.33-.02.46-.04.81-.04,1.06s-.01.55-.04.88c-.02.65-.04,1.1-.04,1.37v1.53c0,.32-.01.86-.04,1.6l-.07,3.02c0,.46,0,.85.02,1.19.01.34.04.64.07.92.04.28.07.53.11.77s.05.5.05.79l.04,1.19c0,.19,0,.37-.02.54-.01.17-.09.31-.23.43-.19.17-.46.25-.79.25-.19,0-.41-.01-.67-.04-.25-.02-.46-.04-.63-.04h-1.37c-.12,0-.36-.02-.72-.07s-.64-.22-.83-.5l-1.4-1.98c-.41-.6-.73-1.15-.95-1.64-.23-.49-.55-1.03-.95-1.6l-.9-1.3Z"/>
    <path class="st0" d="M734.92,300.07v.59c0,.06,0,.13.02.22.01.08.02.2.02.34,0,.07-.01.19-.04.34-.02.16-.08.29-.18.41-.1.1-.21.16-.34.18-.13.02-.26.04-.38.04h-.18c-.34,0-.67-.02-.99-.05-.32-.04-.65-.08-.99-.13-.19-.02-.37-.04-.54-.05-.17-.01-.32-.02-.47-.02-.38,0-.73.04-1.03.11-.3.07-.56.23-.77.47-.17.17-.28.34-.32.5-.05.17-.07.32-.07.47s.03.31.09.49c.06.18.2.41.41.7.05.07.19.22.41.45.23.23.71.63,1.46,1.21l.83.65c.48.38,1.03.85,1.64,1.39s1.13,1.23,1.57,2.07c.29.55.48,1.15.58,1.8.1.65.14,1.2.14,1.66,0,.91-.11,1.7-.34,2.38-.23.67-.52,1.25-.86,1.75-.35.49-.73.9-1.13,1.22-.41.32-.78.59-1.12.81-.46.26-1.04.5-1.75.7-.71.2-1.73.31-3.08.31h-1.06c-.42,0-.84-.02-1.26-.05s-.82-.1-1.19-.2-.67-.24-.88-.43c-.07-.07-.14-.18-.22-.32-.07-.14-.11-.3-.11-.47l.04-1.01c.02-.53.03-.92.02-1.19-.01-.26-.02-.47-.04-.61-.01-.14-.02-.26-.04-.34-.01-.08-.02-.19-.02-.31,0-.34.08-.58.25-.72.12-.1.28-.17.49-.22.2-.05.38-.07.52-.07.1,0,.25.01.45.04.2.02.43.05.67.09.24.04.46.07.67.11s.35.07.45.09c.19.05.35.08.47.09.12.01.32.02.61.02.12,0,.28,0,.47-.02.19-.01.4-.05.61-.11.22-.06.43-.15.63-.27.2-.12.38-.3.52-.54.07-.12.14-.28.22-.47.07-.19.11-.38.11-.58,0-.24-.04-.45-.11-.63-.07-.18-.16-.34-.25-.49-.19-.29-.38-.52-.56-.68s-.38-.35-.59-.54c-.58-.43-1.03-.8-1.37-1.12-.12-.12-.24-.23-.36-.34-.12-.11-.24-.22-.36-.34-.17-.14-.32-.29-.47-.43-.14-.14-.3-.29-.47-.43l-.72-.65c-.14-.14-.33-.35-.56-.63-.23-.28-.46-.62-.68-1.04-.23-.42-.42-.91-.58-1.46-.16-.55-.23-1.18-.23-1.87,0-.98.13-1.79.38-2.43s.51-1.11.77-1.42c.53-.67,1.37-1.21,2.54-1.6,1.16-.4,2.77-.59,4.81-.59.24,0,.52,0,.85.02.32.01.65.04.97.07.32.04.63.08.92.14s.53.15.72.27c.24.14.38.34.41.58.04.24.04.65.02,1.22l-.04.9Z"/>
  </g>
</svg>